%TF.GenerationSoftware,KiCad,Pcbnew,(6.0.4)*%
%TF.CreationDate,2023-07-24T13:42:22-04:00*%
%TF.ProjectId,BREAD_Slice,42524541-445f-4536-9c69-63652e6b6963,rev?*%
%TF.SameCoordinates,PX74eba40PY8552dc0*%
%TF.FileFunction,Legend,Top*%
%TF.FilePolarity,Positive*%
%FSLAX46Y46*%
G04 Gerber Fmt 4.6, Leading zero omitted, Abs format (unit mm)*
G04 Created by KiCad (PCBNEW (6.0.4)) date 2023-07-24 13:42:22*
%MOMM*%
%LPD*%
G01*
G04 APERTURE LIST*
%ADD10C,0.150000*%
%ADD11C,0.300000*%
%ADD12C,0.120000*%
%ADD13C,0.010000*%
G04 APERTURE END LIST*
D10*
X8433333Y45426191D02*
X8547619Y45388096D01*
X8738095Y45388096D01*
X8814286Y45426191D01*
X8852381Y45464286D01*
X8890476Y45540477D01*
X8890476Y45616667D01*
X8852381Y45692858D01*
X8814286Y45730953D01*
X8738095Y45769048D01*
X8585714Y45807143D01*
X8509524Y45845239D01*
X8471429Y45883334D01*
X8433333Y45959524D01*
X8433333Y46035715D01*
X8471429Y46111905D01*
X8509524Y46150000D01*
X8585714Y46188096D01*
X8776190Y46188096D01*
X8890476Y46150000D01*
X9385714Y45769048D02*
X9385714Y45388096D01*
X9119048Y46188096D02*
X9385714Y45769048D01*
X9652381Y46188096D01*
X9919048Y45388096D02*
X9919048Y46188096D01*
X10376190Y45388096D01*
X10376190Y46188096D01*
X11214286Y45464286D02*
X11176190Y45426191D01*
X11061905Y45388096D01*
X10985714Y45388096D01*
X10871429Y45426191D01*
X10795238Y45502381D01*
X10757143Y45578572D01*
X10719048Y45730953D01*
X10719048Y45845239D01*
X10757143Y45997620D01*
X10795238Y46073810D01*
X10871429Y46150000D01*
X10985714Y46188096D01*
X11061905Y46188096D01*
X11176190Y46150000D01*
X11214286Y46111905D01*
D11*
X68028571Y65154857D02*
X69242857Y65154857D01*
X69385714Y65226285D01*
X69457142Y65297714D01*
X69528571Y65440571D01*
X69528571Y65726285D01*
X69457142Y65869142D01*
X69385714Y65940571D01*
X69242857Y66011999D01*
X68028571Y66011999D01*
X69457142Y66654857D02*
X69528571Y66869142D01*
X69528571Y67226285D01*
X69457142Y67369142D01*
X69385714Y67440571D01*
X69242857Y67511999D01*
X69100000Y67511999D01*
X68957142Y67440571D01*
X68885714Y67369142D01*
X68814285Y67226285D01*
X68742857Y66940571D01*
X68671428Y66797714D01*
X68600000Y66726285D01*
X68457142Y66654857D01*
X68314285Y66654857D01*
X68171428Y66726285D01*
X68100000Y66797714D01*
X68028571Y66940571D01*
X68028571Y67297714D01*
X68100000Y67511999D01*
X68742857Y68654857D02*
X68814285Y68869142D01*
X68885714Y68940571D01*
X69028571Y69011999D01*
X69242857Y69011999D01*
X69385714Y68940571D01*
X69457142Y68869142D01*
X69528571Y68726285D01*
X69528571Y68154857D01*
X68028571Y68154857D01*
X68028571Y68654857D01*
X68100000Y68797714D01*
X68171428Y68869142D01*
X68314285Y68940571D01*
X68457142Y68940571D01*
X68600000Y68869142D01*
X68671428Y68797714D01*
X68742857Y68654857D01*
X68742857Y68154857D01*
X69528571Y70440571D02*
X69528571Y69583428D01*
X69528571Y70011999D02*
X68028571Y70011999D01*
X68242857Y69869142D01*
X68385714Y69726285D01*
X68457142Y69583428D01*
D10*
X8890476Y61400000D02*
X8814285Y61438096D01*
X8700000Y61438096D01*
X8585714Y61400000D01*
X8509523Y61323810D01*
X8471428Y61247620D01*
X8433333Y61095239D01*
X8433333Y60980953D01*
X8471428Y60828572D01*
X8509523Y60752381D01*
X8585714Y60676191D01*
X8700000Y60638096D01*
X8776190Y60638096D01*
X8890476Y60676191D01*
X8928571Y60714286D01*
X8928571Y60980953D01*
X8776190Y60980953D01*
X9271428Y60638096D02*
X9271428Y61438096D01*
X9728571Y60638096D01*
X9728571Y61438096D01*
X10109523Y60638096D02*
X10109523Y61438096D01*
X10300000Y61438096D01*
X10414285Y61400000D01*
X10490476Y61323810D01*
X10528571Y61247620D01*
X10566666Y61095239D01*
X10566666Y60980953D01*
X10528571Y60828572D01*
X10490476Y60752381D01*
X10414285Y60676191D01*
X10300000Y60638096D01*
X10109523Y60638096D01*
X8471428Y48357143D02*
X8738095Y48357143D01*
X8852380Y47938096D02*
X8471428Y47938096D01*
X8471428Y48738096D01*
X8852380Y48738096D01*
X9157142Y47976191D02*
X9271428Y47938096D01*
X9461904Y47938096D01*
X9538095Y47976191D01*
X9576190Y48014286D01*
X9614285Y48090477D01*
X9614285Y48166667D01*
X9576190Y48242858D01*
X9538095Y48280953D01*
X9461904Y48319048D01*
X9309523Y48357143D01*
X9233333Y48395239D01*
X9195238Y48433334D01*
X9157142Y48509524D01*
X9157142Y48585715D01*
X9195238Y48661905D01*
X9233333Y48700000D01*
X9309523Y48738096D01*
X9499999Y48738096D01*
X9614285Y48700000D01*
X9842857Y48738096D02*
X10299999Y48738096D01*
X10071428Y47938096D02*
X10071428Y48738096D01*
X10719047Y48738096D02*
X10871428Y48738096D01*
X10947619Y48700000D01*
X11023809Y48623810D01*
X11061904Y48471429D01*
X11061904Y48204762D01*
X11023809Y48052381D01*
X10947619Y47976191D01*
X10871428Y47938096D01*
X10719047Y47938096D01*
X10642857Y47976191D01*
X10566666Y48052381D01*
X10528571Y48204762D01*
X10528571Y48471429D01*
X10566666Y48623810D01*
X10642857Y48700000D01*
X10719047Y48738096D01*
X11404761Y47938096D02*
X11404761Y48738096D01*
X11709523Y48738096D01*
X11785714Y48700000D01*
X11823809Y48661905D01*
X11861904Y48585715D01*
X11861904Y48471429D01*
X11823809Y48395239D01*
X11785714Y48357143D01*
X11709523Y48319048D01*
X11404761Y48319048D01*
X8890476Y38550000D02*
X8814285Y38588096D01*
X8700000Y38588096D01*
X8585714Y38550000D01*
X8509523Y38473810D01*
X8471428Y38397620D01*
X8433333Y38245239D01*
X8433333Y38130953D01*
X8471428Y37978572D01*
X8509523Y37902381D01*
X8585714Y37826191D01*
X8700000Y37788096D01*
X8776190Y37788096D01*
X8890476Y37826191D01*
X8928571Y37864286D01*
X8928571Y38130953D01*
X8776190Y38130953D01*
X9271428Y37788096D02*
X9271428Y38588096D01*
X9728571Y37788096D01*
X9728571Y38588096D01*
X10109523Y37788096D02*
X10109523Y38588096D01*
X10300000Y38588096D01*
X10414285Y38550000D01*
X10490476Y38473810D01*
X10528571Y38397620D01*
X10566666Y38245239D01*
X10566666Y38130953D01*
X10528571Y37978572D01*
X10490476Y37902381D01*
X10414285Y37826191D01*
X10300000Y37788096D01*
X10109523Y37788096D01*
X8471428Y42838096D02*
X8471428Y43638096D01*
X8852380Y42838096D02*
X8852380Y43638096D01*
X9309523Y42838096D01*
X9309523Y43638096D01*
X9576190Y43638096D02*
X10033333Y43638096D01*
X9804761Y42838096D02*
X9804761Y43638096D01*
X8433334Y55576191D02*
X8547619Y55538096D01*
X8738095Y55538096D01*
X8814286Y55576191D01*
X8852381Y55614286D01*
X8890476Y55690477D01*
X8890476Y55766667D01*
X8852381Y55842858D01*
X8814286Y55880953D01*
X8738095Y55919048D01*
X8585715Y55957143D01*
X8509524Y55995239D01*
X8471429Y56033334D01*
X8433334Y56109524D01*
X8433334Y56185715D01*
X8471429Y56261905D01*
X8509524Y56300000D01*
X8585715Y56338096D01*
X8776191Y56338096D01*
X8890476Y56300000D01*
X9690476Y55614286D02*
X9652381Y55576191D01*
X9538095Y55538096D01*
X9461905Y55538096D01*
X9347619Y55576191D01*
X9271429Y55652381D01*
X9233334Y55728572D01*
X9195238Y55880953D01*
X9195238Y55995239D01*
X9233334Y56147620D01*
X9271429Y56223810D01*
X9347619Y56300000D01*
X9461905Y56338096D01*
X9538095Y56338096D01*
X9652381Y56300000D01*
X9690476Y56261905D01*
X10414286Y55538096D02*
X10033334Y55538096D01*
X10033334Y56338096D01*
X8890476Y40288096D02*
X8433334Y40288096D01*
X8661905Y40288096D02*
X8661905Y41088096D01*
X8585715Y40973810D01*
X8509524Y40897620D01*
X8433334Y40859524D01*
X9195238Y41011905D02*
X9233334Y41050000D01*
X9309524Y41088096D01*
X9500000Y41088096D01*
X9576191Y41050000D01*
X9614286Y41011905D01*
X9652381Y40935715D01*
X9652381Y40859524D01*
X9614286Y40745239D01*
X9157143Y40288096D01*
X9652381Y40288096D01*
X9880953Y41088096D02*
X10147619Y40288096D01*
X10414286Y41088096D01*
X8890476Y51200000D02*
X8814285Y51238096D01*
X8700000Y51238096D01*
X8585714Y51200000D01*
X8509523Y51123810D01*
X8471428Y51047620D01*
X8433333Y50895239D01*
X8433333Y50780953D01*
X8471428Y50628572D01*
X8509523Y50552381D01*
X8585714Y50476191D01*
X8700000Y50438096D01*
X8776190Y50438096D01*
X8890476Y50476191D01*
X8928571Y50514286D01*
X8928571Y50780953D01*
X8776190Y50780953D01*
X9271428Y50438096D02*
X9271428Y51238096D01*
X9728571Y50438096D01*
X9728571Y51238096D01*
X10109523Y50438096D02*
X10109523Y51238096D01*
X10300000Y51238096D01*
X10414285Y51200000D01*
X10490476Y51123810D01*
X10528571Y51047620D01*
X10566666Y50895239D01*
X10566666Y50780953D01*
X10528571Y50628572D01*
X10490476Y50552381D01*
X10414285Y50476191D01*
X10300000Y50438096D01*
X10109523Y50438096D01*
X8433333Y53026191D02*
X8547619Y52988096D01*
X8738095Y52988096D01*
X8814285Y53026191D01*
X8852381Y53064286D01*
X8890476Y53140477D01*
X8890476Y53216667D01*
X8852381Y53292858D01*
X8814285Y53330953D01*
X8738095Y53369048D01*
X8585714Y53407143D01*
X8509523Y53445239D01*
X8471428Y53483334D01*
X8433333Y53559524D01*
X8433333Y53635715D01*
X8471428Y53711905D01*
X8509523Y53750000D01*
X8585714Y53788096D01*
X8776190Y53788096D01*
X8890476Y53750000D01*
X9233333Y52988096D02*
X9233333Y53788096D01*
X9423809Y53788096D01*
X9538095Y53750000D01*
X9614285Y53673810D01*
X9652381Y53597620D01*
X9690476Y53445239D01*
X9690476Y53330953D01*
X9652381Y53178572D01*
X9614285Y53102381D01*
X9538095Y53026191D01*
X9423809Y52988096D01*
X9233333Y52988096D01*
X9995238Y53216667D02*
X10376190Y53216667D01*
X9919047Y52988096D02*
X10185714Y53788096D01*
X10452381Y52988096D01*
X20343333Y9892858D02*
X20343333Y10845239D01*
X20914761Y9702381D02*
X18914761Y10369048D01*
X20914761Y11035715D01*
X20914761Y12845239D02*
X19962380Y12178572D01*
X20914761Y11702381D02*
X18914761Y11702381D01*
X18914761Y12464286D01*
X19010000Y12654762D01*
X19105238Y12750000D01*
X19295714Y12845239D01*
X19581428Y12845239D01*
X19771904Y12750000D01*
X19867142Y12654762D01*
X19962380Y12464286D01*
X19962380Y11702381D01*
X20914761Y13702381D02*
X18914761Y13702381D01*
X18914761Y14178572D01*
X19010000Y14464286D01*
X19200476Y14654762D01*
X19390952Y14750000D01*
X19771904Y14845239D01*
X20057619Y14845239D01*
X20438571Y14750000D01*
X20629047Y14654762D01*
X20819523Y14464286D01*
X20914761Y14178572D01*
X20914761Y13702381D01*
X18914761Y15702381D02*
X20533809Y15702381D01*
X20724285Y15797620D01*
X20819523Y15892858D01*
X20914761Y16083334D01*
X20914761Y16464286D01*
X20819523Y16654762D01*
X20724285Y16750000D01*
X20533809Y16845239D01*
X18914761Y16845239D01*
X20914761Y17797620D02*
X18914761Y17797620D01*
X20914761Y18750000D02*
X18914761Y18750000D01*
X20914761Y19892858D01*
X18914761Y19892858D01*
X18914761Y21226191D02*
X18914761Y21607143D01*
X19010000Y21797620D01*
X19200476Y21988096D01*
X19581428Y22083334D01*
X20248095Y22083334D01*
X20629047Y21988096D01*
X20819523Y21797620D01*
X20914761Y21607143D01*
X20914761Y21226191D01*
X20819523Y21035715D01*
X20629047Y20845239D01*
X20248095Y20750000D01*
X19581428Y20750000D01*
X19200476Y20845239D01*
X19010000Y21035715D01*
X18914761Y21226191D01*
X20914761Y24464286D02*
X18914761Y24464286D01*
X20914761Y25607143D01*
X18914761Y25607143D01*
X20343333Y26464286D02*
X20343333Y27416667D01*
X20914761Y26273810D02*
X18914761Y26940477D01*
X20914761Y27607143D01*
X20914761Y28273810D02*
X18914761Y28273810D01*
X20914761Y29416667D01*
X18914761Y29416667D01*
X18914761Y30750000D02*
X18914761Y31130953D01*
X19010000Y31321429D01*
X19200476Y31511905D01*
X19581428Y31607143D01*
X20248095Y31607143D01*
X20629047Y31511905D01*
X20819523Y31321429D01*
X20914761Y31130953D01*
X20914761Y30750000D01*
X20819523Y30559524D01*
X20629047Y30369048D01*
X20248095Y30273810D01*
X19581428Y30273810D01*
X19200476Y30369048D01*
X19010000Y30559524D01*
X18914761Y30750000D01*
D11*
X68028571Y37976857D02*
X69242857Y37976857D01*
X69385714Y38048285D01*
X69457142Y38119714D01*
X69528571Y38262571D01*
X69528571Y38548285D01*
X69457142Y38691142D01*
X69385714Y38762571D01*
X69242857Y38833999D01*
X68028571Y38833999D01*
X69457142Y39476857D02*
X69528571Y39691142D01*
X69528571Y40048285D01*
X69457142Y40191142D01*
X69385714Y40262571D01*
X69242857Y40333999D01*
X69100000Y40333999D01*
X68957142Y40262571D01*
X68885714Y40191142D01*
X68814285Y40048285D01*
X68742857Y39762571D01*
X68671428Y39619714D01*
X68600000Y39548285D01*
X68457142Y39476857D01*
X68314285Y39476857D01*
X68171428Y39548285D01*
X68100000Y39619714D01*
X68028571Y39762571D01*
X68028571Y40119714D01*
X68100000Y40333999D01*
X68742857Y41476857D02*
X68814285Y41691142D01*
X68885714Y41762571D01*
X69028571Y41833999D01*
X69242857Y41833999D01*
X69385714Y41762571D01*
X69457142Y41691142D01*
X69528571Y41548285D01*
X69528571Y40976857D01*
X68028571Y40976857D01*
X68028571Y41476857D01*
X68100000Y41619714D01*
X68171428Y41691142D01*
X68314285Y41762571D01*
X68457142Y41762571D01*
X68600000Y41691142D01*
X68671428Y41619714D01*
X68742857Y41476857D01*
X68742857Y40976857D01*
X68171428Y42405428D02*
X68100000Y42476857D01*
X68028571Y42619714D01*
X68028571Y42976857D01*
X68100000Y43119714D01*
X68171428Y43191142D01*
X68314285Y43262571D01*
X68457142Y43262571D01*
X68671428Y43191142D01*
X69528571Y42333999D01*
X69528571Y43262571D01*
D10*
X8890476Y58088096D02*
X8433334Y58088096D01*
X8661905Y58088096D02*
X8661905Y58888096D01*
X8585715Y58773810D01*
X8509524Y58697620D01*
X8433334Y58659524D01*
X9195238Y58811905D02*
X9233334Y58850000D01*
X9309524Y58888096D01*
X9500000Y58888096D01*
X9576191Y58850000D01*
X9614286Y58811905D01*
X9652381Y58735715D01*
X9652381Y58659524D01*
X9614286Y58545239D01*
X9157143Y58088096D01*
X9652381Y58088096D01*
X9880953Y58888096D02*
X10147619Y58088096D01*
X10414286Y58888096D01*
X31523808Y6157620D02*
X31523808Y5348096D01*
X31571427Y5252858D01*
X31619046Y5205239D01*
X31714284Y5157620D01*
X31904760Y5157620D01*
X31999999Y5205239D01*
X32047618Y5252858D01*
X32095237Y5348096D01*
X32095237Y6157620D01*
X32523808Y5205239D02*
X32666665Y5157620D01*
X32904760Y5157620D01*
X32999999Y5205239D01*
X33047618Y5252858D01*
X33095237Y5348096D01*
X33095237Y5443334D01*
X33047618Y5538572D01*
X32999999Y5586191D01*
X32904760Y5633810D01*
X32714284Y5681429D01*
X32619046Y5729048D01*
X32571427Y5776667D01*
X32523808Y5871905D01*
X32523808Y5967143D01*
X32571427Y6062381D01*
X32619046Y6110000D01*
X32714284Y6157620D01*
X32952379Y6157620D01*
X33095237Y6110000D01*
X33857141Y5681429D02*
X33999999Y5633810D01*
X34047618Y5586191D01*
X34095237Y5490953D01*
X34095237Y5348096D01*
X34047618Y5252858D01*
X33999999Y5205239D01*
X33904760Y5157620D01*
X33523808Y5157620D01*
X33523808Y6157620D01*
X33857141Y6157620D01*
X33952379Y6110000D01*
X33999999Y6062381D01*
X34047618Y5967143D01*
X34047618Y5871905D01*
X33999999Y5776667D01*
X33952379Y5729048D01*
X33857141Y5681429D01*
X33523808Y5681429D01*
X35238094Y5205239D02*
X35380951Y5157620D01*
X35619046Y5157620D01*
X35714284Y5205239D01*
X35761903Y5252858D01*
X35809522Y5348096D01*
X35809522Y5443334D01*
X35761903Y5538572D01*
X35714284Y5586191D01*
X35619046Y5633810D01*
X35428570Y5681429D01*
X35333332Y5729048D01*
X35285713Y5776667D01*
X35238094Y5871905D01*
X35238094Y5967143D01*
X35285713Y6062381D01*
X35333332Y6110000D01*
X35428570Y6157620D01*
X35666665Y6157620D01*
X35809522Y6110000D01*
X36380951Y5157620D02*
X36285713Y5205239D01*
X36238094Y5300477D01*
X36238094Y6157620D01*
X36761903Y5157620D02*
X36761903Y5824286D01*
X36761903Y6157620D02*
X36714284Y6110000D01*
X36761903Y6062381D01*
X36809522Y6110000D01*
X36761903Y6157620D01*
X36761903Y6062381D01*
X37666665Y5205239D02*
X37571427Y5157620D01*
X37380951Y5157620D01*
X37285713Y5205239D01*
X37238094Y5252858D01*
X37190475Y5348096D01*
X37190475Y5633810D01*
X37238094Y5729048D01*
X37285713Y5776667D01*
X37380951Y5824286D01*
X37571427Y5824286D01*
X37666665Y5776667D01*
X38476189Y5205239D02*
X38380951Y5157620D01*
X38190475Y5157620D01*
X38095237Y5205239D01*
X38047618Y5300477D01*
X38047618Y5681429D01*
X38095237Y5776667D01*
X38190475Y5824286D01*
X38380951Y5824286D01*
X38476189Y5776667D01*
X38523808Y5681429D01*
X38523808Y5586191D01*
X38047618Y5490953D01*
X31428570Y3595239D02*
X31571427Y3547620D01*
X31809522Y3547620D01*
X31904760Y3595239D01*
X31952379Y3642858D01*
X31999999Y3738096D01*
X31999999Y3833334D01*
X31952379Y3928572D01*
X31904760Y3976191D01*
X31809522Y4023810D01*
X31619046Y4071429D01*
X31523808Y4119048D01*
X31476189Y4166667D01*
X31428570Y4261905D01*
X31428570Y4357143D01*
X31476189Y4452381D01*
X31523808Y4500000D01*
X31619046Y4547620D01*
X31857141Y4547620D01*
X31999999Y4500000D01*
X32904760Y3547620D02*
X32428570Y3547620D01*
X32428570Y4547620D01*
X33809522Y3642858D02*
X33761903Y3595239D01*
X33619046Y3547620D01*
X33523808Y3547620D01*
X33380951Y3595239D01*
X33285713Y3690477D01*
X33238094Y3785715D01*
X33190475Y3976191D01*
X33190475Y4119048D01*
X33238094Y4309524D01*
X33285713Y4404762D01*
X33380951Y4500000D01*
X33523808Y4547620D01*
X33619046Y4547620D01*
X33761903Y4500000D01*
X33809522Y4452381D01*
X33999999Y3452381D02*
X34761903Y3452381D01*
X34999999Y4547620D02*
X34999999Y3738096D01*
X35047618Y3642858D01*
X35095237Y3595239D01*
X35190475Y3547620D01*
X35380951Y3547620D01*
X35476189Y3595239D01*
X35523808Y3642858D01*
X35571427Y3738096D01*
X35571427Y4547620D01*
X35999999Y3595239D02*
X36142856Y3547620D01*
X36380951Y3547620D01*
X36476189Y3595239D01*
X36523808Y3642858D01*
X36571427Y3738096D01*
X36571427Y3833334D01*
X36523808Y3928572D01*
X36476189Y3976191D01*
X36380951Y4023810D01*
X36190475Y4071429D01*
X36095237Y4119048D01*
X36047618Y4166667D01*
X35999999Y4261905D01*
X35999999Y4357143D01*
X36047618Y4452381D01*
X36095237Y4500000D01*
X36190475Y4547620D01*
X36428570Y4547620D01*
X36571427Y4500000D01*
X37333332Y4071429D02*
X37476189Y4023810D01*
X37523808Y3976191D01*
X37571427Y3880953D01*
X37571427Y3738096D01*
X37523808Y3642858D01*
X37476189Y3595239D01*
X37380951Y3547620D01*
X36999999Y3547620D01*
X36999999Y4547620D01*
X37333332Y4547620D01*
X37428570Y4500000D01*
X37476189Y4452381D01*
X37523808Y4357143D01*
X37523808Y4261905D01*
X37476189Y4166667D01*
X37428570Y4119048D01*
X37333332Y4071429D01*
X36999999Y4071429D01*
X37999999Y3547620D02*
X37999999Y4547620D01*
X38380951Y4547620D01*
X38476189Y4500000D01*
X38523808Y4452381D01*
X38571427Y4357143D01*
X38571427Y4214286D01*
X38523808Y4119048D01*
X38476189Y4071429D01*
X38380951Y4023810D01*
X37999999Y4023810D01*
X32547618Y1937620D02*
X32214284Y2413810D01*
X31976189Y1937620D02*
X31976189Y2937620D01*
X32357141Y2937620D01*
X32452379Y2890000D01*
X32499999Y2842381D01*
X32547618Y2747143D01*
X32547618Y2604286D01*
X32499999Y2509048D01*
X32452379Y2461429D01*
X32357141Y2413810D01*
X31976189Y2413810D01*
X33499999Y1937620D02*
X32928570Y1937620D01*
X33214284Y1937620D02*
X33214284Y2937620D01*
X33119046Y2794762D01*
X33023808Y2699524D01*
X32928570Y2651905D01*
X34642856Y2842381D02*
X34690475Y2890000D01*
X34785713Y2937620D01*
X35023808Y2937620D01*
X35119046Y2890000D01*
X35166665Y2842381D01*
X35214284Y2747143D01*
X35214284Y2651905D01*
X35166665Y2509048D01*
X34595237Y1937620D01*
X35214284Y1937620D01*
X35833332Y2937620D02*
X35928570Y2937620D01*
X36023808Y2890000D01*
X36071427Y2842381D01*
X36119046Y2747143D01*
X36166665Y2556667D01*
X36166665Y2318572D01*
X36119046Y2128096D01*
X36071427Y2032858D01*
X36023808Y1985239D01*
X35928570Y1937620D01*
X35833332Y1937620D01*
X35738094Y1985239D01*
X35690475Y2032858D01*
X35642856Y2128096D01*
X35595237Y2318572D01*
X35595237Y2556667D01*
X35642856Y2747143D01*
X35690475Y2842381D01*
X35738094Y2890000D01*
X35833332Y2937620D01*
X36547618Y2842381D02*
X36595237Y2890000D01*
X36690475Y2937620D01*
X36928570Y2937620D01*
X37023808Y2890000D01*
X37071427Y2842381D01*
X37119046Y2747143D01*
X37119046Y2651905D01*
X37071427Y2509048D01*
X36499999Y1937620D01*
X37119046Y1937620D01*
X38071427Y1937620D02*
X37499999Y1937620D01*
X37785713Y1937620D02*
X37785713Y2937620D01*
X37690475Y2794762D01*
X37595237Y2699524D01*
X37499999Y2651905D01*
%TO.C,A1*%
X19305714Y44713334D02*
X19781904Y44713334D01*
X19210476Y44427620D02*
X19543809Y45427620D01*
X19877142Y44427620D01*
X20734285Y44427620D02*
X20162857Y44427620D01*
X20448571Y44427620D02*
X20448571Y45427620D01*
X20353333Y45284762D01*
X20258095Y45189524D01*
X20162857Y45141905D01*
%TO.C,J1*%
X2286666Y64317620D02*
X2286666Y63603334D01*
X2239047Y63460477D01*
X2143809Y63365239D01*
X2000952Y63317620D01*
X1905714Y63317620D01*
X3286666Y63317620D02*
X2715238Y63317620D01*
X3000952Y63317620D02*
X3000952Y64317620D01*
X2905714Y64174762D01*
X2810476Y64079524D01*
X2715238Y64031905D01*
%TO.C,J3*%
X50618380Y40250667D02*
X51332666Y40250667D01*
X51475523Y40203048D01*
X51570761Y40107810D01*
X51618380Y39964953D01*
X51618380Y39869715D01*
X50618380Y40631620D02*
X50618380Y41250667D01*
X50999333Y40917334D01*
X50999333Y41060191D01*
X51046952Y41155429D01*
X51094571Y41203048D01*
X51189809Y41250667D01*
X51427904Y41250667D01*
X51523142Y41203048D01*
X51570761Y41155429D01*
X51618380Y41060191D01*
X51618380Y40774477D01*
X51570761Y40679239D01*
X51523142Y40631620D01*
%TO.C,J2*%
X50364380Y67428667D02*
X51078666Y67428667D01*
X51221523Y67381048D01*
X51316761Y67285810D01*
X51364380Y67142953D01*
X51364380Y67047715D01*
X50459619Y67857239D02*
X50412000Y67904858D01*
X50364380Y68000096D01*
X50364380Y68238191D01*
X50412000Y68333429D01*
X50459619Y68381048D01*
X50554857Y68428667D01*
X50650095Y68428667D01*
X50792952Y68381048D01*
X51364380Y67809620D01*
X51364380Y68428667D01*
D12*
%TO.C,A1*%
X13670000Y38530000D02*
X13670000Y2970000D01*
X11000000Y43740000D02*
X11000000Y41070000D01*
X29040000Y43740000D02*
X11000000Y43740000D01*
X26370000Y41070000D02*
X29040000Y41070000D01*
X26370000Y2970000D02*
X29040000Y2970000D01*
X13670000Y2970000D02*
X11000000Y2970000D01*
X11000000Y300000D02*
X29040000Y300000D01*
X13670000Y41070000D02*
X11000000Y41070000D01*
X11000000Y38530000D02*
X11000000Y300000D01*
X26370000Y41070000D02*
X26370000Y2970000D01*
X13670000Y38530000D02*
X11000000Y38530000D01*
X13670000Y38530000D02*
X13670000Y41070000D01*
X29040000Y300000D02*
X29040000Y43740000D01*
%TO.C,J1*%
X-3090000Y62091905D02*
X5540000Y62091905D01*
X-3090000Y44490000D02*
X5540000Y44490000D01*
X-3090000Y60556670D02*
X5540000Y60556670D01*
X-3090000Y36810000D02*
X5540000Y36810000D01*
X5540000Y42860000D02*
X5950000Y42860000D01*
X5540000Y58100000D02*
X5950000Y58100000D01*
X5540000Y62330000D02*
X5540000Y36810000D01*
X5540000Y48660000D02*
X5950000Y48660000D01*
X5540000Y58820000D02*
X5950000Y58820000D01*
X5540000Y50480000D02*
X5950000Y50480000D01*
X5540000Y37780000D02*
X5950000Y37780000D01*
X-3090000Y60910955D02*
X5540000Y60910955D01*
X-3090000Y61855715D02*
X5540000Y61855715D01*
X5540000Y47940000D02*
X5950000Y47940000D01*
X-3090000Y62330000D02*
X5540000Y62330000D01*
X5540000Y40320000D02*
X5950000Y40320000D01*
X5540000Y60640000D02*
X5890000Y60640000D01*
X-3090000Y61383335D02*
X5540000Y61383335D01*
X5540000Y41040000D02*
X5950000Y41040000D01*
X-3090000Y61029050D02*
X5540000Y61029050D01*
X-3090000Y60084290D02*
X5540000Y60084290D01*
X-3090000Y59730000D02*
X5540000Y59730000D01*
X-3090000Y61619525D02*
X5540000Y61619525D01*
X-3090000Y54650000D02*
X5540000Y54650000D01*
X-3090000Y61501430D02*
X5540000Y61501430D01*
X5540000Y53020000D02*
X5950000Y53020000D01*
X8110000Y62330000D02*
X8110000Y61000000D01*
X5540000Y46120000D02*
X5950000Y46120000D01*
X-3090000Y62210000D02*
X5540000Y62210000D01*
X-3090000Y60320480D02*
X5540000Y60320480D01*
X5540000Y56280000D02*
X5950000Y56280000D01*
X-3090000Y60792860D02*
X5540000Y60792860D01*
X5540000Y61360000D02*
X5890000Y61360000D01*
X-3090000Y60674765D02*
X5540000Y60674765D01*
X-3090000Y57190000D02*
X5540000Y57190000D01*
X-3090000Y60202385D02*
X5540000Y60202385D01*
X-3090000Y61147145D02*
X5540000Y61147145D01*
X-3090000Y47030000D02*
X5540000Y47030000D01*
X-3090000Y39410000D02*
X5540000Y39410000D01*
X-3090000Y41950000D02*
X5540000Y41950000D01*
X-3090000Y52110000D02*
X5540000Y52110000D01*
X-3090000Y61973810D02*
X5540000Y61973810D01*
X-3090000Y60438575D02*
X5540000Y60438575D01*
X-3090000Y62330000D02*
X-3090000Y36810000D01*
X-3090000Y59966195D02*
X5540000Y59966195D01*
X5540000Y55560000D02*
X5950000Y55560000D01*
X5540000Y53740000D02*
X5950000Y53740000D01*
X5540000Y38500000D02*
X5950000Y38500000D01*
X-3090000Y61265240D02*
X5540000Y61265240D01*
X5540000Y51200000D02*
X5950000Y51200000D01*
X7000000Y62330000D02*
X8110000Y62330000D01*
X-3090000Y61737620D02*
X5540000Y61737620D01*
X5540000Y45400000D02*
X5950000Y45400000D01*
X5540000Y43580000D02*
X5950000Y43580000D01*
X-3090000Y49570000D02*
X5540000Y49570000D01*
X-3090000Y59848100D02*
X5540000Y59848100D01*
%TO.C,Logo1*%
G36*
X44555814Y6531069D02*
G01*
X44639635Y6086445D01*
X44948920Y5958947D01*
X45258206Y5831449D01*
X45629246Y6083754D01*
X45733157Y6154004D01*
X45827087Y6216728D01*
X45906652Y6269062D01*
X45967470Y6308143D01*
X46005157Y6331107D01*
X46015421Y6336058D01*
X46033910Y6323324D01*
X46073420Y6288118D01*
X46129522Y6234938D01*
X46197787Y6168282D01*
X46273786Y6092646D01*
X46353092Y6012528D01*
X46431275Y5932426D01*
X46503907Y5856836D01*
X46566559Y5790255D01*
X46614803Y5737182D01*
X46644210Y5702113D01*
X46651241Y5690377D01*
X46641123Y5668740D01*
X46612759Y5621338D01*
X46569129Y5552807D01*
X46513218Y5467785D01*
X46448006Y5370907D01*
X46410219Y5315650D01*
X46341343Y5214752D01*
X46280140Y5123701D01*
X46229578Y5047030D01*
X46192628Y4989272D01*
X46172258Y4954957D01*
X46169197Y4947746D01*
X46176136Y4927252D01*
X46195051Y4879487D01*
X46223087Y4811168D01*
X46257391Y4729011D01*
X46295109Y4639730D01*
X46333387Y4550042D01*
X46369370Y4466662D01*
X46400206Y4396306D01*
X46423039Y4345690D01*
X46435017Y4321529D01*
X46435724Y4320578D01*
X46454531Y4315964D01*
X46504618Y4305672D01*
X46580793Y4290713D01*
X46677865Y4272099D01*
X46790643Y4250841D01*
X46856442Y4238582D01*
X46976950Y4215638D01*
X47085797Y4193805D01*
X47177476Y4174278D01*
X47246481Y4158252D01*
X47287304Y4146921D01*
X47295511Y4143326D01*
X47303548Y4118994D01*
X47310033Y4064041D01*
X47314970Y3984892D01*
X47318364Y3887974D01*
X47320218Y3779713D01*
X47320538Y3666535D01*
X47319327Y3554865D01*
X47316590Y3451132D01*
X47312331Y3361759D01*
X47306555Y3293174D01*
X47299267Y3251803D01*
X47294895Y3243190D01*
X47268764Y3232867D01*
X47213393Y3218108D01*
X47136107Y3200648D01*
X47044230Y3182220D01*
X47012158Y3176259D01*
X46857524Y3147934D01*
X46735375Y3125124D01*
X46641673Y3106920D01*
X46572384Y3092417D01*
X46523471Y3080708D01*
X46490897Y3070885D01*
X46470628Y3062044D01*
X46458626Y3053276D01*
X46456947Y3051543D01*
X46440184Y3023629D01*
X46414614Y2969305D01*
X46382788Y2895223D01*
X46347260Y2808035D01*
X46310583Y2714392D01*
X46275311Y2620948D01*
X46243996Y2534353D01*
X46219193Y2461260D01*
X46203454Y2408322D01*
X46199332Y2382189D01*
X46199676Y2381274D01*
X46213641Y2359914D01*
X46245322Y2312916D01*
X46291391Y2245173D01*
X46348518Y2161577D01*
X46413373Y2067018D01*
X46431843Y2040146D01*
X46497699Y1942725D01*
X46555650Y1853837D01*
X46602538Y1778588D01*
X46635207Y1722080D01*
X46650500Y1689419D01*
X46651241Y1685407D01*
X46638392Y1664316D01*
X46602888Y1622536D01*
X46549293Y1564555D01*
X46482171Y1494865D01*
X46406087Y1417955D01*
X46325604Y1338317D01*
X46245287Y1260439D01*
X46169699Y1188814D01*
X46103405Y1127930D01*
X46050969Y1082279D01*
X46016955Y1056350D01*
X46007545Y1052117D01*
X45985643Y1062088D01*
X45940800Y1088980D01*
X45880321Y1128264D01*
X45833789Y1159883D01*
X45749475Y1217902D01*
X45649626Y1286216D01*
X45549473Y1354421D01*
X45495627Y1390925D01*
X45313371Y1514200D01*
X45160381Y1431480D01*
X45090682Y1395241D01*
X45031414Y1367074D01*
X44991311Y1351009D01*
X44981103Y1348774D01*
X44968829Y1365278D01*
X44944613Y1411918D01*
X44910263Y1484391D01*
X44867588Y1578394D01*
X44818394Y1689626D01*
X44764490Y1813785D01*
X44707684Y1946568D01*
X44649782Y2083673D01*
X44592593Y2220798D01*
X44537924Y2353642D01*
X44487584Y2477902D01*
X44443380Y2589275D01*
X44407119Y2683461D01*
X44380609Y2756156D01*
X44365658Y2803059D01*
X44363254Y2819167D01*
X44382311Y2839714D01*
X44424036Y2873067D01*
X44479706Y2912298D01*
X44484378Y2915401D01*
X44628264Y3030577D01*
X44744283Y3164947D01*
X44831430Y3314216D01*
X44888699Y3474087D01*
X44915086Y3640263D01*
X44909585Y3808448D01*
X44871190Y3974345D01*
X44798895Y4133658D01*
X44777626Y4168513D01*
X44666996Y4309263D01*
X44536302Y4422286D01*
X44390064Y4506997D01*
X44232808Y4562806D01*
X44069057Y4589126D01*
X43903333Y4585370D01*
X43740162Y4550950D01*
X43584065Y4485277D01*
X43439567Y4387765D01*
X43394869Y4348187D01*
X43281112Y4224297D01*
X43198218Y4093876D01*
X43141356Y3947685D01*
X43109687Y3802912D01*
X43101869Y3640140D01*
X43127938Y3476560D01*
X43185245Y3317702D01*
X43271144Y3169094D01*
X43382986Y3036265D01*
X43518123Y2924744D01*
X43535883Y2912989D01*
X43592150Y2874492D01*
X43634923Y2841137D01*
X43655372Y2819840D01*
X43655669Y2819167D01*
X43651279Y2796129D01*
X43633876Y2743843D01*
X43605268Y2666610D01*
X43567265Y2568732D01*
X43521674Y2454509D01*
X43470303Y2328242D01*
X43414962Y2194233D01*
X43357458Y2056782D01*
X43299601Y1920192D01*
X43243198Y1788763D01*
X43190058Y1666795D01*
X43141990Y1558591D01*
X43100801Y1468451D01*
X43068301Y1400677D01*
X43046297Y1359570D01*
X43037436Y1348774D01*
X43010360Y1357181D01*
X42959697Y1379728D01*
X42894183Y1412387D01*
X42858159Y1431480D01*
X42705168Y1514200D01*
X42522912Y1390925D01*
X42429875Y1327772D01*
X42328015Y1258273D01*
X42232562Y1192835D01*
X42184750Y1159883D01*
X42117505Y1114727D01*
X42060564Y1078943D01*
X42021354Y1057062D01*
X42008619Y1052437D01*
X41990083Y1064915D01*
X41949059Y1099748D01*
X41889525Y1153322D01*
X41815458Y1222017D01*
X41730835Y1302219D01*
X41677315Y1353714D01*
X41583681Y1445714D01*
X41502759Y1528001D01*
X41437823Y1597055D01*
X41392142Y1649356D01*
X41368989Y1681384D01*
X41366768Y1687884D01*
X41377076Y1712606D01*
X41405561Y1762595D01*
X41449063Y1832788D01*
X41504423Y1918125D01*
X41568480Y2013544D01*
X41586697Y2040146D01*
X41653073Y2136833D01*
X41712622Y2223883D01*
X41762016Y2296405D01*
X41797925Y2349507D01*
X41817019Y2378297D01*
X41818864Y2381274D01*
X41816105Y2404218D01*
X41801462Y2454664D01*
X41777487Y2525959D01*
X41746734Y2611453D01*
X41711756Y2704493D01*
X41675107Y2798426D01*
X41639339Y2886601D01*
X41607006Y2962366D01*
X41580662Y3019069D01*
X41562858Y3050057D01*
X41561593Y3051543D01*
X41550706Y3060399D01*
X41532318Y3069157D01*
X41502394Y3078723D01*
X41456897Y3090004D01*
X41391791Y3103907D01*
X41303039Y3121337D01*
X41186607Y3143202D01*
X41038458Y3170409D01*
X41006382Y3176259D01*
X40911314Y3194626D01*
X40828435Y3212595D01*
X40765070Y3228431D01*
X40728542Y3240400D01*
X40723644Y3243190D01*
X40715573Y3267928D01*
X40709013Y3323210D01*
X40703967Y3402611D01*
X40700441Y3499704D01*
X40698439Y3608062D01*
X40697964Y3721260D01*
X40699023Y3832872D01*
X40701618Y3936471D01*
X40705754Y4025632D01*
X40711437Y4093928D01*
X40718669Y4134934D01*
X40723029Y4143326D01*
X40747302Y4151792D01*
X40802574Y4165565D01*
X40883338Y4183450D01*
X40984088Y4204252D01*
X41099317Y4226777D01*
X41162098Y4238582D01*
X41281213Y4260849D01*
X41387435Y4281021D01*
X41475573Y4298085D01*
X41540434Y4311031D01*
X41576826Y4318845D01*
X41582816Y4320578D01*
X41592939Y4340110D01*
X41614338Y4387157D01*
X41644161Y4454997D01*
X41679555Y4536909D01*
X41717668Y4626172D01*
X41755647Y4716065D01*
X41790640Y4799865D01*
X41819794Y4870853D01*
X41840257Y4922306D01*
X41849177Y4947503D01*
X41849343Y4948604D01*
X41839231Y4968481D01*
X41810883Y5014223D01*
X41767277Y5081283D01*
X41711394Y5165116D01*
X41646213Y5261174D01*
X41608321Y5316350D01*
X41539275Y5417519D01*
X41477950Y5509370D01*
X41427337Y5587256D01*
X41390429Y5646531D01*
X41370218Y5682549D01*
X41367299Y5690623D01*
X41379847Y5709416D01*
X41414537Y5749543D01*
X41466937Y5806507D01*
X41532616Y5875815D01*
X41607144Y5952969D01*
X41686087Y6033475D01*
X41765017Y6112837D01*
X41839500Y6186560D01*
X41905106Y6250148D01*
X41957404Y6299106D01*
X41991961Y6328939D01*
X42003522Y6336058D01*
X42022346Y6326047D01*
X42067369Y6297922D01*
X42134213Y6254546D01*
X42218501Y6198782D01*
X42315856Y6133494D01*
X42389293Y6083754D01*
X42760333Y5831449D01*
X43378905Y6086445D01*
X43462725Y6531069D01*
X43546546Y6975693D01*
X44471994Y6975693D01*
X44555814Y6531069D01*
G37*
D13*
X44555814Y6531069D02*
X44639635Y6086445D01*
X44948920Y5958947D01*
X45258206Y5831449D01*
X45629246Y6083754D01*
X45733157Y6154004D01*
X45827087Y6216728D01*
X45906652Y6269062D01*
X45967470Y6308143D01*
X46005157Y6331107D01*
X46015421Y6336058D01*
X46033910Y6323324D01*
X46073420Y6288118D01*
X46129522Y6234938D01*
X46197787Y6168282D01*
X46273786Y6092646D01*
X46353092Y6012528D01*
X46431275Y5932426D01*
X46503907Y5856836D01*
X46566559Y5790255D01*
X46614803Y5737182D01*
X46644210Y5702113D01*
X46651241Y5690377D01*
X46641123Y5668740D01*
X46612759Y5621338D01*
X46569129Y5552807D01*
X46513218Y5467785D01*
X46448006Y5370907D01*
X46410219Y5315650D01*
X46341343Y5214752D01*
X46280140Y5123701D01*
X46229578Y5047030D01*
X46192628Y4989272D01*
X46172258Y4954957D01*
X46169197Y4947746D01*
X46176136Y4927252D01*
X46195051Y4879487D01*
X46223087Y4811168D01*
X46257391Y4729011D01*
X46295109Y4639730D01*
X46333387Y4550042D01*
X46369370Y4466662D01*
X46400206Y4396306D01*
X46423039Y4345690D01*
X46435017Y4321529D01*
X46435724Y4320578D01*
X46454531Y4315964D01*
X46504618Y4305672D01*
X46580793Y4290713D01*
X46677865Y4272099D01*
X46790643Y4250841D01*
X46856442Y4238582D01*
X46976950Y4215638D01*
X47085797Y4193805D01*
X47177476Y4174278D01*
X47246481Y4158252D01*
X47287304Y4146921D01*
X47295511Y4143326D01*
X47303548Y4118994D01*
X47310033Y4064041D01*
X47314970Y3984892D01*
X47318364Y3887974D01*
X47320218Y3779713D01*
X47320538Y3666535D01*
X47319327Y3554865D01*
X47316590Y3451132D01*
X47312331Y3361759D01*
X47306555Y3293174D01*
X47299267Y3251803D01*
X47294895Y3243190D01*
X47268764Y3232867D01*
X47213393Y3218108D01*
X47136107Y3200648D01*
X47044230Y3182220D01*
X47012158Y3176259D01*
X46857524Y3147934D01*
X46735375Y3125124D01*
X46641673Y3106920D01*
X46572384Y3092417D01*
X46523471Y3080708D01*
X46490897Y3070885D01*
X46470628Y3062044D01*
X46458626Y3053276D01*
X46456947Y3051543D01*
X46440184Y3023629D01*
X46414614Y2969305D01*
X46382788Y2895223D01*
X46347260Y2808035D01*
X46310583Y2714392D01*
X46275311Y2620948D01*
X46243996Y2534353D01*
X46219193Y2461260D01*
X46203454Y2408322D01*
X46199332Y2382189D01*
X46199676Y2381274D01*
X46213641Y2359914D01*
X46245322Y2312916D01*
X46291391Y2245173D01*
X46348518Y2161577D01*
X46413373Y2067018D01*
X46431843Y2040146D01*
X46497699Y1942725D01*
X46555650Y1853837D01*
X46602538Y1778588D01*
X46635207Y1722080D01*
X46650500Y1689419D01*
X46651241Y1685407D01*
X46638392Y1664316D01*
X46602888Y1622536D01*
X46549293Y1564555D01*
X46482171Y1494865D01*
X46406087Y1417955D01*
X46325604Y1338317D01*
X46245287Y1260439D01*
X46169699Y1188814D01*
X46103405Y1127930D01*
X46050969Y1082279D01*
X46016955Y1056350D01*
X46007545Y1052117D01*
X45985643Y1062088D01*
X45940800Y1088980D01*
X45880321Y1128264D01*
X45833789Y1159883D01*
X45749475Y1217902D01*
X45649626Y1286216D01*
X45549473Y1354421D01*
X45495627Y1390925D01*
X45313371Y1514200D01*
X45160381Y1431480D01*
X45090682Y1395241D01*
X45031414Y1367074D01*
X44991311Y1351009D01*
X44981103Y1348774D01*
X44968829Y1365278D01*
X44944613Y1411918D01*
X44910263Y1484391D01*
X44867588Y1578394D01*
X44818394Y1689626D01*
X44764490Y1813785D01*
X44707684Y1946568D01*
X44649782Y2083673D01*
X44592593Y2220798D01*
X44537924Y2353642D01*
X44487584Y2477902D01*
X44443380Y2589275D01*
X44407119Y2683461D01*
X44380609Y2756156D01*
X44365658Y2803059D01*
X44363254Y2819167D01*
X44382311Y2839714D01*
X44424036Y2873067D01*
X44479706Y2912298D01*
X44484378Y2915401D01*
X44628264Y3030577D01*
X44744283Y3164947D01*
X44831430Y3314216D01*
X44888699Y3474087D01*
X44915086Y3640263D01*
X44909585Y3808448D01*
X44871190Y3974345D01*
X44798895Y4133658D01*
X44777626Y4168513D01*
X44666996Y4309263D01*
X44536302Y4422286D01*
X44390064Y4506997D01*
X44232808Y4562806D01*
X44069057Y4589126D01*
X43903333Y4585370D01*
X43740162Y4550950D01*
X43584065Y4485277D01*
X43439567Y4387765D01*
X43394869Y4348187D01*
X43281112Y4224297D01*
X43198218Y4093876D01*
X43141356Y3947685D01*
X43109687Y3802912D01*
X43101869Y3640140D01*
X43127938Y3476560D01*
X43185245Y3317702D01*
X43271144Y3169094D01*
X43382986Y3036265D01*
X43518123Y2924744D01*
X43535883Y2912989D01*
X43592150Y2874492D01*
X43634923Y2841137D01*
X43655372Y2819840D01*
X43655669Y2819167D01*
X43651279Y2796129D01*
X43633876Y2743843D01*
X43605268Y2666610D01*
X43567265Y2568732D01*
X43521674Y2454509D01*
X43470303Y2328242D01*
X43414962Y2194233D01*
X43357458Y2056782D01*
X43299601Y1920192D01*
X43243198Y1788763D01*
X43190058Y1666795D01*
X43141990Y1558591D01*
X43100801Y1468451D01*
X43068301Y1400677D01*
X43046297Y1359570D01*
X43037436Y1348774D01*
X43010360Y1357181D01*
X42959697Y1379728D01*
X42894183Y1412387D01*
X42858159Y1431480D01*
X42705168Y1514200D01*
X42522912Y1390925D01*
X42429875Y1327772D01*
X42328015Y1258273D01*
X42232562Y1192835D01*
X42184750Y1159883D01*
X42117505Y1114727D01*
X42060564Y1078943D01*
X42021354Y1057062D01*
X42008619Y1052437D01*
X41990083Y1064915D01*
X41949059Y1099748D01*
X41889525Y1153322D01*
X41815458Y1222017D01*
X41730835Y1302219D01*
X41677315Y1353714D01*
X41583681Y1445714D01*
X41502759Y1528001D01*
X41437823Y1597055D01*
X41392142Y1649356D01*
X41368989Y1681384D01*
X41366768Y1687884D01*
X41377076Y1712606D01*
X41405561Y1762595D01*
X41449063Y1832788D01*
X41504423Y1918125D01*
X41568480Y2013544D01*
X41586697Y2040146D01*
X41653073Y2136833D01*
X41712622Y2223883D01*
X41762016Y2296405D01*
X41797925Y2349507D01*
X41817019Y2378297D01*
X41818864Y2381274D01*
X41816105Y2404218D01*
X41801462Y2454664D01*
X41777487Y2525959D01*
X41746734Y2611453D01*
X41711756Y2704493D01*
X41675107Y2798426D01*
X41639339Y2886601D01*
X41607006Y2962366D01*
X41580662Y3019069D01*
X41562858Y3050057D01*
X41561593Y3051543D01*
X41550706Y3060399D01*
X41532318Y3069157D01*
X41502394Y3078723D01*
X41456897Y3090004D01*
X41391791Y3103907D01*
X41303039Y3121337D01*
X41186607Y3143202D01*
X41038458Y3170409D01*
X41006382Y3176259D01*
X40911314Y3194626D01*
X40828435Y3212595D01*
X40765070Y3228431D01*
X40728542Y3240400D01*
X40723644Y3243190D01*
X40715573Y3267928D01*
X40709013Y3323210D01*
X40703967Y3402611D01*
X40700441Y3499704D01*
X40698439Y3608062D01*
X40697964Y3721260D01*
X40699023Y3832872D01*
X40701618Y3936471D01*
X40705754Y4025632D01*
X40711437Y4093928D01*
X40718669Y4134934D01*
X40723029Y4143326D01*
X40747302Y4151792D01*
X40802574Y4165565D01*
X40883338Y4183450D01*
X40984088Y4204252D01*
X41099317Y4226777D01*
X41162098Y4238582D01*
X41281213Y4260849D01*
X41387435Y4281021D01*
X41475573Y4298085D01*
X41540434Y4311031D01*
X41576826Y4318845D01*
X41582816Y4320578D01*
X41592939Y4340110D01*
X41614338Y4387157D01*
X41644161Y4454997D01*
X41679555Y4536909D01*
X41717668Y4626172D01*
X41755647Y4716065D01*
X41790640Y4799865D01*
X41819794Y4870853D01*
X41840257Y4922306D01*
X41849177Y4947503D01*
X41849343Y4948604D01*
X41839231Y4968481D01*
X41810883Y5014223D01*
X41767277Y5081283D01*
X41711394Y5165116D01*
X41646213Y5261174D01*
X41608321Y5316350D01*
X41539275Y5417519D01*
X41477950Y5509370D01*
X41427337Y5587256D01*
X41390429Y5646531D01*
X41370218Y5682549D01*
X41367299Y5690623D01*
X41379847Y5709416D01*
X41414537Y5749543D01*
X41466937Y5806507D01*
X41532616Y5875815D01*
X41607144Y5952969D01*
X41686087Y6033475D01*
X41765017Y6112837D01*
X41839500Y6186560D01*
X41905106Y6250148D01*
X41957404Y6299106D01*
X41991961Y6328939D01*
X42003522Y6336058D01*
X42022346Y6326047D01*
X42067369Y6297922D01*
X42134213Y6254546D01*
X42218501Y6198782D01*
X42315856Y6133494D01*
X42389293Y6083754D01*
X42760333Y5831449D01*
X43378905Y6086445D01*
X43462725Y6531069D01*
X43546546Y6975693D01*
X44471994Y6975693D01*
X44555814Y6531069D01*
D12*
%TO.C,J3*%
X67456000Y47894000D02*
X66936000Y47894000D01*
X51976000Y33924000D02*
X51976000Y47244000D01*
X66936000Y33924000D02*
X58826000Y33924000D01*
X66936000Y47894000D02*
X66936000Y47244000D01*
X66936000Y33924000D02*
X66936000Y33274000D01*
X58826000Y47244000D02*
X66936000Y47244000D01*
X66936000Y33274000D02*
X67456000Y33274000D01*
X67456000Y33274000D02*
X67456000Y47894000D01*
X51756000Y36184000D02*
X51756000Y37984000D01*
X51976000Y47244000D02*
X55306000Y47244000D01*
X51976000Y33924000D02*
X55306000Y33924000D01*
%TO.C,J2*%
X51722000Y74422000D02*
X55052000Y74422000D01*
X51722000Y61102000D02*
X51722000Y74422000D01*
X51502000Y63362000D02*
X51502000Y65162000D01*
X51722000Y61102000D02*
X55052000Y61102000D01*
X66682000Y75072000D02*
X66682000Y74422000D01*
X66682000Y61102000D02*
X58572000Y61102000D01*
X66682000Y60452000D02*
X67202000Y60452000D01*
X67202000Y75072000D02*
X66682000Y75072000D01*
X67202000Y60452000D02*
X67202000Y75072000D01*
X58572000Y74422000D02*
X66682000Y74422000D01*
X66682000Y61102000D02*
X66682000Y60452000D01*
%TD*%
M02*
