%TF.GenerationSoftware,KiCad,Pcbnew,(6.0.4)*%
%TF.CreationDate,2023-07-24T13:42:22-04:00*%
%TF.ProjectId,BREAD_Slice,42524541-445f-4536-9c69-63652e6b6963,rev?*%
%TF.SameCoordinates,PX74eba40PY8552dc0*%
%TF.FileFunction,Soldermask,Bot*%
%TF.FilePolarity,Negative*%
%FSLAX46Y46*%
G04 Gerber Fmt 4.6, Leading zero omitted, Abs format (unit mm)*
G04 Created by KiCad (PCBNEW (6.0.4)) date 2023-07-24 13:42:22*
%MOMM*%
%LPD*%
G01*
G04 APERTURE LIST*
G04 Aperture macros list*
%AMRoundRect*
0 Rectangle with rounded corners*
0 $1 Rounding radius*
0 $2 $3 $4 $5 $6 $7 $8 $9 X,Y pos of 4 corners*
0 Add a 4 corners polygon primitive as box body*
4,1,4,$2,$3,$4,$5,$6,$7,$8,$9,$2,$3,0*
0 Add four circle primitives for the rounded corners*
1,1,$1+$1,$2,$3*
1,1,$1+$1,$4,$5*
1,1,$1+$1,$6,$7*
1,1,$1+$1,$8,$9*
0 Add four rect primitives between the rounded corners*
20,1,$1+$1,$2,$3,$4,$5,0*
20,1,$1+$1,$4,$5,$6,$7,0*
20,1,$1+$1,$6,$7,$8,$9,0*
20,1,$1+$1,$8,$9,$2,$3,0*%
G04 Aperture macros list end*
%ADD10C,5.700000*%
%ADD11RoundRect,0.050000X-0.800000X-0.800000X0.800000X-0.800000X0.800000X0.800000X-0.800000X0.800000X0*%
%ADD12O,1.700000X1.700000*%
%ADD13RoundRect,0.050000X-0.850000X-0.850000X0.850000X-0.850000X0.850000X0.850000X-0.850000X0.850000X0*%
%ADD14O,1.800000X1.800000*%
%ADD15RoundRect,0.050000X0.750000X-0.800000X0.750000X0.800000X-0.750000X0.800000X-0.750000X-0.800000X0*%
%ADD16C,1.700000*%
%ADD17C,3.100000*%
%ADD18RoundRect,0.050000X-1.385000X-1.175000X1.385000X-1.175000X1.385000X1.175000X-1.385000X1.175000X0*%
%ADD19RoundRect,0.050000X-1.175000X1.385000X-1.175000X-1.385000X1.175000X-1.385000X1.175000X1.385000X0*%
%ADD20RoundRect,0.300000X0.412500X0.650000X-0.412500X0.650000X-0.412500X-0.650000X0.412500X-0.650000X0*%
%ADD21RoundRect,0.050000X-0.850000X1.000000X-0.850000X-1.000000X0.850000X-1.000000X0.850000X1.000000X0*%
%ADD22RoundRect,0.050000X-1.000000X-0.850000X1.000000X-0.850000X1.000000X0.850000X-1.000000X0.850000X0*%
%ADD23RoundRect,0.050000X-0.700000X-0.150000X0.700000X-0.150000X0.700000X0.150000X-0.700000X0.150000X0*%
%ADD24RoundRect,0.050000X-0.875000X-0.225000X0.875000X-0.225000X0.875000X0.225000X-0.875000X0.225000X0*%
%ADD25RoundRect,0.300000X-0.625000X0.400000X-0.625000X-0.400000X0.625000X-0.400000X0.625000X0.400000X0*%
G04 APERTURE END LIST*
D10*
%TO.C,H1*%
X5000000Y95000000D03*
%TD*%
%TO.C,H2*%
X65000000Y95000000D03*
%TD*%
%TO.C,H3*%
X5000000Y5000000D03*
%TD*%
%TO.C,H4*%
X65000000Y5000000D03*
%TD*%
D11*
%TO.C,A1*%
X12400000Y39800000D03*
D12*
X12400000Y37260000D03*
X12400000Y34720000D03*
X12400000Y32180000D03*
X12400000Y29640000D03*
X12400000Y27100000D03*
X12400000Y24560000D03*
X12400000Y22020000D03*
X12400000Y19480000D03*
X12400000Y16940000D03*
X12400000Y14400000D03*
X12400000Y11860000D03*
X12400000Y9320000D03*
X12400000Y6780000D03*
X12400000Y4240000D03*
X27640000Y4240000D03*
X27640000Y6780000D03*
X27640000Y9320000D03*
X27640000Y11860000D03*
X27640000Y14400000D03*
X27640000Y16940000D03*
X27640000Y19480000D03*
X27640000Y22020000D03*
X27640000Y24560000D03*
X27640000Y27100000D03*
X27640000Y29640000D03*
X27640000Y32180000D03*
X27640000Y34720000D03*
X27640000Y37260000D03*
X27640000Y39800000D03*
%TD*%
D13*
%TO.C,J1*%
X7000000Y61000000D03*
D14*
X7000000Y58460000D03*
X7000000Y55920000D03*
X7000000Y53380000D03*
X7000000Y50840000D03*
X7000000Y48300000D03*
X7000000Y45760000D03*
X7000000Y43220000D03*
X7000000Y40680000D03*
X7000000Y38140000D03*
%TD*%
D15*
%TO.C,J3*%
X54356000Y37084000D03*
D16*
X54356000Y39584000D03*
X54356000Y41584000D03*
X54356000Y44084000D03*
D17*
X57066000Y34014000D03*
X57066000Y47154000D03*
%TD*%
D15*
%TO.C,J2*%
X54102000Y64262000D03*
D16*
X54102000Y66762000D03*
X54102000Y68762000D03*
X54102000Y71262000D03*
D17*
X56812000Y61192000D03*
X56812000Y74332000D03*
%TD*%
D18*
%TO.C,C2*%
X32430000Y32000000D03*
X37570000Y32000000D03*
%TD*%
%TO.C,C1*%
X32430000Y40800000D03*
X37570000Y40800000D03*
%TD*%
D19*
%TO.C,C3*%
X16764000Y82580000D03*
X16764000Y77440000D03*
%TD*%
D20*
%TO.C,C4*%
X34709500Y90297000D03*
X31584500Y90297000D03*
%TD*%
D21*
%TO.C,FB1*%
X16764000Y90265000D03*
X16764000Y86265000D03*
%TD*%
D22*
%TO.C,R1*%
X20733000Y90297000D03*
X24733000Y90297000D03*
%TD*%
D23*
%TO.C,U1*%
X59395000Y53610000D03*
X59395000Y54110000D03*
X59395000Y54610000D03*
X59395000Y55110000D03*
X59395000Y55610000D03*
X63795000Y55610000D03*
X63795000Y55110000D03*
X63795000Y54610000D03*
X63795000Y54110000D03*
X63795000Y53610000D03*
%TD*%
D24*
%TO.C,U2*%
X28531000Y76166000D03*
X28531000Y76816000D03*
X28531000Y77466000D03*
X28531000Y78116000D03*
X28531000Y78766000D03*
X28531000Y79416000D03*
X28531000Y80066000D03*
X28531000Y80716000D03*
X28531000Y81366000D03*
X28531000Y82016000D03*
X28531000Y82666000D03*
X28531000Y83316000D03*
X28531000Y83966000D03*
X28531000Y84616000D03*
X35731000Y84616000D03*
X35731000Y83966000D03*
X35731000Y83316000D03*
X35731000Y82666000D03*
X35731000Y82016000D03*
X35731000Y81366000D03*
X35731000Y80716000D03*
X35731000Y80066000D03*
X35731000Y79416000D03*
X35731000Y78766000D03*
X35731000Y78116000D03*
X35731000Y77466000D03*
X35731000Y76816000D03*
X35731000Y76166000D03*
%TD*%
D20*
%TO.C,C5*%
X25162500Y70500000D03*
X22037500Y70500000D03*
%TD*%
D25*
%TO.C,R2*%
X22050000Y77450000D03*
X22050000Y74350000D03*
%TD*%
M02*
