%TF.GenerationSoftware,KiCad,Pcbnew,(6.0.4)*%
%TF.CreationDate,2023-07-24T13:42:22-04:00*%
%TF.ProjectId,BREAD_Slice,42524541-445f-4536-9c69-63652e6b6963,rev?*%
%TF.SameCoordinates,PX74eba40PY8552dc0*%
%TF.FileFunction,Copper,L2,Bot*%
%TF.FilePolarity,Positive*%
%FSLAX46Y46*%
G04 Gerber Fmt 4.6, Leading zero omitted, Abs format (unit mm)*
G04 Created by KiCad (PCBNEW (6.0.4)) date 2023-07-24 13:42:22*
%MOMM*%
%LPD*%
G01*
G04 APERTURE LIST*
G04 Aperture macros list*
%AMRoundRect*
0 Rectangle with rounded corners*
0 $1 Rounding radius*
0 $2 $3 $4 $5 $6 $7 $8 $9 X,Y pos of 4 corners*
0 Add a 4 corners polygon primitive as box body*
4,1,4,$2,$3,$4,$5,$6,$7,$8,$9,$2,$3,0*
0 Add four circle primitives for the rounded corners*
1,1,$1+$1,$2,$3*
1,1,$1+$1,$4,$5*
1,1,$1+$1,$6,$7*
1,1,$1+$1,$8,$9*
0 Add four rect primitives between the rounded corners*
20,1,$1+$1,$2,$3,$4,$5,0*
20,1,$1+$1,$4,$5,$6,$7,0*
20,1,$1+$1,$6,$7,$8,$9,0*
20,1,$1+$1,$8,$9,$2,$3,0*%
G04 Aperture macros list end*
%TA.AperFunction,ComponentPad*%
%ADD10C,5.600000*%
%TD*%
%TA.AperFunction,ComponentPad*%
%ADD11R,1.600000X1.600000*%
%TD*%
%TA.AperFunction,ComponentPad*%
%ADD12O,1.600000X1.600000*%
%TD*%
%TA.AperFunction,ComponentPad*%
%ADD13R,1.700000X1.700000*%
%TD*%
%TA.AperFunction,ComponentPad*%
%ADD14O,1.700000X1.700000*%
%TD*%
%TA.AperFunction,ComponentPad*%
%ADD15R,1.500000X1.600000*%
%TD*%
%TA.AperFunction,ComponentPad*%
%ADD16C,1.600000*%
%TD*%
%TA.AperFunction,ComponentPad*%
%ADD17C,3.000000*%
%TD*%
%TA.AperFunction,SMDPad,CuDef*%
%ADD18R,2.770000X2.350000*%
%TD*%
%TA.AperFunction,SMDPad,CuDef*%
%ADD19R,2.350000X2.770000*%
%TD*%
%TA.AperFunction,SMDPad,CuDef*%
%ADD20RoundRect,0.250000X0.412500X0.650000X-0.412500X0.650000X-0.412500X-0.650000X0.412500X-0.650000X0*%
%TD*%
%TA.AperFunction,SMDPad,CuDef*%
%ADD21R,1.700000X2.000000*%
%TD*%
%TA.AperFunction,SMDPad,CuDef*%
%ADD22R,2.000000X1.700000*%
%TD*%
%TA.AperFunction,SMDPad,CuDef*%
%ADD23R,1.400000X0.300000*%
%TD*%
%TA.AperFunction,SMDPad,CuDef*%
%ADD24R,1.750000X0.450000*%
%TD*%
%TA.AperFunction,SMDPad,CuDef*%
%ADD25RoundRect,0.250000X-0.625000X0.400000X-0.625000X-0.400000X0.625000X-0.400000X0.625000X0.400000X0*%
%TD*%
%TA.AperFunction,ViaPad*%
%ADD26C,0.800000*%
%TD*%
%TA.AperFunction,Conductor*%
%ADD27C,0.250000*%
%TD*%
%TA.AperFunction,Conductor*%
%ADD28C,1.500000*%
%TD*%
%TA.AperFunction,Conductor*%
%ADD29C,0.500000*%
%TD*%
G04 APERTURE END LIST*
D10*
%TO.P,H1,1*%
%TO.N,N/C*%
X5000000Y95000000D03*
%TD*%
%TO.P,H2,1*%
%TO.N,N/C*%
X65000000Y95000000D03*
%TD*%
%TO.P,H3,1*%
%TO.N,N/C*%
X5000000Y5000000D03*
%TD*%
%TO.P,H4,1*%
%TO.N,N/C*%
X65000000Y5000000D03*
%TD*%
D11*
%TO.P,A1,1,D1/TX*%
%TO.N,/TR*%
X12400000Y39800000D03*
D12*
%TO.P,A1,2,D0/RX*%
%TO.N,/RT*%
X12400000Y37260000D03*
%TO.P,A1,3,~{RESET}*%
%TO.N,unconnected-(A1-Pad3)*%
X12400000Y34720000D03*
%TO.P,A1,4,GND*%
%TO.N,GND*%
X12400000Y32180000D03*
%TO.P,A1,5,D2*%
%TO.N,/E_STOP*%
X12400000Y29640000D03*
%TO.P,A1,6,D3*%
%TO.N,/INT*%
X12400000Y27100000D03*
%TO.P,A1,7,D4*%
%TO.N,/SYNC*%
X12400000Y24560000D03*
%TO.P,A1,8,D5*%
%TO.N,unconnected-(A1-Pad8)*%
X12400000Y22020000D03*
%TO.P,A1,9,D6*%
%TO.N,unconnected-(A1-Pad9)*%
X12400000Y19480000D03*
%TO.P,A1,10,D7*%
%TO.N,/SEL*%
X12400000Y16940000D03*
%TO.P,A1,11,D8*%
%TO.N,/PWREN*%
X12400000Y14400000D03*
%TO.P,A1,12,D9*%
%TO.N,unconnected-(A1-Pad12)*%
X12400000Y11860000D03*
%TO.P,A1,13,D10*%
%TO.N,unconnected-(A1-Pad13)*%
X12400000Y9320000D03*
%TO.P,A1,14,D11*%
%TO.N,unconnected-(A1-Pad14)*%
X12400000Y6780000D03*
%TO.P,A1,15,D12*%
%TO.N,unconnected-(A1-Pad15)*%
X12400000Y4240000D03*
%TO.P,A1,16,D13*%
%TO.N,unconnected-(A1-Pad16)*%
X27640000Y4240000D03*
%TO.P,A1,17,3V3*%
%TO.N,unconnected-(A1-Pad17)*%
X27640000Y6780000D03*
%TO.P,A1,18,AREF*%
%TO.N,unconnected-(A1-Pad18)*%
X27640000Y9320000D03*
%TO.P,A1,19,A0*%
%TO.N,unconnected-(A1-Pad19)*%
X27640000Y11860000D03*
%TO.P,A1,20,A1*%
%TO.N,unconnected-(A1-Pad20)*%
X27640000Y14400000D03*
%TO.P,A1,21,A2*%
%TO.N,unconnected-(A1-Pad21)*%
X27640000Y16940000D03*
%TO.P,A1,22,A3*%
%TO.N,unconnected-(A1-Pad22)*%
X27640000Y19480000D03*
%TO.P,A1,23,A4*%
%TO.N,/I2C_DAT*%
X27640000Y22020000D03*
%TO.P,A1,24,A5*%
%TO.N,/I2C_CLK*%
X27640000Y24560000D03*
%TO.P,A1,25,A6*%
%TO.N,unconnected-(A1-Pad25)*%
X27640000Y27100000D03*
%TO.P,A1,26,A7*%
%TO.N,unconnected-(A1-Pad26)*%
X27640000Y29640000D03*
%TO.P,A1,27,+5V*%
%TO.N,+5V*%
X27640000Y32180000D03*
%TO.P,A1,28,~{RESET}*%
%TO.N,/RESET*%
X27640000Y34720000D03*
%TO.P,A1,29,GND*%
%TO.N,GND*%
X27640000Y37260000D03*
%TO.P,A1,30,VIN*%
%TO.N,+12V*%
X27640000Y39800000D03*
%TD*%
D13*
%TO.P,J1,1,Pin_1*%
%TO.N,GND*%
X7000000Y61000000D03*
D14*
%TO.P,J1,2,Pin_2*%
%TO.N,+12V*%
X7000000Y58460000D03*
%TO.P,J1,3,Pin_3*%
%TO.N,/I2C_CLK*%
X7000000Y55920000D03*
%TO.P,J1,4,Pin_4*%
%TO.N,/I2C_DAT*%
X7000000Y53380000D03*
%TO.P,J1,5,Pin_5*%
%TO.N,GND*%
X7000000Y50840000D03*
%TO.P,J1,6,Pin_6*%
%TO.N,/E_STOP*%
X7000000Y48300000D03*
%TO.P,J1,7,Pin_7*%
%TO.N,/INT*%
X7000000Y45760000D03*
%TO.P,J1,8,Pin_8*%
%TO.N,/SYNC*%
X7000000Y43220000D03*
%TO.P,J1,9,Pin_9*%
%TO.N,+12V*%
X7000000Y40680000D03*
%TO.P,J1,10,Pin_10*%
%TO.N,GND*%
X7000000Y38140000D03*
%TD*%
D15*
%TO.P,J3,1,VBUS*%
%TO.N,Net-(C3-Pad1)*%
X54356000Y37084000D03*
D16*
%TO.P,J3,2,D-*%
%TO.N,Net-(J3-Pad2)*%
X54356000Y39584000D03*
%TO.P,J3,3,D+*%
%TO.N,Net-(J3-Pad3)*%
X54356000Y41584000D03*
%TO.P,J3,4,GND*%
%TO.N,GND*%
X54356000Y44084000D03*
D17*
%TO.P,J3,5,Shield*%
X57066000Y34014000D03*
X57066000Y47154000D03*
%TD*%
D15*
%TO.P,J2,1,VBUS*%
%TO.N,Net-(C3-Pad1)*%
X54102000Y64262000D03*
D16*
%TO.P,J2,2,D-*%
%TO.N,Net-(J2-Pad2)*%
X54102000Y66762000D03*
%TO.P,J2,3,D+*%
%TO.N,Net-(J2-Pad3)*%
X54102000Y68762000D03*
%TO.P,J2,4,GND*%
%TO.N,GND*%
X54102000Y71262000D03*
D17*
%TO.P,J2,5,Shield*%
X56812000Y61192000D03*
X56812000Y74332000D03*
%TD*%
D18*
%TO.P,C2,1*%
%TO.N,+5V*%
X32430000Y32000000D03*
%TO.P,C2,2*%
%TO.N,GND*%
X37570000Y32000000D03*
%TD*%
%TO.P,C1,1*%
%TO.N,+12V*%
X32430000Y40800000D03*
%TO.P,C1,2*%
%TO.N,GND*%
X37570000Y40800000D03*
%TD*%
D19*
%TO.P,C3,1*%
%TO.N,Net-(C3-Pad1)*%
X16764000Y82580000D03*
%TO.P,C3,2*%
%TO.N,GND*%
X16764000Y77440000D03*
%TD*%
D20*
%TO.P,C4,1*%
%TO.N,GND*%
X34709500Y90297000D03*
%TO.P,C4,2*%
%TO.N,Net-(C4-Pad2)*%
X31584500Y90297000D03*
%TD*%
D21*
%TO.P,FB1,1*%
%TO.N,+5V*%
X16764000Y90265000D03*
%TO.P,FB1,2*%
%TO.N,Net-(C3-Pad1)*%
X16764000Y86265000D03*
%TD*%
D22*
%TO.P,R1,1*%
%TO.N,+5V*%
X20733000Y90297000D03*
%TO.P,R1,2*%
%TO.N,/PWREN*%
X24733000Y90297000D03*
%TD*%
D23*
%TO.P,U1,1,VCC*%
%TO.N,+5V*%
X59395000Y53610000D03*
%TO.P,U1,2,SEL*%
%TO.N,/SEL*%
X59395000Y54110000D03*
%TO.P,U1,3,D+*%
%TO.N,/D+*%
X59395000Y54610000D03*
%TO.P,U1,4,D-*%
%TO.N,/D-*%
X59395000Y55110000D03*
%TO.P,U1,5,GND*%
%TO.N,GND*%
X59395000Y55610000D03*
%TO.P,U1,6,HSD1-*%
%TO.N,Net-(J2-Pad2)*%
X63795000Y55610000D03*
%TO.P,U1,7,HSD1+*%
%TO.N,Net-(J2-Pad3)*%
X63795000Y55110000D03*
%TO.P,U1,8,HSD2-*%
%TO.N,Net-(J3-Pad2)*%
X63795000Y54610000D03*
%TO.P,U1,9,HSD2+*%
%TO.N,Net-(J3-Pad3)*%
X63795000Y54110000D03*
%TO.P,U1,10,~{OE}*%
%TO.N,GND*%
X63795000Y53610000D03*
%TD*%
D24*
%TO.P,U2,1,TXD*%
%TO.N,/TR*%
X28531000Y76166000D03*
%TO.P,U2,2,DTR*%
%TO.N,Net-(U2-Pad2)*%
X28531000Y76816000D03*
%TO.P,U2,3,RTS*%
%TO.N,Net-(U2-Pad3)*%
X28531000Y77466000D03*
%TO.P,U2,4,VCCIO*%
%TO.N,+5V*%
X28531000Y78116000D03*
%TO.P,U2,5,RXD*%
%TO.N,/RT*%
X28531000Y78766000D03*
%TO.P,U2,6,RI*%
%TO.N,unconnected-(U2-Pad6)*%
X28531000Y79416000D03*
%TO.P,U2,7,GND*%
%TO.N,GND*%
X28531000Y80066000D03*
%TO.P,U2,8*%
%TO.N,N/C*%
X28531000Y80716000D03*
%TO.P,U2,9,DCR*%
%TO.N,unconnected-(U2-Pad9)*%
X28531000Y81366000D03*
%TO.P,U2,10,DCD*%
%TO.N,unconnected-(U2-Pad10)*%
X28531000Y82016000D03*
%TO.P,U2,11,CTS*%
%TO.N,unconnected-(U2-Pad11)*%
X28531000Y82666000D03*
%TO.P,U2,12,CBUS4*%
%TO.N,unconnected-(U2-Pad12)*%
X28531000Y83316000D03*
%TO.P,U2,13,CBUS2*%
%TO.N,unconnected-(U2-Pad13)*%
X28531000Y83966000D03*
%TO.P,U2,14,CBUS3*%
%TO.N,/PWREN*%
X28531000Y84616000D03*
%TO.P,U2,15,USBD+*%
%TO.N,/D+*%
X35731000Y84616000D03*
%TO.P,U2,16,USBD-*%
%TO.N,/D-*%
X35731000Y83966000D03*
%TO.P,U2,17,3V3OUT*%
%TO.N,Net-(C4-Pad2)*%
X35731000Y83316000D03*
%TO.P,U2,18,GND*%
%TO.N,GND*%
X35731000Y82666000D03*
%TO.P,U2,19,~{RESET}*%
%TO.N,unconnected-(U2-Pad19)*%
X35731000Y82016000D03*
%TO.P,U2,20,VCC*%
%TO.N,+5V*%
X35731000Y81366000D03*
%TO.P,U2,21,GND*%
%TO.N,GND*%
X35731000Y80716000D03*
%TO.P,U2,22,CBUS1*%
%TO.N,unconnected-(U2-Pad22)*%
X35731000Y80066000D03*
%TO.P,U2,23,CBUS0*%
%TO.N,unconnected-(U2-Pad23)*%
X35731000Y79416000D03*
%TO.P,U2,24*%
%TO.N,N/C*%
X35731000Y78766000D03*
%TO.P,U2,25,AGND*%
%TO.N,GND*%
X35731000Y78116000D03*
%TO.P,U2,26,TEST*%
X35731000Y77466000D03*
%TO.P,U2,27,OSCI*%
%TO.N,unconnected-(U2-Pad27)*%
X35731000Y76816000D03*
%TO.P,U2,28,OSCO*%
%TO.N,unconnected-(U2-Pad28)*%
X35731000Y76166000D03*
%TD*%
D20*
%TO.P,C5,1*%
%TO.N,/RESET*%
X25162500Y70500000D03*
%TO.P,C5,2*%
%TO.N,Net-(U2-Pad2)*%
X22037500Y70500000D03*
%TD*%
D25*
%TO.P,R2,1*%
%TO.N,Net-(U2-Pad3)*%
X22050000Y77450000D03*
%TO.P,R2,2*%
%TO.N,Net-(U2-Pad2)*%
X22050000Y74350000D03*
%TD*%
D26*
%TO.N,GND*%
X30480000Y80772000D03*
X34036000Y80772000D03*
X25146000Y80518000D03*
X19558000Y80391000D03*
%TO.N,+5V*%
X33894579Y81761952D03*
X31623000Y81661000D03*
X50673000Y53594000D03*
X39116000Y81407000D03*
%TO.N,/RT*%
X26543000Y78740000D03*
%TO.N,/TR*%
X26670000Y76073000D03*
%TO.N,/RESET*%
X25150000Y67200000D03*
%TO.N,/SEL*%
X54356000Y54102000D03*
%TO.N,/PWREN*%
X18542000Y72136000D03*
%TO.N,Net-(C3-Pad1)*%
X13970000Y86233000D03*
%TD*%
D27*
%TO.N,GND*%
X40767000Y82296000D02*
X40397000Y82666000D01*
X28531000Y80066000D02*
X29774000Y80066000D01*
X40041999Y80681999D02*
X40767000Y81407000D01*
X35731000Y80716000D02*
X36856000Y80716000D01*
X62341000Y53610000D02*
X63795000Y53610000D01*
X25146000Y80518000D02*
X25598000Y80066000D01*
X37080000Y77466000D02*
X37211000Y77597000D01*
X40767000Y81407000D02*
X40767000Y82296000D01*
X36856000Y80716000D02*
X36890001Y80681999D01*
X37211000Y77851000D02*
X36946000Y78116000D01*
X16764000Y77597000D02*
X19558000Y80391000D01*
X34036000Y80772000D02*
X35675000Y80772000D01*
X34606000Y78116000D02*
X35731000Y78116000D01*
X35731000Y77466000D02*
X37080000Y77466000D01*
X36890001Y80681999D02*
X40041999Y80681999D01*
X34036000Y80772000D02*
X34036000Y78686000D01*
X25598000Y80066000D02*
X28531000Y80066000D01*
X59395000Y55610000D02*
X59960000Y55610000D01*
X37211000Y77597000D02*
X37211000Y77851000D01*
X59984999Y55585001D02*
X60365999Y55585001D01*
X59960000Y55610000D02*
X59984999Y55585001D01*
X34036000Y78686000D02*
X34606000Y78116000D01*
X16764000Y77440000D02*
X16764000Y77597000D01*
X35675000Y80772000D02*
X35731000Y80716000D01*
X29774000Y80066000D02*
X30480000Y80772000D01*
X60365999Y55585001D02*
X62341000Y53610000D01*
X36946000Y78116000D02*
X35731000Y78116000D01*
X40397000Y82666000D02*
X35731000Y82666000D01*
%TO.N,+5V*%
X59125000Y53340000D02*
X59395000Y53610000D01*
X50673000Y47752000D02*
X56261000Y53340000D01*
X35941000Y36322000D02*
X46863000Y36322000D01*
D28*
X32430000Y32000000D02*
X27820000Y32000000D01*
D27*
X56261000Y53340000D02*
X59125000Y53340000D01*
X50673000Y47752000D02*
X50673000Y53594000D01*
X32430000Y32811000D02*
X35941000Y36322000D01*
X31623000Y79629000D02*
X31623000Y81661000D01*
X27357998Y77978000D02*
X27495998Y78116000D01*
X25273000Y77978000D02*
X27357998Y77978000D01*
D29*
X16764000Y90265000D02*
X20701000Y90265000D01*
D28*
X27820000Y32000000D02*
X27640000Y32180000D01*
D27*
X32430000Y32000000D02*
X32430000Y32811000D01*
X28531000Y78116000D02*
X30110000Y78116000D01*
X33894579Y81761952D02*
X34159530Y81497001D01*
X34606000Y81366000D02*
X35731000Y81366000D01*
X39116000Y81407000D02*
X35772000Y81407000D01*
X20733000Y90297000D02*
X20733000Y82518000D01*
X34474999Y81497001D02*
X34606000Y81366000D01*
X30110000Y78116000D02*
X31623000Y79629000D01*
X27495998Y78116000D02*
X28531000Y78116000D01*
X50673000Y40132000D02*
X50673000Y47752000D01*
X46863000Y36322000D02*
X50673000Y40132000D01*
X34159530Y81497001D02*
X34474999Y81497001D01*
X20733000Y82518000D02*
X25273000Y77978000D01*
X35772000Y81407000D02*
X35731000Y81366000D01*
D29*
X20701000Y90265000D02*
X20733000Y90297000D01*
%TO.N,/I2C_CLK*%
X25146000Y25781000D02*
X25146000Y50927000D01*
X25146000Y50927000D02*
X20153000Y55920000D01*
X27640000Y24560000D02*
X26367000Y24560000D01*
X26367000Y24560000D02*
X25146000Y25781000D01*
X20153000Y55920000D02*
X7000000Y55920000D01*
%TO.N,/I2C_DAT*%
X27640000Y22020000D02*
X24843000Y22020000D01*
X23749000Y50038000D02*
X20407000Y53380000D01*
X24843000Y22020000D02*
X23876000Y22987000D01*
X23876000Y22987000D02*
X23876000Y50038000D01*
X20407000Y53380000D02*
X7000000Y53380000D01*
X23876000Y50038000D02*
X23749000Y50038000D01*
%TO.N,/SYNC*%
X8636000Y28324000D02*
X8636000Y41584000D01*
X12400000Y24560000D02*
X8636000Y28324000D01*
X8636000Y41584000D02*
X7000000Y43220000D01*
%TO.N,/E_STOP*%
X12400000Y29640000D02*
X10050000Y31990000D01*
X8088000Y48300000D02*
X7000000Y48300000D01*
X10050000Y46338000D02*
X8088000Y48300000D01*
X10050000Y31990000D02*
X10050000Y46338000D01*
D28*
%TO.N,+12V*%
X7000000Y58460000D02*
X23074000Y58460000D01*
X28640000Y40800000D02*
X27640000Y39800000D01*
X5797919Y58460000D02*
X7000000Y58460000D01*
X27640000Y53894000D02*
X27640000Y39800000D01*
X3937000Y42164000D02*
X3937000Y56599081D01*
X32430000Y40800000D02*
X28640000Y40800000D01*
X3937000Y56599081D02*
X5797919Y58460000D01*
X23074000Y58460000D02*
X27640000Y53894000D01*
X5421000Y40680000D02*
X3937000Y42164000D01*
X7000000Y40680000D02*
X5421000Y40680000D01*
D29*
%TO.N,/INT*%
X12400000Y27100000D02*
X9335520Y30164480D01*
X9335520Y30164480D02*
X9335520Y43424480D01*
X9335520Y43424480D02*
X7000000Y45760000D01*
D27*
%TO.N,/RT*%
X26543000Y78740000D02*
X28505000Y78740000D01*
X28505000Y78740000D02*
X28531000Y78766000D01*
%TO.N,/TR*%
X28438000Y76073000D02*
X28531000Y76166000D01*
X26670000Y76073000D02*
X28438000Y76073000D01*
%TO.N,/RESET*%
X25162500Y70500000D02*
X25162500Y67212500D01*
X25162500Y67212500D02*
X25150000Y67200000D01*
%TO.N,/SEL*%
X59387000Y54102000D02*
X59395000Y54110000D01*
X57785000Y54102000D02*
X59387000Y54102000D01*
D29*
X54356000Y54102000D02*
X57785000Y54102000D01*
D27*
%TO.N,Net-(C4-Pad2)*%
X33179000Y88265000D02*
X31147000Y90297000D01*
X37342000Y83316000D02*
X37973000Y83947000D01*
X37973000Y85598000D02*
X35306000Y88265000D01*
X35731000Y83316000D02*
X37342000Y83316000D01*
X35306000Y88265000D02*
X33179000Y88265000D01*
X37973000Y83947000D02*
X37973000Y85598000D01*
%TO.N,Net-(J2-Pad3)*%
X66421000Y56786000D02*
X66421000Y66167000D01*
X54665000Y68199000D02*
X54102000Y68762000D01*
X63795000Y55110000D02*
X64745000Y55110000D01*
X64389000Y68199000D02*
X66421000Y66167000D01*
X64745000Y55110000D02*
X66421000Y56786000D01*
X64389000Y68199000D02*
X54665000Y68199000D01*
%TO.N,Net-(J2-Pad2)*%
X55031000Y67691000D02*
X54102000Y66762000D01*
X63795000Y55610000D02*
X64608590Y55610000D01*
X65913000Y65786000D02*
X64008000Y67691000D01*
X64008000Y67691000D02*
X55031000Y67691000D01*
X64608590Y55610000D02*
X65913000Y56914410D01*
X65913000Y56914410D02*
X65913000Y65786000D01*
%TO.N,Net-(J3-Pad3)*%
X66351990Y53282010D02*
X66351990Y42729990D01*
X65524000Y54110000D02*
X66351990Y53282010D01*
X64643000Y41021000D02*
X54919000Y41021000D01*
X63795000Y54110000D02*
X65524000Y54110000D01*
X66351990Y42729990D02*
X64643000Y41021000D01*
X54919000Y41021000D02*
X54356000Y41584000D01*
%TO.N,Net-(J3-Pad2)*%
X66802000Y42291000D02*
X64897000Y40386000D01*
X63795000Y54610000D02*
X65786000Y54610000D01*
X64897000Y40386000D02*
X55158000Y40386000D01*
X65786000Y54610000D02*
X66802000Y53594000D01*
X55158000Y40386000D02*
X54356000Y39584000D01*
X66802000Y53594000D02*
X66802000Y42291000D01*
%TO.N,/D-*%
X59190000Y55110000D02*
X59165001Y55134999D01*
X33147000Y82802590D02*
X34310410Y83966000D01*
X59395000Y55110000D02*
X59190000Y55110000D01*
X58123400Y55568010D02*
X40572400Y55568010D01*
X58556411Y55134999D02*
X58123400Y55568010D01*
X40572400Y55568010D02*
X33147000Y62993410D01*
X59165001Y55134999D02*
X58556411Y55134999D01*
X34310410Y83966000D02*
X35731000Y83966000D01*
X33147000Y62993410D02*
X33147000Y82802590D01*
%TO.N,/D+*%
X40386000Y55118000D02*
X32639000Y62865000D01*
X32639000Y62865000D02*
X32639000Y82931000D01*
X59395000Y54610000D02*
X58445000Y54610000D01*
X58445000Y54610000D02*
X57937000Y55118000D01*
X57937000Y55118000D02*
X40386000Y55118000D01*
X34324000Y84616000D02*
X35731000Y84616000D01*
X32639000Y82931000D02*
X34324000Y84616000D01*
%TO.N,Net-(U2-Pad3)*%
X22066000Y77466000D02*
X22050000Y77450000D01*
X28531000Y77466000D02*
X22066000Y77466000D01*
%TO.N,unconnected-(U2-Pad11)*%
X28520000Y82677000D02*
X28531000Y82666000D01*
%TO.N,Net-(U2-Pad2)*%
X22050000Y70512500D02*
X22037500Y70500000D01*
X22050000Y74350000D02*
X22050000Y70512500D01*
X28531000Y76816000D02*
X24516000Y76816000D01*
X24516000Y76816000D02*
X22050000Y74350000D01*
%TO.N,/PWREN*%
X18542000Y72136000D02*
X17018000Y72136000D01*
X13843000Y93599000D02*
X21431000Y93599000D01*
X21431000Y93599000D02*
X24733000Y90297000D01*
D29*
X28531000Y87293000D02*
X28531000Y84641001D01*
X24733000Y90297000D02*
X25527000Y90297000D01*
D27*
X17018000Y72136000D02*
X11811000Y77343000D01*
X11811000Y77343000D02*
X11811000Y91567000D01*
X11811000Y91567000D02*
X13843000Y93599000D01*
D29*
X25527000Y90297000D02*
X28531000Y87293000D01*
%TO.N,Net-(C3-Pad1)*%
X16764000Y82580000D02*
X16764000Y86265000D01*
X13970000Y86233000D02*
X16732000Y86233000D01*
X16732000Y86233000D02*
X16764000Y86265000D01*
%TD*%
%TA.AperFunction,Conductor*%
%TO.N,GND*%
G36*
X66946057Y99045763D02*
G01*
X67240867Y98892295D01*
X67250387Y98886799D01*
X67571574Y98682180D01*
X67580578Y98675876D01*
X67882716Y98444038D01*
X67891137Y98436972D01*
X68171914Y98179686D01*
X68179686Y98171914D01*
X68262295Y98081763D01*
X68436980Y97891129D01*
X68444032Y97882725D01*
X68546907Y97748654D01*
X68553963Y97739459D01*
X68579563Y97673238D01*
X68580000Y97662755D01*
X68580000Y2337245D01*
X68559998Y2269124D01*
X68553963Y2260542D01*
X68444032Y2117275D01*
X68436980Y2108871D01*
X68323069Y1984560D01*
X68179686Y1828086D01*
X68171914Y1820314D01*
X67891137Y1563028D01*
X67882716Y1555962D01*
X67580578Y1324124D01*
X67571582Y1317825D01*
X67527485Y1289732D01*
X67459787Y1270000D01*
X2540213Y1270000D01*
X2472515Y1289732D01*
X2428418Y1317825D01*
X2419422Y1324124D01*
X2117284Y1555962D01*
X2108863Y1563028D01*
X1828086Y1820314D01*
X1820314Y1828086D01*
X1563028Y2108863D01*
X1555962Y2117284D01*
X1324124Y2419422D01*
X1317820Y2428425D01*
X1289732Y2472515D01*
X1270000Y2540213D01*
X1270000Y5011566D01*
X1686661Y5011566D01*
X1704792Y4653660D01*
X1705329Y4650305D01*
X1705330Y4650299D01*
X1744582Y4405243D01*
X1761470Y4299805D01*
X1856033Y3954141D01*
X1987374Y3620712D01*
X2007041Y3583251D01*
X2103140Y3400211D01*
X2153957Y3303418D01*
X2155858Y3300589D01*
X2155864Y3300579D01*
X2290547Y3100151D01*
X2353834Y3005971D01*
X2584665Y2731850D01*
X2843751Y2484262D01*
X3128061Y2266103D01*
X3160056Y2246650D01*
X3431355Y2081697D01*
X3431360Y2081694D01*
X3434270Y2079925D01*
X3437358Y2078479D01*
X3437357Y2078479D01*
X3755710Y1929351D01*
X3755720Y1929347D01*
X3758794Y1927907D01*
X3762012Y1926805D01*
X3762015Y1926804D01*
X4094615Y1812929D01*
X4094623Y1812927D01*
X4097838Y1811826D01*
X4447435Y1733041D01*
X4499728Y1727083D01*
X4800114Y1692858D01*
X4800122Y1692858D01*
X4803497Y1692473D01*
X4806901Y1692455D01*
X4806904Y1692455D01*
X5001227Y1691438D01*
X5161857Y1690597D01*
X5165243Y1690947D01*
X5165245Y1690947D01*
X5514932Y1727083D01*
X5514941Y1727084D01*
X5518324Y1727434D01*
X5521657Y1728148D01*
X5521660Y1728149D01*
X5694186Y1765136D01*
X5868727Y1802554D01*
X6208968Y1915078D01*
X6535066Y2063689D01*
X6629052Y2119494D01*
X6840262Y2244901D01*
X6840267Y2244904D01*
X6843207Y2246650D01*
X7129786Y2461820D01*
X7391451Y2706681D01*
X7625140Y2978370D01*
X7731750Y3133488D01*
X7826190Y3270899D01*
X7826195Y3270906D01*
X7828120Y3273708D01*
X7829732Y3276702D01*
X7829737Y3276710D01*
X7996395Y3586228D01*
X7998017Y3589240D01*
X8132842Y3921276D01*
X8143142Y3957432D01*
X8222074Y4234525D01*
X8231020Y4265930D01*
X8264639Y4462607D01*
X8290829Y4615825D01*
X8290829Y4615827D01*
X8291401Y4619172D01*
X8293511Y4653660D01*
X8313168Y4975072D01*
X8313278Y4976869D01*
X8313359Y5000000D01*
X8293979Y5357841D01*
X8236066Y5711495D01*
X8140297Y6056827D01*
X8137243Y6064503D01*
X8009052Y6386631D01*
X8007793Y6389795D01*
X7921956Y6551913D01*
X7841702Y6703487D01*
X7841698Y6703494D01*
X7840103Y6706506D01*
X7639190Y7003254D01*
X7635092Y7008087D01*
X7543506Y7116081D01*
X7407403Y7276568D01*
X7147454Y7523250D01*
X6862384Y7740415D01*
X6859472Y7742172D01*
X6859467Y7742175D01*
X6558443Y7923764D01*
X6558437Y7923767D01*
X6555528Y7925522D01*
X6230475Y8076407D01*
X6060752Y8133855D01*
X5894255Y8190211D01*
X5894250Y8190212D01*
X5891028Y8191303D01*
X5692681Y8235276D01*
X5544493Y8268129D01*
X5544487Y8268130D01*
X5541158Y8268868D01*
X5537769Y8269242D01*
X5537764Y8269243D01*
X5188338Y8307820D01*
X5188333Y8307820D01*
X5184957Y8308193D01*
X5181558Y8308199D01*
X5181557Y8308199D01*
X5012080Y8308495D01*
X4826592Y8308818D01*
X4713413Y8296723D01*
X4473639Y8271099D01*
X4473631Y8271098D01*
X4470256Y8270737D01*
X4120117Y8194394D01*
X3780271Y8080683D01*
X3777178Y8079261D01*
X3777177Y8079260D01*
X3595090Y7995509D01*
X3454694Y7930934D01*
X3451760Y7929178D01*
X3451758Y7929177D01*
X3206346Y7782301D01*
X3147193Y7746899D01*
X3144467Y7744837D01*
X3144465Y7744836D01*
X2979124Y7619789D01*
X2861367Y7530730D01*
X2600559Y7284957D01*
X2367819Y7012454D01*
X2365900Y7009642D01*
X2365897Y7009637D01*
X2272624Y6872903D01*
X2165871Y6716409D01*
X1997077Y6400286D01*
X1863411Y6067782D01*
X1862491Y6064508D01*
X1862489Y6064503D01*
X1779889Y5770643D01*
X1766437Y5722787D01*
X1765875Y5719430D01*
X1765875Y5719429D01*
X1708132Y5374366D01*
X1707290Y5369337D01*
X1686661Y5011566D01*
X1270000Y5011566D01*
X1270000Y37872034D01*
X5668257Y37872034D01*
X5698565Y37737554D01*
X5701645Y37727725D01*
X5781770Y37530397D01*
X5786413Y37521206D01*
X5897694Y37339612D01*
X5903777Y37331301D01*
X6043213Y37170333D01*
X6050580Y37163117D01*
X6214434Y37027084D01*
X6222881Y37021169D01*
X6406756Y36913721D01*
X6416042Y36909271D01*
X6615001Y36833297D01*
X6624899Y36830421D01*
X6728250Y36809394D01*
X6742299Y36810590D01*
X6746000Y36820935D01*
X6746000Y37867885D01*
X6741525Y37883124D01*
X6740135Y37884329D01*
X6732452Y37886000D01*
X5683225Y37886000D01*
X5669694Y37882027D01*
X5668257Y37872034D01*
X1270000Y37872034D01*
X1270000Y42216914D01*
X2674521Y42216914D01*
X2677137Y42161444D01*
X2678360Y42135512D01*
X2678500Y42129576D01*
X2678500Y42107001D01*
X2680819Y42081012D01*
X2681178Y42075752D01*
X2685104Y41992512D01*
X2686354Y41987053D01*
X2686355Y41987048D01*
X2689108Y41975030D01*
X2691789Y41958101D01*
X2693383Y41940238D01*
X2694865Y41934822D01*
X2694865Y41934820D01*
X2715370Y41859867D01*
X2716656Y41854749D01*
X2735258Y41773530D01*
X2737460Y41768368D01*
X2742294Y41757033D01*
X2747927Y41740858D01*
X2752663Y41723549D01*
X2755079Y41718484D01*
X2788539Y41648333D01*
X2790710Y41643524D01*
X2823397Y41566891D01*
X2833251Y41551890D01*
X2841654Y41536975D01*
X2849378Y41520782D01*
X2852648Y41516231D01*
X2852650Y41516228D01*
X2897999Y41453119D01*
X2900989Y41448768D01*
X2944196Y41382990D01*
X2944202Y41382982D01*
X2946735Y41379126D01*
X2965257Y41358338D01*
X2973490Y41348061D01*
X2980471Y41338346D01*
X2984498Y41334444D01*
X3057255Y41263937D01*
X3058665Y41262548D01*
X4466472Y39854741D01*
X4477340Y39842349D01*
X4487462Y39829157D01*
X4487469Y39829149D01*
X4490877Y39824708D01*
X4533428Y39785990D01*
X4551185Y39769832D01*
X4555480Y39765733D01*
X4571411Y39749802D01*
X4591427Y39733066D01*
X4595376Y39729621D01*
X4652879Y39677297D01*
X4652883Y39677294D01*
X4657036Y39673515D01*
X4661791Y39670532D01*
X4661794Y39670530D01*
X4672224Y39663988D01*
X4686097Y39653909D01*
X4695545Y39646008D01*
X4695552Y39646003D01*
X4699854Y39642406D01*
X4746991Y39615520D01*
X4772240Y39601118D01*
X4776759Y39598413D01*
X4791008Y39589475D01*
X4842596Y39557114D01*
X4842599Y39557112D01*
X4847344Y39554136D01*
X4852549Y39552043D01*
X4852552Y39552042D01*
X4863979Y39547448D01*
X4879411Y39539988D01*
X4890119Y39533880D01*
X4890128Y39533876D01*
X4894993Y39531101D01*
X4900270Y39529232D01*
X4900275Y39529230D01*
X4973542Y39503285D01*
X4978478Y39501420D01*
X5055783Y39470344D01*
X5061270Y39469208D01*
X5061272Y39469207D01*
X5073349Y39466706D01*
X5089844Y39462101D01*
X5106759Y39456111D01*
X5189010Y39442641D01*
X5194180Y39441683D01*
X5275767Y39424787D01*
X5280379Y39424521D01*
X5280380Y39424521D01*
X5303548Y39423185D01*
X5316653Y39421738D01*
X5322910Y39420714D01*
X5322914Y39420714D01*
X5328457Y39419806D01*
X5334070Y39419894D01*
X5334072Y39419894D01*
X5435264Y39421484D01*
X5437243Y39421500D01*
X6067259Y39421500D01*
X6135380Y39401498D01*
X6181873Y39347842D01*
X6191977Y39277568D01*
X6162483Y39212988D01*
X6142912Y39194740D01*
X6099433Y39162095D01*
X6091726Y39155252D01*
X5944590Y39001283D01*
X5938104Y38993273D01*
X5818098Y38817351D01*
X5813000Y38808377D01*
X5723338Y38615217D01*
X5719775Y38605530D01*
X5664389Y38405817D01*
X5665912Y38397393D01*
X5678292Y38394000D01*
X7128000Y38394000D01*
X7196121Y38373998D01*
X7242614Y38320342D01*
X7254000Y38268000D01*
X7254000Y36821483D01*
X7258064Y36807641D01*
X7271478Y36805607D01*
X7278184Y36806466D01*
X7288262Y36808608D01*
X7492255Y36869809D01*
X7501842Y36873567D01*
X7696067Y36968717D01*
X7766041Y36980724D01*
X7831399Y36952994D01*
X7871389Y36894331D01*
X7877500Y36855566D01*
X7877500Y28391070D01*
X7876067Y28372120D01*
X7875593Y28369001D01*
X7872801Y28350651D01*
X7873394Y28343359D01*
X7873394Y28343356D01*
X7877085Y28297982D01*
X7877500Y28287767D01*
X7877500Y28279707D01*
X7877925Y28276063D01*
X7880789Y28251493D01*
X7881222Y28247118D01*
X7882003Y28237523D01*
X7887140Y28174363D01*
X7889396Y28167399D01*
X7890587Y28161440D01*
X7891971Y28155585D01*
X7892818Y28148319D01*
X7917735Y28079673D01*
X7919152Y28075545D01*
X7941649Y28006101D01*
X7945445Y27999846D01*
X7947951Y27994372D01*
X7950670Y27988942D01*
X7953167Y27982063D01*
X7957180Y27975943D01*
X7957180Y27975942D01*
X7993186Y27921024D01*
X7995523Y27917320D01*
X8033405Y27854893D01*
X8037121Y27850685D01*
X8037122Y27850684D01*
X8040803Y27846516D01*
X8040776Y27846492D01*
X8043429Y27843500D01*
X8046132Y27840267D01*
X8050144Y27834148D01*
X8055456Y27829116D01*
X8106383Y27780872D01*
X8108825Y27778494D01*
X11064329Y24822990D01*
X11098355Y24760678D01*
X11100755Y24722913D01*
X11086502Y24560000D01*
X11106457Y24331913D01*
X11165716Y24110757D01*
X11168039Y24105776D01*
X11168039Y24105775D01*
X11260151Y23908238D01*
X11260154Y23908233D01*
X11262477Y23903251D01*
X11393802Y23715700D01*
X11555700Y23553802D01*
X11560208Y23550645D01*
X11560211Y23550643D01*
X11638389Y23495902D01*
X11743251Y23422477D01*
X11748233Y23420154D01*
X11748238Y23420151D01*
X11782457Y23404195D01*
X11835742Y23357278D01*
X11855203Y23289001D01*
X11834661Y23221041D01*
X11782457Y23175805D01*
X11748238Y23159849D01*
X11748233Y23159846D01*
X11743251Y23157523D01*
X11638389Y23084098D01*
X11560211Y23029357D01*
X11560208Y23029355D01*
X11555700Y23026198D01*
X11393802Y22864300D01*
X11390645Y22859792D01*
X11390643Y22859789D01*
X11359565Y22815405D01*
X11262477Y22676749D01*
X11260154Y22671767D01*
X11260151Y22671762D01*
X11186439Y22513684D01*
X11165716Y22469243D01*
X11164294Y22463935D01*
X11164293Y22463933D01*
X11107881Y22253402D01*
X11106457Y22248087D01*
X11086502Y22020000D01*
X11106457Y21791913D01*
X11165716Y21570757D01*
X11168039Y21565776D01*
X11168039Y21565775D01*
X11260151Y21368238D01*
X11260154Y21368233D01*
X11262477Y21363251D01*
X11393802Y21175700D01*
X11555700Y21013802D01*
X11560208Y21010645D01*
X11560211Y21010643D01*
X11638389Y20955902D01*
X11743251Y20882477D01*
X11748233Y20880154D01*
X11748238Y20880151D01*
X11782457Y20864195D01*
X11835742Y20817278D01*
X11855203Y20749001D01*
X11834661Y20681041D01*
X11782457Y20635805D01*
X11748238Y20619849D01*
X11748233Y20619846D01*
X11743251Y20617523D01*
X11638389Y20544098D01*
X11560211Y20489357D01*
X11560208Y20489355D01*
X11555700Y20486198D01*
X11393802Y20324300D01*
X11262477Y20136749D01*
X11260154Y20131767D01*
X11260151Y20131762D01*
X11168039Y19934225D01*
X11165716Y19929243D01*
X11106457Y19708087D01*
X11086502Y19480000D01*
X11106457Y19251913D01*
X11165716Y19030757D01*
X11168039Y19025776D01*
X11168039Y19025775D01*
X11260151Y18828238D01*
X11260154Y18828233D01*
X11262477Y18823251D01*
X11393802Y18635700D01*
X11555700Y18473802D01*
X11560208Y18470645D01*
X11560211Y18470643D01*
X11638389Y18415902D01*
X11743251Y18342477D01*
X11748233Y18340154D01*
X11748238Y18340151D01*
X11782457Y18324195D01*
X11835742Y18277278D01*
X11855203Y18209001D01*
X11834661Y18141041D01*
X11782457Y18095805D01*
X11748238Y18079849D01*
X11748233Y18079846D01*
X11743251Y18077523D01*
X11638389Y18004098D01*
X11560211Y17949357D01*
X11560208Y17949355D01*
X11555700Y17946198D01*
X11393802Y17784300D01*
X11262477Y17596749D01*
X11260154Y17591767D01*
X11260151Y17591762D01*
X11168039Y17394225D01*
X11165716Y17389243D01*
X11106457Y17168087D01*
X11086502Y16940000D01*
X11106457Y16711913D01*
X11165716Y16490757D01*
X11168039Y16485776D01*
X11168039Y16485775D01*
X11260151Y16288238D01*
X11260154Y16288233D01*
X11262477Y16283251D01*
X11393802Y16095700D01*
X11555700Y15933802D01*
X11560208Y15930645D01*
X11560211Y15930643D01*
X11638389Y15875902D01*
X11743251Y15802477D01*
X11748233Y15800154D01*
X11748238Y15800151D01*
X11782457Y15784195D01*
X11835742Y15737278D01*
X11855203Y15669001D01*
X11834661Y15601041D01*
X11782457Y15555805D01*
X11748238Y15539849D01*
X11748233Y15539846D01*
X11743251Y15537523D01*
X11638389Y15464098D01*
X11560211Y15409357D01*
X11560208Y15409355D01*
X11555700Y15406198D01*
X11393802Y15244300D01*
X11262477Y15056749D01*
X11260154Y15051767D01*
X11260151Y15051762D01*
X11168039Y14854225D01*
X11165716Y14849243D01*
X11106457Y14628087D01*
X11086502Y14400000D01*
X11106457Y14171913D01*
X11165716Y13950757D01*
X11168039Y13945776D01*
X11168039Y13945775D01*
X11260151Y13748238D01*
X11260154Y13748233D01*
X11262477Y13743251D01*
X11393802Y13555700D01*
X11555700Y13393802D01*
X11560208Y13390645D01*
X11560211Y13390643D01*
X11638389Y13335902D01*
X11743251Y13262477D01*
X11748233Y13260154D01*
X11748238Y13260151D01*
X11782457Y13244195D01*
X11835742Y13197278D01*
X11855203Y13129001D01*
X11834661Y13061041D01*
X11782457Y13015805D01*
X11748238Y12999849D01*
X11748233Y12999846D01*
X11743251Y12997523D01*
X11638389Y12924098D01*
X11560211Y12869357D01*
X11560208Y12869355D01*
X11555700Y12866198D01*
X11393802Y12704300D01*
X11262477Y12516749D01*
X11260154Y12511767D01*
X11260151Y12511762D01*
X11168039Y12314225D01*
X11165716Y12309243D01*
X11106457Y12088087D01*
X11086502Y11860000D01*
X11106457Y11631913D01*
X11165716Y11410757D01*
X11168039Y11405776D01*
X11168039Y11405775D01*
X11260151Y11208238D01*
X11260154Y11208233D01*
X11262477Y11203251D01*
X11393802Y11015700D01*
X11555700Y10853802D01*
X11560208Y10850645D01*
X11560211Y10850643D01*
X11638389Y10795902D01*
X11743251Y10722477D01*
X11748233Y10720154D01*
X11748238Y10720151D01*
X11782457Y10704195D01*
X11835742Y10657278D01*
X11855203Y10589001D01*
X11834661Y10521041D01*
X11782457Y10475805D01*
X11748238Y10459849D01*
X11748233Y10459846D01*
X11743251Y10457523D01*
X11638389Y10384098D01*
X11560211Y10329357D01*
X11560208Y10329355D01*
X11555700Y10326198D01*
X11393802Y10164300D01*
X11262477Y9976749D01*
X11260154Y9971767D01*
X11260151Y9971762D01*
X11168039Y9774225D01*
X11165716Y9769243D01*
X11106457Y9548087D01*
X11086502Y9320000D01*
X11106457Y9091913D01*
X11165716Y8870757D01*
X11168039Y8865776D01*
X11168039Y8865775D01*
X11260151Y8668238D01*
X11260154Y8668233D01*
X11262477Y8663251D01*
X11393802Y8475700D01*
X11555700Y8313802D01*
X11560208Y8310645D01*
X11560211Y8310643D01*
X11563710Y8308193D01*
X11743251Y8182477D01*
X11748233Y8180154D01*
X11748238Y8180151D01*
X11782457Y8164195D01*
X11835742Y8117278D01*
X11855203Y8049001D01*
X11834661Y7981041D01*
X11782457Y7935805D01*
X11748238Y7919849D01*
X11748233Y7919846D01*
X11743251Y7917523D01*
X11638389Y7844098D01*
X11560211Y7789357D01*
X11560208Y7789355D01*
X11555700Y7786198D01*
X11393802Y7624300D01*
X11262477Y7436749D01*
X11260154Y7431767D01*
X11260151Y7431762D01*
X11190487Y7282365D01*
X11165716Y7229243D01*
X11164294Y7223935D01*
X11164293Y7223933D01*
X11107881Y7013402D01*
X11106457Y7008087D01*
X11086502Y6780000D01*
X11106457Y6551913D01*
X11107881Y6546600D01*
X11107881Y6546598D01*
X11149089Y6392811D01*
X11165716Y6330757D01*
X11168039Y6325776D01*
X11168039Y6325775D01*
X11260151Y6128238D01*
X11260154Y6128233D01*
X11262477Y6123251D01*
X11393802Y5935700D01*
X11555700Y5773802D01*
X11560208Y5770645D01*
X11560211Y5770643D01*
X11623875Y5726065D01*
X11743251Y5642477D01*
X11748233Y5640154D01*
X11748238Y5640151D01*
X11782457Y5624195D01*
X11835742Y5577278D01*
X11855203Y5509001D01*
X11834661Y5441041D01*
X11782457Y5395805D01*
X11748238Y5379849D01*
X11748233Y5379846D01*
X11743251Y5377523D01*
X11710284Y5354439D01*
X11560211Y5249357D01*
X11560208Y5249355D01*
X11555700Y5246198D01*
X11393802Y5084300D01*
X11262477Y4896749D01*
X11260154Y4891767D01*
X11260151Y4891762D01*
X11168039Y4694225D01*
X11165716Y4689243D01*
X11164294Y4683935D01*
X11164293Y4683933D01*
X11126992Y4544723D01*
X11106457Y4468087D01*
X11086502Y4240000D01*
X11106457Y4011913D01*
X11165716Y3790757D01*
X11168039Y3785776D01*
X11168039Y3785775D01*
X11260151Y3588238D01*
X11260154Y3588233D01*
X11262477Y3583251D01*
X11393802Y3395700D01*
X11555700Y3233802D01*
X11560208Y3230645D01*
X11560211Y3230643D01*
X11589887Y3209864D01*
X11743251Y3102477D01*
X11748233Y3100154D01*
X11748238Y3100151D01*
X11944130Y3008806D01*
X11950757Y3005716D01*
X11956065Y3004294D01*
X11956067Y3004293D01*
X12166598Y2947881D01*
X12166600Y2947881D01*
X12171913Y2946457D01*
X12400000Y2926502D01*
X12628087Y2946457D01*
X12633400Y2947881D01*
X12633402Y2947881D01*
X12843933Y3004293D01*
X12843935Y3004294D01*
X12849243Y3005716D01*
X12855870Y3008806D01*
X13051762Y3100151D01*
X13051767Y3100154D01*
X13056749Y3102477D01*
X13210113Y3209864D01*
X13239789Y3230643D01*
X13239792Y3230645D01*
X13244300Y3233802D01*
X13406198Y3395700D01*
X13537523Y3583251D01*
X13539846Y3588233D01*
X13539849Y3588238D01*
X13631961Y3785775D01*
X13631961Y3785776D01*
X13634284Y3790757D01*
X13693543Y4011913D01*
X13713498Y4240000D01*
X13693543Y4468087D01*
X13673008Y4544723D01*
X13635707Y4683933D01*
X13635706Y4683935D01*
X13634284Y4689243D01*
X13631961Y4694225D01*
X13539849Y4891762D01*
X13539846Y4891767D01*
X13537523Y4896749D01*
X13406198Y5084300D01*
X13244300Y5246198D01*
X13239792Y5249355D01*
X13239789Y5249357D01*
X13089716Y5354439D01*
X13056749Y5377523D01*
X13051767Y5379846D01*
X13051762Y5379849D01*
X13017543Y5395805D01*
X12964258Y5442722D01*
X12944797Y5510999D01*
X12965339Y5578959D01*
X13017543Y5624195D01*
X13051762Y5640151D01*
X13051767Y5640154D01*
X13056749Y5642477D01*
X13176125Y5726065D01*
X13239789Y5770643D01*
X13239792Y5770645D01*
X13244300Y5773802D01*
X13406198Y5935700D01*
X13537523Y6123251D01*
X13539846Y6128233D01*
X13539849Y6128238D01*
X13631961Y6325775D01*
X13631961Y6325776D01*
X13634284Y6330757D01*
X13650912Y6392811D01*
X13692119Y6546598D01*
X13692119Y6546600D01*
X13693543Y6551913D01*
X13713498Y6780000D01*
X13693543Y7008087D01*
X13692119Y7013402D01*
X13635707Y7223933D01*
X13635706Y7223935D01*
X13634284Y7229243D01*
X13609513Y7282365D01*
X13539849Y7431762D01*
X13539846Y7431767D01*
X13537523Y7436749D01*
X13406198Y7624300D01*
X13244300Y7786198D01*
X13239792Y7789355D01*
X13239789Y7789357D01*
X13161611Y7844098D01*
X13056749Y7917523D01*
X13051767Y7919846D01*
X13051762Y7919849D01*
X13017543Y7935805D01*
X12964258Y7982722D01*
X12944797Y8050999D01*
X12965339Y8118959D01*
X13017543Y8164195D01*
X13051762Y8180151D01*
X13051767Y8180154D01*
X13056749Y8182477D01*
X13236290Y8308193D01*
X13239789Y8310643D01*
X13239792Y8310645D01*
X13244300Y8313802D01*
X13406198Y8475700D01*
X13537523Y8663251D01*
X13539846Y8668233D01*
X13539849Y8668238D01*
X13631961Y8865775D01*
X13631961Y8865776D01*
X13634284Y8870757D01*
X13693543Y9091913D01*
X13713498Y9320000D01*
X13693543Y9548087D01*
X13634284Y9769243D01*
X13631961Y9774225D01*
X13539849Y9971762D01*
X13539846Y9971767D01*
X13537523Y9976749D01*
X13406198Y10164300D01*
X13244300Y10326198D01*
X13239792Y10329355D01*
X13239789Y10329357D01*
X13161611Y10384098D01*
X13056749Y10457523D01*
X13051767Y10459846D01*
X13051762Y10459849D01*
X13017543Y10475805D01*
X12964258Y10522722D01*
X12944797Y10590999D01*
X12965339Y10658959D01*
X13017543Y10704195D01*
X13051762Y10720151D01*
X13051767Y10720154D01*
X13056749Y10722477D01*
X13161611Y10795902D01*
X13239789Y10850643D01*
X13239792Y10850645D01*
X13244300Y10853802D01*
X13406198Y11015700D01*
X13537523Y11203251D01*
X13539846Y11208233D01*
X13539849Y11208238D01*
X13631961Y11405775D01*
X13631961Y11405776D01*
X13634284Y11410757D01*
X13693543Y11631913D01*
X13713498Y11860000D01*
X13693543Y12088087D01*
X13634284Y12309243D01*
X13631961Y12314225D01*
X13539849Y12511762D01*
X13539846Y12511767D01*
X13537523Y12516749D01*
X13406198Y12704300D01*
X13244300Y12866198D01*
X13239792Y12869355D01*
X13239789Y12869357D01*
X13161611Y12924098D01*
X13056749Y12997523D01*
X13051767Y12999846D01*
X13051762Y12999849D01*
X13017543Y13015805D01*
X12964258Y13062722D01*
X12944797Y13130999D01*
X12965339Y13198959D01*
X13017543Y13244195D01*
X13051762Y13260151D01*
X13051767Y13260154D01*
X13056749Y13262477D01*
X13161611Y13335902D01*
X13239789Y13390643D01*
X13239792Y13390645D01*
X13244300Y13393802D01*
X13406198Y13555700D01*
X13537523Y13743251D01*
X13539846Y13748233D01*
X13539849Y13748238D01*
X13631961Y13945775D01*
X13631961Y13945776D01*
X13634284Y13950757D01*
X13693543Y14171913D01*
X13713498Y14400000D01*
X13693543Y14628087D01*
X13634284Y14849243D01*
X13631961Y14854225D01*
X13539849Y15051762D01*
X13539846Y15051767D01*
X13537523Y15056749D01*
X13406198Y15244300D01*
X13244300Y15406198D01*
X13239792Y15409355D01*
X13239789Y15409357D01*
X13161611Y15464098D01*
X13056749Y15537523D01*
X13051767Y15539846D01*
X13051762Y15539849D01*
X13017543Y15555805D01*
X12964258Y15602722D01*
X12944797Y15670999D01*
X12965339Y15738959D01*
X13017543Y15784195D01*
X13051762Y15800151D01*
X13051767Y15800154D01*
X13056749Y15802477D01*
X13161611Y15875902D01*
X13239789Y15930643D01*
X13239792Y15930645D01*
X13244300Y15933802D01*
X13406198Y16095700D01*
X13537523Y16283251D01*
X13539846Y16288233D01*
X13539849Y16288238D01*
X13631961Y16485775D01*
X13631961Y16485776D01*
X13634284Y16490757D01*
X13693543Y16711913D01*
X13713498Y16940000D01*
X13693543Y17168087D01*
X13634284Y17389243D01*
X13631961Y17394225D01*
X13539849Y17591762D01*
X13539846Y17591767D01*
X13537523Y17596749D01*
X13406198Y17784300D01*
X13244300Y17946198D01*
X13239792Y17949355D01*
X13239789Y17949357D01*
X13161611Y18004098D01*
X13056749Y18077523D01*
X13051767Y18079846D01*
X13051762Y18079849D01*
X13017543Y18095805D01*
X12964258Y18142722D01*
X12944797Y18210999D01*
X12965339Y18278959D01*
X13017543Y18324195D01*
X13051762Y18340151D01*
X13051767Y18340154D01*
X13056749Y18342477D01*
X13161611Y18415902D01*
X13239789Y18470643D01*
X13239792Y18470645D01*
X13244300Y18473802D01*
X13406198Y18635700D01*
X13537523Y18823251D01*
X13539846Y18828233D01*
X13539849Y18828238D01*
X13631961Y19025775D01*
X13631961Y19025776D01*
X13634284Y19030757D01*
X13693543Y19251913D01*
X13713498Y19480000D01*
X13693543Y19708087D01*
X13634284Y19929243D01*
X13631961Y19934225D01*
X13539849Y20131762D01*
X13539846Y20131767D01*
X13537523Y20136749D01*
X13406198Y20324300D01*
X13244300Y20486198D01*
X13239792Y20489355D01*
X13239789Y20489357D01*
X13161611Y20544098D01*
X13056749Y20617523D01*
X13051767Y20619846D01*
X13051762Y20619849D01*
X13017543Y20635805D01*
X12964258Y20682722D01*
X12944797Y20750999D01*
X12965339Y20818959D01*
X13017543Y20864195D01*
X13051762Y20880151D01*
X13051767Y20880154D01*
X13056749Y20882477D01*
X13161611Y20955902D01*
X13239789Y21010643D01*
X13239792Y21010645D01*
X13244300Y21013802D01*
X13406198Y21175700D01*
X13537523Y21363251D01*
X13539846Y21368233D01*
X13539849Y21368238D01*
X13631961Y21565775D01*
X13631961Y21565776D01*
X13634284Y21570757D01*
X13693543Y21791913D01*
X13713498Y22020000D01*
X13693543Y22248087D01*
X13692119Y22253402D01*
X13635707Y22463933D01*
X13635706Y22463935D01*
X13634284Y22469243D01*
X13613561Y22513684D01*
X13539849Y22671762D01*
X13539846Y22671767D01*
X13537523Y22676749D01*
X13440435Y22815405D01*
X13409357Y22859789D01*
X13409355Y22859792D01*
X13406198Y22864300D01*
X13244300Y23026198D01*
X13239792Y23029355D01*
X13239789Y23029357D01*
X13161611Y23084098D01*
X13056749Y23157523D01*
X13051767Y23159846D01*
X13051762Y23159849D01*
X13017543Y23175805D01*
X12964258Y23222722D01*
X12944797Y23290999D01*
X12965339Y23358959D01*
X13017543Y23404195D01*
X13051762Y23420151D01*
X13051767Y23420154D01*
X13056749Y23422477D01*
X13161611Y23495902D01*
X13239789Y23550643D01*
X13239792Y23550645D01*
X13244300Y23553802D01*
X13406198Y23715700D01*
X13537523Y23903251D01*
X13539846Y23908233D01*
X13539849Y23908238D01*
X13631961Y24105775D01*
X13631961Y24105776D01*
X13634284Y24110757D01*
X13693543Y24331913D01*
X13713498Y24560000D01*
X13693543Y24788087D01*
X13634284Y25009243D01*
X13619780Y25040347D01*
X13539849Y25211762D01*
X13539846Y25211767D01*
X13537523Y25216749D01*
X13464098Y25321611D01*
X13409357Y25399789D01*
X13409355Y25399792D01*
X13406198Y25404300D01*
X13244300Y25566198D01*
X13239792Y25569355D01*
X13239789Y25569357D01*
X13161611Y25624098D01*
X13056749Y25697523D01*
X13051767Y25699846D01*
X13051762Y25699849D01*
X13017543Y25715805D01*
X12964258Y25762722D01*
X12944797Y25830999D01*
X12965339Y25898959D01*
X13017543Y25944195D01*
X13051762Y25960151D01*
X13051767Y25960154D01*
X13056749Y25962477D01*
X13193564Y26058276D01*
X13239789Y26090643D01*
X13239792Y26090645D01*
X13244300Y26093802D01*
X13406198Y26255700D01*
X13537523Y26443251D01*
X13539846Y26448233D01*
X13539849Y26448238D01*
X13631961Y26645775D01*
X13631961Y26645776D01*
X13634284Y26650757D01*
X13693543Y26871913D01*
X13713498Y27100000D01*
X13693543Y27328087D01*
X13634284Y27549243D01*
X13631961Y27554225D01*
X13539849Y27751762D01*
X13539846Y27751767D01*
X13537523Y27756749D01*
X13406198Y27944300D01*
X13244300Y28106198D01*
X13239792Y28109355D01*
X13239789Y28109357D01*
X13161611Y28164098D01*
X13056749Y28237523D01*
X13051767Y28239846D01*
X13051762Y28239849D01*
X13017543Y28255805D01*
X12964258Y28302722D01*
X12944797Y28370999D01*
X12965339Y28438959D01*
X13017543Y28484195D01*
X13051762Y28500151D01*
X13051767Y28500154D01*
X13056749Y28502477D01*
X13197848Y28601276D01*
X13239789Y28630643D01*
X13239792Y28630645D01*
X13244300Y28633802D01*
X13406198Y28795700D01*
X13421620Y28817724D01*
X13534366Y28978743D01*
X13537523Y28983251D01*
X13539846Y28988233D01*
X13539849Y28988238D01*
X13631961Y29185775D01*
X13631961Y29185776D01*
X13634284Y29190757D01*
X13693543Y29411913D01*
X13713498Y29640000D01*
X13693543Y29868087D01*
X13634284Y30089243D01*
X13631961Y30094225D01*
X13539849Y30291762D01*
X13539846Y30291767D01*
X13537523Y30296749D01*
X13435988Y30441756D01*
X13409357Y30479789D01*
X13409355Y30479792D01*
X13406198Y30484300D01*
X13244300Y30646198D01*
X13239792Y30649355D01*
X13239789Y30649357D01*
X13136761Y30721498D01*
X13056749Y30777523D01*
X13051767Y30779846D01*
X13051762Y30779849D01*
X13016951Y30796081D01*
X12963666Y30842998D01*
X12944205Y30911275D01*
X12964747Y30979235D01*
X13016951Y31024471D01*
X13051511Y31040586D01*
X13061007Y31046069D01*
X13239467Y31171028D01*
X13247875Y31178084D01*
X13401916Y31332125D01*
X13408972Y31340533D01*
X13533931Y31518993D01*
X13539414Y31528489D01*
X13631490Y31725947D01*
X13635236Y31736239D01*
X13681394Y31908503D01*
X13681058Y31922599D01*
X13673116Y31926000D01*
X12272000Y31926000D01*
X12203879Y31946002D01*
X12157386Y31999658D01*
X12146000Y32052000D01*
X12146000Y32308000D01*
X12166002Y32376121D01*
X12219658Y32422614D01*
X12272000Y32434000D01*
X13667967Y32434000D01*
X13681498Y32437973D01*
X13682727Y32446522D01*
X13635236Y32623761D01*
X13631490Y32634053D01*
X13539414Y32831511D01*
X13533931Y32841007D01*
X13408972Y33019467D01*
X13401916Y33027875D01*
X13247875Y33181916D01*
X13239467Y33188972D01*
X13061007Y33313931D01*
X13051511Y33319414D01*
X13016951Y33335529D01*
X12963666Y33382446D01*
X12944205Y33450723D01*
X12964747Y33518683D01*
X13016951Y33563919D01*
X13051762Y33580151D01*
X13051767Y33580154D01*
X13056749Y33582477D01*
X13191377Y33676745D01*
X13239789Y33710643D01*
X13239792Y33710645D01*
X13244300Y33713802D01*
X13406198Y33875700D01*
X13537523Y34063251D01*
X13539846Y34068233D01*
X13539849Y34068238D01*
X13631961Y34265775D01*
X13631961Y34265776D01*
X13634284Y34270757D01*
X13664304Y34382790D01*
X13692119Y34486598D01*
X13692119Y34486600D01*
X13693543Y34491913D01*
X13713498Y34720000D01*
X13693543Y34948087D01*
X13634284Y35169243D01*
X13631961Y35174225D01*
X13539849Y35371762D01*
X13539846Y35371767D01*
X13537523Y35376749D01*
X13406198Y35564300D01*
X13244300Y35726198D01*
X13239792Y35729355D01*
X13239789Y35729357D01*
X13155415Y35788436D01*
X13056749Y35857523D01*
X13051767Y35859846D01*
X13051762Y35859849D01*
X13017543Y35875805D01*
X12964258Y35922722D01*
X12944797Y35990999D01*
X12965339Y36058959D01*
X13017543Y36104195D01*
X13051762Y36120151D01*
X13051767Y36120154D01*
X13056749Y36122477D01*
X13161611Y36195902D01*
X13239789Y36250643D01*
X13239792Y36250645D01*
X13244300Y36253802D01*
X13406198Y36415700D01*
X13537523Y36603251D01*
X13539846Y36608233D01*
X13539849Y36608238D01*
X13631961Y36805775D01*
X13631961Y36805776D01*
X13634284Y36810757D01*
X13652005Y36876890D01*
X13692119Y37026598D01*
X13692119Y37026600D01*
X13693543Y37031913D01*
X13713498Y37260000D01*
X13693543Y37488087D01*
X13634284Y37709243D01*
X13625666Y37727725D01*
X13539849Y37911762D01*
X13539846Y37911767D01*
X13537523Y37916749D01*
X13406198Y38104300D01*
X13244300Y38266198D01*
X13239789Y38269357D01*
X13235576Y38272892D01*
X13236527Y38274026D01*
X13196529Y38324071D01*
X13189224Y38394690D01*
X13221258Y38458049D01*
X13282462Y38494030D01*
X13299517Y38497082D01*
X13310316Y38498255D01*
X13446705Y38549385D01*
X13563261Y38636739D01*
X13650615Y38753295D01*
X13701745Y38889684D01*
X13708500Y38951866D01*
X13708500Y40648134D01*
X13701745Y40710316D01*
X13650615Y40846705D01*
X13563261Y40963261D01*
X13446705Y41050615D01*
X13310316Y41101745D01*
X13248134Y41108500D01*
X11551866Y41108500D01*
X11489684Y41101745D01*
X11353295Y41050615D01*
X11236739Y40963261D01*
X11149385Y40846705D01*
X11098255Y40710316D01*
X11091500Y40648134D01*
X11091500Y38951866D01*
X11098255Y38889684D01*
X11149385Y38753295D01*
X11236739Y38636739D01*
X11353295Y38549385D01*
X11489684Y38498255D01*
X11500474Y38497083D01*
X11502606Y38496197D01*
X11505222Y38495575D01*
X11505121Y38495152D01*
X11566035Y38469845D01*
X11606463Y38411483D01*
X11608922Y38340529D01*
X11572629Y38279510D01*
X11563969Y38272511D01*
X11560207Y38269354D01*
X11555700Y38266198D01*
X11393802Y38104300D01*
X11262477Y37916749D01*
X11260154Y37911767D01*
X11260151Y37911762D01*
X11174334Y37727725D01*
X11165716Y37709243D01*
X11106457Y37488087D01*
X11086502Y37260000D01*
X11106457Y37031913D01*
X11107881Y37026600D01*
X11107881Y37026598D01*
X11147996Y36876890D01*
X11165716Y36810757D01*
X11168039Y36805776D01*
X11168039Y36805775D01*
X11260151Y36608238D01*
X11260154Y36608233D01*
X11262477Y36603251D01*
X11393802Y36415700D01*
X11555700Y36253802D01*
X11560208Y36250645D01*
X11560211Y36250643D01*
X11638389Y36195902D01*
X11743251Y36122477D01*
X11748233Y36120154D01*
X11748238Y36120151D01*
X11782457Y36104195D01*
X11835742Y36057278D01*
X11855203Y35989001D01*
X11834661Y35921041D01*
X11782457Y35875805D01*
X11748238Y35859849D01*
X11748233Y35859846D01*
X11743251Y35857523D01*
X11644585Y35788436D01*
X11560211Y35729357D01*
X11560208Y35729355D01*
X11555700Y35726198D01*
X11393802Y35564300D01*
X11262477Y35376749D01*
X11260154Y35371767D01*
X11260151Y35371762D01*
X11168039Y35174225D01*
X11165716Y35169243D01*
X11106457Y34948087D01*
X11086502Y34720000D01*
X11106457Y34491913D01*
X11107881Y34486600D01*
X11107881Y34486598D01*
X11135697Y34382790D01*
X11165716Y34270757D01*
X11168039Y34265776D01*
X11168039Y34265775D01*
X11260151Y34068238D01*
X11260154Y34068233D01*
X11262477Y34063251D01*
X11393802Y33875700D01*
X11555700Y33713802D01*
X11560208Y33710645D01*
X11560211Y33710643D01*
X11608623Y33676745D01*
X11743251Y33582477D01*
X11748233Y33580154D01*
X11748238Y33580151D01*
X11783049Y33563919D01*
X11836334Y33517002D01*
X11855795Y33448725D01*
X11835253Y33380765D01*
X11783049Y33335529D01*
X11748489Y33319414D01*
X11738993Y33313931D01*
X11560533Y33188972D01*
X11552125Y33181916D01*
X11398084Y33027875D01*
X11391028Y33019467D01*
X11266069Y32841007D01*
X11260586Y32831511D01*
X11168510Y32634053D01*
X11164764Y32623761D01*
X11108375Y32413312D01*
X11106472Y32402520D01*
X11098139Y32307272D01*
X11072276Y32241154D01*
X11014772Y32199514D01*
X10943885Y32195573D01*
X10883523Y32229158D01*
X10845405Y32267276D01*
X10811379Y32329588D01*
X10808500Y32356371D01*
X10808500Y46270930D01*
X10809933Y46289880D01*
X10812099Y46304115D01*
X10812099Y46304119D01*
X10813199Y46311349D01*
X10812482Y46320173D01*
X10808915Y46364018D01*
X10808500Y46374233D01*
X10808500Y46382293D01*
X10806951Y46395583D01*
X10805211Y46410507D01*
X10804778Y46414882D01*
X10799454Y46480339D01*
X10799453Y46480342D01*
X10798860Y46487637D01*
X10796604Y46494601D01*
X10795413Y46500560D01*
X10794029Y46506415D01*
X10793182Y46513681D01*
X10768265Y46582327D01*
X10766848Y46586455D01*
X10746607Y46648936D01*
X10746606Y46648938D01*
X10744351Y46655899D01*
X10740555Y46662154D01*
X10738049Y46667628D01*
X10735330Y46673058D01*
X10732833Y46679937D01*
X10692814Y46740976D01*
X10690467Y46744695D01*
X10652595Y46807107D01*
X10645197Y46815484D01*
X10645224Y46815508D01*
X10642571Y46818500D01*
X10639868Y46821733D01*
X10635856Y46827852D01*
X10579617Y46881128D01*
X10577175Y46883506D01*
X8671770Y48788911D01*
X8659384Y48803323D01*
X8650851Y48814918D01*
X8650846Y48814923D01*
X8646508Y48820818D01*
X8640930Y48825557D01*
X8640927Y48825560D01*
X8606232Y48855035D01*
X8598716Y48861965D01*
X8593021Y48867660D01*
X8586880Y48872518D01*
X8570749Y48885281D01*
X8567345Y48888072D01*
X8517297Y48930591D01*
X8517295Y48930592D01*
X8511715Y48935333D01*
X8505199Y48938661D01*
X8500150Y48942028D01*
X8495021Y48945195D01*
X8489284Y48949734D01*
X8423125Y48980655D01*
X8419225Y48982561D01*
X8354192Y49015769D01*
X8347084Y49017508D01*
X8341441Y49019607D01*
X8335678Y49021524D01*
X8329050Y49024622D01*
X8257583Y49039487D01*
X8253299Y49040457D01*
X8230736Y49045978D01*
X8182390Y49057808D01*
X8177954Y49058083D01*
X8113951Y49087945D01*
X8091445Y49114054D01*
X8080014Y49131723D01*
X7929670Y49296949D01*
X7925619Y49300148D01*
X7925615Y49300152D01*
X7758414Y49432200D01*
X7758410Y49432202D01*
X7754359Y49435402D01*
X7712569Y49458471D01*
X7662598Y49508903D01*
X7647826Y49578346D01*
X7672942Y49644752D01*
X7700294Y49671359D01*
X7875328Y49796208D01*
X7883200Y49802861D01*
X8034052Y49953188D01*
X8040730Y49961035D01*
X8165003Y50133980D01*
X8170313Y50142817D01*
X8264670Y50333733D01*
X8268469Y50343328D01*
X8330377Y50547090D01*
X8332555Y50557163D01*
X8333986Y50568038D01*
X8331775Y50582222D01*
X8318617Y50586000D01*
X5683225Y50586000D01*
X5669694Y50582027D01*
X5668257Y50572034D01*
X5698565Y50437554D01*
X5701645Y50427725D01*
X5781770Y50230397D01*
X5786413Y50221206D01*
X5897694Y50039612D01*
X5903777Y50031301D01*
X6043213Y49870333D01*
X6050580Y49863117D01*
X6214434Y49727084D01*
X6222881Y49721169D01*
X6291969Y49680797D01*
X6340693Y49629158D01*
X6353764Y49559375D01*
X6327033Y49493604D01*
X6286584Y49460248D01*
X6273607Y49453493D01*
X6269474Y49450390D01*
X6269471Y49450388D01*
X6245247Y49432200D01*
X6094965Y49319365D01*
X5940629Y49157862D01*
X5937715Y49153590D01*
X5937714Y49153589D01*
X5917063Y49123315D01*
X5814743Y48973320D01*
X5801653Y48945119D01*
X5729144Y48788911D01*
X5720688Y48770695D01*
X5660989Y48555430D01*
X5637251Y48333305D01*
X5650110Y48110285D01*
X5651247Y48105239D01*
X5651248Y48105233D01*
X5675304Y47998492D01*
X5699222Y47892361D01*
X5731944Y47811776D01*
X5772731Y47711330D01*
X5783266Y47685384D01*
X5785965Y47680980D01*
X5885589Y47518408D01*
X5899987Y47494912D01*
X6046250Y47326062D01*
X6218126Y47183368D01*
X6263310Y47156965D01*
X6291445Y47140524D01*
X6340169Y47088886D01*
X6353240Y47019103D01*
X6326509Y46953331D01*
X6286055Y46919973D01*
X6273607Y46913493D01*
X6269474Y46910390D01*
X6269471Y46910388D01*
X6099100Y46782470D01*
X6094965Y46779365D01*
X6091393Y46775627D01*
X5951298Y46629026D01*
X5940629Y46617862D01*
X5937715Y46613590D01*
X5937714Y46613589D01*
X5917777Y46584362D01*
X5814743Y46433320D01*
X5720688Y46230695D01*
X5660989Y46015430D01*
X5637251Y45793305D01*
X5637548Y45788152D01*
X5637548Y45788149D01*
X5643011Y45693410D01*
X5650110Y45570285D01*
X5651247Y45565239D01*
X5651248Y45565233D01*
X5668839Y45487178D01*
X5699222Y45352361D01*
X5741568Y45248074D01*
X5778027Y45158287D01*
X5783266Y45145384D01*
X5899987Y44954912D01*
X6046250Y44786062D01*
X6218126Y44643368D01*
X6288595Y44602189D01*
X6291445Y44600524D01*
X6340169Y44548886D01*
X6353240Y44479103D01*
X6326509Y44413331D01*
X6286055Y44379973D01*
X6273607Y44373493D01*
X6269474Y44370390D01*
X6269471Y44370388D01*
X6099100Y44242470D01*
X6094965Y44239365D01*
X5940629Y44077862D01*
X5814743Y43893320D01*
X5812564Y43888625D01*
X5734041Y43719461D01*
X5720688Y43690695D01*
X5660989Y43475430D01*
X5637251Y43253305D01*
X5637548Y43248152D01*
X5637548Y43248149D01*
X5649286Y43044584D01*
X5650110Y43030285D01*
X5651247Y43025239D01*
X5651248Y43025233D01*
X5662239Y42976463D01*
X5699222Y42812361D01*
X5783266Y42605384D01*
X5785965Y42600980D01*
X5896729Y42420229D01*
X5899987Y42414912D01*
X6046250Y42246062D01*
X6120402Y42184500D01*
X6148173Y42161444D01*
X6187808Y42102542D01*
X6189306Y42031561D01*
X6152191Y41971038D01*
X6088247Y41940189D01*
X6067688Y41938500D01*
X5994478Y41938500D01*
X5926357Y41958502D01*
X5905382Y41975405D01*
X5232404Y42648384D01*
X5198379Y42710696D01*
X5195500Y42737479D01*
X5195500Y56025604D01*
X5215502Y56093725D01*
X5232405Y56114699D01*
X5463745Y56346039D01*
X5526057Y56380065D01*
X5596872Y56375000D01*
X5653708Y56332453D01*
X5678519Y56265933D01*
X5674257Y56223273D01*
X5660989Y56175430D01*
X5637251Y55953305D01*
X5637548Y55948152D01*
X5637548Y55948149D01*
X5648139Y55764475D01*
X5650110Y55730285D01*
X5651247Y55725239D01*
X5651248Y55725233D01*
X5657961Y55695448D01*
X5699222Y55512361D01*
X5783266Y55305384D01*
X5828832Y55231027D01*
X5890492Y55130407D01*
X5899987Y55114912D01*
X6046250Y54946062D01*
X6218126Y54803368D01*
X6231673Y54795452D01*
X6291445Y54760524D01*
X6340169Y54708886D01*
X6353240Y54639103D01*
X6326509Y54573331D01*
X6286055Y54539973D01*
X6273607Y54533493D01*
X6269474Y54530390D01*
X6269471Y54530388D01*
X6099100Y54402470D01*
X6094965Y54399365D01*
X6091393Y54395627D01*
X5974082Y54272868D01*
X5940629Y54237862D01*
X5937715Y54233590D01*
X5937714Y54233589D01*
X5867694Y54130944D01*
X5814743Y54053320D01*
X5771087Y53959271D01*
X5730246Y53871285D01*
X5720688Y53850695D01*
X5660989Y53635430D01*
X5637251Y53413305D01*
X5637548Y53408152D01*
X5637548Y53408149D01*
X5643311Y53308197D01*
X5650110Y53190285D01*
X5651247Y53185239D01*
X5651248Y53185233D01*
X5662572Y53134988D01*
X5699222Y52972361D01*
X5743783Y52862620D01*
X5778334Y52777531D01*
X5783266Y52765384D01*
X5899987Y52574912D01*
X6046250Y52406062D01*
X6218126Y52263368D01*
X6291955Y52220226D01*
X6340679Y52168588D01*
X6353750Y52098805D01*
X6327019Y52033033D01*
X6286562Y51999673D01*
X6278457Y51995454D01*
X6269738Y51989964D01*
X6099433Y51862095D01*
X6091726Y51855252D01*
X5944590Y51701283D01*
X5938104Y51693273D01*
X5818098Y51517351D01*
X5813000Y51508377D01*
X5723338Y51315217D01*
X5719775Y51305530D01*
X5664389Y51105817D01*
X5665912Y51097393D01*
X5678292Y51094000D01*
X8318344Y51094000D01*
X8331875Y51097973D01*
X8333180Y51107053D01*
X8291214Y51274125D01*
X8287894Y51283876D01*
X8202972Y51479186D01*
X8198105Y51488261D01*
X8082426Y51667074D01*
X8076136Y51675243D01*
X7932806Y51832760D01*
X7925273Y51839785D01*
X7758139Y51971778D01*
X7749556Y51977480D01*
X7712602Y51997880D01*
X7662631Y52048313D01*
X7647859Y52117755D01*
X7672975Y52184161D01*
X7700327Y52210768D01*
X7723797Y52227509D01*
X7879860Y52338827D01*
X8038096Y52496511D01*
X8090203Y52569026D01*
X8146198Y52612674D01*
X8192526Y52621500D01*
X20040629Y52621500D01*
X20108750Y52601498D01*
X20129724Y52584595D01*
X23080595Y49633724D01*
X23114621Y49571412D01*
X23117500Y49544629D01*
X23117500Y23054070D01*
X23116067Y23035120D01*
X23114117Y23022301D01*
X23112801Y23013651D01*
X23113394Y23006359D01*
X23113394Y23006356D01*
X23117085Y22960982D01*
X23117500Y22950767D01*
X23117500Y22942707D01*
X23117925Y22939063D01*
X23120789Y22914493D01*
X23121222Y22910118D01*
X23125316Y22859791D01*
X23127140Y22837363D01*
X23129396Y22830399D01*
X23130587Y22824440D01*
X23131971Y22818585D01*
X23132818Y22811319D01*
X23157735Y22742673D01*
X23159152Y22738545D01*
X23181649Y22669101D01*
X23185445Y22662846D01*
X23187951Y22657372D01*
X23190670Y22651942D01*
X23193167Y22645063D01*
X23197180Y22638943D01*
X23197180Y22638942D01*
X23233186Y22584024D01*
X23235523Y22580320D01*
X23273405Y22517893D01*
X23277121Y22513685D01*
X23277122Y22513684D01*
X23280803Y22509516D01*
X23280776Y22509492D01*
X23283429Y22506500D01*
X23286132Y22503267D01*
X23290144Y22497148D01*
X23295456Y22492116D01*
X23346383Y22443872D01*
X23348825Y22441494D01*
X24259230Y21531089D01*
X24271616Y21516677D01*
X24280149Y21505082D01*
X24280154Y21505077D01*
X24284492Y21499182D01*
X24290070Y21494443D01*
X24290073Y21494440D01*
X24324768Y21464965D01*
X24332284Y21458035D01*
X24337980Y21452339D01*
X24340841Y21450076D01*
X24340846Y21450071D01*
X24360266Y21434707D01*
X24363667Y21431918D01*
X24419285Y21384667D01*
X24425805Y21381338D01*
X24430852Y21377972D01*
X24435976Y21374807D01*
X24441717Y21370265D01*
X24448348Y21367166D01*
X24448351Y21367164D01*
X24507830Y21339366D01*
X24511776Y21337438D01*
X24576808Y21304231D01*
X24583914Y21302492D01*
X24589564Y21300391D01*
X24595321Y21298476D01*
X24601950Y21295378D01*
X24673435Y21280509D01*
X24677701Y21279543D01*
X24748610Y21262192D01*
X24754212Y21261844D01*
X24754215Y21261844D01*
X24759764Y21261500D01*
X24759762Y21261465D01*
X24763734Y21261225D01*
X24767955Y21260848D01*
X24775115Y21259359D01*
X24852542Y21261454D01*
X24855950Y21261500D01*
X26508133Y21261500D01*
X26576254Y21241498D01*
X26611345Y21207772D01*
X26633802Y21175700D01*
X26795700Y21013802D01*
X26800208Y21010645D01*
X26800211Y21010643D01*
X26878389Y20955902D01*
X26983251Y20882477D01*
X26988233Y20880154D01*
X26988238Y20880151D01*
X27022457Y20864195D01*
X27075742Y20817278D01*
X27095203Y20749001D01*
X27074661Y20681041D01*
X27022457Y20635805D01*
X26988238Y20619849D01*
X26988233Y20619846D01*
X26983251Y20617523D01*
X26878389Y20544098D01*
X26800211Y20489357D01*
X26800208Y20489355D01*
X26795700Y20486198D01*
X26633802Y20324300D01*
X26502477Y20136749D01*
X26500154Y20131767D01*
X26500151Y20131762D01*
X26408039Y19934225D01*
X26405716Y19929243D01*
X26346457Y19708087D01*
X26326502Y19480000D01*
X26346457Y19251913D01*
X26405716Y19030757D01*
X26408039Y19025776D01*
X26408039Y19025775D01*
X26500151Y18828238D01*
X26500154Y18828233D01*
X26502477Y18823251D01*
X26633802Y18635700D01*
X26795700Y18473802D01*
X26800208Y18470645D01*
X26800211Y18470643D01*
X26878389Y18415902D01*
X26983251Y18342477D01*
X26988233Y18340154D01*
X26988238Y18340151D01*
X27022457Y18324195D01*
X27075742Y18277278D01*
X27095203Y18209001D01*
X27074661Y18141041D01*
X27022457Y18095805D01*
X26988238Y18079849D01*
X26988233Y18079846D01*
X26983251Y18077523D01*
X26878389Y18004098D01*
X26800211Y17949357D01*
X26800208Y17949355D01*
X26795700Y17946198D01*
X26633802Y17784300D01*
X26502477Y17596749D01*
X26500154Y17591767D01*
X26500151Y17591762D01*
X26408039Y17394225D01*
X26405716Y17389243D01*
X26346457Y17168087D01*
X26326502Y16940000D01*
X26346457Y16711913D01*
X26405716Y16490757D01*
X26408039Y16485776D01*
X26408039Y16485775D01*
X26500151Y16288238D01*
X26500154Y16288233D01*
X26502477Y16283251D01*
X26633802Y16095700D01*
X26795700Y15933802D01*
X26800208Y15930645D01*
X26800211Y15930643D01*
X26878389Y15875902D01*
X26983251Y15802477D01*
X26988233Y15800154D01*
X26988238Y15800151D01*
X27022457Y15784195D01*
X27075742Y15737278D01*
X27095203Y15669001D01*
X27074661Y15601041D01*
X27022457Y15555805D01*
X26988238Y15539849D01*
X26988233Y15539846D01*
X26983251Y15537523D01*
X26878389Y15464098D01*
X26800211Y15409357D01*
X26800208Y15409355D01*
X26795700Y15406198D01*
X26633802Y15244300D01*
X26502477Y15056749D01*
X26500154Y15051767D01*
X26500151Y15051762D01*
X26408039Y14854225D01*
X26405716Y14849243D01*
X26346457Y14628087D01*
X26326502Y14400000D01*
X26346457Y14171913D01*
X26405716Y13950757D01*
X26408039Y13945776D01*
X26408039Y13945775D01*
X26500151Y13748238D01*
X26500154Y13748233D01*
X26502477Y13743251D01*
X26633802Y13555700D01*
X26795700Y13393802D01*
X26800208Y13390645D01*
X26800211Y13390643D01*
X26878389Y13335902D01*
X26983251Y13262477D01*
X26988233Y13260154D01*
X26988238Y13260151D01*
X27022457Y13244195D01*
X27075742Y13197278D01*
X27095203Y13129001D01*
X27074661Y13061041D01*
X27022457Y13015805D01*
X26988238Y12999849D01*
X26988233Y12999846D01*
X26983251Y12997523D01*
X26878389Y12924098D01*
X26800211Y12869357D01*
X26800208Y12869355D01*
X26795700Y12866198D01*
X26633802Y12704300D01*
X26502477Y12516749D01*
X26500154Y12511767D01*
X26500151Y12511762D01*
X26408039Y12314225D01*
X26405716Y12309243D01*
X26346457Y12088087D01*
X26326502Y11860000D01*
X26346457Y11631913D01*
X26405716Y11410757D01*
X26408039Y11405776D01*
X26408039Y11405775D01*
X26500151Y11208238D01*
X26500154Y11208233D01*
X26502477Y11203251D01*
X26633802Y11015700D01*
X26795700Y10853802D01*
X26800208Y10850645D01*
X26800211Y10850643D01*
X26878389Y10795902D01*
X26983251Y10722477D01*
X26988233Y10720154D01*
X26988238Y10720151D01*
X27022457Y10704195D01*
X27075742Y10657278D01*
X27095203Y10589001D01*
X27074661Y10521041D01*
X27022457Y10475805D01*
X26988238Y10459849D01*
X26988233Y10459846D01*
X26983251Y10457523D01*
X26878389Y10384098D01*
X26800211Y10329357D01*
X26800208Y10329355D01*
X26795700Y10326198D01*
X26633802Y10164300D01*
X26502477Y9976749D01*
X26500154Y9971767D01*
X26500151Y9971762D01*
X26408039Y9774225D01*
X26405716Y9769243D01*
X26346457Y9548087D01*
X26326502Y9320000D01*
X26346457Y9091913D01*
X26405716Y8870757D01*
X26408039Y8865776D01*
X26408039Y8865775D01*
X26500151Y8668238D01*
X26500154Y8668233D01*
X26502477Y8663251D01*
X26633802Y8475700D01*
X26795700Y8313802D01*
X26800208Y8310645D01*
X26800211Y8310643D01*
X26803710Y8308193D01*
X26983251Y8182477D01*
X26988233Y8180154D01*
X26988238Y8180151D01*
X27022457Y8164195D01*
X27075742Y8117278D01*
X27095203Y8049001D01*
X27074661Y7981041D01*
X27022457Y7935805D01*
X26988238Y7919849D01*
X26988233Y7919846D01*
X26983251Y7917523D01*
X26878389Y7844098D01*
X26800211Y7789357D01*
X26800208Y7789355D01*
X26795700Y7786198D01*
X26633802Y7624300D01*
X26502477Y7436749D01*
X26500154Y7431767D01*
X26500151Y7431762D01*
X26430487Y7282365D01*
X26405716Y7229243D01*
X26404294Y7223935D01*
X26404293Y7223933D01*
X26347881Y7013402D01*
X26346457Y7008087D01*
X26326502Y6780000D01*
X26346457Y6551913D01*
X26347881Y6546600D01*
X26347881Y6546598D01*
X26389089Y6392811D01*
X26405716Y6330757D01*
X26408039Y6325776D01*
X26408039Y6325775D01*
X26500151Y6128238D01*
X26500154Y6128233D01*
X26502477Y6123251D01*
X26633802Y5935700D01*
X26795700Y5773802D01*
X26800208Y5770645D01*
X26800211Y5770643D01*
X26863875Y5726065D01*
X26983251Y5642477D01*
X26988233Y5640154D01*
X26988238Y5640151D01*
X27022457Y5624195D01*
X27075742Y5577278D01*
X27095203Y5509001D01*
X27074661Y5441041D01*
X27022457Y5395805D01*
X26988238Y5379849D01*
X26988233Y5379846D01*
X26983251Y5377523D01*
X26950284Y5354439D01*
X26800211Y5249357D01*
X26800208Y5249355D01*
X26795700Y5246198D01*
X26633802Y5084300D01*
X26502477Y4896749D01*
X26500154Y4891767D01*
X26500151Y4891762D01*
X26408039Y4694225D01*
X26405716Y4689243D01*
X26404294Y4683935D01*
X26404293Y4683933D01*
X26366992Y4544723D01*
X26346457Y4468087D01*
X26326502Y4240000D01*
X26346457Y4011913D01*
X26405716Y3790757D01*
X26408039Y3785776D01*
X26408039Y3785775D01*
X26500151Y3588238D01*
X26500154Y3588233D01*
X26502477Y3583251D01*
X26633802Y3395700D01*
X26795700Y3233802D01*
X26800208Y3230645D01*
X26800211Y3230643D01*
X26829887Y3209864D01*
X26983251Y3102477D01*
X26988233Y3100154D01*
X26988238Y3100151D01*
X27184130Y3008806D01*
X27190757Y3005716D01*
X27196065Y3004294D01*
X27196067Y3004293D01*
X27406598Y2947881D01*
X27406600Y2947881D01*
X27411913Y2946457D01*
X27640000Y2926502D01*
X27868087Y2946457D01*
X27873400Y2947881D01*
X27873402Y2947881D01*
X28083933Y3004293D01*
X28083935Y3004294D01*
X28089243Y3005716D01*
X28095870Y3008806D01*
X28291762Y3100151D01*
X28291767Y3100154D01*
X28296749Y3102477D01*
X28450113Y3209864D01*
X28479789Y3230643D01*
X28479792Y3230645D01*
X28484300Y3233802D01*
X28646198Y3395700D01*
X28777523Y3583251D01*
X28779846Y3588233D01*
X28779849Y3588238D01*
X28871961Y3785775D01*
X28871961Y3785776D01*
X28874284Y3790757D01*
X28933543Y4011913D01*
X28953498Y4240000D01*
X28933543Y4468087D01*
X28913008Y4544723D01*
X28875707Y4683933D01*
X28875706Y4683935D01*
X28874284Y4689243D01*
X28871961Y4694225D01*
X28779849Y4891762D01*
X28779846Y4891767D01*
X28777523Y4896749D01*
X28697127Y5011566D01*
X61686661Y5011566D01*
X61704792Y4653660D01*
X61705329Y4650305D01*
X61705330Y4650299D01*
X61744582Y4405243D01*
X61761470Y4299805D01*
X61856033Y3954141D01*
X61987374Y3620712D01*
X62007041Y3583251D01*
X62103140Y3400211D01*
X62153957Y3303418D01*
X62155858Y3300589D01*
X62155864Y3300579D01*
X62290547Y3100151D01*
X62353834Y3005971D01*
X62584665Y2731850D01*
X62843751Y2484262D01*
X63128061Y2266103D01*
X63160056Y2246650D01*
X63431355Y2081697D01*
X63431360Y2081694D01*
X63434270Y2079925D01*
X63437358Y2078479D01*
X63437357Y2078479D01*
X63755710Y1929351D01*
X63755720Y1929347D01*
X63758794Y1927907D01*
X63762012Y1926805D01*
X63762015Y1926804D01*
X64094615Y1812929D01*
X64094623Y1812927D01*
X64097838Y1811826D01*
X64447435Y1733041D01*
X64499728Y1727083D01*
X64800114Y1692858D01*
X64800122Y1692858D01*
X64803497Y1692473D01*
X64806901Y1692455D01*
X64806904Y1692455D01*
X65001227Y1691438D01*
X65161857Y1690597D01*
X65165243Y1690947D01*
X65165245Y1690947D01*
X65514932Y1727083D01*
X65514941Y1727084D01*
X65518324Y1727434D01*
X65521657Y1728148D01*
X65521660Y1728149D01*
X65694186Y1765136D01*
X65868727Y1802554D01*
X66208968Y1915078D01*
X66535066Y2063689D01*
X66629052Y2119494D01*
X66840262Y2244901D01*
X66840267Y2244904D01*
X66843207Y2246650D01*
X67129786Y2461820D01*
X67391451Y2706681D01*
X67625140Y2978370D01*
X67731750Y3133488D01*
X67826190Y3270899D01*
X67826195Y3270906D01*
X67828120Y3273708D01*
X67829732Y3276702D01*
X67829737Y3276710D01*
X67996395Y3586228D01*
X67998017Y3589240D01*
X68132842Y3921276D01*
X68143142Y3957432D01*
X68222074Y4234525D01*
X68231020Y4265930D01*
X68264639Y4462607D01*
X68290829Y4615825D01*
X68290829Y4615827D01*
X68291401Y4619172D01*
X68293511Y4653660D01*
X68313168Y4975072D01*
X68313278Y4976869D01*
X68313359Y5000000D01*
X68293979Y5357841D01*
X68236066Y5711495D01*
X68140297Y6056827D01*
X68137243Y6064503D01*
X68009052Y6386631D01*
X68007793Y6389795D01*
X67921956Y6551913D01*
X67841702Y6703487D01*
X67841698Y6703494D01*
X67840103Y6706506D01*
X67639190Y7003254D01*
X67635092Y7008087D01*
X67543506Y7116081D01*
X67407403Y7276568D01*
X67147454Y7523250D01*
X66862384Y7740415D01*
X66859472Y7742172D01*
X66859467Y7742175D01*
X66558443Y7923764D01*
X66558437Y7923767D01*
X66555528Y7925522D01*
X66230475Y8076407D01*
X66060752Y8133855D01*
X65894255Y8190211D01*
X65894250Y8190212D01*
X65891028Y8191303D01*
X65692681Y8235276D01*
X65544493Y8268129D01*
X65544487Y8268130D01*
X65541158Y8268868D01*
X65537769Y8269242D01*
X65537764Y8269243D01*
X65188338Y8307820D01*
X65188333Y8307820D01*
X65184957Y8308193D01*
X65181558Y8308199D01*
X65181557Y8308199D01*
X65012080Y8308495D01*
X64826592Y8308818D01*
X64713413Y8296723D01*
X64473639Y8271099D01*
X64473631Y8271098D01*
X64470256Y8270737D01*
X64120117Y8194394D01*
X63780271Y8080683D01*
X63777178Y8079261D01*
X63777177Y8079260D01*
X63595090Y7995509D01*
X63454694Y7930934D01*
X63451760Y7929178D01*
X63451758Y7929177D01*
X63206346Y7782301D01*
X63147193Y7746899D01*
X63144467Y7744837D01*
X63144465Y7744836D01*
X62979124Y7619789D01*
X62861367Y7530730D01*
X62600559Y7284957D01*
X62367819Y7012454D01*
X62365900Y7009642D01*
X62365897Y7009637D01*
X62272624Y6872903D01*
X62165871Y6716409D01*
X61997077Y6400286D01*
X61863411Y6067782D01*
X61862491Y6064508D01*
X61862489Y6064503D01*
X61779889Y5770643D01*
X61766437Y5722787D01*
X61765875Y5719430D01*
X61765875Y5719429D01*
X61708132Y5374366D01*
X61707290Y5369337D01*
X61686661Y5011566D01*
X28697127Y5011566D01*
X28646198Y5084300D01*
X28484300Y5246198D01*
X28479792Y5249355D01*
X28479789Y5249357D01*
X28329716Y5354439D01*
X28296749Y5377523D01*
X28291767Y5379846D01*
X28291762Y5379849D01*
X28257543Y5395805D01*
X28204258Y5442722D01*
X28184797Y5510999D01*
X28205339Y5578959D01*
X28257543Y5624195D01*
X28291762Y5640151D01*
X28291767Y5640154D01*
X28296749Y5642477D01*
X28416125Y5726065D01*
X28479789Y5770643D01*
X28479792Y5770645D01*
X28484300Y5773802D01*
X28646198Y5935700D01*
X28777523Y6123251D01*
X28779846Y6128233D01*
X28779849Y6128238D01*
X28871961Y6325775D01*
X28871961Y6325776D01*
X28874284Y6330757D01*
X28890912Y6392811D01*
X28932119Y6546598D01*
X28932119Y6546600D01*
X28933543Y6551913D01*
X28953498Y6780000D01*
X28933543Y7008087D01*
X28932119Y7013402D01*
X28875707Y7223933D01*
X28875706Y7223935D01*
X28874284Y7229243D01*
X28849513Y7282365D01*
X28779849Y7431762D01*
X28779846Y7431767D01*
X28777523Y7436749D01*
X28646198Y7624300D01*
X28484300Y7786198D01*
X28479792Y7789355D01*
X28479789Y7789357D01*
X28401611Y7844098D01*
X28296749Y7917523D01*
X28291767Y7919846D01*
X28291762Y7919849D01*
X28257543Y7935805D01*
X28204258Y7982722D01*
X28184797Y8050999D01*
X28205339Y8118959D01*
X28257543Y8164195D01*
X28291762Y8180151D01*
X28291767Y8180154D01*
X28296749Y8182477D01*
X28476290Y8308193D01*
X28479789Y8310643D01*
X28479792Y8310645D01*
X28484300Y8313802D01*
X28646198Y8475700D01*
X28777523Y8663251D01*
X28779846Y8668233D01*
X28779849Y8668238D01*
X28871961Y8865775D01*
X28871961Y8865776D01*
X28874284Y8870757D01*
X28933543Y9091913D01*
X28953498Y9320000D01*
X28933543Y9548087D01*
X28874284Y9769243D01*
X28871961Y9774225D01*
X28779849Y9971762D01*
X28779846Y9971767D01*
X28777523Y9976749D01*
X28646198Y10164300D01*
X28484300Y10326198D01*
X28479792Y10329355D01*
X28479789Y10329357D01*
X28401611Y10384098D01*
X28296749Y10457523D01*
X28291767Y10459846D01*
X28291762Y10459849D01*
X28257543Y10475805D01*
X28204258Y10522722D01*
X28184797Y10590999D01*
X28205339Y10658959D01*
X28257543Y10704195D01*
X28291762Y10720151D01*
X28291767Y10720154D01*
X28296749Y10722477D01*
X28401611Y10795902D01*
X28479789Y10850643D01*
X28479792Y10850645D01*
X28484300Y10853802D01*
X28646198Y11015700D01*
X28777523Y11203251D01*
X28779846Y11208233D01*
X28779849Y11208238D01*
X28871961Y11405775D01*
X28871961Y11405776D01*
X28874284Y11410757D01*
X28933543Y11631913D01*
X28953498Y11860000D01*
X28933543Y12088087D01*
X28874284Y12309243D01*
X28871961Y12314225D01*
X28779849Y12511762D01*
X28779846Y12511767D01*
X28777523Y12516749D01*
X28646198Y12704300D01*
X28484300Y12866198D01*
X28479792Y12869355D01*
X28479789Y12869357D01*
X28401611Y12924098D01*
X28296749Y12997523D01*
X28291767Y12999846D01*
X28291762Y12999849D01*
X28257543Y13015805D01*
X28204258Y13062722D01*
X28184797Y13130999D01*
X28205339Y13198959D01*
X28257543Y13244195D01*
X28291762Y13260151D01*
X28291767Y13260154D01*
X28296749Y13262477D01*
X28401611Y13335902D01*
X28479789Y13390643D01*
X28479792Y13390645D01*
X28484300Y13393802D01*
X28646198Y13555700D01*
X28777523Y13743251D01*
X28779846Y13748233D01*
X28779849Y13748238D01*
X28871961Y13945775D01*
X28871961Y13945776D01*
X28874284Y13950757D01*
X28933543Y14171913D01*
X28953498Y14400000D01*
X28933543Y14628087D01*
X28874284Y14849243D01*
X28871961Y14854225D01*
X28779849Y15051762D01*
X28779846Y15051767D01*
X28777523Y15056749D01*
X28646198Y15244300D01*
X28484300Y15406198D01*
X28479792Y15409355D01*
X28479789Y15409357D01*
X28401611Y15464098D01*
X28296749Y15537523D01*
X28291767Y15539846D01*
X28291762Y15539849D01*
X28257543Y15555805D01*
X28204258Y15602722D01*
X28184797Y15670999D01*
X28205339Y15738959D01*
X28257543Y15784195D01*
X28291762Y15800151D01*
X28291767Y15800154D01*
X28296749Y15802477D01*
X28401611Y15875902D01*
X28479789Y15930643D01*
X28479792Y15930645D01*
X28484300Y15933802D01*
X28646198Y16095700D01*
X28777523Y16283251D01*
X28779846Y16288233D01*
X28779849Y16288238D01*
X28871961Y16485775D01*
X28871961Y16485776D01*
X28874284Y16490757D01*
X28933543Y16711913D01*
X28953498Y16940000D01*
X28933543Y17168087D01*
X28874284Y17389243D01*
X28871961Y17394225D01*
X28779849Y17591762D01*
X28779846Y17591767D01*
X28777523Y17596749D01*
X28646198Y17784300D01*
X28484300Y17946198D01*
X28479792Y17949355D01*
X28479789Y17949357D01*
X28401611Y18004098D01*
X28296749Y18077523D01*
X28291767Y18079846D01*
X28291762Y18079849D01*
X28257543Y18095805D01*
X28204258Y18142722D01*
X28184797Y18210999D01*
X28205339Y18278959D01*
X28257543Y18324195D01*
X28291762Y18340151D01*
X28291767Y18340154D01*
X28296749Y18342477D01*
X28401611Y18415902D01*
X28479789Y18470643D01*
X28479792Y18470645D01*
X28484300Y18473802D01*
X28646198Y18635700D01*
X28777523Y18823251D01*
X28779846Y18828233D01*
X28779849Y18828238D01*
X28871961Y19025775D01*
X28871961Y19025776D01*
X28874284Y19030757D01*
X28933543Y19251913D01*
X28953498Y19480000D01*
X28933543Y19708087D01*
X28874284Y19929243D01*
X28871961Y19934225D01*
X28779849Y20131762D01*
X28779846Y20131767D01*
X28777523Y20136749D01*
X28646198Y20324300D01*
X28484300Y20486198D01*
X28479792Y20489355D01*
X28479789Y20489357D01*
X28401611Y20544098D01*
X28296749Y20617523D01*
X28291767Y20619846D01*
X28291762Y20619849D01*
X28257543Y20635805D01*
X28204258Y20682722D01*
X28184797Y20750999D01*
X28205339Y20818959D01*
X28257543Y20864195D01*
X28291762Y20880151D01*
X28291767Y20880154D01*
X28296749Y20882477D01*
X28401611Y20955902D01*
X28479789Y21010643D01*
X28479792Y21010645D01*
X28484300Y21013802D01*
X28646198Y21175700D01*
X28777523Y21363251D01*
X28779846Y21368233D01*
X28779849Y21368238D01*
X28871961Y21565775D01*
X28871961Y21565776D01*
X28874284Y21570757D01*
X28933543Y21791913D01*
X28953498Y22020000D01*
X28933543Y22248087D01*
X28932119Y22253402D01*
X28875707Y22463933D01*
X28875706Y22463935D01*
X28874284Y22469243D01*
X28853561Y22513684D01*
X28779849Y22671762D01*
X28779846Y22671767D01*
X28777523Y22676749D01*
X28680435Y22815405D01*
X28649357Y22859789D01*
X28649355Y22859792D01*
X28646198Y22864300D01*
X28484300Y23026198D01*
X28479792Y23029355D01*
X28479789Y23029357D01*
X28401611Y23084098D01*
X28296749Y23157523D01*
X28291767Y23159846D01*
X28291762Y23159849D01*
X28257543Y23175805D01*
X28204258Y23222722D01*
X28184797Y23290999D01*
X28205339Y23358959D01*
X28257543Y23404195D01*
X28291762Y23420151D01*
X28291767Y23420154D01*
X28296749Y23422477D01*
X28401611Y23495902D01*
X28479789Y23550643D01*
X28479792Y23550645D01*
X28484300Y23553802D01*
X28646198Y23715700D01*
X28777523Y23903251D01*
X28779846Y23908233D01*
X28779849Y23908238D01*
X28871961Y24105775D01*
X28871961Y24105776D01*
X28874284Y24110757D01*
X28933543Y24331913D01*
X28953498Y24560000D01*
X28933543Y24788087D01*
X28874284Y25009243D01*
X28859780Y25040347D01*
X28779849Y25211762D01*
X28779846Y25211767D01*
X28777523Y25216749D01*
X28704098Y25321611D01*
X28649357Y25399789D01*
X28649355Y25399792D01*
X28646198Y25404300D01*
X28484300Y25566198D01*
X28479792Y25569355D01*
X28479789Y25569357D01*
X28401611Y25624098D01*
X28296749Y25697523D01*
X28291767Y25699846D01*
X28291762Y25699849D01*
X28257543Y25715805D01*
X28204258Y25762722D01*
X28184797Y25830999D01*
X28205339Y25898959D01*
X28257543Y25944195D01*
X28291762Y25960151D01*
X28291767Y25960154D01*
X28296749Y25962477D01*
X28433564Y26058276D01*
X28479789Y26090643D01*
X28479792Y26090645D01*
X28484300Y26093802D01*
X28646198Y26255700D01*
X28777523Y26443251D01*
X28779846Y26448233D01*
X28779849Y26448238D01*
X28871961Y26645775D01*
X28871961Y26645776D01*
X28874284Y26650757D01*
X28933543Y26871913D01*
X28953498Y27100000D01*
X28933543Y27328087D01*
X28874284Y27549243D01*
X28871961Y27554225D01*
X28779849Y27751762D01*
X28779846Y27751767D01*
X28777523Y27756749D01*
X28646198Y27944300D01*
X28484300Y28106198D01*
X28479792Y28109355D01*
X28479789Y28109357D01*
X28401611Y28164098D01*
X28296749Y28237523D01*
X28291767Y28239846D01*
X28291762Y28239849D01*
X28257543Y28255805D01*
X28204258Y28302722D01*
X28184797Y28370999D01*
X28205339Y28438959D01*
X28257543Y28484195D01*
X28291762Y28500151D01*
X28291767Y28500154D01*
X28296749Y28502477D01*
X28437848Y28601276D01*
X28479789Y28630643D01*
X28479792Y28630645D01*
X28484300Y28633802D01*
X28646198Y28795700D01*
X28661620Y28817724D01*
X28774366Y28978743D01*
X28777523Y28983251D01*
X28779846Y28988233D01*
X28779849Y28988238D01*
X28871961Y29185775D01*
X28871961Y29185776D01*
X28874284Y29190757D01*
X28933543Y29411913D01*
X28953498Y29640000D01*
X28933543Y29868087D01*
X28874284Y30089243D01*
X28871961Y30094225D01*
X28779849Y30291762D01*
X28779846Y30291767D01*
X28777523Y30296749D01*
X28675988Y30441756D01*
X28649357Y30479789D01*
X28649355Y30479792D01*
X28646198Y30484300D01*
X28604093Y30526405D01*
X28570067Y30588717D01*
X28575132Y30659532D01*
X28617679Y30716368D01*
X28684199Y30741179D01*
X28693188Y30741500D01*
X30445874Y30741500D01*
X30513995Y30721498D01*
X30560488Y30667842D01*
X30563856Y30659730D01*
X30564428Y30658204D01*
X30594385Y30578295D01*
X30681739Y30461739D01*
X30798295Y30374385D01*
X30934684Y30323255D01*
X30996866Y30316500D01*
X33863134Y30316500D01*
X33925316Y30323255D01*
X34061705Y30374385D01*
X34178261Y30461739D01*
X34265615Y30578295D01*
X34316745Y30714684D01*
X34323500Y30776866D01*
X34323500Y30780331D01*
X35677001Y30780331D01*
X35677371Y30773510D01*
X35682895Y30722648D01*
X35686521Y30707396D01*
X35731676Y30586946D01*
X35740214Y30571351D01*
X35816715Y30469276D01*
X35829276Y30456715D01*
X35931351Y30380214D01*
X35946946Y30371676D01*
X36067394Y30326522D01*
X36082649Y30322895D01*
X36133514Y30317369D01*
X36140328Y30317000D01*
X37297885Y30317000D01*
X37313124Y30321475D01*
X37314329Y30322865D01*
X37316000Y30330548D01*
X37316000Y30335116D01*
X37824000Y30335116D01*
X37828475Y30319877D01*
X37829865Y30318672D01*
X37837548Y30317001D01*
X38999669Y30317001D01*
X39006490Y30317371D01*
X39057352Y30322895D01*
X39072604Y30326521D01*
X39193054Y30371676D01*
X39208649Y30380214D01*
X39310724Y30456715D01*
X39323285Y30469276D01*
X39399786Y30571351D01*
X39408324Y30586946D01*
X39453478Y30707394D01*
X39457105Y30722649D01*
X39462631Y30773514D01*
X39463000Y30780328D01*
X39463000Y31727885D01*
X39458525Y31743124D01*
X39457135Y31744329D01*
X39449452Y31746000D01*
X37842115Y31746000D01*
X37826876Y31741525D01*
X37825671Y31740135D01*
X37824000Y31732452D01*
X37824000Y30335116D01*
X37316000Y30335116D01*
X37316000Y31727885D01*
X37311525Y31743124D01*
X37310135Y31744329D01*
X37302452Y31746000D01*
X35695116Y31746000D01*
X35679877Y31741525D01*
X35678672Y31740135D01*
X35677001Y31732452D01*
X35677001Y30780331D01*
X34323500Y30780331D01*
X34323500Y32272115D01*
X35677000Y32272115D01*
X35681475Y32256876D01*
X35682865Y32255671D01*
X35690548Y32254000D01*
X37297885Y32254000D01*
X37313124Y32258475D01*
X37314329Y32259865D01*
X37316000Y32267548D01*
X37316000Y32272115D01*
X37824000Y32272115D01*
X37828475Y32256876D01*
X37829865Y32255671D01*
X37837548Y32254000D01*
X39444884Y32254000D01*
X39460123Y32258475D01*
X39461328Y32259865D01*
X39462999Y32267548D01*
X39462999Y32424346D01*
X55841618Y32424346D01*
X55848673Y32414373D01*
X55879679Y32388449D01*
X55886598Y32383421D01*
X56111272Y32242485D01*
X56118807Y32238444D01*
X56360520Y32129306D01*
X56368551Y32126320D01*
X56622832Y32050998D01*
X56631184Y32049131D01*
X56893340Y32009016D01*
X56901874Y32008300D01*
X57167045Y32004133D01*
X57175596Y32004582D01*
X57438883Y32036443D01*
X57447284Y32038045D01*
X57703824Y32105347D01*
X57711926Y32108074D01*
X57956949Y32209566D01*
X57964617Y32213372D01*
X58193598Y32347178D01*
X58200679Y32351991D01*
X58280655Y32414699D01*
X58289125Y32426558D01*
X58282608Y32438182D01*
X57078812Y33641978D01*
X57064868Y33649592D01*
X57063035Y33649461D01*
X57056420Y33645210D01*
X55848910Y32437700D01*
X55841618Y32424346D01*
X39462999Y32424346D01*
X39462999Y33219669D01*
X39462629Y33226490D01*
X39457105Y33277352D01*
X39453479Y33292604D01*
X39408324Y33413054D01*
X39399786Y33428649D01*
X39323285Y33530724D01*
X39310724Y33543285D01*
X39208649Y33619786D01*
X39193054Y33628324D01*
X39072606Y33673478D01*
X39057351Y33677105D01*
X39006486Y33682631D01*
X38999672Y33683000D01*
X37842115Y33683000D01*
X37826876Y33678525D01*
X37825671Y33677135D01*
X37824000Y33669452D01*
X37824000Y32272115D01*
X37316000Y32272115D01*
X37316000Y33664884D01*
X37311525Y33680123D01*
X37310135Y33681328D01*
X37302452Y33682999D01*
X36140331Y33682999D01*
X36133510Y33682629D01*
X36082648Y33677105D01*
X36067396Y33673479D01*
X35946946Y33628324D01*
X35931351Y33619786D01*
X35829276Y33543285D01*
X35816715Y33530724D01*
X35740214Y33428649D01*
X35731676Y33413054D01*
X35686522Y33292606D01*
X35682895Y33277351D01*
X35677369Y33226486D01*
X35677000Y33219672D01*
X35677000Y32272115D01*
X34323500Y32272115D01*
X34323500Y33223134D01*
X34316745Y33285316D01*
X34265615Y33421705D01*
X34190185Y33522351D01*
X34165337Y33588857D01*
X34180390Y33658240D01*
X34201916Y33687011D01*
X34545701Y34030796D01*
X55053665Y34030796D01*
X55068932Y33766031D01*
X55070005Y33757530D01*
X55121065Y33497278D01*
X55123276Y33489026D01*
X55209184Y33238106D01*
X55212499Y33230221D01*
X55331664Y32993287D01*
X55336020Y32985921D01*
X55465347Y32797750D01*
X55475601Y32789406D01*
X55489342Y32796552D01*
X56693978Y34001188D01*
X56700356Y34012868D01*
X57430408Y34012868D01*
X57430539Y34011035D01*
X57434790Y34004420D01*
X58641730Y32797480D01*
X58653939Y32790813D01*
X58665439Y32799503D01*
X58762831Y32932087D01*
X58767418Y32939315D01*
X58893962Y33172379D01*
X58897530Y33180173D01*
X58991271Y33428250D01*
X58993748Y33436456D01*
X59052954Y33694962D01*
X59054294Y33703423D01*
X59078031Y33969384D01*
X59078277Y33974323D01*
X59078666Y34011515D01*
X59078523Y34016481D01*
X59060362Y34282877D01*
X59059201Y34291351D01*
X59005419Y34551056D01*
X59003120Y34559291D01*
X58914588Y34809295D01*
X58911191Y34817146D01*
X58789550Y35052822D01*
X58785122Y35060134D01*
X58666031Y35229583D01*
X58655509Y35237963D01*
X58642121Y35230911D01*
X57438022Y34026812D01*
X57430408Y34012868D01*
X56700356Y34012868D01*
X56701592Y34015132D01*
X56701461Y34016965D01*
X56697210Y34023580D01*
X55489814Y35230976D01*
X55477804Y35237534D01*
X55466064Y35228566D01*
X55357935Y35078089D01*
X55353418Y35070804D01*
X55229325Y34836433D01*
X55225839Y34828605D01*
X55134700Y34579554D01*
X55132311Y34571330D01*
X55075812Y34312205D01*
X55074563Y34303750D01*
X55053754Y34039347D01*
X55053665Y34030796D01*
X34545701Y34030796D01*
X36116405Y35601500D01*
X55842584Y35601500D01*
X55848980Y35590230D01*
X57053188Y34386022D01*
X57067132Y34378408D01*
X57068965Y34378539D01*
X57075580Y34382790D01*
X58282604Y35589814D01*
X58289795Y35602983D01*
X58282473Y35613220D01*
X58235233Y35651885D01*
X58228261Y35656840D01*
X58002122Y35795418D01*
X57994552Y35799376D01*
X57751704Y35905978D01*
X57743644Y35908880D01*
X57488592Y35981533D01*
X57480214Y35983315D01*
X57217656Y36020682D01*
X57209111Y36021309D01*
X56943908Y36022698D01*
X56935374Y36022161D01*
X56672433Y35987544D01*
X56664035Y35985851D01*
X56408238Y35915873D01*
X56400143Y35913054D01*
X56156199Y35809003D01*
X56148577Y35805119D01*
X55921013Y35668925D01*
X55913981Y35664038D01*
X55851053Y35613623D01*
X55842584Y35601500D01*
X36116405Y35601500D01*
X36166500Y35651595D01*
X36228812Y35685621D01*
X36255595Y35688500D01*
X46784233Y35688500D01*
X46795416Y35687973D01*
X46802909Y35686298D01*
X46810835Y35686547D01*
X46810836Y35686547D01*
X46870986Y35688438D01*
X46874945Y35688500D01*
X46902856Y35688500D01*
X46906791Y35688997D01*
X46906856Y35689005D01*
X46918693Y35689938D01*
X46950951Y35690952D01*
X46954970Y35691078D01*
X46962889Y35691327D01*
X46982343Y35696979D01*
X47001700Y35700987D01*
X47013930Y35702532D01*
X47013931Y35702532D01*
X47021797Y35703526D01*
X47029168Y35706445D01*
X47029170Y35706445D01*
X47062912Y35719804D01*
X47074142Y35723649D01*
X47108983Y35733771D01*
X47108984Y35733771D01*
X47116593Y35735982D01*
X47123412Y35740015D01*
X47123417Y35740017D01*
X47134028Y35746293D01*
X47151776Y35754988D01*
X47170617Y35762448D01*
X47197880Y35782255D01*
X47206387Y35788436D01*
X47216307Y35794952D01*
X47247535Y35813420D01*
X47247538Y35813422D01*
X47254362Y35817458D01*
X47268683Y35831779D01*
X47283717Y35844620D01*
X47293694Y35851869D01*
X47300107Y35856528D01*
X47328298Y35890605D01*
X47336288Y35899384D01*
X51065247Y39628343D01*
X51073537Y39635887D01*
X51080018Y39640000D01*
X51126659Y39689668D01*
X51129413Y39692509D01*
X51149135Y39712231D01*
X51151612Y39715424D01*
X51159317Y39724445D01*
X51167437Y39733092D01*
X51189586Y39756679D01*
X51193470Y39763744D01*
X51199346Y39774432D01*
X51210202Y39790959D01*
X51217757Y39800698D01*
X51217758Y39800700D01*
X51222614Y39806960D01*
X51240174Y39847540D01*
X51245391Y39858188D01*
X51262875Y39889991D01*
X51262876Y39889993D01*
X51266695Y39896940D01*
X51271733Y39916563D01*
X51278137Y39935266D01*
X51283033Y39946580D01*
X51283033Y39946581D01*
X51286181Y39953855D01*
X51287420Y39961678D01*
X51287423Y39961688D01*
X51293099Y39997524D01*
X51295505Y40009144D01*
X51304528Y40044289D01*
X51304528Y40044290D01*
X51306500Y40051970D01*
X51306500Y40072224D01*
X51308051Y40091935D01*
X51309980Y40104114D01*
X51311220Y40111943D01*
X51307059Y40155962D01*
X51306500Y40167819D01*
X51306500Y44078525D01*
X53043483Y44078525D01*
X53062472Y43861481D01*
X53064375Y43850688D01*
X53120764Y43640239D01*
X53124510Y43629947D01*
X53216586Y43432489D01*
X53222069Y43422994D01*
X53258509Y43370952D01*
X53268988Y43362576D01*
X53282434Y43369644D01*
X53983978Y44071188D01*
X53990356Y44082868D01*
X54720408Y44082868D01*
X54720539Y44081035D01*
X54724790Y44074420D01*
X55430287Y43368923D01*
X55442062Y43362493D01*
X55454077Y43371789D01*
X55489931Y43422994D01*
X55495414Y43432489D01*
X55587490Y43629947D01*
X55591236Y43640239D01*
X55647625Y43850688D01*
X55649528Y43861481D01*
X55668517Y44078525D01*
X55668517Y44089475D01*
X55649528Y44306519D01*
X55647625Y44317312D01*
X55591236Y44527761D01*
X55587490Y44538053D01*
X55495414Y44735511D01*
X55489931Y44745006D01*
X55453491Y44797048D01*
X55443012Y44805424D01*
X55429566Y44798356D01*
X54728022Y44096812D01*
X54720408Y44082868D01*
X53990356Y44082868D01*
X53991592Y44085132D01*
X53991461Y44086965D01*
X53987210Y44093580D01*
X53281713Y44799077D01*
X53269938Y44805507D01*
X53257923Y44796211D01*
X53222069Y44745006D01*
X53216586Y44735511D01*
X53124510Y44538053D01*
X53120764Y44527761D01*
X53064375Y44317312D01*
X53062472Y44306519D01*
X53043483Y44089475D01*
X53043483Y44078525D01*
X51306500Y44078525D01*
X51306500Y45171012D01*
X53634576Y45171012D01*
X53641644Y45157566D01*
X54343188Y44456022D01*
X54357132Y44448408D01*
X54358965Y44448539D01*
X54365580Y44452790D01*
X55071077Y45158287D01*
X55077507Y45170062D01*
X55068211Y45182077D01*
X55017006Y45217931D01*
X55007511Y45223414D01*
X54810053Y45315490D01*
X54799761Y45319236D01*
X54589312Y45375625D01*
X54578519Y45377528D01*
X54361475Y45396517D01*
X54350525Y45396517D01*
X54133481Y45377528D01*
X54122688Y45375625D01*
X53912239Y45319236D01*
X53901947Y45315490D01*
X53704489Y45223414D01*
X53694994Y45217931D01*
X53642952Y45181491D01*
X53634576Y45171012D01*
X51306500Y45171012D01*
X51306500Y45564346D01*
X55841618Y45564346D01*
X55848673Y45554373D01*
X55879679Y45528449D01*
X55886598Y45523421D01*
X56111272Y45382485D01*
X56118807Y45378444D01*
X56360520Y45269306D01*
X56368551Y45266320D01*
X56622832Y45190998D01*
X56631184Y45189131D01*
X56893340Y45149016D01*
X56901874Y45148300D01*
X57167045Y45144133D01*
X57175596Y45144582D01*
X57438883Y45176443D01*
X57447284Y45178045D01*
X57703824Y45245347D01*
X57711926Y45248074D01*
X57956949Y45349566D01*
X57964617Y45353372D01*
X58193598Y45487178D01*
X58200679Y45491991D01*
X58280655Y45554699D01*
X58289125Y45566558D01*
X58282608Y45578182D01*
X57078812Y46781978D01*
X57064868Y46789592D01*
X57063035Y46789461D01*
X57056420Y46785210D01*
X55848910Y45577700D01*
X55841618Y45564346D01*
X51306500Y45564346D01*
X51306500Y47170796D01*
X55053665Y47170796D01*
X55068932Y46906031D01*
X55070005Y46897530D01*
X55121065Y46637278D01*
X55123276Y46629026D01*
X55209184Y46378106D01*
X55212499Y46370221D01*
X55331664Y46133287D01*
X55336020Y46125921D01*
X55465347Y45937750D01*
X55475601Y45929406D01*
X55489342Y45936552D01*
X56693978Y47141188D01*
X56700356Y47152868D01*
X57430408Y47152868D01*
X57430539Y47151035D01*
X57434790Y47144420D01*
X58641730Y45937480D01*
X58653939Y45930813D01*
X58665439Y45939503D01*
X58762831Y46072087D01*
X58767418Y46079315D01*
X58893962Y46312379D01*
X58897530Y46320173D01*
X58991271Y46568250D01*
X58993748Y46576456D01*
X59052954Y46834962D01*
X59054294Y46843423D01*
X59078031Y47109384D01*
X59078277Y47114323D01*
X59078666Y47151515D01*
X59078523Y47156481D01*
X59060362Y47422877D01*
X59059201Y47431351D01*
X59005419Y47691056D01*
X59003120Y47699291D01*
X58914588Y47949295D01*
X58911191Y47957146D01*
X58789550Y48192822D01*
X58785122Y48200134D01*
X58666031Y48369583D01*
X58655509Y48377963D01*
X58642121Y48370911D01*
X57438022Y47166812D01*
X57430408Y47152868D01*
X56700356Y47152868D01*
X56701592Y47155132D01*
X56701461Y47156965D01*
X56697210Y47163580D01*
X55489814Y48370976D01*
X55477804Y48377534D01*
X55466064Y48368566D01*
X55357935Y48218089D01*
X55353418Y48210804D01*
X55229325Y47976433D01*
X55225839Y47968605D01*
X55134700Y47719554D01*
X55132311Y47711330D01*
X55075812Y47452205D01*
X55074563Y47443750D01*
X55053754Y47179347D01*
X55053665Y47170796D01*
X51306500Y47170796D01*
X51306500Y47437406D01*
X51326502Y47505527D01*
X51343405Y47526501D01*
X52558404Y48741500D01*
X55842584Y48741500D01*
X55848980Y48730230D01*
X57053188Y47526022D01*
X57067132Y47518408D01*
X57068965Y47518539D01*
X57075580Y47522790D01*
X58282604Y48729814D01*
X58289795Y48742983D01*
X58282473Y48753220D01*
X58235233Y48791885D01*
X58228261Y48796840D01*
X58002122Y48935418D01*
X57994552Y48939376D01*
X57751704Y49045978D01*
X57743644Y49048880D01*
X57488592Y49121533D01*
X57480214Y49123315D01*
X57217656Y49160682D01*
X57209111Y49161309D01*
X56943908Y49162698D01*
X56935374Y49162161D01*
X56672433Y49127544D01*
X56664035Y49125851D01*
X56408238Y49055873D01*
X56400143Y49053054D01*
X56156199Y48949003D01*
X56148577Y48945119D01*
X55921013Y48808925D01*
X55913981Y48804038D01*
X55851053Y48753623D01*
X55842584Y48741500D01*
X52558404Y48741500D01*
X56486499Y52669595D01*
X56548811Y52703621D01*
X56575594Y52706500D01*
X59046233Y52706500D01*
X59057416Y52705973D01*
X59064909Y52704298D01*
X59072835Y52704547D01*
X59072836Y52704547D01*
X59132986Y52706438D01*
X59136945Y52706500D01*
X59164856Y52706500D01*
X59168791Y52706997D01*
X59168856Y52707005D01*
X59180693Y52707938D01*
X59212951Y52708952D01*
X59216970Y52709078D01*
X59224889Y52709327D01*
X59244343Y52714979D01*
X59263700Y52718987D01*
X59275930Y52720532D01*
X59275931Y52720532D01*
X59283797Y52721526D01*
X59291168Y52724445D01*
X59291170Y52724445D01*
X59324912Y52737804D01*
X59336142Y52741649D01*
X59370983Y52751771D01*
X59370984Y52751771D01*
X59378593Y52753982D01*
X59385412Y52758015D01*
X59385417Y52758017D01*
X59396028Y52764293D01*
X59413776Y52772988D01*
X59432617Y52780448D01*
X59468387Y52806436D01*
X59478307Y52812952D01*
X59509535Y52831420D01*
X59509538Y52831422D01*
X59516362Y52835458D01*
X59530683Y52849779D01*
X59545717Y52862620D01*
X59555694Y52869869D01*
X59562107Y52874528D01*
X59567157Y52880632D01*
X59567163Y52880638D01*
X59587992Y52905816D01*
X59646826Y52945554D01*
X59685076Y52951500D01*
X60143134Y52951500D01*
X60205316Y52958255D01*
X60341705Y53009385D01*
X60458261Y53096739D01*
X60545615Y53213295D01*
X60596745Y53349684D01*
X60603500Y53411866D01*
X60603500Y53808134D01*
X60600526Y53835517D01*
X60599344Y53846393D01*
X60599344Y53873607D01*
X60599567Y53875655D01*
X60602387Y53901617D01*
X60603131Y53908467D01*
X60603131Y53908472D01*
X60603500Y53911866D01*
X60603500Y54308134D01*
X60602522Y54317142D01*
X60599344Y54346393D01*
X60599344Y54373607D01*
X60603131Y54408467D01*
X60603131Y54408471D01*
X60603500Y54411866D01*
X60603500Y54808134D01*
X60599344Y54846394D01*
X60599344Y54873607D01*
X60603131Y54908467D01*
X60603131Y54908471D01*
X60603500Y54911866D01*
X60603500Y55308134D01*
X60599091Y55348720D01*
X60599091Y55375933D01*
X60602631Y55408517D01*
X60603000Y55415328D01*
X60603000Y55441885D01*
X60598525Y55457124D01*
X60572830Y55479389D01*
X60573288Y55479918D01*
X60560900Y55486682D01*
X60545793Y55506839D01*
X60545615Y55506705D01*
X60506003Y55559559D01*
X60481155Y55626065D01*
X60496208Y55695448D01*
X60546382Y55745678D01*
X60571330Y55756020D01*
X60600123Y55764475D01*
X60601328Y55765865D01*
X60602999Y55773548D01*
X60602999Y55804669D01*
X60602629Y55811490D01*
X60597105Y55862352D01*
X60593479Y55877604D01*
X60548324Y55998054D01*
X60539786Y56013649D01*
X60463285Y56115724D01*
X60450724Y56128285D01*
X60348649Y56204786D01*
X60333054Y56213324D01*
X60212606Y56258478D01*
X60197351Y56262105D01*
X60146486Y56267631D01*
X60139672Y56268000D01*
X59563115Y56268000D01*
X59547876Y56263525D01*
X59546671Y56262135D01*
X59545000Y56254452D01*
X59545000Y55894500D01*
X59524998Y55826379D01*
X59471342Y55779886D01*
X59419000Y55768500D01*
X59371000Y55768500D01*
X59302879Y55788502D01*
X59256386Y55842158D01*
X59245000Y55894500D01*
X59245000Y56249884D01*
X59240525Y56265123D01*
X59239135Y56266328D01*
X59231452Y56267999D01*
X58650331Y56267999D01*
X58643510Y56267629D01*
X58592648Y56262105D01*
X58577396Y56258479D01*
X58456946Y56213324D01*
X58441355Y56204788D01*
X58428725Y56195322D01*
X58362219Y56170473D01*
X58317099Y56178139D01*
X58316429Y56175832D01*
X58308819Y56178043D01*
X58301545Y56181191D01*
X58293722Y56182430D01*
X58293712Y56182433D01*
X58257876Y56188109D01*
X58246256Y56190515D01*
X58211111Y56199538D01*
X58211110Y56199538D01*
X58203430Y56201510D01*
X58183176Y56201510D01*
X58163465Y56203061D01*
X58151286Y56204990D01*
X58143457Y56206230D01*
X58135565Y56205484D01*
X58099439Y56202069D01*
X58087581Y56201510D01*
X40886995Y56201510D01*
X40818874Y56221512D01*
X40797900Y56238415D01*
X37433969Y59602346D01*
X55587618Y59602346D01*
X55594673Y59592373D01*
X55625679Y59566449D01*
X55632598Y59561421D01*
X55857272Y59420485D01*
X55864807Y59416444D01*
X56106520Y59307306D01*
X56114551Y59304320D01*
X56368832Y59228998D01*
X56377184Y59227131D01*
X56639340Y59187016D01*
X56647874Y59186300D01*
X56913045Y59182133D01*
X56921596Y59182582D01*
X57184883Y59214443D01*
X57193284Y59216045D01*
X57449824Y59283347D01*
X57457926Y59286074D01*
X57702949Y59387566D01*
X57710617Y59391372D01*
X57939598Y59525178D01*
X57946679Y59529991D01*
X58026655Y59592699D01*
X58035125Y59604558D01*
X58028608Y59616182D01*
X56824812Y60819978D01*
X56810868Y60827592D01*
X56809035Y60827461D01*
X56802420Y60823210D01*
X55594910Y59615700D01*
X55587618Y59602346D01*
X37433969Y59602346D01*
X35827519Y61208796D01*
X54799665Y61208796D01*
X54814932Y60944031D01*
X54816005Y60935530D01*
X54867065Y60675278D01*
X54869276Y60667026D01*
X54955184Y60416106D01*
X54958499Y60408221D01*
X55077664Y60171287D01*
X55082020Y60163921D01*
X55211347Y59975750D01*
X55221601Y59967406D01*
X55235342Y59974552D01*
X56439978Y61179188D01*
X56446356Y61190868D01*
X57176408Y61190868D01*
X57176539Y61189035D01*
X57180790Y61182420D01*
X58387730Y59975480D01*
X58399939Y59968813D01*
X58411439Y59977503D01*
X58508831Y60110087D01*
X58513418Y60117315D01*
X58639962Y60350379D01*
X58643530Y60358173D01*
X58737271Y60606250D01*
X58739748Y60614456D01*
X58798954Y60872962D01*
X58800294Y60881423D01*
X58824031Y61147384D01*
X58824277Y61152323D01*
X58824666Y61189515D01*
X58824523Y61194481D01*
X58806362Y61460877D01*
X58805201Y61469351D01*
X58751419Y61729056D01*
X58749120Y61737291D01*
X58660588Y61987295D01*
X58657191Y61995146D01*
X58535550Y62230822D01*
X58531122Y62238134D01*
X58412031Y62407583D01*
X58401509Y62415963D01*
X58388121Y62408911D01*
X57184022Y61204812D01*
X57176408Y61190868D01*
X56446356Y61190868D01*
X56447592Y61193132D01*
X56447461Y61194965D01*
X56443210Y61201580D01*
X55235814Y62408976D01*
X55223804Y62415534D01*
X55212064Y62406566D01*
X55103935Y62256089D01*
X55099418Y62248804D01*
X54975325Y62014433D01*
X54971839Y62006605D01*
X54880700Y61757554D01*
X54878311Y61749330D01*
X54821812Y61490205D01*
X54820563Y61481750D01*
X54799754Y61217347D01*
X54799665Y61208796D01*
X35827519Y61208796D01*
X34256815Y62779500D01*
X55588584Y62779500D01*
X55594980Y62768230D01*
X56799188Y61564022D01*
X56813132Y61556408D01*
X56814965Y61556539D01*
X56821580Y61560790D01*
X58028604Y62767814D01*
X58035795Y62780983D01*
X58028473Y62791220D01*
X57981233Y62829885D01*
X57974261Y62834840D01*
X57748122Y62973418D01*
X57740552Y62977376D01*
X57497704Y63083978D01*
X57489644Y63086880D01*
X57234592Y63159533D01*
X57226214Y63161315D01*
X56963656Y63198682D01*
X56955111Y63199309D01*
X56689908Y63200698D01*
X56681374Y63200161D01*
X56418433Y63165544D01*
X56410035Y63163851D01*
X56154238Y63093873D01*
X56146143Y63091054D01*
X55902199Y62987003D01*
X55894577Y62983119D01*
X55667013Y62846925D01*
X55659981Y62842038D01*
X55597053Y62791623D01*
X55588584Y62779500D01*
X34256815Y62779500D01*
X33817405Y63218910D01*
X33783379Y63281222D01*
X33780500Y63308005D01*
X33780500Y66762000D01*
X52788502Y66762000D01*
X52808457Y66533913D01*
X52809881Y66528600D01*
X52809881Y66528598D01*
X52862773Y66331206D01*
X52867716Y66312757D01*
X52870039Y66307776D01*
X52870039Y66307775D01*
X52962151Y66110238D01*
X52962154Y66110233D01*
X52964477Y66105251D01*
X53095802Y65917700D01*
X53254642Y65758860D01*
X53288668Y65696548D01*
X53283603Y65625733D01*
X53241056Y65568897D01*
X53209777Y65551784D01*
X53163362Y65534383D01*
X53113705Y65515768D01*
X53113704Y65515767D01*
X53105295Y65512615D01*
X52988739Y65425261D01*
X52901385Y65308705D01*
X52850255Y65172316D01*
X52843500Y65110134D01*
X52843500Y63413866D01*
X52850255Y63351684D01*
X52901385Y63215295D01*
X52988739Y63098739D01*
X53105295Y63011385D01*
X53241684Y62960255D01*
X53303866Y62953500D01*
X54900134Y62953500D01*
X54962316Y62960255D01*
X55098705Y63011385D01*
X55215261Y63098739D01*
X55302615Y63215295D01*
X55353745Y63351684D01*
X55360500Y63413866D01*
X55360500Y65110134D01*
X55353745Y65172316D01*
X55302615Y65308705D01*
X55215261Y65425261D01*
X55098705Y65512615D01*
X55090296Y65515767D01*
X55090295Y65515768D01*
X55040638Y65534383D01*
X54994223Y65551783D01*
X54937459Y65594424D01*
X54912759Y65660985D01*
X54927966Y65730334D01*
X54949358Y65758860D01*
X55108198Y65917700D01*
X55239523Y66105251D01*
X55241846Y66110233D01*
X55241849Y66110238D01*
X55333961Y66307775D01*
X55333961Y66307776D01*
X55336284Y66312757D01*
X55341228Y66331206D01*
X55394119Y66528598D01*
X55394119Y66528600D01*
X55395543Y66533913D01*
X55415498Y66762000D01*
X55415019Y66767475D01*
X55415019Y66767486D01*
X55401630Y66920518D01*
X55415618Y66990123D01*
X55465017Y67041115D01*
X55527150Y67057500D01*
X63693406Y67057500D01*
X63761527Y67037498D01*
X63782501Y67020595D01*
X65242595Y65560500D01*
X65276621Y65498188D01*
X65279500Y65471405D01*
X65279500Y57229005D01*
X65259498Y57160884D01*
X65242595Y57139910D01*
X64408090Y56305405D01*
X64345778Y56271379D01*
X64318995Y56268500D01*
X63046866Y56268500D01*
X62984684Y56261745D01*
X62848295Y56210615D01*
X62731739Y56123261D01*
X62644385Y56006705D01*
X62593255Y55870316D01*
X62586500Y55808134D01*
X62586500Y55411866D01*
X62586869Y55408471D01*
X62586869Y55408467D01*
X62590656Y55373607D01*
X62590656Y55346394D01*
X62586500Y55308134D01*
X62586500Y54911866D01*
X62586869Y54908471D01*
X62586869Y54908467D01*
X62590656Y54873607D01*
X62590656Y54846394D01*
X62586500Y54808134D01*
X62586500Y54411866D01*
X62586869Y54408471D01*
X62586869Y54408467D01*
X62590656Y54373607D01*
X62590656Y54346393D01*
X62587479Y54317142D01*
X62586500Y54308134D01*
X62586500Y53911866D01*
X62590909Y53871280D01*
X62590909Y53844067D01*
X62587369Y53811483D01*
X62587000Y53804672D01*
X62587000Y53778115D01*
X62591475Y53762876D01*
X62617170Y53740611D01*
X62616712Y53740082D01*
X62629100Y53733318D01*
X62644207Y53713161D01*
X62644385Y53713295D01*
X62664869Y53685964D01*
X62683997Y53660441D01*
X62708845Y53593935D01*
X62693792Y53524552D01*
X62643618Y53474322D01*
X62618670Y53463980D01*
X62589877Y53455525D01*
X62588672Y53454135D01*
X62587001Y53446452D01*
X62587001Y53415331D01*
X62587371Y53408510D01*
X62592895Y53357648D01*
X62596521Y53342396D01*
X62641676Y53221946D01*
X62650214Y53206351D01*
X62726715Y53104276D01*
X62739276Y53091715D01*
X62841351Y53015214D01*
X62856946Y53006676D01*
X62977394Y52961522D01*
X62992649Y52957895D01*
X63043514Y52952369D01*
X63050328Y52952000D01*
X63626885Y52952000D01*
X63642124Y52956475D01*
X63643329Y52957865D01*
X63645000Y52965548D01*
X63645000Y53325500D01*
X63665002Y53393621D01*
X63718658Y53440114D01*
X63771000Y53451500D01*
X63819000Y53451500D01*
X63887121Y53431498D01*
X63933614Y53377842D01*
X63945000Y53325500D01*
X63945000Y52970116D01*
X63949475Y52954877D01*
X63950865Y52953672D01*
X63958548Y52952001D01*
X64539669Y52952001D01*
X64546490Y52952371D01*
X64597352Y52957895D01*
X64612604Y52961521D01*
X64733054Y53006676D01*
X64748649Y53015214D01*
X64850724Y53091715D01*
X64863285Y53104276D01*
X64939786Y53206351D01*
X64948324Y53221946D01*
X64993478Y53342394D01*
X64997106Y53357649D01*
X64997807Y53364107D01*
X65025048Y53429669D01*
X65083411Y53470096D01*
X65123070Y53476500D01*
X65209406Y53476500D01*
X65277527Y53456498D01*
X65298501Y53439595D01*
X65681585Y53056511D01*
X65715611Y52994199D01*
X65718490Y52967416D01*
X65718490Y43044584D01*
X65698488Y42976463D01*
X65681585Y42955489D01*
X64417500Y41691405D01*
X64355188Y41657379D01*
X64328405Y41654500D01*
X55778788Y41654500D01*
X55710667Y41674502D01*
X55664174Y41728158D01*
X55653267Y41769519D01*
X55650023Y41806606D01*
X55650022Y41806611D01*
X55649543Y41812087D01*
X55632841Y41874419D01*
X55591707Y42027933D01*
X55591706Y42027935D01*
X55590284Y42033243D01*
X55576121Y42063616D01*
X55495849Y42235762D01*
X55495846Y42235767D01*
X55493523Y42240749D01*
X55374305Y42411010D01*
X55365357Y42423789D01*
X55365355Y42423792D01*
X55362198Y42428300D01*
X55200300Y42590198D01*
X55195792Y42593355D01*
X55195789Y42593357D01*
X55064498Y42685288D01*
X55012749Y42721523D01*
X55007765Y42723847D01*
X55005472Y42725171D01*
X54956479Y42776553D01*
X54943043Y42846267D01*
X54969429Y42912178D01*
X55005472Y42943409D01*
X55017002Y42950066D01*
X55069048Y42986509D01*
X55077424Y42996988D01*
X55070356Y43010434D01*
X54368812Y43711978D01*
X54354868Y43719592D01*
X54353035Y43719461D01*
X54346420Y43715210D01*
X53640923Y43009713D01*
X53634493Y42997938D01*
X53643789Y42985923D01*
X53694998Y42950066D01*
X53706528Y42943409D01*
X53755521Y42892027D01*
X53768958Y42822313D01*
X53742571Y42756402D01*
X53706528Y42725171D01*
X53704235Y42723847D01*
X53699251Y42721523D01*
X53647502Y42685288D01*
X53516211Y42593357D01*
X53516208Y42593355D01*
X53511700Y42590198D01*
X53349802Y42428300D01*
X53346645Y42423792D01*
X53346643Y42423789D01*
X53337695Y42411010D01*
X53218477Y42240749D01*
X53216154Y42235767D01*
X53216151Y42235762D01*
X53135879Y42063616D01*
X53121716Y42033243D01*
X53120294Y42027935D01*
X53120293Y42027933D01*
X53079159Y41874419D01*
X53062457Y41812087D01*
X53042502Y41584000D01*
X53062457Y41355913D01*
X53063881Y41350600D01*
X53063881Y41350598D01*
X53068210Y41334444D01*
X53121716Y41134757D01*
X53124039Y41129776D01*
X53124039Y41129775D01*
X53216151Y40932238D01*
X53216154Y40932233D01*
X53218477Y40927251D01*
X53349802Y40739700D01*
X53416407Y40673095D01*
X53450433Y40610783D01*
X53445368Y40539968D01*
X53416407Y40494905D01*
X53349802Y40428300D01*
X53346645Y40423792D01*
X53346643Y40423789D01*
X53314913Y40378473D01*
X53218477Y40240749D01*
X53216154Y40235767D01*
X53216151Y40235762D01*
X53178940Y40155961D01*
X53121716Y40033243D01*
X53120294Y40027935D01*
X53120293Y40027933D01*
X53070566Y39842349D01*
X53062457Y39812087D01*
X53042502Y39584000D01*
X53062457Y39355913D01*
X53063881Y39350600D01*
X53063881Y39350598D01*
X53117075Y39152079D01*
X53121716Y39134757D01*
X53124039Y39129776D01*
X53124039Y39129775D01*
X53216151Y38932238D01*
X53216154Y38932233D01*
X53218477Y38927251D01*
X53221634Y38922743D01*
X53340283Y38753295D01*
X53349802Y38739700D01*
X53508642Y38580860D01*
X53542668Y38518548D01*
X53537603Y38447733D01*
X53495056Y38390897D01*
X53463777Y38373784D01*
X53417362Y38356383D01*
X53367705Y38337768D01*
X53367704Y38337767D01*
X53359295Y38334615D01*
X53242739Y38247261D01*
X53155385Y38130705D01*
X53104255Y37994316D01*
X53097500Y37932134D01*
X53097500Y36235866D01*
X53104255Y36173684D01*
X53155385Y36037295D01*
X53242739Y35920739D01*
X53359295Y35833385D01*
X53495684Y35782255D01*
X53557866Y35775500D01*
X55154134Y35775500D01*
X55216316Y35782255D01*
X55352705Y35833385D01*
X55469261Y35920739D01*
X55556615Y36037295D01*
X55607745Y36173684D01*
X55614500Y36235866D01*
X55614500Y37932134D01*
X55607745Y37994316D01*
X55556615Y38130705D01*
X55469261Y38247261D01*
X55352705Y38334615D01*
X55344296Y38337767D01*
X55344295Y38337768D01*
X55294638Y38356383D01*
X55248223Y38373783D01*
X55191459Y38416424D01*
X55166759Y38482985D01*
X55181966Y38552334D01*
X55203358Y38580860D01*
X55362198Y38739700D01*
X55371718Y38753295D01*
X55490366Y38922743D01*
X55493523Y38927251D01*
X55495846Y38932233D01*
X55495849Y38932238D01*
X55587961Y39129775D01*
X55587961Y39129776D01*
X55590284Y39134757D01*
X55594926Y39152079D01*
X55648119Y39350598D01*
X55648119Y39350600D01*
X55649543Y39355913D01*
X55669498Y39584000D01*
X55669019Y39589478D01*
X55666741Y39615520D01*
X55680731Y39685125D01*
X55730131Y39736116D01*
X55792262Y39752500D01*
X64818233Y39752500D01*
X64829416Y39751973D01*
X64836909Y39750298D01*
X64844835Y39750547D01*
X64844836Y39750547D01*
X64904986Y39752438D01*
X64908945Y39752500D01*
X64936856Y39752500D01*
X64940791Y39752997D01*
X64940856Y39753005D01*
X64952693Y39753938D01*
X64984951Y39754952D01*
X64988970Y39755078D01*
X64996889Y39755327D01*
X65016343Y39760979D01*
X65035700Y39764987D01*
X65047930Y39766532D01*
X65047931Y39766532D01*
X65055797Y39767526D01*
X65063168Y39770445D01*
X65063170Y39770445D01*
X65096912Y39783804D01*
X65108142Y39787649D01*
X65142983Y39797771D01*
X65142984Y39797771D01*
X65150593Y39799982D01*
X65157412Y39804015D01*
X65157417Y39804017D01*
X65168028Y39810293D01*
X65185776Y39818988D01*
X65204617Y39826448D01*
X65233628Y39847525D01*
X65240387Y39852436D01*
X65250307Y39858952D01*
X65281535Y39877420D01*
X65281538Y39877422D01*
X65288362Y39881458D01*
X65302683Y39895779D01*
X65317717Y39908620D01*
X65327694Y39915869D01*
X65334107Y39920528D01*
X65362298Y39954605D01*
X65370288Y39963384D01*
X67194253Y41787348D01*
X67202539Y41794888D01*
X67209018Y41799000D01*
X67216161Y41806606D01*
X67255643Y41848651D01*
X67258398Y41851493D01*
X67278135Y41871230D01*
X67280615Y41874427D01*
X67288320Y41883449D01*
X67313159Y41909900D01*
X67318586Y41915679D01*
X67322405Y41922625D01*
X67322407Y41922628D01*
X67328348Y41933434D01*
X67339199Y41949953D01*
X67346758Y41959699D01*
X67351614Y41965959D01*
X67354759Y41973228D01*
X67354762Y41973232D01*
X67369174Y42006537D01*
X67374391Y42017187D01*
X67395695Y42055940D01*
X67400733Y42075563D01*
X67407137Y42094266D01*
X67412033Y42105580D01*
X67412033Y42105581D01*
X67415181Y42112855D01*
X67416420Y42120678D01*
X67416423Y42120688D01*
X67422099Y42156524D01*
X67424505Y42168144D01*
X67433528Y42203289D01*
X67433528Y42203290D01*
X67435500Y42210970D01*
X67435500Y42231224D01*
X67437051Y42250935D01*
X67438980Y42263114D01*
X67440220Y42270943D01*
X67436059Y42314962D01*
X67435500Y42326819D01*
X67435500Y53515233D01*
X67436027Y53526416D01*
X67437702Y53533909D01*
X67435562Y53602000D01*
X67435500Y53605957D01*
X67435500Y53633856D01*
X67434996Y53637847D01*
X67434063Y53649689D01*
X67432923Y53685964D01*
X67432674Y53693889D01*
X67430462Y53701503D01*
X67430461Y53701508D01*
X67427023Y53713341D01*
X67423012Y53732705D01*
X67421467Y53744936D01*
X67420474Y53752797D01*
X67417557Y53760164D01*
X67417556Y53760169D01*
X67404198Y53793908D01*
X67400354Y53805135D01*
X67396310Y53819052D01*
X67388018Y53847593D01*
X67377707Y53865028D01*
X67369012Y53882776D01*
X67361552Y53901617D01*
X67351623Y53915284D01*
X67335564Y53937387D01*
X67329048Y53947307D01*
X67310580Y53978535D01*
X67310578Y53978538D01*
X67306542Y53985362D01*
X67292221Y53999683D01*
X67279380Y54014717D01*
X67267472Y54031107D01*
X67261368Y54036157D01*
X67261363Y54036162D01*
X67233402Y54059293D01*
X67224621Y54067283D01*
X66289647Y55002258D01*
X66282113Y55010537D01*
X66278000Y55017018D01*
X66228348Y55063644D01*
X66225507Y55066398D01*
X66205770Y55086135D01*
X66202573Y55088615D01*
X66193551Y55096320D01*
X66161321Y55126586D01*
X66154375Y55130405D01*
X66154372Y55130407D01*
X66143566Y55136348D01*
X66127047Y55147199D01*
X66119988Y55152674D01*
X66111041Y55159614D01*
X66103772Y55162759D01*
X66103768Y55162762D01*
X66070463Y55177174D01*
X66059813Y55182391D01*
X66021060Y55203695D01*
X66007087Y55207283D01*
X65946080Y55243594D01*
X65914390Y55307126D01*
X65922078Y55377705D01*
X65949324Y55418419D01*
X66813253Y56282348D01*
X66821539Y56289888D01*
X66828018Y56294000D01*
X66874644Y56343652D01*
X66877398Y56346493D01*
X66897135Y56366230D01*
X66899615Y56369427D01*
X66907320Y56378449D01*
X66932159Y56404900D01*
X66937586Y56410679D01*
X66941405Y56417625D01*
X66941407Y56417628D01*
X66947348Y56428434D01*
X66958199Y56444953D01*
X66965758Y56454699D01*
X66970614Y56460959D01*
X66973759Y56468228D01*
X66973762Y56468232D01*
X66988174Y56501537D01*
X66993391Y56512187D01*
X67014695Y56550940D01*
X67019733Y56570563D01*
X67026137Y56589266D01*
X67031033Y56600580D01*
X67031033Y56600581D01*
X67034181Y56607855D01*
X67035420Y56615678D01*
X67035423Y56615688D01*
X67041099Y56651524D01*
X67043505Y56663144D01*
X67052528Y56698289D01*
X67052528Y56698290D01*
X67054500Y56705970D01*
X67054500Y56726224D01*
X67056051Y56745935D01*
X67057980Y56758114D01*
X67059220Y56765943D01*
X67055059Y56809962D01*
X67054500Y56821819D01*
X67054500Y66088233D01*
X67055027Y66099416D01*
X67056702Y66106909D01*
X67054562Y66175000D01*
X67054500Y66178957D01*
X67054500Y66206856D01*
X67053996Y66210847D01*
X67053063Y66222689D01*
X67051923Y66258964D01*
X67051674Y66266889D01*
X67049462Y66274503D01*
X67049461Y66274508D01*
X67046023Y66286341D01*
X67042012Y66305705D01*
X67040467Y66317936D01*
X67039474Y66325797D01*
X67036557Y66333164D01*
X67036556Y66333169D01*
X67023198Y66366908D01*
X67019354Y66378135D01*
X67017232Y66385439D01*
X67007018Y66420593D01*
X66996707Y66438028D01*
X66988012Y66455776D01*
X66980552Y66474617D01*
X66954564Y66510387D01*
X66948048Y66520307D01*
X66929580Y66551535D01*
X66929578Y66551538D01*
X66925542Y66558362D01*
X66911221Y66572683D01*
X66898380Y66587717D01*
X66891131Y66597694D01*
X66886472Y66604107D01*
X66852395Y66632298D01*
X66843616Y66640288D01*
X64892652Y68591253D01*
X64885112Y68599539D01*
X64881000Y68606018D01*
X64831348Y68652644D01*
X64828507Y68655398D01*
X64808770Y68675135D01*
X64805573Y68677615D01*
X64796551Y68685320D01*
X64770100Y68710159D01*
X64764321Y68715586D01*
X64757375Y68719405D01*
X64757372Y68719407D01*
X64746566Y68725348D01*
X64730047Y68736199D01*
X64729583Y68736559D01*
X64714041Y68748614D01*
X64706772Y68751759D01*
X64706768Y68751762D01*
X64673463Y68766174D01*
X64662813Y68771391D01*
X64624060Y68792695D01*
X64604437Y68797733D01*
X64585734Y68804137D01*
X64574420Y68809033D01*
X64574419Y68809033D01*
X64567145Y68812181D01*
X64559322Y68813420D01*
X64559312Y68813423D01*
X64523476Y68819099D01*
X64511856Y68821505D01*
X64476711Y68830528D01*
X64476710Y68830528D01*
X64469030Y68832500D01*
X64448776Y68832500D01*
X64429065Y68834051D01*
X64416886Y68835980D01*
X64409057Y68837220D01*
X64401165Y68836474D01*
X64365039Y68833059D01*
X64353181Y68832500D01*
X55524788Y68832500D01*
X55456667Y68852502D01*
X55410174Y68906158D01*
X55399267Y68947519D01*
X55396023Y68984606D01*
X55396022Y68984611D01*
X55395543Y68990087D01*
X55368369Y69091500D01*
X55337707Y69205933D01*
X55337706Y69205935D01*
X55336284Y69211243D01*
X55333961Y69216225D01*
X55241849Y69413762D01*
X55241846Y69413767D01*
X55239523Y69418749D01*
X55108198Y69606300D01*
X54946300Y69768198D01*
X54941792Y69771355D01*
X54941789Y69771357D01*
X54763253Y69896369D01*
X54758749Y69899523D01*
X54753765Y69901847D01*
X54751472Y69903171D01*
X54702479Y69954553D01*
X54689043Y70024267D01*
X54715429Y70090178D01*
X54751472Y70121409D01*
X54763002Y70128066D01*
X54815048Y70164509D01*
X54823424Y70174988D01*
X54816356Y70188434D01*
X54114812Y70889978D01*
X54100868Y70897592D01*
X54099035Y70897461D01*
X54092420Y70893210D01*
X53386923Y70187713D01*
X53380493Y70175938D01*
X53389789Y70163923D01*
X53440998Y70128066D01*
X53452528Y70121409D01*
X53501521Y70070027D01*
X53514958Y70000313D01*
X53488571Y69934402D01*
X53452528Y69903171D01*
X53450235Y69901847D01*
X53445251Y69899523D01*
X53440747Y69896369D01*
X53262211Y69771357D01*
X53262208Y69771355D01*
X53257700Y69768198D01*
X53095802Y69606300D01*
X52964477Y69418749D01*
X52962154Y69413767D01*
X52962151Y69413762D01*
X52870039Y69216225D01*
X52867716Y69211243D01*
X52866294Y69205935D01*
X52866293Y69205933D01*
X52835631Y69091500D01*
X52808457Y68990087D01*
X52788502Y68762000D01*
X52808457Y68533913D01*
X52867716Y68312757D01*
X52870039Y68307776D01*
X52870039Y68307775D01*
X52962151Y68110238D01*
X52962154Y68110233D01*
X52964477Y68105251D01*
X53095802Y67917700D01*
X53162407Y67851095D01*
X53196433Y67788783D01*
X53191368Y67717968D01*
X53162407Y67672905D01*
X53095802Y67606300D01*
X52964477Y67418749D01*
X52962154Y67413767D01*
X52962151Y67413762D01*
X52947977Y67383365D01*
X52867716Y67211243D01*
X52866294Y67205935D01*
X52866293Y67205933D01*
X52813812Y67010072D01*
X52808457Y66990087D01*
X52788502Y66762000D01*
X33780500Y66762000D01*
X33780500Y71256525D01*
X52789483Y71256525D01*
X52808472Y71039481D01*
X52810375Y71028688D01*
X52866764Y70818239D01*
X52870510Y70807947D01*
X52962586Y70610489D01*
X52968069Y70600994D01*
X53004509Y70548952D01*
X53014988Y70540576D01*
X53028434Y70547644D01*
X53729978Y71249188D01*
X53736356Y71260868D01*
X54466408Y71260868D01*
X54466539Y71259035D01*
X54470790Y71252420D01*
X55176287Y70546923D01*
X55188062Y70540493D01*
X55200077Y70549789D01*
X55235931Y70600994D01*
X55241414Y70610489D01*
X55333490Y70807947D01*
X55337236Y70818239D01*
X55393625Y71028688D01*
X55395528Y71039481D01*
X55414517Y71256525D01*
X55414517Y71267475D01*
X55395528Y71484519D01*
X55393625Y71495312D01*
X55337236Y71705761D01*
X55333490Y71716053D01*
X55241414Y71913511D01*
X55235931Y71923006D01*
X55199491Y71975048D01*
X55189012Y71983424D01*
X55175566Y71976356D01*
X54474022Y71274812D01*
X54466408Y71260868D01*
X53736356Y71260868D01*
X53737592Y71263132D01*
X53737461Y71264965D01*
X53733210Y71271580D01*
X53027713Y71977077D01*
X53015938Y71983507D01*
X53003923Y71974211D01*
X52968069Y71923006D01*
X52962586Y71913511D01*
X52870510Y71716053D01*
X52866764Y71705761D01*
X52810375Y71495312D01*
X52808472Y71484519D01*
X52789483Y71267475D01*
X52789483Y71256525D01*
X33780500Y71256525D01*
X33780500Y72349012D01*
X53380576Y72349012D01*
X53387644Y72335566D01*
X54089188Y71634022D01*
X54103132Y71626408D01*
X54104965Y71626539D01*
X54111580Y71630790D01*
X54817077Y72336287D01*
X54823507Y72348062D01*
X54814211Y72360077D01*
X54763006Y72395931D01*
X54753511Y72401414D01*
X54556053Y72493490D01*
X54545761Y72497236D01*
X54335312Y72553625D01*
X54324519Y72555528D01*
X54107475Y72574517D01*
X54096525Y72574517D01*
X53879481Y72555528D01*
X53868688Y72553625D01*
X53658239Y72497236D01*
X53647947Y72493490D01*
X53450489Y72401414D01*
X53440994Y72395931D01*
X53388952Y72359491D01*
X53380576Y72349012D01*
X33780500Y72349012D01*
X33780500Y72742346D01*
X55587618Y72742346D01*
X55594673Y72732373D01*
X55625679Y72706449D01*
X55632598Y72701421D01*
X55857272Y72560485D01*
X55864807Y72556444D01*
X56106520Y72447306D01*
X56114551Y72444320D01*
X56368832Y72368998D01*
X56377184Y72367131D01*
X56639340Y72327016D01*
X56647874Y72326300D01*
X56913045Y72322133D01*
X56921596Y72322582D01*
X57184883Y72354443D01*
X57193284Y72356045D01*
X57449824Y72423347D01*
X57457926Y72426074D01*
X57702949Y72527566D01*
X57710617Y72531372D01*
X57939598Y72665178D01*
X57946679Y72669991D01*
X58026655Y72732699D01*
X58035125Y72744558D01*
X58028608Y72756182D01*
X56824812Y73959978D01*
X56810868Y73967592D01*
X56809035Y73967461D01*
X56802420Y73963210D01*
X55594910Y72755700D01*
X55587618Y72742346D01*
X33780500Y72742346D01*
X33780500Y74348796D01*
X54799665Y74348796D01*
X54814932Y74084031D01*
X54816005Y74075530D01*
X54867065Y73815278D01*
X54869276Y73807026D01*
X54955184Y73556106D01*
X54958499Y73548221D01*
X55077664Y73311287D01*
X55082020Y73303921D01*
X55211347Y73115750D01*
X55221601Y73107406D01*
X55235342Y73114552D01*
X56439978Y74319188D01*
X56446356Y74330868D01*
X57176408Y74330868D01*
X57176539Y74329035D01*
X57180790Y74322420D01*
X58387730Y73115480D01*
X58399939Y73108813D01*
X58411439Y73117503D01*
X58508831Y73250087D01*
X58513418Y73257315D01*
X58639962Y73490379D01*
X58643530Y73498173D01*
X58737271Y73746250D01*
X58739748Y73754456D01*
X58798954Y74012962D01*
X58800294Y74021423D01*
X58824031Y74287384D01*
X58824277Y74292323D01*
X58824666Y74329515D01*
X58824523Y74334481D01*
X58806362Y74600877D01*
X58805201Y74609351D01*
X58751419Y74869056D01*
X58749120Y74877291D01*
X58660588Y75127295D01*
X58657191Y75135146D01*
X58535550Y75370822D01*
X58531122Y75378134D01*
X58412031Y75547583D01*
X58401509Y75555963D01*
X58388121Y75548911D01*
X57184022Y74344812D01*
X57176408Y74330868D01*
X56446356Y74330868D01*
X56447592Y74333132D01*
X56447461Y74334965D01*
X56443210Y74341580D01*
X55235814Y75548976D01*
X55223804Y75555534D01*
X55212064Y75546566D01*
X55103935Y75396089D01*
X55099418Y75388804D01*
X54975325Y75154433D01*
X54971839Y75146605D01*
X54880700Y74897554D01*
X54878311Y74889330D01*
X54821812Y74630205D01*
X54820563Y74621750D01*
X54799754Y74357347D01*
X54799665Y74348796D01*
X33780500Y74348796D01*
X33780500Y80727452D01*
X33800502Y80795573D01*
X33854158Y80842066D01*
X33906500Y80853452D01*
X33990066Y80853452D01*
X33996520Y80854824D01*
X33996522Y80854824D01*
X34015137Y80858781D01*
X34035170Y80863039D01*
X34074828Y80864700D01*
X34079500Y80863501D01*
X34099754Y80863501D01*
X34119464Y80861950D01*
X34139473Y80858781D01*
X34147365Y80859527D01*
X34147367Y80859527D01*
X34164170Y80861115D01*
X34236725Y80846090D01*
X34248429Y80839656D01*
X34264956Y80828801D01*
X34280959Y80816387D01*
X34321543Y80798824D01*
X34332173Y80793617D01*
X34370940Y80772305D01*
X34378620Y80770333D01*
X34380343Y80769651D01*
X34436316Y80725977D01*
X34459793Y80658974D01*
X34443317Y80589915D01*
X34434786Y80576935D01*
X34405386Y80537706D01*
X34405097Y80537922D01*
X34358935Y80491861D01*
X34353582Y80489647D01*
X34349672Y80485135D01*
X34348001Y80477452D01*
X34348001Y80446330D01*
X34348370Y80439512D01*
X34351909Y80406933D01*
X34351909Y80379720D01*
X34347500Y80339134D01*
X34347500Y79792866D01*
X34347869Y79789471D01*
X34347869Y79789467D01*
X34351656Y79754607D01*
X34351656Y79727394D01*
X34347500Y79689134D01*
X34347500Y79142866D01*
X34347868Y79139477D01*
X34347869Y79139467D01*
X34351656Y79104607D01*
X34351656Y79077394D01*
X34347500Y79039134D01*
X34347500Y78492866D01*
X34351909Y78452280D01*
X34351909Y78425067D01*
X34348369Y78392483D01*
X34348000Y78385672D01*
X34348000Y78359115D01*
X34352475Y78343876D01*
X34378170Y78321611D01*
X34377712Y78321082D01*
X34390100Y78314318D01*
X34405207Y78294161D01*
X34405385Y78294295D01*
X34492739Y78177739D01*
X34570445Y78119502D01*
X34572681Y78117826D01*
X34615196Y78060967D01*
X34620222Y77990149D01*
X34586162Y77927855D01*
X34523831Y77893865D01*
X34497116Y77891000D01*
X34366116Y77891000D01*
X34350877Y77886525D01*
X34349672Y77885135D01*
X34348001Y77877452D01*
X34348001Y77846331D01*
X34348371Y77839507D01*
X34352161Y77804607D01*
X34352161Y77777397D01*
X34348369Y77742490D01*
X34348000Y77735671D01*
X34348000Y77709115D01*
X34352475Y77693876D01*
X34353865Y77692671D01*
X34361548Y77691000D01*
X34497116Y77691000D01*
X34565237Y77670998D01*
X34611730Y77617342D01*
X34621834Y77547068D01*
X34592340Y77482488D01*
X34572683Y77464175D01*
X34492739Y77404261D01*
X34405385Y77287705D01*
X34405096Y77287921D01*
X34358935Y77241861D01*
X34353582Y77239647D01*
X34349672Y77235135D01*
X34348001Y77227452D01*
X34348001Y77196330D01*
X34348370Y77189512D01*
X34351909Y77156933D01*
X34351909Y77129720D01*
X34347500Y77089134D01*
X34347500Y76542866D01*
X34347869Y76539471D01*
X34347869Y76539467D01*
X34351656Y76504607D01*
X34351656Y76477393D01*
X34348339Y76446854D01*
X34347500Y76439134D01*
X34347500Y75892866D01*
X34354255Y75830684D01*
X34405385Y75694295D01*
X34492739Y75577739D01*
X34609295Y75490385D01*
X34745684Y75439255D01*
X34807866Y75432500D01*
X36654134Y75432500D01*
X36716316Y75439255D01*
X36852705Y75490385D01*
X36969261Y75577739D01*
X37056615Y75694295D01*
X37107745Y75830684D01*
X37114500Y75892866D01*
X37114500Y75919500D01*
X55588584Y75919500D01*
X55594980Y75908230D01*
X56799188Y74704022D01*
X56813132Y74696408D01*
X56814965Y74696539D01*
X56821580Y74700790D01*
X58028604Y75907814D01*
X58035795Y75920983D01*
X58028473Y75931220D01*
X57981233Y75969885D01*
X57974261Y75974840D01*
X57748122Y76113418D01*
X57740552Y76117376D01*
X57497704Y76223978D01*
X57489644Y76226880D01*
X57234592Y76299533D01*
X57226214Y76301315D01*
X56963656Y76338682D01*
X56955111Y76339309D01*
X56689908Y76340698D01*
X56681374Y76340161D01*
X56418433Y76305544D01*
X56410035Y76303851D01*
X56154238Y76233873D01*
X56146143Y76231054D01*
X55902199Y76127003D01*
X55894577Y76123119D01*
X55667013Y75986925D01*
X55659981Y75982038D01*
X55597053Y75931623D01*
X55588584Y75919500D01*
X37114500Y75919500D01*
X37114500Y76439134D01*
X37113662Y76446854D01*
X37110344Y76477393D01*
X37110344Y76504607D01*
X37114131Y76539467D01*
X37114131Y76539471D01*
X37114500Y76542866D01*
X37114500Y77089134D01*
X37110091Y77129720D01*
X37110091Y77156935D01*
X37113631Y77189519D01*
X37114000Y77196328D01*
X37114000Y77222885D01*
X37109525Y77238124D01*
X37083830Y77260389D01*
X37084288Y77260918D01*
X37071900Y77267682D01*
X37056793Y77287839D01*
X37056615Y77287705D01*
X36974642Y77397081D01*
X36969261Y77404261D01*
X36889319Y77464175D01*
X36846804Y77521033D01*
X36841778Y77591851D01*
X36875838Y77654145D01*
X36938169Y77688135D01*
X36964884Y77691000D01*
X37095884Y77691000D01*
X37111123Y77695475D01*
X37112328Y77696865D01*
X37113999Y77704548D01*
X37113999Y77735669D01*
X37113630Y77742475D01*
X37109838Y77777395D01*
X37109839Y77804606D01*
X37113631Y77839512D01*
X37114000Y77846329D01*
X37114000Y77872885D01*
X37109525Y77888124D01*
X37108135Y77889329D01*
X37100452Y77891000D01*
X36964884Y77891000D01*
X36896763Y77911002D01*
X36850270Y77964658D01*
X36840166Y78034932D01*
X36869660Y78099512D01*
X36889319Y78117826D01*
X36891556Y78119502D01*
X36969261Y78177739D01*
X37056615Y78294295D01*
X37056904Y78294079D01*
X37103065Y78340139D01*
X37108418Y78342353D01*
X37112328Y78346865D01*
X37113999Y78354548D01*
X37113999Y78385670D01*
X37113630Y78392491D01*
X37110091Y78425071D01*
X37110091Y78452280D01*
X37114500Y78492866D01*
X37114500Y79039134D01*
X37110344Y79077394D01*
X37110344Y79104607D01*
X37114131Y79139467D01*
X37114132Y79139477D01*
X37114500Y79142866D01*
X37114500Y79689134D01*
X37110344Y79727394D01*
X37110344Y79754607D01*
X37114131Y79789467D01*
X37114131Y79789471D01*
X37114500Y79792866D01*
X37114500Y80339134D01*
X37110091Y80379720D01*
X37110091Y80406935D01*
X37113631Y80439519D01*
X37114000Y80446328D01*
X37114000Y80472885D01*
X37109525Y80488124D01*
X37083830Y80510389D01*
X37084288Y80510918D01*
X37071900Y80517682D01*
X37056793Y80537839D01*
X37056615Y80537705D01*
X37030961Y80571935D01*
X37006113Y80638441D01*
X37021166Y80707824D01*
X37071340Y80758054D01*
X37131787Y80773500D01*
X38407800Y80773500D01*
X38475921Y80753498D01*
X38495147Y80737157D01*
X38495420Y80737460D01*
X38500332Y80733037D01*
X38504747Y80728134D01*
X38659248Y80615882D01*
X38665276Y80613198D01*
X38665278Y80613197D01*
X38827681Y80540891D01*
X38833712Y80538206D01*
X38927113Y80518353D01*
X39014056Y80499872D01*
X39014061Y80499872D01*
X39020513Y80498500D01*
X39211487Y80498500D01*
X39217939Y80499872D01*
X39217944Y80499872D01*
X39304887Y80518353D01*
X39398288Y80538206D01*
X39404319Y80540891D01*
X39566722Y80613197D01*
X39566724Y80613198D01*
X39572752Y80615882D01*
X39727253Y80728134D01*
X39735650Y80737460D01*
X39850621Y80865148D01*
X39850622Y80865149D01*
X39855040Y80870056D01*
X39917811Y80978779D01*
X39947223Y81029721D01*
X39947224Y81029722D01*
X39950527Y81035444D01*
X40009542Y81217072D01*
X40029504Y81407000D01*
X40009542Y81596928D01*
X39950527Y81778556D01*
X39855040Y81943944D01*
X39775254Y82032556D01*
X39731675Y82080955D01*
X39731674Y82080956D01*
X39727253Y82085866D01*
X39572752Y82198118D01*
X39566724Y82200802D01*
X39566722Y82200803D01*
X39404319Y82273109D01*
X39404318Y82273109D01*
X39398288Y82275794D01*
X39304887Y82295647D01*
X39217944Y82314128D01*
X39217939Y82314128D01*
X39211487Y82315500D01*
X39020513Y82315500D01*
X39014061Y82314128D01*
X39014056Y82314128D01*
X38927113Y82295647D01*
X38833712Y82275794D01*
X38827682Y82273109D01*
X38827681Y82273109D01*
X38665278Y82200803D01*
X38665276Y82200802D01*
X38659248Y82198118D01*
X38653907Y82194238D01*
X38653906Y82194237D01*
X38531500Y82105303D01*
X38504747Y82085866D01*
X38500332Y82080963D01*
X38495420Y82076540D01*
X38494295Y82077789D01*
X38440986Y82044949D01*
X38407800Y82040500D01*
X37240500Y82040500D01*
X37172379Y82060502D01*
X37125886Y82114158D01*
X37114500Y82166500D01*
X37114500Y82289134D01*
X37110091Y82329720D01*
X37110091Y82356933D01*
X37113631Y82389517D01*
X37114000Y82396327D01*
X37113999Y82556499D01*
X37134001Y82624620D01*
X37187656Y82671113D01*
X37239999Y82682500D01*
X37263233Y82682500D01*
X37274416Y82681973D01*
X37281909Y82680298D01*
X37289835Y82680547D01*
X37289836Y82680547D01*
X37349986Y82682438D01*
X37353945Y82682500D01*
X37381856Y82682500D01*
X37385791Y82682997D01*
X37385856Y82683005D01*
X37397693Y82683938D01*
X37429951Y82684952D01*
X37433970Y82685078D01*
X37441889Y82685327D01*
X37461343Y82690979D01*
X37480700Y82694987D01*
X37492930Y82696532D01*
X37492931Y82696532D01*
X37500797Y82697526D01*
X37508168Y82700445D01*
X37508170Y82700445D01*
X37541912Y82713804D01*
X37553142Y82717649D01*
X37587983Y82727771D01*
X37587984Y82727771D01*
X37595593Y82729982D01*
X37602412Y82734015D01*
X37602417Y82734017D01*
X37613028Y82740293D01*
X37630776Y82748988D01*
X37649617Y82756448D01*
X37682592Y82780405D01*
X37685387Y82782436D01*
X37695307Y82788952D01*
X37726535Y82807420D01*
X37726538Y82807422D01*
X37733362Y82811458D01*
X37747683Y82825779D01*
X37762717Y82838620D01*
X37772693Y82845868D01*
X37779107Y82850528D01*
X37807288Y82884593D01*
X37815278Y82893374D01*
X38365258Y83443353D01*
X38373537Y83450887D01*
X38380018Y83455000D01*
X38426644Y83504652D01*
X38429398Y83507493D01*
X38449135Y83527230D01*
X38451615Y83530427D01*
X38459320Y83539449D01*
X38484159Y83565900D01*
X38489586Y83571679D01*
X38493405Y83578625D01*
X38493407Y83578628D01*
X38499348Y83589434D01*
X38510199Y83605953D01*
X38517758Y83615699D01*
X38522614Y83621959D01*
X38525759Y83629228D01*
X38525762Y83629232D01*
X38540174Y83662537D01*
X38545391Y83673187D01*
X38566695Y83711940D01*
X38571733Y83731563D01*
X38578137Y83750266D01*
X38583033Y83761580D01*
X38583033Y83761581D01*
X38586181Y83768855D01*
X38587420Y83776678D01*
X38587423Y83776688D01*
X38593099Y83812524D01*
X38595505Y83824144D01*
X38604528Y83859289D01*
X38604528Y83859290D01*
X38606500Y83866970D01*
X38606500Y83887224D01*
X38608051Y83906935D01*
X38609980Y83919114D01*
X38611220Y83926943D01*
X38607059Y83970962D01*
X38606500Y83982819D01*
X38606500Y85519232D01*
X38607027Y85530415D01*
X38608702Y85537908D01*
X38606562Y85605999D01*
X38606500Y85609956D01*
X38606500Y85637856D01*
X38605996Y85641847D01*
X38605063Y85653689D01*
X38603923Y85689964D01*
X38603674Y85697889D01*
X38598021Y85717348D01*
X38594012Y85736707D01*
X38593846Y85738017D01*
X38591474Y85756797D01*
X38588558Y85764163D01*
X38588556Y85764169D01*
X38575200Y85797902D01*
X38571355Y85809132D01*
X38561230Y85843983D01*
X38561230Y85843984D01*
X38559019Y85851593D01*
X38548705Y85869034D01*
X38540008Y85886787D01*
X38535472Y85898242D01*
X38532552Y85905617D01*
X38506563Y85941388D01*
X38500047Y85951308D01*
X38481578Y85982537D01*
X38477542Y85989362D01*
X38463221Y86003683D01*
X38450380Y86018717D01*
X38443131Y86028694D01*
X38438472Y86035107D01*
X38404395Y86063298D01*
X38395616Y86071288D01*
X35809652Y88657253D01*
X35802112Y88665539D01*
X35798000Y88672018D01*
X35748348Y88718644D01*
X35745507Y88721398D01*
X35725770Y88741135D01*
X35722573Y88743615D01*
X35713551Y88751320D01*
X35701750Y88762402D01*
X35681321Y88781586D01*
X35674375Y88785405D01*
X35674372Y88785407D01*
X35663566Y88791348D01*
X35647047Y88802199D01*
X35646583Y88802559D01*
X35631041Y88814614D01*
X35623771Y88817760D01*
X35623766Y88817763D01*
X35609053Y88824130D01*
X35554479Y88869541D01*
X35533120Y88937249D01*
X35551757Y89005756D01*
X35585113Y89039210D01*
X35584075Y89040520D01*
X35601208Y89054099D01*
X35715739Y89168829D01*
X35724751Y89180240D01*
X35809816Y89318243D01*
X35815963Y89331424D01*
X35867138Y89485710D01*
X35870005Y89499086D01*
X35879672Y89593438D01*
X35880000Y89599854D01*
X35880000Y90024885D01*
X35875525Y90040124D01*
X35874135Y90041329D01*
X35866452Y90043000D01*
X33557116Y90043000D01*
X33541877Y90038525D01*
X33540672Y90037135D01*
X33539001Y90029452D01*
X33539001Y89599905D01*
X33539338Y89593386D01*
X33549257Y89497794D01*
X33552149Y89484400D01*
X33603588Y89330216D01*
X33609761Y89317038D01*
X33695063Y89179193D01*
X33704099Y89167792D01*
X33758312Y89113673D01*
X33792391Y89051390D01*
X33787388Y88980570D01*
X33744890Y88923697D01*
X33678392Y88898829D01*
X33669294Y88898500D01*
X33493595Y88898500D01*
X33425474Y88918502D01*
X33404499Y88935405D01*
X32792404Y89547501D01*
X32758379Y89609813D01*
X32755500Y89636596D01*
X32755500Y90569115D01*
X33539000Y90569115D01*
X33543475Y90553876D01*
X33544865Y90552671D01*
X33552548Y90551000D01*
X34437385Y90551000D01*
X34452624Y90555475D01*
X34453829Y90556865D01*
X34455500Y90564548D01*
X34455500Y90569115D01*
X34963500Y90569115D01*
X34967975Y90553876D01*
X34969365Y90552671D01*
X34977048Y90551000D01*
X35861884Y90551000D01*
X35877123Y90555475D01*
X35878328Y90556865D01*
X35879999Y90564548D01*
X35879999Y90994095D01*
X35879662Y91000614D01*
X35869743Y91096206D01*
X35866851Y91109600D01*
X35815412Y91263784D01*
X35809239Y91276962D01*
X35723937Y91414807D01*
X35714901Y91426208D01*
X35600171Y91540739D01*
X35588760Y91549751D01*
X35450757Y91634816D01*
X35437576Y91640963D01*
X35283290Y91692138D01*
X35269914Y91695005D01*
X35175562Y91704672D01*
X35169145Y91705000D01*
X34981615Y91705000D01*
X34966376Y91700525D01*
X34965171Y91699135D01*
X34963500Y91691452D01*
X34963500Y90569115D01*
X34455500Y90569115D01*
X34455500Y91686884D01*
X34451025Y91702123D01*
X34449635Y91703328D01*
X34441952Y91704999D01*
X34249905Y91704999D01*
X34243386Y91704662D01*
X34147794Y91694743D01*
X34134400Y91691851D01*
X33980216Y91640412D01*
X33967038Y91634239D01*
X33829193Y91548937D01*
X33817792Y91539901D01*
X33703261Y91425171D01*
X33694249Y91413760D01*
X33609184Y91275757D01*
X33603037Y91262576D01*
X33551862Y91108290D01*
X33548995Y91094914D01*
X33539328Y91000562D01*
X33539000Y90994145D01*
X33539000Y90569115D01*
X32755500Y90569115D01*
X32755500Y90997400D01*
X32746787Y91081379D01*
X32745238Y91096308D01*
X32745237Y91096312D01*
X32744526Y91103166D01*
X32688550Y91270946D01*
X32595478Y91421348D01*
X32470303Y91546305D01*
X32464072Y91550146D01*
X32325968Y91635275D01*
X32325966Y91635276D01*
X32319738Y91639115D01*
X32210034Y91675502D01*
X32158389Y91692632D01*
X32158387Y91692632D01*
X32151861Y91694797D01*
X32145025Y91695497D01*
X32145022Y91695498D01*
X32101969Y91699909D01*
X32047400Y91705500D01*
X31121600Y91705500D01*
X31118354Y91705163D01*
X31118350Y91705163D01*
X31022692Y91695238D01*
X31022688Y91695237D01*
X31015834Y91694526D01*
X31009298Y91692345D01*
X31009296Y91692345D01*
X31005106Y91690947D01*
X30848054Y91638550D01*
X30697652Y91545478D01*
X30572695Y91420303D01*
X30568855Y91414073D01*
X30568854Y91414072D01*
X30504529Y91309717D01*
X30479885Y91269738D01*
X30424203Y91101861D01*
X30413500Y90997400D01*
X30413500Y89596600D01*
X30413837Y89593354D01*
X30413837Y89593350D01*
X30423752Y89497794D01*
X30424474Y89490834D01*
X30480450Y89323054D01*
X30573522Y89172652D01*
X30698697Y89047695D01*
X30849262Y88954885D01*
X30897549Y88938869D01*
X31010611Y88901368D01*
X31010613Y88901368D01*
X31017139Y88899203D01*
X31023975Y88898503D01*
X31023978Y88898502D01*
X31067031Y88894091D01*
X31121600Y88888500D01*
X31607406Y88888500D01*
X31675527Y88868498D01*
X31696501Y88851595D01*
X32675348Y87872747D01*
X32682888Y87864461D01*
X32687000Y87857982D01*
X32692777Y87852557D01*
X32736651Y87811357D01*
X32739493Y87808602D01*
X32759230Y87788865D01*
X32762427Y87786385D01*
X32771447Y87778682D01*
X32803679Y87748414D01*
X32810625Y87744595D01*
X32810628Y87744593D01*
X32821434Y87738652D01*
X32837953Y87727801D01*
X32853959Y87715386D01*
X32861228Y87712241D01*
X32861232Y87712238D01*
X32894537Y87697826D01*
X32905187Y87692609D01*
X32943940Y87671305D01*
X32951615Y87669334D01*
X32951616Y87669334D01*
X32963562Y87666267D01*
X32982267Y87659863D01*
X33000855Y87651819D01*
X33008678Y87650580D01*
X33008688Y87650577D01*
X33044524Y87644901D01*
X33056144Y87642495D01*
X33085583Y87634937D01*
X33098970Y87631500D01*
X33119224Y87631500D01*
X33138934Y87629949D01*
X33158943Y87626780D01*
X33166835Y87627526D01*
X33202961Y87630941D01*
X33214819Y87631500D01*
X34991406Y87631500D01*
X35059527Y87611498D01*
X35080501Y87594595D01*
X37302595Y85372501D01*
X37336621Y85310189D01*
X37339500Y85283406D01*
X37339500Y85028161D01*
X37319498Y84960040D01*
X37265842Y84913547D01*
X37195568Y84903443D01*
X37130988Y84932937D01*
X37095518Y84983932D01*
X37059768Y85079295D01*
X37059767Y85079297D01*
X37056615Y85087705D01*
X36969261Y85204261D01*
X36852705Y85291615D01*
X36716316Y85342745D01*
X36654134Y85349500D01*
X34807866Y85349500D01*
X34745684Y85342745D01*
X34609295Y85291615D01*
X34586689Y85274673D01*
X34520185Y85249826D01*
X34511126Y85249500D01*
X34402767Y85249500D01*
X34391584Y85250027D01*
X34384091Y85251702D01*
X34376165Y85251453D01*
X34376164Y85251453D01*
X34316001Y85249562D01*
X34312043Y85249500D01*
X34284144Y85249500D01*
X34280154Y85248996D01*
X34268320Y85248064D01*
X34224111Y85246674D01*
X34216497Y85244462D01*
X34216492Y85244461D01*
X34204659Y85241023D01*
X34185296Y85237012D01*
X34165203Y85234474D01*
X34157836Y85231557D01*
X34157831Y85231556D01*
X34124092Y85218198D01*
X34112865Y85214354D01*
X34070407Y85202018D01*
X34063581Y85197981D01*
X34052972Y85191707D01*
X34035224Y85183012D01*
X34016383Y85175552D01*
X34009967Y85170890D01*
X34009966Y85170890D01*
X33980613Y85149564D01*
X33970693Y85143048D01*
X33939465Y85124580D01*
X33939462Y85124578D01*
X33932638Y85120542D01*
X33918317Y85106221D01*
X33903284Y85093381D01*
X33886893Y85081472D01*
X33881842Y85075366D01*
X33858702Y85047395D01*
X33850712Y85038616D01*
X32246747Y83434652D01*
X32238461Y83427112D01*
X32231982Y83423000D01*
X32226557Y83417223D01*
X32185357Y83373349D01*
X32182602Y83370507D01*
X32162865Y83350770D01*
X32160385Y83347573D01*
X32152682Y83338553D01*
X32122414Y83306321D01*
X32118595Y83299375D01*
X32118593Y83299372D01*
X32112652Y83288566D01*
X32101801Y83272047D01*
X32089386Y83256041D01*
X32086241Y83248772D01*
X32086238Y83248768D01*
X32071826Y83215463D01*
X32066609Y83204813D01*
X32045305Y83166060D01*
X32043334Y83158385D01*
X32043334Y83158384D01*
X32040267Y83146438D01*
X32033863Y83127734D01*
X32025819Y83109145D01*
X32024580Y83101322D01*
X32024577Y83101312D01*
X32018901Y83065476D01*
X32016495Y83053856D01*
X32012801Y83039467D01*
X32005500Y83011030D01*
X32005500Y82990776D01*
X32003949Y82971066D01*
X32000780Y82951057D01*
X32001526Y82943165D01*
X32004941Y82907039D01*
X32005500Y82895181D01*
X32005500Y82664091D01*
X31985498Y82595970D01*
X31931842Y82549477D01*
X31861568Y82539373D01*
X31853303Y82540844D01*
X31724944Y82568128D01*
X31724939Y82568128D01*
X31718487Y82569500D01*
X31527513Y82569500D01*
X31521061Y82568128D01*
X31521056Y82568128D01*
X31466348Y82556499D01*
X31340712Y82529794D01*
X31334682Y82527109D01*
X31334681Y82527109D01*
X31172278Y82454803D01*
X31172276Y82454802D01*
X31166248Y82452118D01*
X31011747Y82339866D01*
X31007326Y82334956D01*
X31007325Y82334955D01*
X30950656Y82272017D01*
X30883960Y82197944D01*
X30846733Y82133465D01*
X30797923Y82048923D01*
X30788473Y82032556D01*
X30729458Y81850928D01*
X30709496Y81661000D01*
X30729458Y81471072D01*
X30788473Y81289444D01*
X30883960Y81124056D01*
X30957137Y81042785D01*
X30987853Y80978779D01*
X30989500Y80958476D01*
X30989500Y79943594D01*
X30969498Y79875473D01*
X30952599Y79854503D01*
X30127710Y79029615D01*
X30065400Y78995591D01*
X29994584Y79000656D01*
X29937749Y79043203D01*
X29912938Y79109723D01*
X29913354Y79132315D01*
X29914500Y79142866D01*
X29914500Y79689134D01*
X29910091Y79729720D01*
X29910091Y79756935D01*
X29913631Y79789519D01*
X29914000Y79796328D01*
X29914000Y79822885D01*
X29909525Y79838124D01*
X29883830Y79860389D01*
X29884288Y79860918D01*
X29871900Y79867682D01*
X29856793Y79887839D01*
X29856615Y79887705D01*
X29779623Y79990435D01*
X29754775Y80056941D01*
X29769828Y80126324D01*
X29779623Y80141565D01*
X29851230Y80237110D01*
X29856615Y80244295D01*
X29856904Y80244079D01*
X29903065Y80290139D01*
X29908418Y80292353D01*
X29912328Y80296865D01*
X29913999Y80304548D01*
X29913999Y80335670D01*
X29913630Y80342491D01*
X29910091Y80375071D01*
X29910091Y80402280D01*
X29914500Y80442866D01*
X29914500Y80989134D01*
X29912577Y81006842D01*
X29910344Y81027393D01*
X29910344Y81054607D01*
X29914131Y81089467D01*
X29914131Y81089471D01*
X29914500Y81092866D01*
X29914500Y81639134D01*
X29910344Y81677394D01*
X29910344Y81704607D01*
X29914131Y81739467D01*
X29914131Y81739471D01*
X29914500Y81742866D01*
X29914500Y82289134D01*
X29910344Y82327394D01*
X29910344Y82354607D01*
X29914131Y82389467D01*
X29914131Y82389471D01*
X29914500Y82392866D01*
X29914500Y82939134D01*
X29910344Y82977394D01*
X29910344Y83004607D01*
X29914131Y83039467D01*
X29914131Y83039471D01*
X29914500Y83042866D01*
X29914500Y83589134D01*
X29910344Y83627394D01*
X29910344Y83654607D01*
X29914131Y83689467D01*
X29914131Y83689471D01*
X29914500Y83692866D01*
X29914500Y84239134D01*
X29910344Y84277394D01*
X29910344Y84304607D01*
X29914131Y84339467D01*
X29914131Y84339471D01*
X29914500Y84342866D01*
X29914500Y84889134D01*
X29907745Y84951316D01*
X29856615Y85087705D01*
X29769261Y85204261D01*
X29652705Y85291615D01*
X29516316Y85342745D01*
X29454134Y85349500D01*
X29415500Y85349500D01*
X29347379Y85369502D01*
X29300886Y85423158D01*
X29289500Y85475500D01*
X29289500Y87225930D01*
X29290933Y87244880D01*
X29293099Y87259115D01*
X29293099Y87259119D01*
X29294199Y87266349D01*
X29289915Y87319018D01*
X29289500Y87329233D01*
X29289500Y87337293D01*
X29286209Y87365520D01*
X29285778Y87369879D01*
X29280454Y87435338D01*
X29280453Y87435341D01*
X29279860Y87442636D01*
X29277604Y87449600D01*
X29276417Y87455539D01*
X29275030Y87461410D01*
X29274182Y87468681D01*
X29271686Y87475557D01*
X29271684Y87475566D01*
X29249275Y87537298D01*
X29247865Y87541402D01*
X29225352Y87610899D01*
X29221556Y87617154D01*
X29219057Y87622613D01*
X29216329Y87628061D01*
X29213833Y87634937D01*
X29173805Y87695990D01*
X29171481Y87699673D01*
X29165076Y87710229D01*
X29133595Y87762107D01*
X29126198Y87770483D01*
X29126225Y87770507D01*
X29123570Y87773501D01*
X29120868Y87776732D01*
X29116856Y87782852D01*
X29060617Y87836128D01*
X29058175Y87838506D01*
X26278405Y90618276D01*
X26244379Y90680588D01*
X26241500Y90707371D01*
X26241500Y91195134D01*
X26234745Y91257316D01*
X26183615Y91393705D01*
X26096261Y91510261D01*
X25979705Y91597615D01*
X25843316Y91648745D01*
X25781134Y91655500D01*
X24322595Y91655500D01*
X24254474Y91675502D01*
X24233500Y91692405D01*
X21934652Y93991253D01*
X21927112Y93999539D01*
X21923000Y94006018D01*
X21873348Y94052644D01*
X21870507Y94055398D01*
X21850770Y94075135D01*
X21847573Y94077615D01*
X21838551Y94085320D01*
X21825122Y94097931D01*
X21806321Y94115586D01*
X21799375Y94119405D01*
X21799372Y94119407D01*
X21788566Y94125348D01*
X21772047Y94136199D01*
X21771583Y94136559D01*
X21756041Y94148614D01*
X21748772Y94151759D01*
X21748768Y94151762D01*
X21715463Y94166174D01*
X21704813Y94171391D01*
X21666060Y94192695D01*
X21646437Y94197733D01*
X21627734Y94204137D01*
X21616420Y94209033D01*
X21616419Y94209033D01*
X21609145Y94212181D01*
X21601322Y94213420D01*
X21601312Y94213423D01*
X21565476Y94219099D01*
X21553856Y94221505D01*
X21518711Y94230528D01*
X21518710Y94230528D01*
X21511030Y94232500D01*
X21490776Y94232500D01*
X21471065Y94234051D01*
X21458886Y94235980D01*
X21451057Y94237220D01*
X21421786Y94234453D01*
X21407039Y94233059D01*
X21395181Y94232500D01*
X13921767Y94232500D01*
X13910584Y94233027D01*
X13903091Y94234702D01*
X13895165Y94234453D01*
X13895164Y94234453D01*
X13835001Y94232562D01*
X13831043Y94232500D01*
X13803144Y94232500D01*
X13799154Y94231996D01*
X13787320Y94231064D01*
X13743111Y94229674D01*
X13735497Y94227462D01*
X13735492Y94227461D01*
X13723659Y94224023D01*
X13704296Y94220012D01*
X13684203Y94217474D01*
X13676836Y94214557D01*
X13676831Y94214556D01*
X13643092Y94201198D01*
X13631865Y94197354D01*
X13589407Y94185018D01*
X13582581Y94180981D01*
X13571972Y94174707D01*
X13554224Y94166012D01*
X13535383Y94158552D01*
X13528967Y94153890D01*
X13528966Y94153890D01*
X13499613Y94132564D01*
X13489693Y94126048D01*
X13458465Y94107580D01*
X13458462Y94107578D01*
X13451638Y94103542D01*
X13437317Y94089221D01*
X13422284Y94076381D01*
X13405893Y94064472D01*
X13397217Y94053984D01*
X13377702Y94030395D01*
X13369712Y94021616D01*
X11418747Y92070652D01*
X11410461Y92063112D01*
X11403982Y92059000D01*
X11398557Y92053223D01*
X11357357Y92009349D01*
X11354602Y92006507D01*
X11334865Y91986770D01*
X11332385Y91983573D01*
X11324682Y91974553D01*
X11294414Y91942321D01*
X11290595Y91935375D01*
X11290593Y91935372D01*
X11284652Y91924566D01*
X11273801Y91908047D01*
X11261386Y91892041D01*
X11258241Y91884772D01*
X11258238Y91884768D01*
X11243826Y91851463D01*
X11238609Y91840813D01*
X11217305Y91802060D01*
X11215334Y91794385D01*
X11215334Y91794384D01*
X11212267Y91782438D01*
X11205863Y91763734D01*
X11197819Y91745145D01*
X11196580Y91737322D01*
X11196577Y91737312D01*
X11190901Y91701476D01*
X11188495Y91689856D01*
X11177500Y91647030D01*
X11177500Y91626776D01*
X11175949Y91607066D01*
X11172780Y91587057D01*
X11176307Y91549751D01*
X11176941Y91543039D01*
X11177500Y91531181D01*
X11177500Y77421767D01*
X11176973Y77410584D01*
X11175298Y77403091D01*
X11175547Y77395165D01*
X11175547Y77395164D01*
X11177438Y77335014D01*
X11177500Y77331055D01*
X11177500Y77303144D01*
X11177997Y77299210D01*
X11177997Y77299209D01*
X11178005Y77299144D01*
X11178938Y77287307D01*
X11180327Y77243111D01*
X11185978Y77223661D01*
X11189987Y77204300D01*
X11191432Y77192866D01*
X11192526Y77184203D01*
X11195445Y77176832D01*
X11195445Y77176830D01*
X11208804Y77143088D01*
X11212649Y77131858D01*
X11213271Y77129716D01*
X11224982Y77089407D01*
X11229015Y77082588D01*
X11229017Y77082583D01*
X11235293Y77071972D01*
X11243988Y77054224D01*
X11251448Y77035383D01*
X11256110Y77028967D01*
X11256110Y77028966D01*
X11277436Y76999613D01*
X11283952Y76989693D01*
X11306458Y76951638D01*
X11320779Y76937317D01*
X11333619Y76922284D01*
X11345528Y76905893D01*
X11351634Y76900842D01*
X11379605Y76877702D01*
X11388384Y76869712D01*
X16514348Y71743747D01*
X16521888Y71735461D01*
X16526000Y71728982D01*
X16531777Y71723557D01*
X16575651Y71682357D01*
X16578493Y71679602D01*
X16598230Y71659865D01*
X16601427Y71657385D01*
X16610447Y71649682D01*
X16642679Y71619414D01*
X16649625Y71615595D01*
X16649628Y71615593D01*
X16660434Y71609652D01*
X16676953Y71598801D01*
X16692959Y71586386D01*
X16700228Y71583241D01*
X16700232Y71583238D01*
X16733537Y71568826D01*
X16744187Y71563609D01*
X16782940Y71542305D01*
X16790615Y71540334D01*
X16790616Y71540334D01*
X16802562Y71537267D01*
X16821267Y71530863D01*
X16839855Y71522819D01*
X16847678Y71521580D01*
X16847688Y71521577D01*
X16883524Y71515901D01*
X16895144Y71513495D01*
X16930289Y71504472D01*
X16937970Y71502500D01*
X16958224Y71502500D01*
X16977934Y71500949D01*
X16997943Y71497780D01*
X17005835Y71498526D01*
X17041961Y71501941D01*
X17053819Y71502500D01*
X17833800Y71502500D01*
X17901921Y71482498D01*
X17921147Y71466157D01*
X17921420Y71466460D01*
X17926332Y71462037D01*
X17930747Y71457134D01*
X18085248Y71344882D01*
X18091276Y71342198D01*
X18091278Y71342197D01*
X18253681Y71269891D01*
X18259712Y71267206D01*
X18344480Y71249188D01*
X18440056Y71228872D01*
X18440061Y71228872D01*
X18446513Y71227500D01*
X18637487Y71227500D01*
X18643939Y71228872D01*
X18643944Y71228872D01*
X18739520Y71249188D01*
X18824288Y71267206D01*
X18830319Y71269891D01*
X18992722Y71342197D01*
X18992724Y71342198D01*
X18998752Y71344882D01*
X19153253Y71457134D01*
X19168391Y71473946D01*
X19276621Y71594148D01*
X19276622Y71594149D01*
X19281040Y71599056D01*
X19367309Y71748478D01*
X19373223Y71758721D01*
X19373224Y71758722D01*
X19376527Y71764444D01*
X19435542Y71946072D01*
X19438500Y71974211D01*
X19454814Y72129435D01*
X19455504Y72136000D01*
X19435542Y72325928D01*
X19376527Y72507556D01*
X19364975Y72527566D01*
X19317707Y72609434D01*
X19281040Y72672944D01*
X19227237Y72732699D01*
X19157675Y72809955D01*
X19157674Y72809956D01*
X19153253Y72814866D01*
X18998752Y72927118D01*
X18992724Y72929802D01*
X18992722Y72929803D01*
X18830319Y73002109D01*
X18830318Y73002109D01*
X18824288Y73004794D01*
X18730887Y73024647D01*
X18643944Y73043128D01*
X18643939Y73043128D01*
X18637487Y73044500D01*
X18446513Y73044500D01*
X18440061Y73043128D01*
X18440056Y73043128D01*
X18353113Y73024647D01*
X18259712Y73004794D01*
X18253682Y73002109D01*
X18253681Y73002109D01*
X18091278Y72929803D01*
X18091276Y72929802D01*
X18085248Y72927118D01*
X17930747Y72814866D01*
X17926332Y72809963D01*
X17921420Y72805540D01*
X17920295Y72806789D01*
X17866986Y72773949D01*
X17833800Y72769500D01*
X17332594Y72769500D01*
X17264473Y72789502D01*
X17243499Y72806405D01*
X14039574Y76010331D01*
X15081001Y76010331D01*
X15081371Y76003510D01*
X15086895Y75952648D01*
X15090521Y75937396D01*
X15135676Y75816946D01*
X15144214Y75801351D01*
X15220715Y75699276D01*
X15233276Y75686715D01*
X15335351Y75610214D01*
X15350946Y75601676D01*
X15471394Y75556522D01*
X15486649Y75552895D01*
X15537514Y75547369D01*
X15544328Y75547000D01*
X16491885Y75547000D01*
X16507124Y75551475D01*
X16508329Y75552865D01*
X16510000Y75560548D01*
X16510000Y75565116D01*
X17018000Y75565116D01*
X17022475Y75549877D01*
X17023865Y75548672D01*
X17031548Y75547001D01*
X17983669Y75547001D01*
X17990490Y75547371D01*
X18041352Y75552895D01*
X18056604Y75556521D01*
X18177054Y75601676D01*
X18192649Y75610214D01*
X18294724Y75686715D01*
X18307285Y75699276D01*
X18383786Y75801351D01*
X18392324Y75816946D01*
X18437478Y75937394D01*
X18441105Y75952649D01*
X18446631Y76003514D01*
X18447000Y76010328D01*
X18447000Y77167885D01*
X18442525Y77183124D01*
X18441135Y77184329D01*
X18433452Y77186000D01*
X17036115Y77186000D01*
X17020876Y77181525D01*
X17019671Y77180135D01*
X17018000Y77172452D01*
X17018000Y75565116D01*
X16510000Y75565116D01*
X16510000Y77167885D01*
X16505525Y77183124D01*
X16504135Y77184329D01*
X16496452Y77186000D01*
X15099116Y77186000D01*
X15083877Y77181525D01*
X15082672Y77180135D01*
X15081001Y77172452D01*
X15081001Y76010331D01*
X14039574Y76010331D01*
X12481405Y77568500D01*
X12447379Y77630812D01*
X12444500Y77657595D01*
X12444500Y77712115D01*
X15081000Y77712115D01*
X15085475Y77696876D01*
X15086865Y77695671D01*
X15094548Y77694000D01*
X16491885Y77694000D01*
X16507124Y77698475D01*
X16508329Y77699865D01*
X16510000Y77707548D01*
X16510000Y77712115D01*
X17018000Y77712115D01*
X17022475Y77696876D01*
X17023865Y77695671D01*
X17031548Y77694000D01*
X18428884Y77694000D01*
X18444123Y77698475D01*
X18445328Y77699865D01*
X18446999Y77707548D01*
X18446999Y78869669D01*
X18446629Y78876490D01*
X18441105Y78927352D01*
X18437479Y78942604D01*
X18392324Y79063054D01*
X18383786Y79078649D01*
X18307285Y79180724D01*
X18294724Y79193285D01*
X18192649Y79269786D01*
X18177054Y79278324D01*
X18056606Y79323478D01*
X18041351Y79327105D01*
X17990486Y79332631D01*
X17983672Y79333000D01*
X17036115Y79333000D01*
X17020876Y79328525D01*
X17019671Y79327135D01*
X17018000Y79319452D01*
X17018000Y77712115D01*
X16510000Y77712115D01*
X16510000Y79314884D01*
X16505525Y79330123D01*
X16504135Y79331328D01*
X16496452Y79332999D01*
X15544331Y79332999D01*
X15537510Y79332629D01*
X15486648Y79327105D01*
X15471396Y79323479D01*
X15350946Y79278324D01*
X15335351Y79269786D01*
X15233276Y79193285D01*
X15220715Y79180724D01*
X15144214Y79078649D01*
X15135676Y79063054D01*
X15090522Y78942606D01*
X15086895Y78927351D01*
X15081369Y78876486D01*
X15081000Y78869672D01*
X15081000Y77712115D01*
X12444500Y77712115D01*
X12444500Y86233000D01*
X13056496Y86233000D01*
X13076458Y86043072D01*
X13135473Y85861444D01*
X13230960Y85696056D01*
X13358747Y85554134D01*
X13457843Y85482136D01*
X13507904Y85445765D01*
X13513248Y85441882D01*
X13519276Y85439198D01*
X13519278Y85439197D01*
X13669081Y85372501D01*
X13687712Y85364206D01*
X13758634Y85349131D01*
X13868056Y85325872D01*
X13868061Y85325872D01*
X13874513Y85324500D01*
X14065487Y85324500D01*
X14071939Y85325872D01*
X14071944Y85325872D01*
X14181366Y85349131D01*
X14252288Y85364206D01*
X14270919Y85372501D01*
X14420722Y85439197D01*
X14420724Y85439198D01*
X14426752Y85441882D01*
X14432091Y85445761D01*
X14432098Y85445765D01*
X14438528Y85450437D01*
X14512587Y85474500D01*
X15279500Y85474500D01*
X15347621Y85454498D01*
X15394114Y85400842D01*
X15405500Y85348500D01*
X15405500Y85216866D01*
X15412255Y85154684D01*
X15463385Y85018295D01*
X15550739Y84901739D01*
X15667295Y84814385D01*
X15803684Y84763255D01*
X15865866Y84756500D01*
X15879500Y84756500D01*
X15947621Y84736498D01*
X15994114Y84682842D01*
X16005500Y84630500D01*
X16005500Y84599500D01*
X15985498Y84531379D01*
X15931842Y84484886D01*
X15879500Y84473500D01*
X15540866Y84473500D01*
X15478684Y84466745D01*
X15342295Y84415615D01*
X15225739Y84328261D01*
X15138385Y84211705D01*
X15087255Y84075316D01*
X15080500Y84013134D01*
X15080500Y81146866D01*
X15087255Y81084684D01*
X15138385Y80948295D01*
X15225739Y80831739D01*
X15342295Y80744385D01*
X15478684Y80693255D01*
X15540866Y80686500D01*
X17987134Y80686500D01*
X18049316Y80693255D01*
X18185705Y80744385D01*
X18302261Y80831739D01*
X18389615Y80948295D01*
X18440745Y81084684D01*
X18447500Y81146866D01*
X18447500Y84013134D01*
X18440745Y84075316D01*
X18389615Y84211705D01*
X18302261Y84328261D01*
X18185705Y84415615D01*
X18049316Y84466745D01*
X17987134Y84473500D01*
X17648500Y84473500D01*
X17580379Y84493502D01*
X17533886Y84547158D01*
X17522500Y84599500D01*
X17522500Y84630500D01*
X17542502Y84698621D01*
X17596158Y84745114D01*
X17648500Y84756500D01*
X17662134Y84756500D01*
X17724316Y84763255D01*
X17860705Y84814385D01*
X17977261Y84901739D01*
X18064615Y85018295D01*
X18115745Y85154684D01*
X18122500Y85216866D01*
X18122500Y87313134D01*
X18115745Y87375316D01*
X18064615Y87511705D01*
X17977261Y87628261D01*
X17860705Y87715615D01*
X17724316Y87766745D01*
X17662134Y87773500D01*
X15865866Y87773500D01*
X15803684Y87766745D01*
X15667295Y87715615D01*
X15550739Y87628261D01*
X15463385Y87511705D01*
X15412255Y87375316D01*
X15405500Y87313134D01*
X15405500Y87117500D01*
X15385498Y87049379D01*
X15331842Y87002886D01*
X15279500Y86991500D01*
X14512587Y86991500D01*
X14438528Y87015563D01*
X14432098Y87020235D01*
X14432091Y87020239D01*
X14426752Y87024118D01*
X14420724Y87026802D01*
X14420722Y87026803D01*
X14258319Y87099109D01*
X14258318Y87099109D01*
X14252288Y87101794D01*
X14158888Y87121647D01*
X14071944Y87140128D01*
X14071939Y87140128D01*
X14065487Y87141500D01*
X13874513Y87141500D01*
X13868061Y87140128D01*
X13868056Y87140128D01*
X13781112Y87121647D01*
X13687712Y87101794D01*
X13681682Y87099109D01*
X13681681Y87099109D01*
X13519278Y87026803D01*
X13519276Y87026802D01*
X13513248Y87024118D01*
X13507907Y87020238D01*
X13507906Y87020237D01*
X13501473Y87015563D01*
X13358747Y86911866D01*
X13230960Y86769944D01*
X13135473Y86604556D01*
X13076458Y86422928D01*
X13056496Y86233000D01*
X12444500Y86233000D01*
X12444500Y91252406D01*
X12464502Y91320527D01*
X12481405Y91341501D01*
X14068500Y92928595D01*
X14130812Y92962621D01*
X14157595Y92965500D01*
X21116406Y92965500D01*
X21184527Y92945498D01*
X21205501Y92928595D01*
X23187595Y90946501D01*
X23221621Y90884189D01*
X23224500Y90857406D01*
X23224500Y89398866D01*
X23231255Y89336684D01*
X23282385Y89200295D01*
X23369739Y89083739D01*
X23486295Y88996385D01*
X23622684Y88945255D01*
X23684866Y88938500D01*
X25760629Y88938500D01*
X25828750Y88918498D01*
X25849724Y88901595D01*
X27735595Y87015724D01*
X27769621Y86953412D01*
X27772500Y86926629D01*
X27772500Y85475500D01*
X27752498Y85407379D01*
X27698842Y85360886D01*
X27646500Y85349500D01*
X27607866Y85349500D01*
X27545684Y85342745D01*
X27409295Y85291615D01*
X27292739Y85204261D01*
X27205385Y85087705D01*
X27154255Y84951316D01*
X27147500Y84889134D01*
X27147500Y84342866D01*
X27147869Y84339471D01*
X27147869Y84339467D01*
X27151656Y84304607D01*
X27151656Y84277394D01*
X27147500Y84239134D01*
X27147500Y83692866D01*
X27147869Y83689471D01*
X27147869Y83689467D01*
X27151656Y83654607D01*
X27151656Y83627394D01*
X27147500Y83589134D01*
X27147500Y83042866D01*
X27147869Y83039471D01*
X27147869Y83039467D01*
X27151656Y83004607D01*
X27151656Y82977394D01*
X27147500Y82939134D01*
X27147500Y82392866D01*
X27147869Y82389471D01*
X27147869Y82389467D01*
X27151656Y82354607D01*
X27151656Y82327394D01*
X27147500Y82289134D01*
X27147500Y81742866D01*
X27147869Y81739471D01*
X27147869Y81739467D01*
X27151656Y81704607D01*
X27151656Y81677394D01*
X27147500Y81639134D01*
X27147500Y81092866D01*
X27147869Y81089471D01*
X27147869Y81089467D01*
X27151656Y81054607D01*
X27151656Y81027393D01*
X27149424Y81006842D01*
X27147500Y80989134D01*
X27147500Y80442866D01*
X27151909Y80402280D01*
X27151909Y80375067D01*
X27148369Y80342483D01*
X27148000Y80335672D01*
X27148000Y80309115D01*
X27152475Y80293876D01*
X27178170Y80271611D01*
X27177712Y80271082D01*
X27190100Y80264318D01*
X27205207Y80244161D01*
X27205385Y80244295D01*
X27282377Y80141565D01*
X27307225Y80075059D01*
X27292172Y80005676D01*
X27282377Y79990435D01*
X27205385Y79887705D01*
X27205096Y79887921D01*
X27158935Y79841861D01*
X27153582Y79839647D01*
X27149672Y79835135D01*
X27148001Y79827452D01*
X27148001Y79796330D01*
X27148370Y79789512D01*
X27151909Y79756933D01*
X27151909Y79729720D01*
X27147500Y79689134D01*
X27147500Y79659360D01*
X27127498Y79591239D01*
X27073842Y79544746D01*
X27003568Y79534642D01*
X26970252Y79544253D01*
X26831323Y79606108D01*
X26831315Y79606111D01*
X26825288Y79608794D01*
X26731888Y79628647D01*
X26644944Y79647128D01*
X26644939Y79647128D01*
X26638487Y79648500D01*
X26447513Y79648500D01*
X26441061Y79647128D01*
X26441056Y79647128D01*
X26354112Y79628647D01*
X26260712Y79608794D01*
X26254682Y79606109D01*
X26254681Y79606109D01*
X26092278Y79533803D01*
X26092276Y79533802D01*
X26086248Y79531118D01*
X25931747Y79418866D01*
X25927326Y79413956D01*
X25927325Y79413955D01*
X25851843Y79330123D01*
X25803960Y79276944D01*
X25708473Y79111556D01*
X25649458Y78929928D01*
X25648768Y78923367D01*
X25648768Y78923365D01*
X25635938Y78801295D01*
X25608925Y78735638D01*
X25550703Y78695009D01*
X25479758Y78692306D01*
X25421533Y78725371D01*
X23450876Y80696029D01*
X21403405Y82743500D01*
X21369379Y82805812D01*
X21366500Y82832595D01*
X21366500Y88812500D01*
X21386502Y88880621D01*
X21440158Y88927114D01*
X21492500Y88938500D01*
X21781134Y88938500D01*
X21843316Y88945255D01*
X21979705Y88996385D01*
X22096261Y89083739D01*
X22183615Y89200295D01*
X22234745Y89336684D01*
X22241500Y89398866D01*
X22241500Y91195134D01*
X22234745Y91257316D01*
X22183615Y91393705D01*
X22096261Y91510261D01*
X21979705Y91597615D01*
X21843316Y91648745D01*
X21781134Y91655500D01*
X19684866Y91655500D01*
X19622684Y91648745D01*
X19486295Y91597615D01*
X19369739Y91510261D01*
X19282385Y91393705D01*
X19231255Y91257316D01*
X19224500Y91195134D01*
X19224500Y91149500D01*
X19204498Y91081379D01*
X19150842Y91034886D01*
X19098500Y91023500D01*
X18248500Y91023500D01*
X18180379Y91043502D01*
X18133886Y91097158D01*
X18122500Y91149500D01*
X18122500Y91313134D01*
X18115745Y91375316D01*
X18064615Y91511705D01*
X17977261Y91628261D01*
X17860705Y91715615D01*
X17724316Y91766745D01*
X17662134Y91773500D01*
X15865866Y91773500D01*
X15803684Y91766745D01*
X15667295Y91715615D01*
X15550739Y91628261D01*
X15463385Y91511705D01*
X15412255Y91375316D01*
X15405500Y91313134D01*
X15405500Y89216866D01*
X15412255Y89154684D01*
X15463385Y89018295D01*
X15550739Y88901739D01*
X15667295Y88814385D01*
X15803684Y88763255D01*
X15865866Y88756500D01*
X17662134Y88756500D01*
X17724316Y88763255D01*
X17860705Y88814385D01*
X17977261Y88901739D01*
X18064615Y89018295D01*
X18115745Y89154684D01*
X18122500Y89216866D01*
X18122500Y89380500D01*
X18142502Y89448621D01*
X18196158Y89495114D01*
X18248500Y89506500D01*
X19099754Y89506500D01*
X19167875Y89486498D01*
X19214368Y89432842D01*
X19225017Y89394107D01*
X19230401Y89344540D01*
X19230402Y89344536D01*
X19231255Y89336684D01*
X19282385Y89200295D01*
X19369739Y89083739D01*
X19486295Y88996385D01*
X19622684Y88945255D01*
X19684866Y88938500D01*
X19973500Y88938500D01*
X20041621Y88918498D01*
X20088114Y88864842D01*
X20099500Y88812500D01*
X20099500Y82596767D01*
X20098973Y82585584D01*
X20097298Y82578091D01*
X20097547Y82570165D01*
X20097547Y82570164D01*
X20099438Y82510014D01*
X20099500Y82506055D01*
X20099500Y82478144D01*
X20099997Y82474210D01*
X20099997Y82474209D01*
X20100005Y82474144D01*
X20100938Y82462307D01*
X20102327Y82418111D01*
X20107978Y82398661D01*
X20111987Y82379300D01*
X20114526Y82359203D01*
X20117445Y82351832D01*
X20117445Y82351830D01*
X20130804Y82318088D01*
X20134649Y82306858D01*
X20146982Y82264407D01*
X20151015Y82257588D01*
X20151017Y82257583D01*
X20157293Y82246972D01*
X20165988Y82229224D01*
X20173448Y82210383D01*
X20178110Y82203967D01*
X20178110Y82203966D01*
X20199436Y82174613D01*
X20205952Y82164693D01*
X20228458Y82126638D01*
X20242779Y82112317D01*
X20255619Y82097284D01*
X20267528Y82080893D01*
X20301605Y82052702D01*
X20310384Y82044712D01*
X24040501Y78314595D01*
X24074527Y78252283D01*
X24069462Y78181468D01*
X24026915Y78124632D01*
X23960395Y78099821D01*
X23951406Y78099500D01*
X23480603Y78099500D01*
X23412482Y78119502D01*
X23367602Y78170793D01*
X23366550Y78173946D01*
X23273478Y78324348D01*
X23148303Y78449305D01*
X23142072Y78453146D01*
X23003968Y78538275D01*
X23003966Y78538276D01*
X22997738Y78542115D01*
X22837254Y78595345D01*
X22836389Y78595632D01*
X22836387Y78595632D01*
X22829861Y78597797D01*
X22823025Y78598497D01*
X22823022Y78598498D01*
X22779969Y78602909D01*
X22725400Y78608500D01*
X21374600Y78608500D01*
X21371354Y78608163D01*
X21371350Y78608163D01*
X21275692Y78598238D01*
X21275688Y78598237D01*
X21268834Y78597526D01*
X21262298Y78595345D01*
X21262296Y78595345D01*
X21130194Y78551272D01*
X21101054Y78541550D01*
X20950652Y78448478D01*
X20825695Y78323303D01*
X20821855Y78317073D01*
X20821854Y78317072D01*
X20740394Y78184919D01*
X20732885Y78172738D01*
X20677203Y78004861D01*
X20676503Y77998025D01*
X20676502Y77998022D01*
X20673084Y77964658D01*
X20666500Y77900400D01*
X20666500Y76999600D01*
X20666837Y76996354D01*
X20666837Y76996350D01*
X20676747Y76900842D01*
X20677474Y76893834D01*
X20733450Y76726054D01*
X20826522Y76575652D01*
X20951697Y76450695D01*
X21102262Y76357885D01*
X21155699Y76340161D01*
X21263611Y76304368D01*
X21263613Y76304368D01*
X21270139Y76302203D01*
X21276975Y76301503D01*
X21276978Y76301502D01*
X21320031Y76297091D01*
X21374600Y76291500D01*
X22725400Y76291500D01*
X22728646Y76291837D01*
X22728650Y76291837D01*
X22759259Y76295013D01*
X22785289Y76297714D01*
X22855109Y76284849D01*
X22906892Y76236279D01*
X22924194Y76167423D01*
X22901524Y76100143D01*
X22887387Y76083292D01*
X22349500Y75545405D01*
X22287188Y75511379D01*
X22260405Y75508500D01*
X21374600Y75508500D01*
X21371354Y75508163D01*
X21371350Y75508163D01*
X21275692Y75498238D01*
X21275688Y75498237D01*
X21268834Y75497526D01*
X21262298Y75495345D01*
X21262296Y75495345D01*
X21237982Y75487233D01*
X21101054Y75441550D01*
X20950652Y75348478D01*
X20825695Y75223303D01*
X20821855Y75217073D01*
X20821854Y75217072D01*
X20766515Y75127295D01*
X20732885Y75072738D01*
X20677203Y74904861D01*
X20676503Y74898025D01*
X20676502Y74898022D01*
X20674378Y74877291D01*
X20666500Y74800400D01*
X20666500Y73899600D01*
X20677474Y73793834D01*
X20679655Y73787298D01*
X20679655Y73787296D01*
X20693349Y73746250D01*
X20733450Y73626054D01*
X20826522Y73475652D01*
X20951697Y73350695D01*
X20957927Y73346855D01*
X20957928Y73346854D01*
X21095090Y73262306D01*
X21102262Y73257885D01*
X21182005Y73231436D01*
X21263611Y73204368D01*
X21263613Y73204368D01*
X21270139Y73202203D01*
X21276977Y73201502D01*
X21276979Y73201502D01*
X21303342Y73198801D01*
X21369070Y73171960D01*
X21409852Y73113845D01*
X21416500Y73073457D01*
X21416500Y71970857D01*
X21396498Y71902736D01*
X21342842Y71856243D01*
X21330378Y71851334D01*
X21308005Y71843870D01*
X21307998Y71843867D01*
X21301054Y71841550D01*
X21150652Y71748478D01*
X21025695Y71623303D01*
X21021855Y71617073D01*
X21021854Y71617072D01*
X20949086Y71499020D01*
X20932885Y71472738D01*
X20906436Y71392995D01*
X20891765Y71348763D01*
X20877203Y71304861D01*
X20876503Y71298025D01*
X20876502Y71298022D01*
X20872508Y71259035D01*
X20866500Y71200400D01*
X20866500Y69799600D01*
X20866837Y69796354D01*
X20866837Y69796350D01*
X20870163Y69764301D01*
X20877474Y69693834D01*
X20879655Y69687298D01*
X20879655Y69687296D01*
X20906678Y69606300D01*
X20933450Y69526054D01*
X21026522Y69375652D01*
X21151697Y69250695D01*
X21157927Y69246855D01*
X21157928Y69246854D01*
X21295090Y69162306D01*
X21302262Y69157885D01*
X21332282Y69147928D01*
X21463611Y69104368D01*
X21463613Y69104368D01*
X21470139Y69102203D01*
X21476975Y69101503D01*
X21476978Y69101502D01*
X21520031Y69097091D01*
X21574600Y69091500D01*
X22500400Y69091500D01*
X22503646Y69091837D01*
X22503650Y69091837D01*
X22599308Y69101762D01*
X22599312Y69101763D01*
X22606166Y69102474D01*
X22612702Y69104655D01*
X22612704Y69104655D01*
X22757122Y69152837D01*
X22773946Y69158450D01*
X22924348Y69251522D01*
X23049305Y69376697D01*
X23072152Y69413762D01*
X23138275Y69521032D01*
X23138276Y69521034D01*
X23142115Y69527262D01*
X23197797Y69695139D01*
X23208500Y69799600D01*
X23991500Y69799600D01*
X23991837Y69796354D01*
X23991837Y69796350D01*
X23995163Y69764301D01*
X24002474Y69693834D01*
X24004655Y69687298D01*
X24004655Y69687296D01*
X24031678Y69606300D01*
X24058450Y69526054D01*
X24151522Y69375652D01*
X24276697Y69250695D01*
X24282927Y69246855D01*
X24282928Y69246854D01*
X24420090Y69162306D01*
X24427262Y69157885D01*
X24434210Y69155580D01*
X24434211Y69155580D01*
X24442670Y69152774D01*
X24501029Y69112342D01*
X24528264Y69046777D01*
X24529000Y69033182D01*
X24529000Y67916407D01*
X24508998Y67848286D01*
X24496636Y67832097D01*
X24410960Y67736944D01*
X24315473Y67571556D01*
X24256458Y67389928D01*
X24236496Y67200000D01*
X24256458Y67010072D01*
X24315473Y66828444D01*
X24410960Y66663056D01*
X24415378Y66658149D01*
X24415379Y66658148D01*
X24527241Y66533913D01*
X24538747Y66521134D01*
X24693248Y66408882D01*
X24699276Y66406198D01*
X24699278Y66406197D01*
X24861681Y66333891D01*
X24867712Y66331206D01*
X24954507Y66312757D01*
X25048056Y66292872D01*
X25048061Y66292872D01*
X25054513Y66291500D01*
X25245487Y66291500D01*
X25251939Y66292872D01*
X25251944Y66292872D01*
X25345493Y66312757D01*
X25432288Y66331206D01*
X25438319Y66333891D01*
X25600722Y66406197D01*
X25600724Y66406198D01*
X25606752Y66408882D01*
X25761253Y66521134D01*
X25772759Y66533913D01*
X25884621Y66658148D01*
X25884622Y66658149D01*
X25889040Y66663056D01*
X25984527Y66828444D01*
X26043542Y67010072D01*
X26063504Y67200000D01*
X26043542Y67389928D01*
X25984527Y67571556D01*
X25889040Y67736944D01*
X25828362Y67804334D01*
X25797646Y67868340D01*
X25796000Y67888642D01*
X25796000Y69033314D01*
X25816002Y69101435D01*
X25869658Y69147928D01*
X25882115Y69152835D01*
X25898946Y69158450D01*
X26049348Y69251522D01*
X26174305Y69376697D01*
X26197152Y69413762D01*
X26263275Y69521032D01*
X26263276Y69521034D01*
X26267115Y69527262D01*
X26322797Y69695139D01*
X26333500Y69799600D01*
X26333500Y71200400D01*
X26327677Y71256525D01*
X26323238Y71299308D01*
X26323237Y71299312D01*
X26322526Y71306166D01*
X26308315Y71348763D01*
X26269149Y71466157D01*
X26266550Y71473946D01*
X26173478Y71624348D01*
X26048303Y71749305D01*
X26042072Y71753146D01*
X25903968Y71838275D01*
X25903966Y71838276D01*
X25897738Y71842115D01*
X25737254Y71895345D01*
X25736389Y71895632D01*
X25736387Y71895632D01*
X25729861Y71897797D01*
X25723025Y71898497D01*
X25723022Y71898498D01*
X25679969Y71902909D01*
X25625400Y71908500D01*
X24699600Y71908500D01*
X24696354Y71908163D01*
X24696350Y71908163D01*
X24600692Y71898238D01*
X24600688Y71898237D01*
X24593834Y71897526D01*
X24587298Y71895345D01*
X24587296Y71895345D01*
X24541500Y71880066D01*
X24426054Y71841550D01*
X24275652Y71748478D01*
X24150695Y71623303D01*
X24146855Y71617073D01*
X24146854Y71617072D01*
X24074086Y71499020D01*
X24057885Y71472738D01*
X24031436Y71392995D01*
X24016765Y71348763D01*
X24002203Y71304861D01*
X24001503Y71298025D01*
X24001502Y71298022D01*
X23997508Y71259035D01*
X23991500Y71200400D01*
X23991500Y69799600D01*
X23208500Y69799600D01*
X23208500Y71200400D01*
X23202677Y71256525D01*
X23198238Y71299308D01*
X23198237Y71299312D01*
X23197526Y71306166D01*
X23183315Y71348763D01*
X23144149Y71466157D01*
X23141550Y71473946D01*
X23048478Y71624348D01*
X22923303Y71749305D01*
X22917072Y71753146D01*
X22778968Y71838275D01*
X22778966Y71838276D01*
X22772738Y71842115D01*
X22765791Y71844419D01*
X22759156Y71847513D01*
X22760199Y71849749D01*
X22711462Y71883523D01*
X22684234Y71949091D01*
X22683500Y71962672D01*
X22683500Y73073550D01*
X22703502Y73141671D01*
X22757158Y73188164D01*
X22796496Y73198877D01*
X22804135Y73199669D01*
X22824308Y73201762D01*
X22824312Y73201763D01*
X22831166Y73202474D01*
X22837702Y73204655D01*
X22837704Y73204655D01*
X22973879Y73250087D01*
X22998946Y73258450D01*
X23149348Y73351522D01*
X23274305Y73476697D01*
X23367115Y73627262D01*
X23422797Y73795139D01*
X23424861Y73815278D01*
X23433172Y73896402D01*
X23433500Y73899600D01*
X23433500Y74785406D01*
X23453502Y74853527D01*
X23470405Y74874501D01*
X24741499Y76145595D01*
X24803811Y76179621D01*
X24830594Y76182500D01*
X25631536Y76182500D01*
X25699657Y76162498D01*
X25746150Y76108842D01*
X25756846Y76069670D01*
X25775429Y75892866D01*
X25776458Y75883072D01*
X25835473Y75701444D01*
X25930960Y75536056D01*
X25935378Y75531149D01*
X25935379Y75531148D01*
X25967233Y75495771D01*
X26058747Y75394134D01*
X26213248Y75281882D01*
X26219276Y75279198D01*
X26219278Y75279197D01*
X26344819Y75223303D01*
X26387712Y75204206D01*
X26481112Y75184353D01*
X26568056Y75165872D01*
X26568061Y75165872D01*
X26574513Y75164500D01*
X26765487Y75164500D01*
X26771939Y75165872D01*
X26771944Y75165872D01*
X26858888Y75184353D01*
X26952288Y75204206D01*
X26995181Y75223303D01*
X27120722Y75279197D01*
X27120724Y75279198D01*
X27126752Y75281882D01*
X27281253Y75394134D01*
X27285668Y75399037D01*
X27290580Y75403460D01*
X27291705Y75402211D01*
X27345014Y75435051D01*
X27378200Y75439500D01*
X27536605Y75439500D01*
X27550213Y75438763D01*
X27560054Y75437694D01*
X27607866Y75432500D01*
X29454134Y75432500D01*
X29516316Y75439255D01*
X29652705Y75490385D01*
X29769261Y75577739D01*
X29856615Y75694295D01*
X29907745Y75830684D01*
X29914500Y75892866D01*
X29914500Y76439134D01*
X29913662Y76446854D01*
X29910344Y76477393D01*
X29910344Y76504607D01*
X29914131Y76539467D01*
X29914131Y76539471D01*
X29914500Y76542866D01*
X29914500Y77089134D01*
X29910344Y77127394D01*
X29910344Y77154607D01*
X29914131Y77189467D01*
X29914131Y77189471D01*
X29914500Y77192866D01*
X29914500Y77355624D01*
X29934502Y77423745D01*
X29988158Y77470238D01*
X30049010Y77480499D01*
X30049909Y77480298D01*
X30117985Y77482438D01*
X30121945Y77482500D01*
X30149856Y77482500D01*
X30153791Y77482997D01*
X30153856Y77483005D01*
X30165693Y77483938D01*
X30197951Y77484952D01*
X30201970Y77485078D01*
X30209889Y77485327D01*
X30229343Y77490979D01*
X30248700Y77494987D01*
X30260930Y77496532D01*
X30260931Y77496532D01*
X30268797Y77497526D01*
X30276168Y77500445D01*
X30276170Y77500445D01*
X30309912Y77513804D01*
X30321142Y77517649D01*
X30355983Y77527771D01*
X30355984Y77527771D01*
X30363593Y77529982D01*
X30370412Y77534015D01*
X30370417Y77534017D01*
X30381028Y77540293D01*
X30398776Y77548988D01*
X30417617Y77556448D01*
X30434206Y77568500D01*
X30453387Y77582436D01*
X30463307Y77588952D01*
X30494535Y77607420D01*
X30494538Y77607422D01*
X30501362Y77611458D01*
X30515683Y77625779D01*
X30530717Y77638620D01*
X30547107Y77650528D01*
X30575298Y77684605D01*
X30583288Y77693384D01*
X31790405Y78900500D01*
X31852717Y78934526D01*
X31923533Y78929461D01*
X31980368Y78886914D01*
X32005179Y78820394D01*
X32005500Y78811405D01*
X32005500Y62943767D01*
X32004973Y62932584D01*
X32003298Y62925091D01*
X32003547Y62917165D01*
X32003547Y62917164D01*
X32005438Y62857014D01*
X32005500Y62853055D01*
X32005500Y62825144D01*
X32005997Y62821210D01*
X32005997Y62821209D01*
X32006005Y62821144D01*
X32006938Y62809307D01*
X32008327Y62765111D01*
X32013978Y62745661D01*
X32017987Y62726300D01*
X32020526Y62706203D01*
X32023445Y62698832D01*
X32023445Y62698830D01*
X32036804Y62665088D01*
X32040649Y62653858D01*
X32052982Y62611407D01*
X32057015Y62604588D01*
X32057017Y62604583D01*
X32063293Y62593972D01*
X32071988Y62576224D01*
X32079448Y62557383D01*
X32084110Y62550967D01*
X32084110Y62550966D01*
X32105436Y62521613D01*
X32111952Y62511693D01*
X32134458Y62473638D01*
X32148779Y62459317D01*
X32161619Y62444284D01*
X32173528Y62427893D01*
X32196395Y62408976D01*
X32207605Y62399702D01*
X32216384Y62391712D01*
X39882343Y54725753D01*
X39889887Y54717463D01*
X39894000Y54710982D01*
X39899777Y54705557D01*
X39943667Y54664342D01*
X39946509Y54661587D01*
X39966230Y54641866D01*
X39969425Y54639388D01*
X39978447Y54631682D01*
X40010679Y54601414D01*
X40017628Y54597594D01*
X40028432Y54591654D01*
X40044956Y54580801D01*
X40060959Y54568387D01*
X40101543Y54550824D01*
X40112173Y54545617D01*
X40150940Y54524305D01*
X40158617Y54522334D01*
X40158622Y54522332D01*
X40170558Y54519268D01*
X40189266Y54512863D01*
X40207855Y54504819D01*
X40215680Y54503580D01*
X40215682Y54503579D01*
X40251519Y54497903D01*
X40263140Y54495496D01*
X40298289Y54486472D01*
X40305970Y54484500D01*
X40326231Y54484500D01*
X40345940Y54482949D01*
X40365943Y54479781D01*
X40373835Y54480527D01*
X40379062Y54481021D01*
X40409954Y54483941D01*
X40421811Y54484500D01*
X49969581Y54484500D01*
X50037702Y54464498D01*
X50084195Y54410842D01*
X50094299Y54340568D01*
X50064805Y54275988D01*
X50061745Y54272868D01*
X50061747Y54272866D01*
X49933960Y54130944D01*
X49918763Y54104622D01*
X49853148Y53990973D01*
X49838473Y53965556D01*
X49779458Y53783928D01*
X49778768Y53777367D01*
X49778768Y53777365D01*
X49763268Y53629890D01*
X49759496Y53594000D01*
X49760186Y53587435D01*
X49778488Y53413305D01*
X49779458Y53404072D01*
X49838473Y53222444D01*
X49933960Y53057056D01*
X50007137Y52975785D01*
X50037853Y52911779D01*
X50039500Y52891476D01*
X50039500Y47811776D01*
X50037949Y47792066D01*
X50034780Y47772057D01*
X50035526Y47764165D01*
X50038941Y47728039D01*
X50039500Y47716181D01*
X50039500Y40446594D01*
X50019498Y40378473D01*
X50002595Y40357499D01*
X46637500Y36992405D01*
X46575188Y36958379D01*
X46548405Y36955500D01*
X36019767Y36955500D01*
X36008584Y36956027D01*
X36001091Y36957702D01*
X35993165Y36957453D01*
X35993164Y36957453D01*
X35933001Y36955562D01*
X35929043Y36955500D01*
X35901144Y36955500D01*
X35897154Y36954996D01*
X35885320Y36954064D01*
X35841111Y36952674D01*
X35833497Y36950462D01*
X35833492Y36950461D01*
X35821659Y36947023D01*
X35802296Y36943012D01*
X35782203Y36940474D01*
X35774836Y36937557D01*
X35774831Y36937556D01*
X35741092Y36924198D01*
X35729865Y36920354D01*
X35687407Y36908018D01*
X35680581Y36903981D01*
X35669972Y36897707D01*
X35652224Y36889012D01*
X35633383Y36881552D01*
X35626967Y36876890D01*
X35626966Y36876890D01*
X35597613Y36855564D01*
X35587693Y36849048D01*
X35556465Y36830580D01*
X35556462Y36830578D01*
X35549638Y36826542D01*
X35535317Y36812221D01*
X35520284Y36799381D01*
X35503893Y36787472D01*
X35498842Y36781366D01*
X35475702Y36753395D01*
X35467712Y36744616D01*
X32443500Y33720405D01*
X32381188Y33686379D01*
X32354405Y33683500D01*
X30996866Y33683500D01*
X30934684Y33676745D01*
X30798295Y33625615D01*
X30681739Y33538261D01*
X30594385Y33421705D01*
X30591233Y33413297D01*
X30563856Y33340270D01*
X30521214Y33283506D01*
X30454652Y33258806D01*
X30445874Y33258500D01*
X28420770Y33258500D01*
X28348499Y33281287D01*
X28332178Y33292715D01*
X28296749Y33317523D01*
X28291767Y33319846D01*
X28291762Y33319849D01*
X28257543Y33335805D01*
X28204258Y33382722D01*
X28184797Y33450999D01*
X28205339Y33518959D01*
X28257543Y33564195D01*
X28291762Y33580151D01*
X28291767Y33580154D01*
X28296749Y33582477D01*
X28431377Y33676745D01*
X28479789Y33710643D01*
X28479792Y33710645D01*
X28484300Y33713802D01*
X28646198Y33875700D01*
X28777523Y34063251D01*
X28779846Y34068233D01*
X28779849Y34068238D01*
X28871961Y34265775D01*
X28871961Y34265776D01*
X28874284Y34270757D01*
X28904304Y34382790D01*
X28932119Y34486598D01*
X28932119Y34486600D01*
X28933543Y34491913D01*
X28953498Y34720000D01*
X28933543Y34948087D01*
X28874284Y35169243D01*
X28871961Y35174225D01*
X28779849Y35371762D01*
X28779846Y35371767D01*
X28777523Y35376749D01*
X28646198Y35564300D01*
X28484300Y35726198D01*
X28479792Y35729355D01*
X28479789Y35729357D01*
X28395415Y35788436D01*
X28296749Y35857523D01*
X28291767Y35859846D01*
X28291762Y35859849D01*
X28256951Y35876081D01*
X28203666Y35922998D01*
X28184205Y35991275D01*
X28204747Y36059235D01*
X28256951Y36104471D01*
X28291511Y36120586D01*
X28301007Y36126069D01*
X28479467Y36251028D01*
X28487875Y36258084D01*
X28641916Y36412125D01*
X28648972Y36420533D01*
X28773931Y36598993D01*
X28779414Y36608489D01*
X28871490Y36805947D01*
X28875236Y36816239D01*
X28921394Y36988503D01*
X28921058Y37002599D01*
X28913116Y37006000D01*
X26372033Y37006000D01*
X26358502Y37002027D01*
X26357273Y36993478D01*
X26404764Y36816239D01*
X26408510Y36805947D01*
X26500586Y36608489D01*
X26506069Y36598993D01*
X26631028Y36420533D01*
X26638084Y36412125D01*
X26792125Y36258084D01*
X26800533Y36251028D01*
X26978993Y36126069D01*
X26988489Y36120586D01*
X27023049Y36104471D01*
X27076334Y36057554D01*
X27095795Y35989277D01*
X27075253Y35921317D01*
X27023049Y35876081D01*
X26988238Y35859849D01*
X26988233Y35859846D01*
X26983251Y35857523D01*
X26884585Y35788436D01*
X26800211Y35729357D01*
X26800208Y35729355D01*
X26795700Y35726198D01*
X26633802Y35564300D01*
X26502477Y35376749D01*
X26500154Y35371767D01*
X26500151Y35371762D01*
X26408039Y35174225D01*
X26405716Y35169243D01*
X26346457Y34948087D01*
X26326502Y34720000D01*
X26346457Y34491913D01*
X26347881Y34486600D01*
X26347881Y34486598D01*
X26375697Y34382790D01*
X26405716Y34270757D01*
X26408039Y34265776D01*
X26408039Y34265775D01*
X26500151Y34068238D01*
X26500154Y34068233D01*
X26502477Y34063251D01*
X26633802Y33875700D01*
X26795700Y33713802D01*
X26800208Y33710645D01*
X26800211Y33710643D01*
X26848623Y33676745D01*
X26983251Y33582477D01*
X26988233Y33580154D01*
X26988238Y33580151D01*
X27022457Y33564195D01*
X27075742Y33517278D01*
X27095203Y33449001D01*
X27074661Y33381041D01*
X27022457Y33335805D01*
X26988238Y33319849D01*
X26988233Y33319846D01*
X26983251Y33317523D01*
X26925881Y33277352D01*
X26800211Y33189357D01*
X26800208Y33189355D01*
X26795700Y33186198D01*
X26633802Y33024300D01*
X26630645Y33019792D01*
X26630643Y33019789D01*
X26575902Y32941611D01*
X26502477Y32836749D01*
X26500154Y32831767D01*
X26500151Y32831762D01*
X26408039Y32634225D01*
X26405716Y32629243D01*
X26404294Y32623935D01*
X26404293Y32623933D01*
X26348229Y32414699D01*
X26346457Y32408087D01*
X26326502Y32180000D01*
X26346457Y31951913D01*
X26347881Y31946600D01*
X26347881Y31946598D01*
X26401632Y31746000D01*
X26405716Y31730757D01*
X26408039Y31725776D01*
X26408039Y31725775D01*
X26500151Y31528238D01*
X26500154Y31528233D01*
X26502477Y31523251D01*
X26633802Y31335700D01*
X26795700Y31173802D01*
X26800208Y31170645D01*
X26800211Y31170643D01*
X26878389Y31115902D01*
X26983251Y31042477D01*
X26988233Y31040154D01*
X26988238Y31040151D01*
X27004801Y31032428D01*
X27036349Y31011428D01*
X27048314Y31000541D01*
X27085238Y30939901D01*
X27083515Y30868925D01*
X27043694Y30810148D01*
X27016765Y30793151D01*
X26988242Y30779851D01*
X26988239Y30779849D01*
X26983251Y30777523D01*
X26903239Y30721498D01*
X26800211Y30649357D01*
X26800208Y30649355D01*
X26795700Y30646198D01*
X26633802Y30484300D01*
X26630645Y30479792D01*
X26630643Y30479789D01*
X26604012Y30441756D01*
X26502477Y30296749D01*
X26500154Y30291767D01*
X26500151Y30291762D01*
X26408039Y30094225D01*
X26405716Y30089243D01*
X26346457Y29868087D01*
X26326502Y29640000D01*
X26346457Y29411913D01*
X26405716Y29190757D01*
X26408039Y29185776D01*
X26408039Y29185775D01*
X26500151Y28988238D01*
X26500154Y28988233D01*
X26502477Y28983251D01*
X26505634Y28978743D01*
X26618381Y28817724D01*
X26633802Y28795700D01*
X26795700Y28633802D01*
X26800208Y28630645D01*
X26800211Y28630643D01*
X26842152Y28601276D01*
X26983251Y28502477D01*
X26988233Y28500154D01*
X26988238Y28500151D01*
X27022457Y28484195D01*
X27075742Y28437278D01*
X27095203Y28369001D01*
X27074661Y28301041D01*
X27022457Y28255805D01*
X26988238Y28239849D01*
X26988233Y28239846D01*
X26983251Y28237523D01*
X26878389Y28164098D01*
X26800211Y28109357D01*
X26800208Y28109355D01*
X26795700Y28106198D01*
X26633802Y27944300D01*
X26502477Y27756749D01*
X26500154Y27751767D01*
X26500151Y27751762D01*
X26408039Y27554225D01*
X26405716Y27549243D01*
X26346457Y27328087D01*
X26326502Y27100000D01*
X26346457Y26871913D01*
X26405716Y26650757D01*
X26408039Y26645776D01*
X26408039Y26645775D01*
X26500151Y26448238D01*
X26500154Y26448233D01*
X26502477Y26443251D01*
X26633802Y26255700D01*
X26795700Y26093802D01*
X26800208Y26090645D01*
X26800211Y26090643D01*
X26846436Y26058276D01*
X26983251Y25962477D01*
X26988233Y25960154D01*
X26988238Y25960151D01*
X27022457Y25944195D01*
X27075742Y25897278D01*
X27095203Y25829001D01*
X27074661Y25761041D01*
X27022457Y25715805D01*
X26988238Y25699849D01*
X26988233Y25699846D01*
X26983251Y25697523D01*
X26878389Y25624098D01*
X26800211Y25569357D01*
X26800208Y25569355D01*
X26795700Y25566198D01*
X26703684Y25474182D01*
X26641376Y25440159D01*
X26570560Y25445223D01*
X26525497Y25474184D01*
X25941405Y26058276D01*
X25907379Y26120588D01*
X25904500Y26147371D01*
X25904500Y50859931D01*
X25905933Y50878882D01*
X25908099Y50893117D01*
X25908099Y50893119D01*
X25909199Y50900349D01*
X25904915Y50953018D01*
X25904500Y50963233D01*
X25904500Y50971293D01*
X25901211Y50999507D01*
X25900778Y51003882D01*
X25895454Y51069339D01*
X25895453Y51069342D01*
X25894860Y51076637D01*
X25892604Y51083601D01*
X25891413Y51089560D01*
X25890029Y51095415D01*
X25889182Y51102681D01*
X25864265Y51171327D01*
X25862848Y51175455D01*
X25842607Y51237936D01*
X25842606Y51237938D01*
X25840351Y51244899D01*
X25836555Y51251154D01*
X25834049Y51256628D01*
X25831330Y51262058D01*
X25828833Y51268937D01*
X25788809Y51329984D01*
X25786472Y51333688D01*
X25751509Y51391307D01*
X25751505Y51391312D01*
X25748595Y51396108D01*
X25741197Y51404484D01*
X25741223Y51404507D01*
X25738574Y51407497D01*
X25735866Y51410736D01*
X25731856Y51416852D01*
X25726549Y51421879D01*
X25726546Y51421883D01*
X25675617Y51470128D01*
X25673175Y51472506D01*
X20736770Y56408911D01*
X20724384Y56423323D01*
X20715851Y56434918D01*
X20715846Y56434923D01*
X20711508Y56440818D01*
X20705930Y56445557D01*
X20705927Y56445560D01*
X20671232Y56475035D01*
X20663716Y56481965D01*
X20658021Y56487660D01*
X20640481Y56501537D01*
X20635749Y56505281D01*
X20632345Y56508072D01*
X20582297Y56550591D01*
X20582295Y56550592D01*
X20576715Y56555333D01*
X20570199Y56558661D01*
X20565150Y56562028D01*
X20560021Y56565195D01*
X20554284Y56569734D01*
X20488125Y56600655D01*
X20484225Y56602561D01*
X20419192Y56635769D01*
X20412084Y56637508D01*
X20406441Y56639607D01*
X20400678Y56641524D01*
X20394050Y56644622D01*
X20322583Y56659487D01*
X20318299Y56660457D01*
X20307318Y56663144D01*
X20247390Y56677808D01*
X20241788Y56678156D01*
X20241785Y56678156D01*
X20236236Y56678500D01*
X20236238Y56678536D01*
X20232245Y56678775D01*
X20228053Y56679149D01*
X20220885Y56680640D01*
X20154675Y56678849D01*
X20143479Y56678546D01*
X20140072Y56678500D01*
X8195939Y56678500D01*
X8127818Y56698502D01*
X8090147Y56736059D01*
X8090094Y56736142D01*
X8080014Y56751723D01*
X7929670Y56916949D01*
X7925619Y56920148D01*
X7925615Y56920152D01*
X7854116Y56976618D01*
X7813053Y57034535D01*
X7809821Y57105458D01*
X7845446Y57166870D01*
X7908618Y57199272D01*
X7932208Y57201500D01*
X22500523Y57201500D01*
X22568644Y57181498D01*
X22589618Y57164595D01*
X26344595Y53409617D01*
X26378621Y53347305D01*
X26381500Y53320522D01*
X26381500Y40175457D01*
X26377207Y40142848D01*
X26346457Y40028087D01*
X26326502Y39800000D01*
X26346457Y39571913D01*
X26347881Y39566600D01*
X26347881Y39566598D01*
X26400263Y39371109D01*
X26405716Y39350757D01*
X26408039Y39345776D01*
X26408039Y39345775D01*
X26500151Y39148238D01*
X26500154Y39148233D01*
X26502477Y39143251D01*
X26633802Y38955700D01*
X26795700Y38793802D01*
X26800208Y38790645D01*
X26800211Y38790643D01*
X26841542Y38761703D01*
X26983251Y38662477D01*
X26988233Y38660154D01*
X26988238Y38660151D01*
X27023049Y38643919D01*
X27076334Y38597002D01*
X27095795Y38528725D01*
X27075253Y38460765D01*
X27023049Y38415529D01*
X26988489Y38399414D01*
X26978993Y38393931D01*
X26800533Y38268972D01*
X26792125Y38261916D01*
X26638084Y38107875D01*
X26631028Y38099467D01*
X26506069Y37921007D01*
X26500586Y37911511D01*
X26408510Y37714053D01*
X26404764Y37703761D01*
X26358606Y37531497D01*
X26358942Y37517401D01*
X26366884Y37514000D01*
X28907967Y37514000D01*
X28921498Y37517973D01*
X28922727Y37526522D01*
X28875236Y37703761D01*
X28871490Y37714053D01*
X28779414Y37911511D01*
X28773931Y37921007D01*
X28648972Y38099467D01*
X28641916Y38107875D01*
X28487875Y38261916D01*
X28479467Y38268972D01*
X28301007Y38393931D01*
X28291511Y38399414D01*
X28256951Y38415529D01*
X28203666Y38462446D01*
X28184205Y38530723D01*
X28204747Y38598683D01*
X28256951Y38643919D01*
X28291762Y38660151D01*
X28291767Y38660154D01*
X28296749Y38662477D01*
X28438458Y38761703D01*
X28479789Y38790643D01*
X28479792Y38790645D01*
X28484300Y38793802D01*
X28646198Y38955700D01*
X28777523Y39143251D01*
X28780790Y39150257D01*
X28782066Y39152079D01*
X28782597Y39152999D01*
X28782677Y39152953D01*
X28805889Y39186101D01*
X29124383Y39504595D01*
X29186695Y39538621D01*
X29213478Y39541500D01*
X30445874Y39541500D01*
X30513995Y39521498D01*
X30560488Y39467842D01*
X30563856Y39459730D01*
X30577556Y39423185D01*
X30594385Y39378295D01*
X30681739Y39261739D01*
X30798295Y39174385D01*
X30934684Y39123255D01*
X30996866Y39116500D01*
X33863134Y39116500D01*
X33925316Y39123255D01*
X34061705Y39174385D01*
X34178261Y39261739D01*
X34265615Y39378295D01*
X34316745Y39514684D01*
X34323500Y39576866D01*
X34323500Y39580331D01*
X35677001Y39580331D01*
X35677371Y39573510D01*
X35682895Y39522648D01*
X35686521Y39507396D01*
X35731676Y39386946D01*
X35740214Y39371351D01*
X35816715Y39269276D01*
X35829276Y39256715D01*
X35931351Y39180214D01*
X35946946Y39171676D01*
X36067394Y39126522D01*
X36082649Y39122895D01*
X36133514Y39117369D01*
X36140328Y39117000D01*
X37297885Y39117000D01*
X37313124Y39121475D01*
X37314329Y39122865D01*
X37316000Y39130548D01*
X37316000Y39135116D01*
X37824000Y39135116D01*
X37828475Y39119877D01*
X37829865Y39118672D01*
X37837548Y39117001D01*
X38999669Y39117001D01*
X39006490Y39117371D01*
X39057352Y39122895D01*
X39072604Y39126521D01*
X39193054Y39171676D01*
X39208649Y39180214D01*
X39310724Y39256715D01*
X39323285Y39269276D01*
X39399786Y39371351D01*
X39408324Y39386946D01*
X39453478Y39507394D01*
X39457105Y39522649D01*
X39462631Y39573514D01*
X39463000Y39580328D01*
X39463000Y40527885D01*
X39458525Y40543124D01*
X39457135Y40544329D01*
X39449452Y40546000D01*
X37842115Y40546000D01*
X37826876Y40541525D01*
X37825671Y40540135D01*
X37824000Y40532452D01*
X37824000Y39135116D01*
X37316000Y39135116D01*
X37316000Y40527885D01*
X37311525Y40543124D01*
X37310135Y40544329D01*
X37302452Y40546000D01*
X35695116Y40546000D01*
X35679877Y40541525D01*
X35678672Y40540135D01*
X35677001Y40532452D01*
X35677001Y39580331D01*
X34323500Y39580331D01*
X34323500Y41072115D01*
X35677000Y41072115D01*
X35681475Y41056876D01*
X35682865Y41055671D01*
X35690548Y41054000D01*
X37297885Y41054000D01*
X37313124Y41058475D01*
X37314329Y41059865D01*
X37316000Y41067548D01*
X37316000Y41072115D01*
X37824000Y41072115D01*
X37828475Y41056876D01*
X37829865Y41055671D01*
X37837548Y41054000D01*
X39444884Y41054000D01*
X39460123Y41058475D01*
X39461328Y41059865D01*
X39462999Y41067548D01*
X39462999Y42019669D01*
X39462629Y42026490D01*
X39457105Y42077352D01*
X39453479Y42092604D01*
X39408324Y42213054D01*
X39399786Y42228649D01*
X39323285Y42330724D01*
X39310724Y42343285D01*
X39208649Y42419786D01*
X39193054Y42428324D01*
X39072606Y42473478D01*
X39057351Y42477105D01*
X39006486Y42482631D01*
X38999672Y42483000D01*
X37842115Y42483000D01*
X37826876Y42478525D01*
X37825671Y42477135D01*
X37824000Y42469452D01*
X37824000Y41072115D01*
X37316000Y41072115D01*
X37316000Y42464884D01*
X37311525Y42480123D01*
X37310135Y42481328D01*
X37302452Y42482999D01*
X36140331Y42482999D01*
X36133510Y42482629D01*
X36082648Y42477105D01*
X36067396Y42473479D01*
X35946946Y42428324D01*
X35931351Y42419786D01*
X35829276Y42343285D01*
X35816715Y42330724D01*
X35740214Y42228649D01*
X35731676Y42213054D01*
X35686522Y42092606D01*
X35682895Y42077351D01*
X35677369Y42026486D01*
X35677000Y42019672D01*
X35677000Y41072115D01*
X34323500Y41072115D01*
X34323500Y42023134D01*
X34316745Y42085316D01*
X34265615Y42221705D01*
X34178261Y42338261D01*
X34061705Y42425615D01*
X33925316Y42476745D01*
X33863134Y42483500D01*
X30996866Y42483500D01*
X30934684Y42476745D01*
X30798295Y42425615D01*
X30681739Y42338261D01*
X30594385Y42221705D01*
X30591233Y42213297D01*
X30563856Y42140270D01*
X30521214Y42083506D01*
X30454652Y42058806D01*
X30445874Y42058500D01*
X29024500Y42058500D01*
X28956379Y42078502D01*
X28909886Y42132158D01*
X28898500Y42184500D01*
X28898500Y53802605D01*
X28899578Y53819052D01*
X28901746Y53835517D01*
X28901746Y53835521D01*
X28902479Y53841087D01*
X28898640Y53922489D01*
X28898500Y53928424D01*
X28898500Y53950999D01*
X28896181Y53976989D01*
X28895822Y53982251D01*
X28892160Y54059887D01*
X28891896Y54065488D01*
X28887892Y54082970D01*
X28885211Y54099900D01*
X28884116Y54112168D01*
X28883617Y54117762D01*
X28881745Y54124607D01*
X28861630Y54198133D01*
X28860344Y54203251D01*
X28842995Y54279000D01*
X28842994Y54279002D01*
X28841742Y54284470D01*
X28837263Y54294970D01*
X28834706Y54300967D01*
X28829073Y54317142D01*
X28825818Y54329039D01*
X28825817Y54329043D01*
X28824337Y54334451D01*
X28805661Y54373607D01*
X28788461Y54409667D01*
X28786290Y54414476D01*
X28755804Y54485949D01*
X28755804Y54485950D01*
X28753603Y54491109D01*
X28743749Y54506110D01*
X28735343Y54521030D01*
X28730035Y54532159D01*
X28727622Y54537218D01*
X28717840Y54550832D01*
X28700476Y54574996D01*
X28678994Y54604892D01*
X28676011Y54609232D01*
X28632804Y54675010D01*
X28632798Y54675018D01*
X28630265Y54678874D01*
X28611743Y54699662D01*
X28603506Y54709944D01*
X28602761Y54710982D01*
X28596529Y54719654D01*
X28519745Y54794063D01*
X28518335Y54795452D01*
X24028525Y59285263D01*
X24017657Y59297654D01*
X24007533Y59310848D01*
X24004123Y59315292D01*
X23943826Y59370158D01*
X23939531Y59374257D01*
X23923590Y59390198D01*
X23921440Y59391996D01*
X23903577Y59406932D01*
X23899602Y59410400D01*
X23842112Y59462712D01*
X23842103Y59462719D01*
X23837964Y59466485D01*
X23822773Y59476014D01*
X23808907Y59486089D01*
X23799451Y59493996D01*
X23799441Y59494003D01*
X23795146Y59497594D01*
X23722752Y59538887D01*
X23718232Y59541592D01*
X23708620Y59547622D01*
X23663692Y59575805D01*
X23652404Y59582886D01*
X23652401Y59582888D01*
X23647656Y59585864D01*
X23642451Y59587957D01*
X23642448Y59587958D01*
X23631021Y59592552D01*
X23615589Y59600012D01*
X23604881Y59606120D01*
X23604872Y59606124D01*
X23600007Y59608899D01*
X23594730Y59610768D01*
X23594725Y59610770D01*
X23521458Y59636715D01*
X23516522Y59638580D01*
X23444416Y59667566D01*
X23439217Y59669656D01*
X23433730Y59670792D01*
X23433728Y59670793D01*
X23421651Y59673294D01*
X23405156Y59677899D01*
X23388241Y59683889D01*
X23305990Y59697359D01*
X23300820Y59698317D01*
X23219233Y59715213D01*
X23214621Y59715479D01*
X23214620Y59715479D01*
X23191452Y59716815D01*
X23178347Y59718262D01*
X23172090Y59719286D01*
X23172086Y59719286D01*
X23166543Y59720194D01*
X23160930Y59720106D01*
X23160928Y59720106D01*
X23059736Y59718516D01*
X23057757Y59718500D01*
X8410047Y59718500D01*
X8341926Y59738502D01*
X8295433Y59792158D01*
X8285329Y59862432D01*
X8299526Y59905007D01*
X8303322Y59911941D01*
X8348478Y60032394D01*
X8352105Y60047649D01*
X8357631Y60098514D01*
X8358000Y60105328D01*
X8358000Y60727885D01*
X8353525Y60743124D01*
X8352135Y60744329D01*
X8344452Y60746000D01*
X5660116Y60746000D01*
X5644877Y60741525D01*
X5643672Y60740135D01*
X5642001Y60732452D01*
X5642001Y60105331D01*
X5642371Y60098510D01*
X5647895Y60047648D01*
X5651521Y60032396D01*
X5696676Y59911946D01*
X5706163Y59894618D01*
X5721332Y59825260D01*
X5696596Y59758712D01*
X5639808Y59716102D01*
X5623778Y59711289D01*
X5608940Y59707891D01*
X5592023Y59705212D01*
X5587537Y59704811D01*
X5574157Y59703617D01*
X5568749Y59702138D01*
X5568746Y59702137D01*
X5493789Y59681631D01*
X5488671Y59680345D01*
X5412919Y59662995D01*
X5412917Y59662994D01*
X5407449Y59661742D01*
X5396949Y59657263D01*
X5390952Y59654706D01*
X5374777Y59649073D01*
X5368725Y59647417D01*
X5357468Y59644337D01*
X5352413Y59641926D01*
X5352408Y59641924D01*
X5282236Y59608454D01*
X5277427Y59606283D01*
X5205972Y59575805D01*
X5205966Y59575802D01*
X5200811Y59573603D01*
X5185821Y59563756D01*
X5170893Y59555345D01*
X5154701Y59547622D01*
X5150148Y59544350D01*
X5150144Y59544348D01*
X5087022Y59498990D01*
X5082672Y59496001D01*
X5059196Y59480580D01*
X5013045Y59450265D01*
X4992257Y59431743D01*
X4981980Y59423510D01*
X4972265Y59416529D01*
X4897857Y59339746D01*
X4896468Y59338336D01*
X3111737Y57553606D01*
X3099347Y57542739D01*
X3081708Y57529204D01*
X3027188Y57469287D01*
X3026842Y57468907D01*
X3022743Y57464612D01*
X3006802Y57448671D01*
X3005007Y57446524D01*
X3005005Y57446522D01*
X2990068Y57428658D01*
X2986600Y57424683D01*
X2934288Y57367193D01*
X2934281Y57367184D01*
X2930515Y57363045D01*
X2927538Y57358299D01*
X2927537Y57358298D01*
X2920987Y57347856D01*
X2910911Y57333988D01*
X2903004Y57324532D01*
X2902997Y57324522D01*
X2899406Y57320227D01*
X2858118Y57247841D01*
X2855413Y57243322D01*
X2838991Y57217143D01*
X2816632Y57181498D01*
X2811136Y57172737D01*
X2809043Y57167532D01*
X2809042Y57167529D01*
X2804448Y57156102D01*
X2796988Y57140670D01*
X2790880Y57129962D01*
X2790876Y57129953D01*
X2788101Y57125088D01*
X2786232Y57119811D01*
X2786230Y57119806D01*
X2760285Y57046539D01*
X2758420Y57041603D01*
X2727344Y56964298D01*
X2726208Y56958811D01*
X2726207Y56958809D01*
X2723706Y56946732D01*
X2719101Y56930237D01*
X2713111Y56913322D01*
X2712204Y56907783D01*
X2699643Y56831080D01*
X2698683Y56825901D01*
X2681787Y56744314D01*
X2681521Y56739702D01*
X2681521Y56739701D01*
X2680185Y56716533D01*
X2678738Y56703428D01*
X2677932Y56698502D01*
X2676806Y56691624D01*
X2676894Y56686011D01*
X2676894Y56686009D01*
X2678484Y56584817D01*
X2678500Y56582838D01*
X2678500Y42255396D01*
X2677422Y42238949D01*
X2674521Y42216914D01*
X1270000Y42216914D01*
X1270000Y61272115D01*
X5642000Y61272115D01*
X5646475Y61256876D01*
X5647865Y61255671D01*
X5655548Y61254000D01*
X6727885Y61254000D01*
X6743124Y61258475D01*
X6744329Y61259865D01*
X6746000Y61267548D01*
X6746000Y61272115D01*
X7254000Y61272115D01*
X7258475Y61256876D01*
X7259865Y61255671D01*
X7267548Y61254000D01*
X8339884Y61254000D01*
X8355123Y61258475D01*
X8356328Y61259865D01*
X8357999Y61267548D01*
X8357999Y61894669D01*
X8357629Y61901490D01*
X8352105Y61952352D01*
X8348479Y61967604D01*
X8303324Y62088054D01*
X8294786Y62103649D01*
X8218285Y62205724D01*
X8205724Y62218285D01*
X8103649Y62294786D01*
X8088054Y62303324D01*
X7967606Y62348478D01*
X7952351Y62352105D01*
X7901486Y62357631D01*
X7894672Y62358000D01*
X7272115Y62358000D01*
X7256876Y62353525D01*
X7255671Y62352135D01*
X7254000Y62344452D01*
X7254000Y61272115D01*
X6746000Y61272115D01*
X6746000Y62339884D01*
X6741525Y62355123D01*
X6740135Y62356328D01*
X6732452Y62357999D01*
X6105331Y62357999D01*
X6098510Y62357629D01*
X6047648Y62352105D01*
X6032396Y62348479D01*
X5911946Y62303324D01*
X5896351Y62294786D01*
X5794276Y62218285D01*
X5781715Y62205724D01*
X5705214Y62103649D01*
X5696676Y62088054D01*
X5651522Y61967606D01*
X5647895Y61952351D01*
X5642369Y61901486D01*
X5642000Y61894672D01*
X5642000Y61272115D01*
X1270000Y61272115D01*
X1270000Y95011566D01*
X1686661Y95011566D01*
X1704792Y94653660D01*
X1705329Y94650305D01*
X1705330Y94650299D01*
X1730545Y94492879D01*
X1761470Y94299805D01*
X1856033Y93954141D01*
X1987374Y93620712D01*
X2153957Y93303418D01*
X2155858Y93300589D01*
X2155864Y93300579D01*
X2339569Y93027200D01*
X2353834Y93005971D01*
X2584665Y92731850D01*
X2843751Y92484262D01*
X3128061Y92266103D01*
X3160056Y92246650D01*
X3431355Y92081697D01*
X3431360Y92081694D01*
X3434270Y92079925D01*
X3437358Y92078479D01*
X3437357Y92078479D01*
X3755710Y91929351D01*
X3755720Y91929347D01*
X3758794Y91927907D01*
X3762012Y91926805D01*
X3762015Y91926804D01*
X4094615Y91812929D01*
X4094623Y91812927D01*
X4097838Y91811826D01*
X4447435Y91733041D01*
X4499728Y91727083D01*
X4800114Y91692858D01*
X4800122Y91692858D01*
X4803497Y91692473D01*
X4806901Y91692455D01*
X4806904Y91692455D01*
X4998532Y91691452D01*
X5161857Y91690597D01*
X5165243Y91690947D01*
X5165245Y91690947D01*
X5514932Y91727083D01*
X5514941Y91727084D01*
X5518324Y91727434D01*
X5521657Y91728148D01*
X5521660Y91728149D01*
X5830617Y91794384D01*
X5868727Y91802554D01*
X6208968Y91915078D01*
X6535066Y92063689D01*
X6629052Y92119494D01*
X6840262Y92244901D01*
X6840267Y92244904D01*
X6843207Y92246650D01*
X7129786Y92461820D01*
X7391451Y92706681D01*
X7625140Y92978370D01*
X7731750Y93133488D01*
X7826190Y93270899D01*
X7826195Y93270906D01*
X7828120Y93273708D01*
X7829732Y93276702D01*
X7829737Y93276710D01*
X7996395Y93586228D01*
X7998017Y93589240D01*
X8132842Y93921276D01*
X8143142Y93957432D01*
X8177375Y94077608D01*
X8231020Y94265930D01*
X8291401Y94619172D01*
X8293511Y94653660D01*
X8313168Y94975072D01*
X8313278Y94976869D01*
X8313359Y95000000D01*
X8312733Y95011566D01*
X61686661Y95011566D01*
X61704792Y94653660D01*
X61705329Y94650305D01*
X61705330Y94650299D01*
X61730545Y94492879D01*
X61761470Y94299805D01*
X61856033Y93954141D01*
X61987374Y93620712D01*
X62153957Y93303418D01*
X62155858Y93300589D01*
X62155864Y93300579D01*
X62339569Y93027200D01*
X62353834Y93005971D01*
X62584665Y92731850D01*
X62843751Y92484262D01*
X63128061Y92266103D01*
X63160056Y92246650D01*
X63431355Y92081697D01*
X63431360Y92081694D01*
X63434270Y92079925D01*
X63437358Y92078479D01*
X63437357Y92078479D01*
X63755710Y91929351D01*
X63755720Y91929347D01*
X63758794Y91927907D01*
X63762012Y91926805D01*
X63762015Y91926804D01*
X64094615Y91812929D01*
X64094623Y91812927D01*
X64097838Y91811826D01*
X64447435Y91733041D01*
X64499728Y91727083D01*
X64800114Y91692858D01*
X64800122Y91692858D01*
X64803497Y91692473D01*
X64806901Y91692455D01*
X64806904Y91692455D01*
X64998532Y91691452D01*
X65161857Y91690597D01*
X65165243Y91690947D01*
X65165245Y91690947D01*
X65514932Y91727083D01*
X65514941Y91727084D01*
X65518324Y91727434D01*
X65521657Y91728148D01*
X65521660Y91728149D01*
X65830617Y91794384D01*
X65868727Y91802554D01*
X66208968Y91915078D01*
X66535066Y92063689D01*
X66629052Y92119494D01*
X66840262Y92244901D01*
X66840267Y92244904D01*
X66843207Y92246650D01*
X67129786Y92461820D01*
X67391451Y92706681D01*
X67625140Y92978370D01*
X67731750Y93133488D01*
X67826190Y93270899D01*
X67826195Y93270906D01*
X67828120Y93273708D01*
X67829732Y93276702D01*
X67829737Y93276710D01*
X67996395Y93586228D01*
X67998017Y93589240D01*
X68132842Y93921276D01*
X68143142Y93957432D01*
X68177375Y94077608D01*
X68231020Y94265930D01*
X68291401Y94619172D01*
X68293511Y94653660D01*
X68313168Y94975072D01*
X68313278Y94976869D01*
X68313359Y95000000D01*
X68293979Y95357841D01*
X68236066Y95711495D01*
X68140297Y96056827D01*
X68137243Y96064503D01*
X68009052Y96386631D01*
X68007793Y96389795D01*
X67977768Y96446502D01*
X67841702Y96703487D01*
X67841698Y96703494D01*
X67840103Y96706506D01*
X67639190Y97003254D01*
X67407403Y97276568D01*
X67147454Y97523250D01*
X66862384Y97740415D01*
X66859472Y97742172D01*
X66859467Y97742175D01*
X66558443Y97923764D01*
X66558437Y97923767D01*
X66555528Y97925522D01*
X66230475Y98076407D01*
X65936328Y98175970D01*
X65894255Y98190211D01*
X65894250Y98190212D01*
X65891028Y98191303D01*
X65692681Y98235276D01*
X65544493Y98268129D01*
X65544487Y98268130D01*
X65541158Y98268868D01*
X65537769Y98269242D01*
X65537764Y98269243D01*
X65188338Y98307820D01*
X65188333Y98307820D01*
X65184957Y98308193D01*
X65181558Y98308199D01*
X65181557Y98308199D01*
X65012080Y98308495D01*
X64826592Y98308818D01*
X64713413Y98296723D01*
X64473639Y98271099D01*
X64473631Y98271098D01*
X64470256Y98270737D01*
X64120117Y98194394D01*
X63780271Y98080683D01*
X63777178Y98079261D01*
X63777177Y98079260D01*
X63770974Y98076407D01*
X63454694Y97930934D01*
X63451760Y97929178D01*
X63451758Y97929177D01*
X63381421Y97887081D01*
X63147193Y97746899D01*
X63144467Y97744837D01*
X63144465Y97744836D01*
X62915374Y97571575D01*
X62861367Y97530730D01*
X62858882Y97528388D01*
X62858877Y97528384D01*
X62855613Y97525308D01*
X62600559Y97284957D01*
X62367819Y97012454D01*
X62365900Y97009642D01*
X62365897Y97009637D01*
X62289873Y96898190D01*
X62165871Y96716409D01*
X61997077Y96400286D01*
X61863411Y96067782D01*
X61862491Y96064508D01*
X61862489Y96064503D01*
X61860332Y96056827D01*
X61766437Y95722787D01*
X61707290Y95369337D01*
X61686661Y95011566D01*
X8312733Y95011566D01*
X8293979Y95357841D01*
X8236066Y95711495D01*
X8140297Y96056827D01*
X8137243Y96064503D01*
X8009052Y96386631D01*
X8007793Y96389795D01*
X7977768Y96446502D01*
X7841702Y96703487D01*
X7841698Y96703494D01*
X7840103Y96706506D01*
X7639190Y97003254D01*
X7407403Y97276568D01*
X7147454Y97523250D01*
X6862384Y97740415D01*
X6859472Y97742172D01*
X6859467Y97742175D01*
X6558443Y97923764D01*
X6558437Y97923767D01*
X6555528Y97925522D01*
X6230475Y98076407D01*
X5936328Y98175970D01*
X5894255Y98190211D01*
X5894250Y98190212D01*
X5891028Y98191303D01*
X5692681Y98235276D01*
X5544493Y98268129D01*
X5544487Y98268130D01*
X5541158Y98268868D01*
X5537769Y98269242D01*
X5537764Y98269243D01*
X5188338Y98307820D01*
X5188333Y98307820D01*
X5184957Y98308193D01*
X5181558Y98308199D01*
X5181557Y98308199D01*
X5012080Y98308495D01*
X4826592Y98308818D01*
X4713413Y98296723D01*
X4473639Y98271099D01*
X4473631Y98271098D01*
X4470256Y98270737D01*
X4120117Y98194394D01*
X3780271Y98080683D01*
X3777178Y98079261D01*
X3777177Y98079260D01*
X3770974Y98076407D01*
X3454694Y97930934D01*
X3451760Y97929178D01*
X3451758Y97929177D01*
X3381421Y97887081D01*
X3147193Y97746899D01*
X3144467Y97744837D01*
X3144465Y97744836D01*
X2915374Y97571575D01*
X2861367Y97530730D01*
X2858882Y97528388D01*
X2858877Y97528384D01*
X2855613Y97525308D01*
X2600559Y97284957D01*
X2367819Y97012454D01*
X2365900Y97009642D01*
X2365897Y97009637D01*
X2289873Y96898190D01*
X2165871Y96716409D01*
X1997077Y96400286D01*
X1863411Y96067782D01*
X1862491Y96064508D01*
X1862489Y96064503D01*
X1860332Y96056827D01*
X1766437Y95722787D01*
X1707290Y95369337D01*
X1686661Y95011566D01*
X1270000Y95011566D01*
X1270000Y97459787D01*
X1289732Y97527485D01*
X1317825Y97571582D01*
X1324124Y97580578D01*
X1555962Y97882716D01*
X1563028Y97891137D01*
X1820314Y98171914D01*
X1828086Y98179686D01*
X2108863Y98436972D01*
X2117284Y98444038D01*
X2419422Y98675876D01*
X2428426Y98682180D01*
X2749613Y98886799D01*
X2759133Y98892295D01*
X3053943Y99045763D01*
X3112123Y99060000D01*
X66887877Y99060000D01*
X66946057Y99045763D01*
G37*
%TD.AperFunction*%
%TA.AperFunction,Conductor*%
G36*
X35901493Y78012498D02*
G01*
X35947986Y77958842D01*
X35958090Y77888568D01*
X35956492Y77879715D01*
X35956000Y77877453D01*
X35956000Y77691000D01*
X35955448Y77691000D01*
X35955447Y77640000D01*
X35917062Y77580275D01*
X35852481Y77550782D01*
X35834551Y77549500D01*
X35628628Y77549500D01*
X35560507Y77569502D01*
X35514014Y77623158D01*
X35503910Y77693432D01*
X35505508Y77702285D01*
X35506000Y77704547D01*
X35506000Y77891000D01*
X35506552Y77891000D01*
X35506553Y77942000D01*
X35544938Y78001725D01*
X35609519Y78031218D01*
X35627449Y78032500D01*
X35833372Y78032500D01*
X35901493Y78012498D01*
G37*
%TD.AperFunction*%
%TD*%
M02*
