%TF.GenerationSoftware,KiCad,Pcbnew,(6.0.4)*%
%TF.CreationDate,2023-07-24T13:42:21-04:00*%
%TF.ProjectId,BREAD_Slice,42524541-445f-4536-9c69-63652e6b6963,rev?*%
%TF.SameCoordinates,PX74eba40PY8552dc0*%
%TF.FileFunction,Copper,L1,Top*%
%TF.FilePolarity,Positive*%
%FSLAX46Y46*%
G04 Gerber Fmt 4.6, Leading zero omitted, Abs format (unit mm)*
G04 Created by KiCad (PCBNEW (6.0.4)) date 2023-07-24 13:42:21*
%MOMM*%
%LPD*%
G01*
G04 APERTURE LIST*
%TA.AperFunction,ComponentPad*%
%ADD10C,5.600000*%
%TD*%
%TA.AperFunction,ComponentPad*%
%ADD11R,1.600000X1.600000*%
%TD*%
%TA.AperFunction,ComponentPad*%
%ADD12O,1.600000X1.600000*%
%TD*%
%TA.AperFunction,ComponentPad*%
%ADD13R,1.700000X1.700000*%
%TD*%
%TA.AperFunction,ComponentPad*%
%ADD14O,1.700000X1.700000*%
%TD*%
%TA.AperFunction,ComponentPad*%
%ADD15R,1.500000X1.600000*%
%TD*%
%TA.AperFunction,ComponentPad*%
%ADD16C,1.600000*%
%TD*%
%TA.AperFunction,ComponentPad*%
%ADD17C,3.000000*%
%TD*%
%TA.AperFunction,ViaPad*%
%ADD18C,0.800000*%
%TD*%
%TA.AperFunction,Conductor*%
%ADD19C,0.250000*%
%TD*%
%TA.AperFunction,Conductor*%
%ADD20C,0.500000*%
%TD*%
G04 APERTURE END LIST*
D10*
%TO.P,H1,1*%
%TO.N,N/C*%
X5000000Y95000000D03*
%TD*%
%TO.P,H2,1*%
%TO.N,N/C*%
X65000000Y95000000D03*
%TD*%
%TO.P,H3,1*%
%TO.N,N/C*%
X5000000Y5000000D03*
%TD*%
%TO.P,H4,1*%
%TO.N,N/C*%
X65000000Y5000000D03*
%TD*%
D11*
%TO.P,A1,1,D1/TX*%
%TO.N,/TR*%
X12400000Y39800000D03*
D12*
%TO.P,A1,2,D0/RX*%
%TO.N,/RT*%
X12400000Y37260000D03*
%TO.P,A1,3,~{RESET}*%
%TO.N,unconnected-(A1-Pad3)*%
X12400000Y34720000D03*
%TO.P,A1,4,GND*%
%TO.N,GND*%
X12400000Y32180000D03*
%TO.P,A1,5,D2*%
%TO.N,/E_STOP*%
X12400000Y29640000D03*
%TO.P,A1,6,D3*%
%TO.N,/INT*%
X12400000Y27100000D03*
%TO.P,A1,7,D4*%
%TO.N,/SYNC*%
X12400000Y24560000D03*
%TO.P,A1,8,D5*%
%TO.N,unconnected-(A1-Pad8)*%
X12400000Y22020000D03*
%TO.P,A1,9,D6*%
%TO.N,unconnected-(A1-Pad9)*%
X12400000Y19480000D03*
%TO.P,A1,10,D7*%
%TO.N,/SEL*%
X12400000Y16940000D03*
%TO.P,A1,11,D8*%
%TO.N,/PWREN*%
X12400000Y14400000D03*
%TO.P,A1,12,D9*%
%TO.N,unconnected-(A1-Pad12)*%
X12400000Y11860000D03*
%TO.P,A1,13,D10*%
%TO.N,unconnected-(A1-Pad13)*%
X12400000Y9320000D03*
%TO.P,A1,14,D11*%
%TO.N,unconnected-(A1-Pad14)*%
X12400000Y6780000D03*
%TO.P,A1,15,D12*%
%TO.N,unconnected-(A1-Pad15)*%
X12400000Y4240000D03*
%TO.P,A1,16,D13*%
%TO.N,unconnected-(A1-Pad16)*%
X27640000Y4240000D03*
%TO.P,A1,17,3V3*%
%TO.N,unconnected-(A1-Pad17)*%
X27640000Y6780000D03*
%TO.P,A1,18,AREF*%
%TO.N,unconnected-(A1-Pad18)*%
X27640000Y9320000D03*
%TO.P,A1,19,A0*%
%TO.N,unconnected-(A1-Pad19)*%
X27640000Y11860000D03*
%TO.P,A1,20,A1*%
%TO.N,unconnected-(A1-Pad20)*%
X27640000Y14400000D03*
%TO.P,A1,21,A2*%
%TO.N,unconnected-(A1-Pad21)*%
X27640000Y16940000D03*
%TO.P,A1,22,A3*%
%TO.N,unconnected-(A1-Pad22)*%
X27640000Y19480000D03*
%TO.P,A1,23,A4*%
%TO.N,/I2C_DAT*%
X27640000Y22020000D03*
%TO.P,A1,24,A5*%
%TO.N,/I2C_CLK*%
X27640000Y24560000D03*
%TO.P,A1,25,A6*%
%TO.N,unconnected-(A1-Pad25)*%
X27640000Y27100000D03*
%TO.P,A1,26,A7*%
%TO.N,unconnected-(A1-Pad26)*%
X27640000Y29640000D03*
%TO.P,A1,27,+5V*%
%TO.N,+5V*%
X27640000Y32180000D03*
%TO.P,A1,28,~{RESET}*%
%TO.N,/RESET*%
X27640000Y34720000D03*
%TO.P,A1,29,GND*%
%TO.N,GND*%
X27640000Y37260000D03*
%TO.P,A1,30,VIN*%
%TO.N,+12V*%
X27640000Y39800000D03*
%TD*%
D13*
%TO.P,J1,1,Pin_1*%
%TO.N,GND*%
X7000000Y61000000D03*
D14*
%TO.P,J1,2,Pin_2*%
%TO.N,+12V*%
X7000000Y58460000D03*
%TO.P,J1,3,Pin_3*%
%TO.N,/I2C_CLK*%
X7000000Y55920000D03*
%TO.P,J1,4,Pin_4*%
%TO.N,/I2C_DAT*%
X7000000Y53380000D03*
%TO.P,J1,5,Pin_5*%
%TO.N,GND*%
X7000000Y50840000D03*
%TO.P,J1,6,Pin_6*%
%TO.N,/E_STOP*%
X7000000Y48300000D03*
%TO.P,J1,7,Pin_7*%
%TO.N,/INT*%
X7000000Y45760000D03*
%TO.P,J1,8,Pin_8*%
%TO.N,/SYNC*%
X7000000Y43220000D03*
%TO.P,J1,9,Pin_9*%
%TO.N,+12V*%
X7000000Y40680000D03*
%TO.P,J1,10,Pin_10*%
%TO.N,GND*%
X7000000Y38140000D03*
%TD*%
D15*
%TO.P,J3,1,VBUS*%
%TO.N,Net-(C3-Pad1)*%
X54356000Y37084000D03*
D16*
%TO.P,J3,2,D-*%
%TO.N,Net-(J3-Pad2)*%
X54356000Y39584000D03*
%TO.P,J3,3,D+*%
%TO.N,Net-(J3-Pad3)*%
X54356000Y41584000D03*
%TO.P,J3,4,GND*%
%TO.N,GND*%
X54356000Y44084000D03*
D17*
%TO.P,J3,5,Shield*%
X57066000Y34014000D03*
X57066000Y47154000D03*
%TD*%
D15*
%TO.P,J2,1,VBUS*%
%TO.N,Net-(C3-Pad1)*%
X54102000Y64262000D03*
D16*
%TO.P,J2,2,D-*%
%TO.N,Net-(J2-Pad2)*%
X54102000Y66762000D03*
%TO.P,J2,3,D+*%
%TO.N,Net-(J2-Pad3)*%
X54102000Y68762000D03*
%TO.P,J2,4,GND*%
%TO.N,GND*%
X54102000Y71262000D03*
D17*
%TO.P,J2,5,Shield*%
X56812000Y61192000D03*
X56812000Y74332000D03*
%TD*%
D18*
%TO.N,GND*%
X30480000Y80772000D03*
X34036000Y80772000D03*
X25146000Y80518000D03*
X19558000Y80391000D03*
%TO.N,+5V*%
X33894579Y81761952D03*
X31623000Y81661000D03*
X50673000Y53594000D03*
X39116000Y81407000D03*
%TO.N,/RT*%
X26543000Y78740000D03*
%TO.N,/TR*%
X26670000Y76073000D03*
%TO.N,/RESET*%
X25150000Y67200000D03*
%TO.N,/SEL*%
X54356000Y54102000D03*
%TO.N,/PWREN*%
X18542000Y72136000D03*
%TO.N,Net-(C3-Pad1)*%
X13970000Y86233000D03*
%TD*%
D19*
%TO.N,GND*%
X30480000Y80772000D02*
X34036000Y80772000D01*
X25019000Y80391000D02*
X25146000Y80518000D01*
X19558000Y80391000D02*
X25019000Y80391000D01*
%TO.N,+5V*%
X31623000Y81661000D02*
X33793627Y81661000D01*
X50673000Y74803000D02*
X44069000Y81407000D01*
X50673000Y53594000D02*
X50673000Y74803000D01*
X33793627Y81661000D02*
X33894579Y81761952D01*
X44069000Y81407000D02*
X39116000Y81407000D01*
%TO.N,/RT*%
X26543000Y78740000D02*
X16002000Y78740000D01*
X10700000Y73438000D02*
X10700000Y38960000D01*
X10700000Y38960000D02*
X12400000Y37260000D01*
X16002000Y78740000D02*
X10700000Y73438000D01*
%TO.N,/TR*%
X15747002Y76073000D02*
X26670000Y76073000D01*
X12400000Y72725998D02*
X15747002Y76073000D01*
X12400000Y39800000D02*
X12400000Y72725998D01*
%TO.N,/RESET*%
X25150000Y37210000D02*
X27640000Y34720000D01*
X25150000Y67200000D02*
X25150000Y37210000D01*
D20*
%TO.N,/SEL*%
X62992000Y47752000D02*
X62992000Y17526000D01*
X55499000Y51562000D02*
X59182000Y51562000D01*
X9144000Y3683000D02*
X9144000Y15875000D01*
X62992000Y17526000D02*
X46990000Y1524000D01*
X9144000Y15875000D02*
X10209000Y16940000D01*
X11303000Y1524000D02*
X9144000Y3683000D01*
X10209000Y16940000D02*
X12400000Y16940000D01*
X46990000Y1524000D02*
X11303000Y1524000D01*
X54356000Y54102000D02*
X54356000Y52705000D01*
X54356000Y52705000D02*
X55499000Y51562000D01*
X59182000Y51562000D02*
X62992000Y47752000D01*
D19*
%TO.N,/PWREN*%
X18542000Y20542000D02*
X18542000Y72136000D01*
X12400000Y14400000D02*
X18542000Y20542000D01*
D20*
%TO.N,Net-(C3-Pad1)*%
X37973000Y91694000D02*
X34798000Y94869000D01*
X34798000Y94869000D02*
X12954000Y94869000D01*
X52451000Y62611000D02*
X54102000Y64262000D01*
X11049000Y92964000D02*
X11049000Y89154000D01*
X47117000Y47244000D02*
X47117000Y70739000D01*
X47117000Y40005000D02*
X47117000Y47244000D01*
X47117000Y47244000D02*
X52451000Y52578000D01*
X12954000Y94869000D02*
X11049000Y92964000D01*
X37973000Y79883000D02*
X37973000Y91694000D01*
X47117000Y70739000D02*
X37973000Y79883000D01*
X11049000Y89154000D02*
X13970000Y86233000D01*
X50038000Y37084000D02*
X47117000Y40005000D01*
X54356000Y37084000D02*
X50038000Y37084000D01*
X52451000Y52578000D02*
X52451000Y62611000D01*
%TD*%
M02*
