M48
; DRILL file {KiCad (6.0.4)} date Mon Jul 24 13:42:24 2023
; FORMAT={-:-/ absolute / inch / decimal}
; #@! TF.CreationDate,2023-07-24T13:42:24-04:00
; #@! TF.GenerationSoftware,Kicad,Pcbnew,(6.0.4)
; #@! TF.FileFunction,Plated,1,2,PTH
FMAT,2
INCH
; #@! TA.AperFunction,Plated,PTH,ViaDrill
T1C0.0157
; #@! TA.AperFunction,Plated,PTH,ComponentDrill
T2C0.0374
; #@! TA.AperFunction,Plated,PTH,ComponentDrill
T3C0.0394
; #@! TA.AperFunction,Plated,PTH,ComponentDrill
T4C0.0906
; #@! TA.AperFunction,Plated,PTH,ComponentDrill
T5C0.1260
%
G90
G05
T1
X0.55Y3.395
X0.73Y2.84
X0.77Y3.165
X0.99Y3.17
X0.9902Y2.6457
X1.045Y3.1
X1.05Y2.995
X1.2Y3.18
X1.245Y3.215
X1.3344Y3.219
X1.34Y3.18
X1.54Y3.205
X1.995Y2.11
X2.14Y2.13
T2
X2.13Y2.8056
X2.13Y2.7072
X2.13Y2.6284
X2.13Y2.53
X2.14Y1.7356
X2.14Y1.6372
X2.14Y1.5584
X2.14Y1.46
T3
X0.2756Y2.4016
X0.2756Y2.3016
X0.2756Y2.2016
X0.2756Y2.1016
X0.2756Y2.0016
X0.2756Y1.9016
X0.2756Y1.8016
X0.2756Y1.7016
X0.2756Y1.6016
X0.2756Y1.5016
X0.4882Y1.5669
X0.4882Y1.4669
X0.4882Y1.3669
X0.4882Y1.2669
X0.4882Y1.1669
X0.4882Y1.0669
X0.4882Y0.9669
X0.4882Y0.8669
X0.4882Y0.7669
X0.4882Y0.6669
X0.4882Y0.5669
X0.4882Y0.4669
X0.4882Y0.3669
X0.4882Y0.2669
X0.4882Y0.1669
X1.0882Y1.5669
X1.0882Y1.4669
X1.0882Y1.3669
X1.0882Y1.2669
X1.0882Y1.1669
X1.0882Y1.0669
X1.0882Y0.9669
X1.0882Y0.8669
X1.0882Y0.7669
X1.0882Y0.6669
X1.0882Y0.5669
X1.0882Y0.4669
X1.0882Y0.3669
X1.0882Y0.2669
X1.0882Y0.1669
T4
X2.2367Y2.9265
X2.2367Y2.4091
X2.2467Y1.8565
X2.2467Y1.3391
T5
X0.1969Y3.7402
X0.1969Y0.1969
X2.5591Y3.7402
X2.5591Y0.1969
T0
M30
