M48
; DRILL file {KiCad 8.0.5} date 2024-09-30T01:17:58-0400
; FORMAT={-:-/ absolute / inch / decimal}
; #@! TF.CreationDate,2024-09-30T01:17:58-04:00
; #@! TF.GenerationSoftware,Kicad,Pcbnew,8.0.5
; #@! TF.FileFunction,Plated,1,2,PTH
FMAT,2
INCH
; #@! TA.AperFunction,Plated,PTH,ViaDrill
T1C0.0079
; #@! TA.AperFunction,Plated,PTH,ViaDrill
T2C0.0157
; #@! TA.AperFunction,Plated,PTH,ComponentDrill
T3C0.0374
; #@! TA.AperFunction,Plated,PTH,ComponentDrill
T4C0.0394
; #@! TA.AperFunction,Plated,PTH,ComponentDrill
T5C0.0906
%
G90
G05
T1
X0.2421Y0.6356
X0.2854Y0.7419
X0.2933Y0.86
X0.3209Y0.7419
X0.3366Y0.8285
X0.3366Y0.7695
X0.3839Y0.86
T2
X0.1398Y0.6533
X0.1476Y0.5254
X0.2894Y0.9289
X0.561Y0.862
X0.561Y0.7478
X0.561Y0.551
X0.9Y0.2874
X0.9449Y1.2677
X1.1575Y1.4213
X1.9764Y0.0827
T3
X2.1248Y2.6445
X2.1248Y2.5461
X2.1248Y2.4674
X2.1248Y2.3689
X2.1348Y1.5745
X2.1348Y1.4761
X2.1348Y1.3974
X2.1348Y1.2989
T4
X0.1417Y2.4193
X0.1417Y2.3193
X0.1417Y2.2193
X0.1417Y2.1193
X0.1417Y2.0193
X0.1417Y1.9193
X0.1417Y1.8193
X0.1417Y1.7193
X0.1417Y1.6193
X0.1417Y1.5193
X0.7869Y1.5669
X0.7869Y1.4669
X0.7869Y1.3669
X0.7869Y1.2669
X0.7869Y1.1669
X0.7869Y1.0669
X0.7869Y0.9669
X0.7869Y0.8669
X0.7869Y0.7669
X0.7869Y0.6669
X0.7869Y0.5669
X0.7869Y0.4669
X0.7869Y0.3669
X0.7869Y0.2669
X0.7869Y0.1669
X1.3869Y1.5669
X1.3869Y1.4669
X1.3869Y1.3669
X1.3869Y1.2669
X1.3869Y1.1669
X1.3869Y1.0669
X1.3869Y0.9669
X1.3869Y0.8669
X1.3869Y0.7669
X1.3869Y0.6669
X1.3869Y0.5669
X1.3869Y0.4669
X1.3869Y0.3669
X1.3869Y0.2669
X1.3869Y0.1669
T5
X2.2315Y2.7654
X2.2315Y2.2481
X2.2415Y1.6954
X2.2415Y1.1781
M30
