%TF.GenerationSoftware,KiCad,Pcbnew,8.0.5*%
%TF.CreationDate,2024-09-30T01:17:57-04:00*%
%TF.ProjectId,BREAD_Slice,42524541-445f-4536-9c69-63652e6b6963,rev?*%
%TF.SameCoordinates,PX74eba40PY8552dc0*%
%TF.FileFunction,Legend,Bot*%
%TF.FilePolarity,Positive*%
%FSLAX46Y46*%
G04 Gerber Fmt 4.6, Leading zero omitted, Abs format (unit mm)*
G04 Created by KiCad (PCBNEW 8.0.5) date 2024-09-30 01:17:57*
%MOMM*%
%LPD*%
G01*
G04 APERTURE LIST*
%ADD10C,0.120000*%
%ADD11C,0.150000*%
G04 APERTURE END LIST*
D10*
X2450000Y26913000D02*
X3770000Y26913000D01*
X4250000Y26913000D02*
X5570000Y26913000D01*
X6050000Y26913000D02*
X7370000Y26913000D01*
X7850000Y26913000D02*
X9170000Y26913000D01*
X9650000Y26913000D02*
X10970000Y26913000D01*
X11450000Y26913000D02*
X12770000Y26913000D01*
X13250000Y26913000D02*
X14570000Y26913000D01*
X15050000Y26913000D02*
X16150000Y26913000D01*
X16150000Y26913000D02*
X16150000Y25593000D01*
X16150000Y25113000D02*
X16150000Y23793000D01*
X16150000Y23313000D02*
X16150000Y21993000D01*
X16150000Y21513000D02*
X16150000Y20193000D01*
X16150000Y19713000D02*
X16150000Y18393000D01*
X16150000Y17913000D02*
X16150000Y16593000D01*
X16150000Y16113000D02*
X16150000Y14793000D01*
X16150000Y14313000D02*
X16150000Y12993000D01*
X16150000Y12513000D02*
X16150000Y11193000D01*
X16150000Y10713000D02*
X16150000Y10445000D01*
X16150000Y10445000D02*
X14830000Y10445000D01*
X14350000Y10445000D02*
X13030000Y10445000D01*
X12550000Y10445000D02*
X11230000Y10445000D01*
X10750000Y10445000D02*
X9430000Y10445000D01*
X8950000Y10445000D02*
X7630000Y10445000D01*
X7150000Y10445000D02*
X5830000Y10445000D01*
X5350000Y10445000D02*
X4030000Y10445000D01*
X3550000Y10445000D02*
X2450000Y10445000D01*
X2450000Y10445000D02*
X2450000Y11765000D01*
X2450000Y12245000D02*
X2450000Y13565000D01*
X2450000Y14045000D02*
X2450000Y15365000D01*
X2450000Y15845000D02*
X2450000Y17165000D01*
X2450000Y17645000D02*
X2450000Y18965000D01*
X2450000Y19445000D02*
X2450000Y20765000D01*
X2450000Y21245000D02*
X2450000Y22565000D01*
X2450000Y23045000D02*
X2450000Y24365000D01*
X2450000Y24845000D02*
X2450000Y26165000D01*
X2450000Y26645000D02*
X2450000Y26913000D01*
D11*
X13773809Y25375181D02*
X14345237Y25375181D01*
X14059523Y25375181D02*
X14059523Y26375181D01*
X14059523Y26375181D02*
X14154761Y26232324D01*
X14154761Y26232324D02*
X14249999Y26137086D01*
X14249999Y26137086D02*
X14345237Y26089467D01*
X13392856Y26279943D02*
X13345237Y26327562D01*
X13345237Y26327562D02*
X13249999Y26375181D01*
X13249999Y26375181D02*
X13011904Y26375181D01*
X13011904Y26375181D02*
X12916666Y26327562D01*
X12916666Y26327562D02*
X12869047Y26279943D01*
X12869047Y26279943D02*
X12821428Y26184705D01*
X12821428Y26184705D02*
X12821428Y26089467D01*
X12821428Y26089467D02*
X12869047Y25946610D01*
X12869047Y25946610D02*
X13440475Y25375181D01*
X13440475Y25375181D02*
X12821428Y25375181D01*
X12535713Y26375181D02*
X12202380Y25375181D01*
X12202380Y25375181D02*
X11869047Y26375181D01*
X11535713Y25756134D02*
X10773809Y25756134D01*
X10297618Y26041848D02*
X9535714Y25756134D01*
X9535714Y25756134D02*
X10297618Y25470420D01*
X8583333Y26375181D02*
X9059523Y26375181D01*
X9059523Y26375181D02*
X9107142Y25898991D01*
X9107142Y25898991D02*
X9059523Y25946610D01*
X9059523Y25946610D02*
X8964285Y25994229D01*
X8964285Y25994229D02*
X8726190Y25994229D01*
X8726190Y25994229D02*
X8630952Y25946610D01*
X8630952Y25946610D02*
X8583333Y25898991D01*
X8583333Y25898991D02*
X8535714Y25803753D01*
X8535714Y25803753D02*
X8535714Y25565658D01*
X8535714Y25565658D02*
X8583333Y25470420D01*
X8583333Y25470420D02*
X8630952Y25422800D01*
X8630952Y25422800D02*
X8726190Y25375181D01*
X8726190Y25375181D02*
X8964285Y25375181D01*
X8964285Y25375181D02*
X9059523Y25422800D01*
X9059523Y25422800D02*
X9107142Y25470420D01*
X8249999Y26375181D02*
X7916666Y25375181D01*
X7916666Y25375181D02*
X7583333Y26375181D01*
X5916666Y25375181D02*
X6249999Y25851372D01*
X6488094Y25375181D02*
X6488094Y26375181D01*
X6488094Y26375181D02*
X6107142Y26375181D01*
X6107142Y26375181D02*
X6011904Y26327562D01*
X6011904Y26327562D02*
X5964285Y26279943D01*
X5964285Y26279943D02*
X5916666Y26184705D01*
X5916666Y26184705D02*
X5916666Y26041848D01*
X5916666Y26041848D02*
X5964285Y25946610D01*
X5964285Y25946610D02*
X6011904Y25898991D01*
X6011904Y25898991D02*
X6107142Y25851372D01*
X6107142Y25851372D02*
X6488094Y25851372D01*
X5107142Y25422800D02*
X5202380Y25375181D01*
X5202380Y25375181D02*
X5392856Y25375181D01*
X5392856Y25375181D02*
X5488094Y25422800D01*
X5488094Y25422800D02*
X5535713Y25518039D01*
X5535713Y25518039D02*
X5535713Y25898991D01*
X5535713Y25898991D02*
X5488094Y25994229D01*
X5488094Y25994229D02*
X5392856Y26041848D01*
X5392856Y26041848D02*
X5202380Y26041848D01*
X5202380Y26041848D02*
X5107142Y25994229D01*
X5107142Y25994229D02*
X5059523Y25898991D01*
X5059523Y25898991D02*
X5059523Y25803753D01*
X5059523Y25803753D02*
X5535713Y25708515D01*
X4202380Y26041848D02*
X4202380Y25232324D01*
X4202380Y25232324D02*
X4249999Y25137086D01*
X4249999Y25137086D02*
X4297618Y25089467D01*
X4297618Y25089467D02*
X4392856Y25041848D01*
X4392856Y25041848D02*
X4535713Y25041848D01*
X4535713Y25041848D02*
X4630951Y25089467D01*
X4202380Y25422800D02*
X4297618Y25375181D01*
X4297618Y25375181D02*
X4488094Y25375181D01*
X4488094Y25375181D02*
X4583332Y25422800D01*
X4583332Y25422800D02*
X4630951Y25470420D01*
X4630951Y25470420D02*
X4678570Y25565658D01*
X4678570Y25565658D02*
X4678570Y25851372D01*
X4678570Y25851372D02*
X4630951Y25946610D01*
X4630951Y25946610D02*
X4583332Y25994229D01*
X4583332Y25994229D02*
X4488094Y26041848D01*
X4488094Y26041848D02*
X4297618Y26041848D01*
X4297618Y26041848D02*
X4202380Y25994229D01*
X29764666Y10740125D02*
X30240856Y10740125D01*
X30240856Y10740125D02*
X30288475Y10263935D01*
X30288475Y10263935D02*
X30240856Y10311554D01*
X30240856Y10311554D02*
X30145618Y10359173D01*
X30145618Y10359173D02*
X29907523Y10359173D01*
X29907523Y10359173D02*
X29812285Y10311554D01*
X29812285Y10311554D02*
X29764666Y10263935D01*
X29764666Y10263935D02*
X29717047Y10168697D01*
X29717047Y10168697D02*
X29717047Y9930602D01*
X29717047Y9930602D02*
X29764666Y9835364D01*
X29764666Y9835364D02*
X29812285Y9787744D01*
X29812285Y9787744D02*
X29907523Y9740125D01*
X29907523Y9740125D02*
X30145618Y9740125D01*
X30145618Y9740125D02*
X30240856Y9787744D01*
X30240856Y9787744D02*
X30288475Y9835364D01*
X29431332Y10740125D02*
X29097999Y9740125D01*
X29097999Y9740125D02*
X28764666Y10740125D01*
X27669427Y9740125D02*
X27669427Y10740125D01*
X27240856Y10644887D02*
X27193237Y10692506D01*
X27193237Y10692506D02*
X27097999Y10740125D01*
X27097999Y10740125D02*
X26859904Y10740125D01*
X26859904Y10740125D02*
X26764666Y10692506D01*
X26764666Y10692506D02*
X26717047Y10644887D01*
X26717047Y10644887D02*
X26669428Y10549649D01*
X26669428Y10549649D02*
X26669428Y10454411D01*
X26669428Y10454411D02*
X26717047Y10311554D01*
X26717047Y10311554D02*
X27288475Y9740125D01*
X27288475Y9740125D02*
X26669428Y9740125D01*
X25669428Y9835364D02*
X25717047Y9787744D01*
X25717047Y9787744D02*
X25859904Y9740125D01*
X25859904Y9740125D02*
X25955142Y9740125D01*
X25955142Y9740125D02*
X26097999Y9787744D01*
X26097999Y9787744D02*
X26193237Y9882983D01*
X26193237Y9882983D02*
X26240856Y9978221D01*
X26240856Y9978221D02*
X26288475Y10168697D01*
X26288475Y10168697D02*
X26288475Y10311554D01*
X26288475Y10311554D02*
X26240856Y10502030D01*
X26240856Y10502030D02*
X26193237Y10597268D01*
X26193237Y10597268D02*
X26097999Y10692506D01*
X26097999Y10692506D02*
X25955142Y10740125D01*
X25955142Y10740125D02*
X25859904Y10740125D01*
X25859904Y10740125D02*
X25717047Y10692506D01*
X25717047Y10692506D02*
X25669428Y10644887D01*
X30550381Y8225420D02*
X30598000Y8177800D01*
X30598000Y8177800D02*
X30740857Y8130181D01*
X30740857Y8130181D02*
X30836095Y8130181D01*
X30836095Y8130181D02*
X30978952Y8177800D01*
X30978952Y8177800D02*
X31074190Y8273039D01*
X31074190Y8273039D02*
X31121809Y8368277D01*
X31121809Y8368277D02*
X31169428Y8558753D01*
X31169428Y8558753D02*
X31169428Y8701610D01*
X31169428Y8701610D02*
X31121809Y8892086D01*
X31121809Y8892086D02*
X31074190Y8987324D01*
X31074190Y8987324D02*
X30978952Y9082562D01*
X30978952Y9082562D02*
X30836095Y9130181D01*
X30836095Y9130181D02*
X30740857Y9130181D01*
X30740857Y9130181D02*
X30598000Y9082562D01*
X30598000Y9082562D02*
X30550381Y9034943D01*
X29978952Y8130181D02*
X30074190Y8177800D01*
X30074190Y8177800D02*
X30121809Y8225420D01*
X30121809Y8225420D02*
X30169428Y8320658D01*
X30169428Y8320658D02*
X30169428Y8606372D01*
X30169428Y8606372D02*
X30121809Y8701610D01*
X30121809Y8701610D02*
X30074190Y8749229D01*
X30074190Y8749229D02*
X29978952Y8796848D01*
X29978952Y8796848D02*
X29836095Y8796848D01*
X29836095Y8796848D02*
X29740857Y8749229D01*
X29740857Y8749229D02*
X29693238Y8701610D01*
X29693238Y8701610D02*
X29645619Y8606372D01*
X29645619Y8606372D02*
X29645619Y8320658D01*
X29645619Y8320658D02*
X29693238Y8225420D01*
X29693238Y8225420D02*
X29740857Y8177800D01*
X29740857Y8177800D02*
X29836095Y8130181D01*
X29836095Y8130181D02*
X29978952Y8130181D01*
X29217047Y8796848D02*
X29217047Y8130181D01*
X29217047Y8701610D02*
X29169428Y8749229D01*
X29169428Y8749229D02*
X29074190Y8796848D01*
X29074190Y8796848D02*
X28931333Y8796848D01*
X28931333Y8796848D02*
X28836095Y8749229D01*
X28836095Y8749229D02*
X28788476Y8653991D01*
X28788476Y8653991D02*
X28788476Y8130181D01*
X28312285Y8796848D02*
X28312285Y8130181D01*
X28312285Y8701610D02*
X28264666Y8749229D01*
X28264666Y8749229D02*
X28169428Y8796848D01*
X28169428Y8796848D02*
X28026571Y8796848D01*
X28026571Y8796848D02*
X27931333Y8749229D01*
X27931333Y8749229D02*
X27883714Y8653991D01*
X27883714Y8653991D02*
X27883714Y8130181D01*
X27026571Y8177800D02*
X27121809Y8130181D01*
X27121809Y8130181D02*
X27312285Y8130181D01*
X27312285Y8130181D02*
X27407523Y8177800D01*
X27407523Y8177800D02*
X27455142Y8273039D01*
X27455142Y8273039D02*
X27455142Y8653991D01*
X27455142Y8653991D02*
X27407523Y8749229D01*
X27407523Y8749229D02*
X27312285Y8796848D01*
X27312285Y8796848D02*
X27121809Y8796848D01*
X27121809Y8796848D02*
X27026571Y8749229D01*
X27026571Y8749229D02*
X26978952Y8653991D01*
X26978952Y8653991D02*
X26978952Y8558753D01*
X26978952Y8558753D02*
X27455142Y8463515D01*
X26121809Y8177800D02*
X26217047Y8130181D01*
X26217047Y8130181D02*
X26407523Y8130181D01*
X26407523Y8130181D02*
X26502761Y8177800D01*
X26502761Y8177800D02*
X26550380Y8225420D01*
X26550380Y8225420D02*
X26597999Y8320658D01*
X26597999Y8320658D02*
X26597999Y8606372D01*
X26597999Y8606372D02*
X26550380Y8701610D01*
X26550380Y8701610D02*
X26502761Y8749229D01*
X26502761Y8749229D02*
X26407523Y8796848D01*
X26407523Y8796848D02*
X26217047Y8796848D01*
X26217047Y8796848D02*
X26121809Y8749229D01*
X25836094Y8796848D02*
X25455142Y8796848D01*
X25693237Y9130181D02*
X25693237Y8273039D01*
X25693237Y8273039D02*
X25645618Y8177800D01*
X25645618Y8177800D02*
X25550380Y8130181D01*
X25550380Y8130181D02*
X25455142Y8130181D01*
X24978951Y8130181D02*
X25074189Y8177800D01*
X25074189Y8177800D02*
X25121808Y8225420D01*
X25121808Y8225420D02*
X25169427Y8320658D01*
X25169427Y8320658D02*
X25169427Y8606372D01*
X25169427Y8606372D02*
X25121808Y8701610D01*
X25121808Y8701610D02*
X25074189Y8749229D01*
X25074189Y8749229D02*
X24978951Y8796848D01*
X24978951Y8796848D02*
X24836094Y8796848D01*
X24836094Y8796848D02*
X24740856Y8749229D01*
X24740856Y8749229D02*
X24693237Y8701610D01*
X24693237Y8701610D02*
X24645618Y8606372D01*
X24645618Y8606372D02*
X24645618Y8320658D01*
X24645618Y8320658D02*
X24693237Y8225420D01*
X24693237Y8225420D02*
X24740856Y8177800D01*
X24740856Y8177800D02*
X24836094Y8130181D01*
X24836094Y8130181D02*
X24978951Y8130181D01*
X24217046Y8130181D02*
X24217046Y8796848D01*
X24217046Y8606372D02*
X24169427Y8701610D01*
X24169427Y8701610D02*
X24121808Y8749229D01*
X24121808Y8749229D02*
X24026570Y8796848D01*
X24026570Y8796848D02*
X23931332Y8796848D01*
X64083333Y32018991D02*
X64416666Y32018991D01*
X64416666Y31495181D02*
X64416666Y32495181D01*
X64416666Y32495181D02*
X63940476Y32495181D01*
X63226190Y32018991D02*
X63083333Y31971372D01*
X63083333Y31971372D02*
X63035714Y31923753D01*
X63035714Y31923753D02*
X62988095Y31828515D01*
X62988095Y31828515D02*
X62988095Y31685658D01*
X62988095Y31685658D02*
X63035714Y31590420D01*
X63035714Y31590420D02*
X63083333Y31542800D01*
X63083333Y31542800D02*
X63178571Y31495181D01*
X63178571Y31495181D02*
X63559523Y31495181D01*
X63559523Y31495181D02*
X63559523Y32495181D01*
X63559523Y32495181D02*
X63226190Y32495181D01*
X63226190Y32495181D02*
X63130952Y32447562D01*
X63130952Y32447562D02*
X63083333Y32399943D01*
X63083333Y32399943D02*
X63035714Y32304705D01*
X63035714Y32304705D02*
X63035714Y32209467D01*
X63035714Y32209467D02*
X63083333Y32114229D01*
X63083333Y32114229D02*
X63130952Y32066610D01*
X63130952Y32066610D02*
X63226190Y32018991D01*
X63226190Y32018991D02*
X63559523Y32018991D01*
X62607142Y32399943D02*
X62559523Y32447562D01*
X62559523Y32447562D02*
X62464285Y32495181D01*
X62464285Y32495181D02*
X62226190Y32495181D01*
X62226190Y32495181D02*
X62130952Y32447562D01*
X62130952Y32447562D02*
X62083333Y32399943D01*
X62083333Y32399943D02*
X62035714Y32304705D01*
X62035714Y32304705D02*
X62035714Y32209467D01*
X62035714Y32209467D02*
X62083333Y32066610D01*
X62083333Y32066610D02*
X62654761Y31495181D01*
X62654761Y31495181D02*
X62035714Y31495181D01*
X61983333Y53168991D02*
X62316666Y53168991D01*
X62316666Y52645181D02*
X62316666Y53645181D01*
X62316666Y53645181D02*
X61840476Y53645181D01*
X61126190Y53168991D02*
X60983333Y53121372D01*
X60983333Y53121372D02*
X60935714Y53073753D01*
X60935714Y53073753D02*
X60888095Y52978515D01*
X60888095Y52978515D02*
X60888095Y52835658D01*
X60888095Y52835658D02*
X60935714Y52740420D01*
X60935714Y52740420D02*
X60983333Y52692800D01*
X60983333Y52692800D02*
X61078571Y52645181D01*
X61078571Y52645181D02*
X61459523Y52645181D01*
X61459523Y52645181D02*
X61459523Y53645181D01*
X61459523Y53645181D02*
X61126190Y53645181D01*
X61126190Y53645181D02*
X61030952Y53597562D01*
X61030952Y53597562D02*
X60983333Y53549943D01*
X60983333Y53549943D02*
X60935714Y53454705D01*
X60935714Y53454705D02*
X60935714Y53359467D01*
X60935714Y53359467D02*
X60983333Y53264229D01*
X60983333Y53264229D02*
X61030952Y53216610D01*
X61030952Y53216610D02*
X61126190Y53168991D01*
X61126190Y53168991D02*
X61459523Y53168991D01*
X59935714Y52645181D02*
X60507142Y52645181D01*
X60221428Y52645181D02*
X60221428Y53645181D01*
X60221428Y53645181D02*
X60316666Y53502324D01*
X60316666Y53502324D02*
X60411904Y53407086D01*
X60411904Y53407086D02*
X60507142Y53359467D01*
X27266666Y46565181D02*
X27599999Y47041372D01*
X27838094Y46565181D02*
X27838094Y47565181D01*
X27838094Y47565181D02*
X27457142Y47565181D01*
X27457142Y47565181D02*
X27361904Y47517562D01*
X27361904Y47517562D02*
X27314285Y47469943D01*
X27314285Y47469943D02*
X27266666Y47374705D01*
X27266666Y47374705D02*
X27266666Y47231848D01*
X27266666Y47231848D02*
X27314285Y47136610D01*
X27314285Y47136610D02*
X27361904Y47088991D01*
X27361904Y47088991D02*
X27457142Y47041372D01*
X27457142Y47041372D02*
X27838094Y47041372D01*
X26885713Y47469943D02*
X26838094Y47517562D01*
X26838094Y47517562D02*
X26742856Y47565181D01*
X26742856Y47565181D02*
X26504761Y47565181D01*
X26504761Y47565181D02*
X26409523Y47517562D01*
X26409523Y47517562D02*
X26361904Y47469943D01*
X26361904Y47469943D02*
X26314285Y47374705D01*
X26314285Y47374705D02*
X26314285Y47279467D01*
X26314285Y47279467D02*
X26361904Y47136610D01*
X26361904Y47136610D02*
X26933332Y46565181D01*
X26933332Y46565181D02*
X26314285Y46565181D01*
X27921333Y2245181D02*
X27921333Y1530896D01*
X27921333Y1530896D02*
X27968952Y1388039D01*
X27968952Y1388039D02*
X28064190Y1292800D01*
X28064190Y1292800D02*
X28207047Y1245181D01*
X28207047Y1245181D02*
X28302285Y1245181D01*
X26921333Y1245181D02*
X27492761Y1245181D01*
X27207047Y1245181D02*
X27207047Y2245181D01*
X27207047Y2245181D02*
X27302285Y2102324D01*
X27302285Y2102324D02*
X27397523Y2007086D01*
X27397523Y2007086D02*
X27492761Y1959467D01*
X6116666Y21835420D02*
X6164285Y21787800D01*
X6164285Y21787800D02*
X6307142Y21740181D01*
X6307142Y21740181D02*
X6402380Y21740181D01*
X6402380Y21740181D02*
X6545237Y21787800D01*
X6545237Y21787800D02*
X6640475Y21883039D01*
X6640475Y21883039D02*
X6688094Y21978277D01*
X6688094Y21978277D02*
X6735713Y22168753D01*
X6735713Y22168753D02*
X6735713Y22311610D01*
X6735713Y22311610D02*
X6688094Y22502086D01*
X6688094Y22502086D02*
X6640475Y22597324D01*
X6640475Y22597324D02*
X6545237Y22692562D01*
X6545237Y22692562D02*
X6402380Y22740181D01*
X6402380Y22740181D02*
X6307142Y22740181D01*
X6307142Y22740181D02*
X6164285Y22692562D01*
X6164285Y22692562D02*
X6116666Y22644943D01*
X5164285Y21740181D02*
X5735713Y21740181D01*
X5449999Y21740181D02*
X5449999Y22740181D01*
X5449999Y22740181D02*
X5545237Y22597324D01*
X5545237Y22597324D02*
X5640475Y22502086D01*
X5640475Y22502086D02*
X5735713Y22454467D01*
X27009580Y54666667D02*
X27057200Y54714286D01*
X27057200Y54714286D02*
X27104819Y54857143D01*
X27104819Y54857143D02*
X27104819Y54952381D01*
X27104819Y54952381D02*
X27057200Y55095238D01*
X27057200Y55095238D02*
X26961961Y55190476D01*
X26961961Y55190476D02*
X26866723Y55238095D01*
X26866723Y55238095D02*
X26676247Y55285714D01*
X26676247Y55285714D02*
X26533390Y55285714D01*
X26533390Y55285714D02*
X26342914Y55238095D01*
X26342914Y55238095D02*
X26247676Y55190476D01*
X26247676Y55190476D02*
X26152438Y55095238D01*
X26152438Y55095238D02*
X26104819Y54952381D01*
X26104819Y54952381D02*
X26104819Y54857143D01*
X26104819Y54857143D02*
X26152438Y54714286D01*
X26152438Y54714286D02*
X26200057Y54666667D01*
X26533390Y54095238D02*
X26485771Y54190476D01*
X26485771Y54190476D02*
X26438152Y54238095D01*
X26438152Y54238095D02*
X26342914Y54285714D01*
X26342914Y54285714D02*
X26295295Y54285714D01*
X26295295Y54285714D02*
X26200057Y54238095D01*
X26200057Y54238095D02*
X26152438Y54190476D01*
X26152438Y54190476D02*
X26104819Y54095238D01*
X26104819Y54095238D02*
X26104819Y53904762D01*
X26104819Y53904762D02*
X26152438Y53809524D01*
X26152438Y53809524D02*
X26200057Y53761905D01*
X26200057Y53761905D02*
X26295295Y53714286D01*
X26295295Y53714286D02*
X26342914Y53714286D01*
X26342914Y53714286D02*
X26438152Y53761905D01*
X26438152Y53761905D02*
X26485771Y53809524D01*
X26485771Y53809524D02*
X26533390Y53904762D01*
X26533390Y53904762D02*
X26533390Y54095238D01*
X26533390Y54095238D02*
X26581009Y54190476D01*
X26581009Y54190476D02*
X26628628Y54238095D01*
X26628628Y54238095D02*
X26723866Y54285714D01*
X26723866Y54285714D02*
X26914342Y54285714D01*
X26914342Y54285714D02*
X27009580Y54238095D01*
X27009580Y54238095D02*
X27057200Y54190476D01*
X27057200Y54190476D02*
X27104819Y54095238D01*
X27104819Y54095238D02*
X27104819Y53904762D01*
X27104819Y53904762D02*
X27057200Y53809524D01*
X27057200Y53809524D02*
X27009580Y53761905D01*
X27009580Y53761905D02*
X26914342Y53714286D01*
X26914342Y53714286D02*
X26723866Y53714286D01*
X26723866Y53714286D02*
X26628628Y53761905D01*
X26628628Y53761905D02*
X26581009Y53809524D01*
X26581009Y53809524D02*
X26533390Y53904762D01*
X6911904Y15190181D02*
X6911904Y14380658D01*
X6911904Y14380658D02*
X6864285Y14285420D01*
X6864285Y14285420D02*
X6816666Y14237800D01*
X6816666Y14237800D02*
X6721428Y14190181D01*
X6721428Y14190181D02*
X6530952Y14190181D01*
X6530952Y14190181D02*
X6435714Y14237800D01*
X6435714Y14237800D02*
X6388095Y14285420D01*
X6388095Y14285420D02*
X6340476Y14380658D01*
X6340476Y14380658D02*
X6340476Y15190181D01*
X5340476Y14190181D02*
X5911904Y14190181D01*
X5626190Y14190181D02*
X5626190Y15190181D01*
X5626190Y15190181D02*
X5721428Y15047324D01*
X5721428Y15047324D02*
X5816666Y14952086D01*
X5816666Y14952086D02*
X5911904Y14904467D01*
X61116666Y49890420D02*
X61164285Y49842800D01*
X61164285Y49842800D02*
X61307142Y49795181D01*
X61307142Y49795181D02*
X61402380Y49795181D01*
X61402380Y49795181D02*
X61545237Y49842800D01*
X61545237Y49842800D02*
X61640475Y49938039D01*
X61640475Y49938039D02*
X61688094Y50033277D01*
X61688094Y50033277D02*
X61735713Y50223753D01*
X61735713Y50223753D02*
X61735713Y50366610D01*
X61735713Y50366610D02*
X61688094Y50557086D01*
X61688094Y50557086D02*
X61640475Y50652324D01*
X61640475Y50652324D02*
X61545237Y50747562D01*
X61545237Y50747562D02*
X61402380Y50795181D01*
X61402380Y50795181D02*
X61307142Y50795181D01*
X61307142Y50795181D02*
X61164285Y50747562D01*
X61164285Y50747562D02*
X61116666Y50699943D01*
X60211904Y50795181D02*
X60688094Y50795181D01*
X60688094Y50795181D02*
X60735713Y50318991D01*
X60735713Y50318991D02*
X60688094Y50366610D01*
X60688094Y50366610D02*
X60592856Y50414229D01*
X60592856Y50414229D02*
X60354761Y50414229D01*
X60354761Y50414229D02*
X60259523Y50366610D01*
X60259523Y50366610D02*
X60211904Y50318991D01*
X60211904Y50318991D02*
X60164285Y50223753D01*
X60164285Y50223753D02*
X60164285Y49985658D01*
X60164285Y49985658D02*
X60211904Y49890420D01*
X60211904Y49890420D02*
X60259523Y49842800D01*
X60259523Y49842800D02*
X60354761Y49795181D01*
X60354761Y49795181D02*
X60592856Y49795181D01*
X60592856Y49795181D02*
X60688094Y49842800D01*
X60688094Y49842800D02*
X60735713Y49890420D01*
X41666666Y41790420D02*
X41714285Y41742800D01*
X41714285Y41742800D02*
X41857142Y41695181D01*
X41857142Y41695181D02*
X41952380Y41695181D01*
X41952380Y41695181D02*
X42095237Y41742800D01*
X42095237Y41742800D02*
X42190475Y41838039D01*
X42190475Y41838039D02*
X42238094Y41933277D01*
X42238094Y41933277D02*
X42285713Y42123753D01*
X42285713Y42123753D02*
X42285713Y42266610D01*
X42285713Y42266610D02*
X42238094Y42457086D01*
X42238094Y42457086D02*
X42190475Y42552324D01*
X42190475Y42552324D02*
X42095237Y42647562D01*
X42095237Y42647562D02*
X41952380Y42695181D01*
X41952380Y42695181D02*
X41857142Y42695181D01*
X41857142Y42695181D02*
X41714285Y42647562D01*
X41714285Y42647562D02*
X41666666Y42599943D01*
X41333332Y42695181D02*
X40666666Y42695181D01*
X40666666Y42695181D02*
X41095237Y41695181D01*
X29804819Y51661905D02*
X30614342Y51661905D01*
X30614342Y51661905D02*
X30709580Y51614286D01*
X30709580Y51614286D02*
X30757200Y51566667D01*
X30757200Y51566667D02*
X30804819Y51471429D01*
X30804819Y51471429D02*
X30804819Y51280953D01*
X30804819Y51280953D02*
X30757200Y51185715D01*
X30757200Y51185715D02*
X30709580Y51138096D01*
X30709580Y51138096D02*
X30614342Y51090477D01*
X30614342Y51090477D02*
X29804819Y51090477D01*
X29804819Y50709524D02*
X29804819Y50090477D01*
X29804819Y50090477D02*
X30185771Y50423810D01*
X30185771Y50423810D02*
X30185771Y50280953D01*
X30185771Y50280953D02*
X30233390Y50185715D01*
X30233390Y50185715D02*
X30281009Y50138096D01*
X30281009Y50138096D02*
X30376247Y50090477D01*
X30376247Y50090477D02*
X30614342Y50090477D01*
X30614342Y50090477D02*
X30709580Y50138096D01*
X30709580Y50138096D02*
X30757200Y50185715D01*
X30757200Y50185715D02*
X30804819Y50280953D01*
X30804819Y50280953D02*
X30804819Y50566667D01*
X30804819Y50566667D02*
X30757200Y50661905D01*
X30757200Y50661905D02*
X30709580Y50709524D01*
X33366666Y60365181D02*
X33699999Y60841372D01*
X33938094Y60365181D02*
X33938094Y61365181D01*
X33938094Y61365181D02*
X33557142Y61365181D01*
X33557142Y61365181D02*
X33461904Y61317562D01*
X33461904Y61317562D02*
X33414285Y61269943D01*
X33414285Y61269943D02*
X33366666Y61174705D01*
X33366666Y61174705D02*
X33366666Y61031848D01*
X33366666Y61031848D02*
X33414285Y60936610D01*
X33414285Y60936610D02*
X33461904Y60888991D01*
X33461904Y60888991D02*
X33557142Y60841372D01*
X33557142Y60841372D02*
X33938094Y60841372D01*
X32414285Y60365181D02*
X32985713Y60365181D01*
X32699999Y60365181D02*
X32699999Y61365181D01*
X32699999Y61365181D02*
X32795237Y61222324D01*
X32795237Y61222324D02*
X32890475Y61127086D01*
X32890475Y61127086D02*
X32985713Y61079467D01*
X8716666Y15035420D02*
X8764285Y14987800D01*
X8764285Y14987800D02*
X8907142Y14940181D01*
X8907142Y14940181D02*
X9002380Y14940181D01*
X9002380Y14940181D02*
X9145237Y14987800D01*
X9145237Y14987800D02*
X9240475Y15083039D01*
X9240475Y15083039D02*
X9288094Y15178277D01*
X9288094Y15178277D02*
X9335713Y15368753D01*
X9335713Y15368753D02*
X9335713Y15511610D01*
X9335713Y15511610D02*
X9288094Y15702086D01*
X9288094Y15702086D02*
X9240475Y15797324D01*
X9240475Y15797324D02*
X9145237Y15892562D01*
X9145237Y15892562D02*
X9002380Y15940181D01*
X9002380Y15940181D02*
X8907142Y15940181D01*
X8907142Y15940181D02*
X8764285Y15892562D01*
X8764285Y15892562D02*
X8716666Y15844943D01*
X8335713Y15844943D02*
X8288094Y15892562D01*
X8288094Y15892562D02*
X8192856Y15940181D01*
X8192856Y15940181D02*
X7954761Y15940181D01*
X7954761Y15940181D02*
X7859523Y15892562D01*
X7859523Y15892562D02*
X7811904Y15844943D01*
X7811904Y15844943D02*
X7764285Y15749705D01*
X7764285Y15749705D02*
X7764285Y15654467D01*
X7764285Y15654467D02*
X7811904Y15511610D01*
X7811904Y15511610D02*
X8383332Y14940181D01*
X8383332Y14940181D02*
X7764285Y14940181D01*
X11416666Y18135420D02*
X11464285Y18087800D01*
X11464285Y18087800D02*
X11607142Y18040181D01*
X11607142Y18040181D02*
X11702380Y18040181D01*
X11702380Y18040181D02*
X11845237Y18087800D01*
X11845237Y18087800D02*
X11940475Y18183039D01*
X11940475Y18183039D02*
X11988094Y18278277D01*
X11988094Y18278277D02*
X12035713Y18468753D01*
X12035713Y18468753D02*
X12035713Y18611610D01*
X12035713Y18611610D02*
X11988094Y18802086D01*
X11988094Y18802086D02*
X11940475Y18897324D01*
X11940475Y18897324D02*
X11845237Y18992562D01*
X11845237Y18992562D02*
X11702380Y19040181D01*
X11702380Y19040181D02*
X11607142Y19040181D01*
X11607142Y19040181D02*
X11464285Y18992562D01*
X11464285Y18992562D02*
X11416666Y18944943D01*
X11083332Y19040181D02*
X10464285Y19040181D01*
X10464285Y19040181D02*
X10797618Y18659229D01*
X10797618Y18659229D02*
X10654761Y18659229D01*
X10654761Y18659229D02*
X10559523Y18611610D01*
X10559523Y18611610D02*
X10511904Y18563991D01*
X10511904Y18563991D02*
X10464285Y18468753D01*
X10464285Y18468753D02*
X10464285Y18230658D01*
X10464285Y18230658D02*
X10511904Y18135420D01*
X10511904Y18135420D02*
X10559523Y18087800D01*
X10559523Y18087800D02*
X10654761Y18040181D01*
X10654761Y18040181D02*
X10940475Y18040181D01*
X10940475Y18040181D02*
X11035713Y18087800D01*
X11035713Y18087800D02*
X11083332Y18135420D01*
X46761904Y48895181D02*
X46761904Y48085658D01*
X46761904Y48085658D02*
X46714285Y47990420D01*
X46714285Y47990420D02*
X46666666Y47942800D01*
X46666666Y47942800D02*
X46571428Y47895181D01*
X46571428Y47895181D02*
X46380952Y47895181D01*
X46380952Y47895181D02*
X46285714Y47942800D01*
X46285714Y47942800D02*
X46238095Y47990420D01*
X46238095Y47990420D02*
X46190476Y48085658D01*
X46190476Y48085658D02*
X46190476Y48895181D01*
X45761904Y48799943D02*
X45714285Y48847562D01*
X45714285Y48847562D02*
X45619047Y48895181D01*
X45619047Y48895181D02*
X45380952Y48895181D01*
X45380952Y48895181D02*
X45285714Y48847562D01*
X45285714Y48847562D02*
X45238095Y48799943D01*
X45238095Y48799943D02*
X45190476Y48704705D01*
X45190476Y48704705D02*
X45190476Y48609467D01*
X45190476Y48609467D02*
X45238095Y48466610D01*
X45238095Y48466610D02*
X45809523Y47895181D01*
X45809523Y47895181D02*
X45190476Y47895181D01*
X11416666Y21135420D02*
X11464285Y21087800D01*
X11464285Y21087800D02*
X11607142Y21040181D01*
X11607142Y21040181D02*
X11702380Y21040181D01*
X11702380Y21040181D02*
X11845237Y21087800D01*
X11845237Y21087800D02*
X11940475Y21183039D01*
X11940475Y21183039D02*
X11988094Y21278277D01*
X11988094Y21278277D02*
X12035713Y21468753D01*
X12035713Y21468753D02*
X12035713Y21611610D01*
X12035713Y21611610D02*
X11988094Y21802086D01*
X11988094Y21802086D02*
X11940475Y21897324D01*
X11940475Y21897324D02*
X11845237Y21992562D01*
X11845237Y21992562D02*
X11702380Y22040181D01*
X11702380Y22040181D02*
X11607142Y22040181D01*
X11607142Y22040181D02*
X11464285Y21992562D01*
X11464285Y21992562D02*
X11416666Y21944943D01*
X10559523Y21706848D02*
X10559523Y21040181D01*
X10797618Y22087800D02*
X11035713Y21373515D01*
X11035713Y21373515D02*
X10416666Y21373515D01*
X59666666Y31640420D02*
X59714285Y31592800D01*
X59714285Y31592800D02*
X59857142Y31545181D01*
X59857142Y31545181D02*
X59952380Y31545181D01*
X59952380Y31545181D02*
X60095237Y31592800D01*
X60095237Y31592800D02*
X60190475Y31688039D01*
X60190475Y31688039D02*
X60238094Y31783277D01*
X60238094Y31783277D02*
X60285713Y31973753D01*
X60285713Y31973753D02*
X60285713Y32116610D01*
X60285713Y32116610D02*
X60238094Y32307086D01*
X60238094Y32307086D02*
X60190475Y32402324D01*
X60190475Y32402324D02*
X60095237Y32497562D01*
X60095237Y32497562D02*
X59952380Y32545181D01*
X59952380Y32545181D02*
X59857142Y32545181D01*
X59857142Y32545181D02*
X59714285Y32497562D01*
X59714285Y32497562D02*
X59666666Y32449943D01*
X58809523Y32545181D02*
X58999999Y32545181D01*
X58999999Y32545181D02*
X59095237Y32497562D01*
X59095237Y32497562D02*
X59142856Y32449943D01*
X59142856Y32449943D02*
X59238094Y32307086D01*
X59238094Y32307086D02*
X59285713Y32116610D01*
X59285713Y32116610D02*
X59285713Y31735658D01*
X59285713Y31735658D02*
X59238094Y31640420D01*
X59238094Y31640420D02*
X59190475Y31592800D01*
X59190475Y31592800D02*
X59095237Y31545181D01*
X59095237Y31545181D02*
X58904761Y31545181D01*
X58904761Y31545181D02*
X58809523Y31592800D01*
X58809523Y31592800D02*
X58761904Y31640420D01*
X58761904Y31640420D02*
X58714285Y31735658D01*
X58714285Y31735658D02*
X58714285Y31973753D01*
X58714285Y31973753D02*
X58761904Y32068991D01*
X58761904Y32068991D02*
X58809523Y32116610D01*
X58809523Y32116610D02*
X58904761Y32164229D01*
X58904761Y32164229D02*
X59095237Y32164229D01*
X59095237Y32164229D02*
X59190475Y32116610D01*
X59190475Y32116610D02*
X59238094Y32068991D01*
X59238094Y32068991D02*
X59285713Y31973753D01*
X11416666Y14310181D02*
X11892856Y14310181D01*
X11892856Y14310181D02*
X11892856Y15310181D01*
X10559523Y14310181D02*
X11130951Y14310181D01*
X10845237Y14310181D02*
X10845237Y15310181D01*
X10845237Y15310181D02*
X10940475Y15167324D01*
X10940475Y15167324D02*
X11035713Y15072086D01*
X11035713Y15072086D02*
X11130951Y15024467D01*
D10*
%TO.C,FB2*%
X62572936Y34810000D02*
X64027064Y34810000D01*
X62572936Y32990000D02*
X64027064Y32990000D01*
%TO.C,FB1*%
X56672936Y54010000D02*
X58127064Y54010000D01*
X56672936Y52190000D02*
X58127064Y52190000D01*
%TO.C,R2*%
X26372936Y46110000D02*
X27827064Y46110000D01*
X26372936Y44290000D02*
X27827064Y44290000D01*
%TO.C,J1*%
X24488000Y5185000D02*
X25538000Y5185000D01*
X24488000Y2685000D02*
X24488000Y5185000D01*
X29538000Y715000D02*
X25658000Y715000D01*
X29658000Y5185000D02*
X29658000Y6175000D01*
X30708000Y5185000D02*
X29658000Y5185000D01*
X30708000Y2685000D02*
X30708000Y5185000D01*
%TO.C,C1*%
X5238748Y21255000D02*
X6661252Y21255000D01*
X5238748Y19435000D02*
X6661252Y19435000D01*
%TO.C,C8*%
X27590000Y53788748D02*
X27590000Y55211252D01*
X29410000Y53788748D02*
X29410000Y55211252D01*
%TO.C,U1*%
X5350000Y18605000D02*
X6150000Y18605000D01*
X5350000Y15485000D02*
X6150000Y15485000D01*
X6950000Y18605000D02*
X6150000Y18605000D01*
X6950000Y15485000D02*
X6150000Y15485000D01*
X5090000Y15205000D02*
X4610000Y15205000D01*
X4850000Y15535000D01*
X5090000Y15205000D01*
G36*
X5090000Y15205000D02*
G01*
X4610000Y15205000D01*
X4850000Y15535000D01*
X5090000Y15205000D01*
G37*
%TO.C,C5*%
X58011252Y51210000D02*
X56588748Y51210000D01*
X58011252Y49390000D02*
X56588748Y49390000D01*
%TO.C,C7*%
X40788748Y44910000D02*
X42211252Y44910000D01*
X40788748Y43090000D02*
X42211252Y43090000D01*
D11*
%TO.C,U3*%
X31275000Y48025000D02*
X31275000Y53775000D01*
X31850000Y53775000D02*
X31275000Y53775000D01*
X31850000Y48025000D02*
X31275000Y48025000D01*
X41925000Y53775000D02*
X41350000Y53775000D01*
X41925000Y48025000D02*
X41350000Y48025000D01*
X41925000Y48025000D02*
X41925000Y53775000D01*
D10*
X31850000Y54275000D02*
X31520000Y54035000D01*
X31520000Y54515000D01*
X31850000Y54275000D01*
G36*
X31850000Y54275000D02*
G01*
X31520000Y54035000D01*
X31520000Y54515000D01*
X31850000Y54275000D01*
G37*
%TO.C,R1*%
X32472936Y59910000D02*
X33927064Y59910000D01*
X32472936Y58090000D02*
X33927064Y58090000D01*
%TO.C,C2*%
X7838748Y14455000D02*
X9261252Y14455000D01*
X7838748Y12635000D02*
X9261252Y12635000D01*
%TO.C,C3*%
X11961252Y21255000D02*
X10538748Y21255000D01*
X11961252Y19435000D02*
X10538748Y19435000D01*
%TO.C,U2*%
X44500000Y52410000D02*
X46000000Y52410000D01*
X44500000Y49190000D02*
X46000000Y49190000D01*
X47500000Y52410000D02*
X46000000Y52410000D01*
X47500000Y49190000D02*
X46000000Y49190000D01*
X44027500Y49035000D02*
X43547500Y49035000D01*
X43787500Y49365000D01*
X44027500Y49035000D01*
G36*
X44027500Y49035000D02*
G01*
X43547500Y49035000D01*
X43787500Y49365000D01*
X44027500Y49035000D01*
G37*
%TO.C,C4*%
X11961252Y24255000D02*
X10538748Y24255000D01*
X11961252Y22435000D02*
X10538748Y22435000D01*
%TO.C,C6*%
X58590000Y36011252D02*
X58590000Y34588748D01*
X60410000Y36011252D02*
X60410000Y34588748D01*
%TO.C,L1*%
X11852064Y18405000D02*
X10647936Y18405000D01*
X11852064Y15685000D02*
X10647936Y15685000D01*
%TD*%
M02*
