%TF.GenerationSoftware,KiCad,Pcbnew,8.0.5*%
%TF.CreationDate,2024-09-30T01:17:57-04:00*%
%TF.ProjectId,BREAD_Slice,42524541-445f-4536-9c69-63652e6b6963,rev?*%
%TF.SameCoordinates,PX74eba40PY8552dc0*%
%TF.FileFunction,Soldermask,Bot*%
%TF.FilePolarity,Negative*%
%FSLAX46Y46*%
G04 Gerber Fmt 4.6, Leading zero omitted, Abs format (unit mm)*
G04 Created by KiCad (PCBNEW 8.0.5) date 2024-09-30 01:17:57*
%MOMM*%
%LPD*%
G01*
G04 APERTURE LIST*
G04 Aperture macros list*
%AMRoundRect*
0 Rectangle with rounded corners*
0 $1 Rounding radius*
0 $2 $3 $4 $5 $6 $7 $8 $9 X,Y pos of 4 corners*
0 Add a 4 corners polygon primitive as box body*
4,1,4,$2,$3,$4,$5,$6,$7,$8,$9,$2,$3,0*
0 Add four circle primitives for the rounded corners*
1,1,$1+$1,$2,$3*
1,1,$1+$1,$4,$5*
1,1,$1+$1,$6,$7*
1,1,$1+$1,$8,$9*
0 Add four rect primitives between the rounded corners*
20,1,$1+$1,$2,$3,$4,$5,0*
20,1,$1+$1,$4,$5,$6,$7,0*
20,1,$1+$1,$6,$7,$8,$9,0*
20,1,$1+$1,$8,$9,$2,$3,0*%
G04 Aperture macros list end*
%ADD10C,5.100000*%
%ADD11RoundRect,0.050000X-0.800000X-0.800000X0.800000X-0.800000X0.800000X0.800000X-0.800000X0.800000X0*%
%ADD12O,1.700000X1.700000*%
%ADD13RoundRect,0.050000X-0.850000X-0.850000X0.850000X-0.850000X0.850000X0.850000X-0.850000X0.850000X0*%
%ADD14O,1.800000X1.800000*%
%ADD15RoundRect,0.050000X0.750000X-0.800000X0.750000X0.800000X-0.750000X0.800000X-0.750000X-0.800000X0*%
%ADD16C,1.700000*%
%ADD17C,3.100000*%
%ADD18RoundRect,0.269231X0.430769X0.655769X-0.430769X0.655769X-0.430769X-0.655769X0.430769X-0.655769X0*%
%ADD19RoundRect,0.175000X0.175000X0.650000X-0.175000X0.650000X-0.175000X-0.650000X0.175000X-0.650000X0*%
%ADD20RoundRect,0.270833X0.379167X0.679167X-0.379167X0.679167X-0.379167X-0.679167X0.379167X-0.679167X0*%
%ADD21RoundRect,0.268868X0.443632X0.681132X-0.443632X0.681132X-0.443632X-0.681132X0.443632X-0.681132X0*%
%ADD22RoundRect,0.268868X-0.681132X0.443632X-0.681132X-0.443632X0.681132X-0.443632X0.681132X0.443632X0*%
%ADD23RoundRect,0.175000X-0.537500X-0.175000X0.537500X-0.175000X0.537500X0.175000X-0.537500X0.175000X0*%
%ADD24RoundRect,0.268868X-0.443632X-0.681132X0.443632X-0.681132X0.443632X0.681132X-0.443632X0.681132X0*%
%ADD25RoundRect,0.050000X-0.225000X0.875000X-0.225000X-0.875000X0.225000X-0.875000X0.225000X0.875000X0*%
%ADD26RoundRect,0.112500X-0.750000X-0.112500X0.750000X-0.112500X0.750000X0.112500X-0.750000X0.112500X0*%
%ADD27RoundRect,0.268868X0.681132X-0.443632X0.681132X0.443632X-0.681132X0.443632X-0.681132X-0.443632X0*%
%ADD28RoundRect,0.270000X-0.405000X-1.105000X0.405000X-1.105000X0.405000X1.105000X-0.405000X1.105000X0*%
G04 APERTURE END LIST*
D10*
%TO.C,H1*%
X5000000Y95000000D03*
%TD*%
%TO.C,H3*%
X65000000Y95000000D03*
%TD*%
%TO.C,H2*%
X5000000Y5000000D03*
%TD*%
%TO.C,H4*%
X65000000Y5000000D03*
%TD*%
D11*
%TO.C,A1*%
X19988000Y39800000D03*
D12*
X19988000Y37260000D03*
X19988000Y34720000D03*
X19988000Y32180000D03*
X19988000Y29640000D03*
X19988000Y27100000D03*
X19988000Y24560000D03*
X19988000Y22020000D03*
X19988000Y19480000D03*
X19988000Y16940000D03*
X19988000Y14400000D03*
X19988000Y11860000D03*
X19988000Y9320000D03*
X19988000Y6780000D03*
X19988000Y4240000D03*
X35228000Y4240000D03*
X35228000Y6780000D03*
X35228000Y9320000D03*
X35228000Y11860000D03*
X35228000Y14400000D03*
X35228000Y16940000D03*
X35228000Y19480000D03*
X35228000Y22020000D03*
X35228000Y24560000D03*
X35228000Y27100000D03*
X35228000Y29640000D03*
X35228000Y32180000D03*
X35228000Y34720000D03*
X35228000Y37260000D03*
X35228000Y39800000D03*
%TD*%
D13*
%TO.C,J2*%
X3600000Y61450000D03*
D14*
X3600000Y58910000D03*
X3600000Y56370000D03*
X3600000Y53830000D03*
X3600000Y51290000D03*
X3600000Y48750000D03*
X3600000Y46210000D03*
X3600000Y43670000D03*
X3600000Y41130000D03*
X3600000Y38590000D03*
%TD*%
D15*
%TO.C,J3*%
X53971000Y60171000D03*
D16*
X53971000Y62671000D03*
X53971000Y64671000D03*
X53971000Y67171000D03*
D17*
X56681000Y57101000D03*
X56681000Y70241000D03*
%TD*%
D15*
%TO.C,J4*%
X54225000Y32993000D03*
D16*
X54225000Y35493000D03*
X54225000Y37493000D03*
X54225000Y39993000D03*
D17*
X56935000Y29923000D03*
X56935000Y43063000D03*
%TD*%
D18*
%TO.C,FB2*%
X64850000Y33900000D03*
X61750000Y33900000D03*
%TD*%
%TO.C,FB1*%
X58950000Y53100000D03*
X55850000Y53100000D03*
%TD*%
%TO.C,R2*%
X28650000Y45200000D03*
X25550000Y45200000D03*
%TD*%
D19*
%TO.C,J1*%
X29098000Y5400000D03*
X28098000Y5400000D03*
X27098000Y5400000D03*
X26098000Y5400000D03*
D20*
X30398000Y1525000D03*
X24798000Y1525000D03*
%TD*%
D21*
%TO.C,C1*%
X7512500Y20345000D03*
X4387500Y20345000D03*
%TD*%
D22*
%TO.C,C8*%
X28500000Y56062500D03*
X28500000Y52937500D03*
%TD*%
D23*
%TO.C,U1*%
X5012500Y16095000D03*
X5012500Y17045000D03*
X5012500Y17995000D03*
X7287500Y17995000D03*
X7287500Y17045000D03*
X7287500Y16095000D03*
%TD*%
D24*
%TO.C,C5*%
X55737500Y50300000D03*
X58862500Y50300000D03*
%TD*%
D21*
%TO.C,C7*%
X43062500Y44000000D03*
X39937500Y44000000D03*
%TD*%
D25*
%TO.C,U3*%
X32375000Y54500000D03*
X33025000Y54500000D03*
X33675000Y54500000D03*
X34325000Y54500000D03*
X34975000Y54500000D03*
X35625000Y54500000D03*
X36275000Y54500000D03*
X36925000Y54500000D03*
X37575000Y54500000D03*
X38225000Y54500000D03*
X38875000Y54500000D03*
X39525000Y54500000D03*
X40175000Y54500000D03*
X40825000Y54500000D03*
X40825000Y47300000D03*
X40175000Y47300000D03*
X39525000Y47300000D03*
X38875000Y47300000D03*
X38225000Y47300000D03*
X37575000Y47300000D03*
X36925000Y47300000D03*
X36275000Y47300000D03*
X35625000Y47300000D03*
X34975000Y47300000D03*
X34325000Y47300000D03*
X33675000Y47300000D03*
X33025000Y47300000D03*
X32375000Y47300000D03*
%TD*%
D18*
%TO.C,R1*%
X34750000Y59000000D03*
X31650000Y59000000D03*
%TD*%
D21*
%TO.C,C2*%
X10112500Y13545000D03*
X6987500Y13545000D03*
%TD*%
D24*
%TO.C,C3*%
X9687500Y20345000D03*
X12812500Y20345000D03*
%TD*%
D26*
%TO.C,U2*%
X43887500Y49800000D03*
X43887500Y50300000D03*
X43887500Y50800000D03*
X43887500Y51300000D03*
X43887500Y51800000D03*
X48112500Y51800000D03*
X48112500Y51300000D03*
X48112500Y50800000D03*
X48112500Y50300000D03*
X48112500Y49800000D03*
%TD*%
D24*
%TO.C,C4*%
X9687500Y23345000D03*
X12812500Y23345000D03*
%TD*%
D27*
%TO.C,C6*%
X59500000Y33737500D03*
X59500000Y36862500D03*
%TD*%
D28*
%TO.C,L1*%
X9850000Y17045000D03*
X12650000Y17045000D03*
%TD*%
M02*
